<?xml version="1.0" encoding="UTF-8"?>
<svg version="1.1" xmlns="http://www.w3.org/2000/svg" width="966" height="300">
<path d="M0 0 C318.78 0 637.56 0 966 0 C966 99 966 198 966 300 C647.22 300 328.44 300 0 300 C0 201 0 102 0 0 Z " fill="#FEFEFE" transform="translate(0,0)"/>
<path d="M0 0 C17.82 0 35.64 0 54 0 C60.4375 25.375 60.4375 25.375 62.46655273 33.38818359 C62.9970504 35.47498134 63.52771893 37.56173567 64.05859375 39.6484375 C64.33417114 40.73938721 64.60974854 41.83033691 64.89367676 42.9543457 C65.15749146 43.98954346 65.42130615 45.02474121 65.69311523 46.09130859 C65.92183823 46.99287689 66.15056122 47.89444519 66.38621521 48.82333374 C66.93257886 51.02155818 66.93257886 51.02155818 68 53 C70.83660177 43.15117772 73.6069034 33.28435611 76.36157227 23.41235352 C78.54411797 15.59907612 80.77123805 7.80066682 83 0 C96.2 0 109.4 0 123 0 C125.5 8.75 125.5 8.75 126.35595703 11.75683594 C127.9428874 17.32854745 129.55129287 22.89338186 131.1796875 28.453125 C131.72592773 30.33112793 131.72592773 30.33112793 132.28320312 32.24707031 C133.00318281 34.72191998 133.72832972 37.19527307 134.45898438 39.66699219 C134.78962891 40.80813477 135.12027344 41.94927734 135.4609375 43.125 C135.75790527 44.13820312 136.05487305 45.15140625 136.36083984 46.1953125 C136.97842469 48.90532574 137.12480422 51.23276737 137 54 C137.66 54 138.32 54 139 54 C139.17789063 52.55753906 139.17789063 52.55753906 139.359375 51.0859375 C140.01460516 46.51994554 141.11508274 42.09213509 142.25 37.625 C142.46889893 36.75447998 142.68779785 35.88395996 142.91333008 34.98706055 C144.56363947 28.50887494 146.39362795 22.09672006 148.32617188 15.69775391 C149.44097128 11.98683403 150.4442205 8.29014801 151.25 4.5 C152 1 152 1 153 0 C154.38160115 -0.0927833 155.76788038 -0.11747043 157.15258789 -0.11352539 C158.03342545 -0.11344986 158.914263 -0.11337433 159.8217926 -0.11329651 C160.77907761 -0.10813522 161.73636261 -0.10297394 162.72265625 -0.09765625 C164.18547279 -0.09553383 164.18547279 -0.09553383 165.67784119 -0.09336853 C168.80609143 -0.08775133 171.93427123 -0.07519593 175.0625 -0.0625 C177.17773334 -0.05748722 179.29296781 -0.05292393 181.40820312 -0.04882812 C186.60549296 -0.03777631 191.80274145 -0.02102146 197 0 C196.50137795 3.84022902 196.00398359 7.5011381 194.73046875 11.1640625 C194.48353271 11.88682373 194.23659668 12.60958496 193.98217773 13.35424805 C193.58881226 14.47827026 193.58881226 14.47827026 193.1875 15.625 C192.63942494 17.22745464 192.09255559 18.83032215 191.546875 20.43359375 C191.28068359 21.21331543 191.01449219 21.99303711 190.74023438 22.79638672 C189.75018731 25.74367062 188.83729228 28.71154766 187.9375 31.6875 C186.53371751 36.31823477 185.04387377 40.91438624 183.5 45.5 C181.63274927 51.05189328 179.86670769 56.62717637 178.16015625 62.23046875 C176.65505416 67.12078363 175.11198292 71.99858894 173.5625 76.875 C173.11100586 78.29619141 173.11100586 78.29619141 172.65039062 79.74609375 C170.48894704 86.52453023 168.25236768 93.27372209 165.9453125 100.00390625 C164.84697907 103.29700713 164.84697907 103.29700713 164 108 C149.15 108 134.3 108 119 108 C112.15440538 87.46321615 112.15440538 87.46321615 110.375 80.6875 C108.63681204 74.23613491 106.75390284 67.86286926 104.69921875 61.50390625 C104 59 104 59 104 56 C103.34 56 102.68 56 102 56 C101.88785156 56.96035156 101.77570313 57.92070312 101.66015625 58.91015625 C100.99371094 63.53818426 99.73960764 67.95336148 98.4375 72.4375 C98.18081543 73.33041748 97.92413086 74.22333496 97.65966797 75.14331055 C94.4290513 86.20269298 90.7003509 97.09034476 87 108 C72.81 108 58.62 108 44 108 C41.08531117 99.83887128 38.27387874 91.93568894 36 83.625 C35.48972186 81.80428314 34.97798985 79.98397314 34.46484375 78.1640625 C34.21718262 77.28524414 33.96952148 76.40642578 33.71435547 75.50097656 C31.45584228 67.59386477 28.94186572 59.76610739 26.30859375 51.9765625 C25.86471313 50.6620813 25.86471313 50.6620813 25.41186523 49.32104492 C24.80566606 47.52874039 24.19711717 45.73722881 23.58618164 43.9465332 C21.86857287 38.84503451 20.38491346 33.74778666 19.08691406 28.5246582 C17.14831576 20.8049404 15.08033503 15.34877598 9 10 C7.3475913 8.36076841 5.70188674 6.71475477 4.0625 5.0625 C3.29035156 4.31097656 2.51820313 3.55945313 1.72265625 2.78515625 C0 1 0 1 0 0 Z " fill="#010101" transform="translate(368,89)"/>
<path d="M0 0 C11.84929452 -0.09317676 23.69850014 -0.16400504 35.54808807 -0.20724869 C41.05188551 -0.22801613 46.55543007 -0.25613296 52.05908203 -0.30175781 C57.38242536 -0.34560567 62.70552732 -0.36921836 68.02903748 -0.37950897 C70.04776299 -0.3868311 72.06647711 -0.40112677 74.08509827 -0.42292023 C89.19425225 -0.57937468 106.06704059 -0.7298421 118 10 C123.80377419 15.70293641 127.26521456 20.43587107 127.375 28.8125 C127.23609532 36.88881496 124.26883663 42.02617819 119 48 C116.203125 50.01953125 116.203125 50.01953125 113.25 51.8125 C112.26515625 52.41707031 111.2803125 53.02164063 110.265625 53.64453125 C109.51796875 54.09183594 108.7703125 54.53914063 108 55 C108.556875 55.15855469 109.11375 55.31710938 109.6875 55.48046875 C119.53021783 58.48981322 126.45554758 63.07437901 132.140625 71.73828125 C134.72767681 78.54693123 133.88598691 88.6886822 131.5625 95.5 C127.6512112 103.70956023 120.09527189 108.50625455 112 112 C93.80295811 118.00800365 73.53551961 116.47921649 54.64935303 116.2746582 C50.39131781 116.23306517 46.13318162 116.21532933 41.875 116.1953125 C33.58306406 116.1529548 25.29160746 116.08507576 17 116 C17.02300171 114.79525024 17.04600342 113.59050049 17.06970215 112.34924316 C17.27700789 100.93451075 17.39832713 89.52158389 17.43784332 78.10500336 C17.46085552 72.23661382 17.51298662 66.37164089 17.63427734 60.50439453 C17.7504694 54.82986832 17.78675765 49.15969044 17.7702179 43.48405457 C17.77749178 41.33111418 17.81242057 39.17806486 17.87687683 37.02607727 C18.32758601 23.60874302 18.32758601 23.60874302 12.31811523 12.03735352 C8.93114003 8.4672096 5.30999675 5.25137394 1.44048309 2.21381378 C0.96512367 1.81325523 0.48976425 1.41269669 0 1 C0 0.67 0 0.34 0 0 Z " fill="#020202" transform="translate(59,81)"/>
<path d="M0 0 C9.89651547 7.37831815 18.6905218 17.52469365 21 30 C22.43894386 42.75263993 18.53057699 54.72276329 11 65 C2.45681073 75.58239274 -9.2894171 80.39349029 -22 84 C-22.63953613 84.18691406 -23.27907227 84.37382812 -23.93798828 84.56640625 C-41.14845251 89.30129201 -59.37123453 85.21086246 -74.8046875 76.984375 C-86.31078939 69.83877627 -95.57083666 59.26999763 -99 46 C-101.09589321 31.91445785 -98.36949544 21.67589811 -89.91796875 10.1640625 C-82.76411455 1.57943745 -73.40384339 -4.11877345 -63 -8 C-62.26394531 -8.2990625 -61.52789062 -8.598125 -60.76953125 -8.90625 C-41.14236116 -15.6462639 -17.13881457 -10.72717171 0 0 Z " fill="#010101" transform="translate(359,114)"/>
<path d="M0 0 C10.61456479 -0.0697924 21.22907416 -0.12295891 31.84382248 -0.15543652 C36.77373158 -0.17103134 41.70348262 -0.19215547 46.63330078 -0.22631836 C51.39900496 -0.25913384 56.16455799 -0.27689941 60.93036652 -0.28463173 C62.74026109 -0.29013568 64.55014825 -0.30088252 66.35997772 -0.31719017 C80.47930812 -0.43924805 94.98385533 -0.2043462 106.0390625 9.85546875 C111.82540425 16.01089814 113.53340884 22.07547634 113.3046875 30.44921875 C112.42710329 37.79617374 108.97725724 42.88991394 103.3046875 47.4921875 C99.46500212 50.00425285 95.34126667 51.56773784 91 53 C92.25284328 56.45347018 93.65573055 59.13323388 95.94140625 62.00390625 C96.52132324 62.73931641 97.10124023 63.47472656 97.69873047 64.23242188 C98.31377441 65.00134766 98.92881836 65.77027344 99.5625 66.5625 C100.82748671 68.16744578 102.09180813 69.77291616 103.35546875 71.37890625 C103.97470215 72.16281738 104.59393555 72.94672852 105.23193359 73.75439453 C107.64159731 76.81488706 110.02156257 79.8961204 112.375 83 C113.08398438 83.928125 113.79296875 84.85625 114.5234375 85.8125 C116 88 116 88 116 90 C79.37982744 94.35356418 79.37982744 94.35356418 69.89971924 88.76098633 C61.61289299 81.9958058 57.09522775 71.61275018 53 62 C52.67 71.57 52.34 81.14 52 91 C39.13 91 26.26 91 13 91 C13.06703125 85.42480469 13.1340625 79.84960938 13.203125 74.10546875 C13.21885187 70.55508926 13.23101438 67.00540166 13.23046875 63.45507812 C13.22993977 57.8298834 13.24197911 52.20683773 13.33251953 46.58227539 C13.40476641 42.04260245 13.4175889 37.50615785 13.39070892 32.96602821 C13.39065349 31.2417261 13.41134491 29.51728405 13.4539566 27.79350853 C13.88127021 17.37189535 13.88127021 17.37189535 9.23522949 8.45230103 C6.36727509 5.66350793 3.2394025 3.33714444 0 1 C0 0.67 0 0.34 0 0 Z " fill="#020202" transform="translate(662,106)"/>
<path d="M0 0 C14.85 0 29.7 0 45 0 C53.73480737 21.88158376 53.73480737 21.88158376 57.44140625 31.18359375 C59.97442074 37.5403425 62.50819423 43.89678153 65.04638672 50.25146484 C67.09179278 55.37253052 69.13387804 60.49490858 71.17362976 65.61822891 C71.95392271 67.57640197 72.73542798 69.53409238 73.5181427 71.49129868 C74.61097469 74.22455409 75.69955296 76.95946623 76.78710938 79.69482422 C77.11438522 80.51049866 77.44166107 81.3261731 77.77885437 82.16656494 C80 87.77189568 80 87.77189568 80 90 C66.14 90 52.28 90 38 90 C36.35 84.72 34.7 79.44 33 74 C31.52595933 69.99175869 31.52595933 69.99175869 30.0390625 65.98828125 C27.75303594 59.41380636 25.91043591 52.69144104 24 46 C23.80438477 45.31615234 23.60876953 44.63230469 23.40722656 43.92773438 C22.93760906 42.28531112 22.46872251 40.64267889 22 39 C19.32112958 45.48803085 16.92579277 52.00264411 14.80078125 58.69140625 C14.52026413 59.5627269 14.23974701 60.43404755 13.95072937 61.33177185 C13.06797689 64.07428812 12.18973411 66.81821405 11.3125 69.5625 C10.42436368 72.33885689 9.53516857 75.1148472 8.64213562 77.88963318 C8.08942985 79.60701155 7.53954604 81.32530117 6.99275208 83.04457092 C5.11263783 88.88736217 5.11263783 88.88736217 4 90 C0.97022196 90.08871273 -2.03667022 90.1151935 -5.06640625 90.09765625 C-5.97502914 90.0962413 -6.88365204 90.09482635 -7.81980896 90.09336853 C-10.73407221 90.08775193 -13.64825981 90.07519665 -16.5625 90.0625 C-18.53320202 90.05748714 -20.50390524 90.05292386 -22.47460938 90.04882812 C-27.31643559 90.03777711 -32.15820495 90.02050138 -37 90 C-35.05125906 83.88681709 -32.83280582 77.95799075 -30.33203125 72.05078125 C-29.97967911 71.2110376 -29.62732697 70.37129395 -29.26429749 69.50610352 C-28.11683402 66.77357198 -26.96472145 64.04302821 -25.8125 61.3125 C-25.01354756 59.4124742 -24.2148859 57.51232611 -23.41650391 55.61206055 C-21.35833966 50.7155417 -19.2962425 45.82068967 -17.23309326 40.92626953 C-14.89428879 35.37602245 -12.55993878 29.82390087 -10.22483826 24.27209473 C-6.82047682 16.17973943 -3.40963844 8.09014211 0 0 Z " fill="#010101" transform="translate(584,106)"/>
<path d="M0 0 C29.37 0 58.74 0 89 0 C89 7.59 89 15.18 89 23 C77.45 23 65.9 23 54 23 C54 26.3 54 29.6 54 33 C64.23 33 74.46 33 85 33 C85 40.92 85 48.84 85 57 C74.77 57 64.54 57 54 57 C54 60.3 54 63.6 54 67 C65.88 67 77.76 67 90 67 C90 74.59 90 82.18 90 90 C64.92 90 39.84 90 14 90 C14 52 14 52 14.0625 40.0390625 C14.04262986 36.47456792 14.04262986 36.47456792 14.01220703 32.91015625 C14.00378215 31.33301819 14.01093073 29.75574682 14.03076172 28.17871094 C14.37511654 18.85968504 14.37511654 18.85968504 11.328125 10.30761719 C9.3256156 8.28722824 7.28882704 6.68161827 5 5 C3.35 3.35 1.7 1.7 0 0 Z " fill="#010101" transform="translate(781,106)"/>
<path d="M0 0 C17.82 0 35.64 0 54 0 C54 20.79 54 41.58 54 63 C40.47 63 26.94 63 13 63 C13.04382813 59.42285156 13.08765625 55.84570312 13.1328125 52.16015625 C13.14120649 48.67490099 13.1324536 45.19007797 13.12207031 41.70483398 C13.12401054 39.29264366 13.1436297 36.88039746 13.18164062 34.46850586 C14.16495556 20.81284391 14.16495556 20.81284391 9.76855469 8.46826172 C7.27795398 6.25683414 4.87609368 4.65140157 2 3 C1.34 2.01 0.68 1.02 0 0 Z " fill="#050505" transform="translate(193,134)"/>
<path d="M0 0 C5.34785785 3.07876676 8.56612358 7.19446449 10.52734375 13.078125 C11.14414593 19.24614676 9.65401728 23.83993169 6.52734375 29.078125 C1.97593256 33.62953619 -2.84381205 35.37562201 -9.22265625 35.578125 C-15.70011691 35.45049031 -19.87640028 33.635512 -24.47265625 29.078125 C-27.91844814 24.62380866 -29.2137689 19.91991 -28.9140625 14.3125 C-27.79926945 8.66947679 -24.50501392 4.49659816 -19.97265625 1.078125 C-13.9467986 -2.2771821 -6.40872816 -2.38935205 0 0 Z " fill="#F9F9F9" transform="translate(328.47265625,133.921875)"/>
<path d="M0 0 C13.53 0 27.06 0 41 0 C41 6.6 41 13.2 41 20 C27.47 20 13.94 20 0 20 C0 13.4 0 6.8 0 0 Z " fill="#050505" transform="translate(206,106)"/>
<path d="M0 0 C2.35125 -0.061875 4.7025 -0.12375 7.125 -0.1875 C7.85348145 -0.21481201 8.58196289 -0.24212402 9.33251953 -0.27026367 C14.0010667 -0.32914283 17.04070582 0.57390431 21 3 C23 5 23 5 23.4375 8.3125 C22.89267757 12.90457478 21.56939167 14.17769031 18 17 C14.37918537 18.20693821 11.0749281 18.10782079 7.3125 18.0625 C3.6928125 18.0315625 3.6928125 18.0315625 0 18 C0 12.06 0 6.12 0 0 Z " fill="#FBFBFB" transform="translate(122,151)"/>
<path d="M0 0 C13.18265722 -0.49280962 13.18265722 -0.49280962 16.921875 1.76171875 C19.11950803 4.12871823 19.66592991 4.90484571 19.5625 8.0625 C19 12 19 12 17.1875 13.9375 C11.49779134 16.70107278 6.23695817 16.06706407 0 16 C0 10.72 0 5.44 0 0 Z " fill="#F5F5F5" transform="translate(714,130)"/>
<path d="M0 0 C12.64280186 -0.41679567 12.64280186 -0.41679567 17 3 C18.0625 6.4375 18.0625 6.4375 18 10 C16.15863826 12.41281883 14.69698174 13.65150913 12 15 C9.95944995 15.07065617 7.91665743 15.08421976 5.875 15.0625 C3.93625 15.041875 1.9975 15.02125 0 15 C0 10.05 0 5.1 0 0 Z " fill="#FAFAFA" transform="translate(122,109)"/>
</svg>
