<svg width="550" height="80" viewBox="0 0 110 16" fill="none" xmlns="http://www.w3.org/2000/svg">
<g clip-path="url(#clip0_4336_2393)">
<g clip-path="url(#clip1_4336_2393)">
<path d="M26.8499 3.55019C27.75 3.55019 28.5891 3.81211 29.2974 4.26289C29.4509 4.36079 29.5981 4.46709 29.7383 4.58253C29.9919 4.78929 30.2224 5.02308 30.4266 5.27879L34.1125 5.28025C33.9115 4.76774 33.658 4.28152 33.3581 3.82855H33.3534C31.9557 1.72077 29.5626 0.327148 26.8496 0.327148C25.061 0.327148 23.3135 0.948159 21.9282 2.07547L10.8746 11.5163C10.0315 12.282 8.93926 12.7035 7.79916 12.7035C5.2753 12.7035 3.22231 10.6502 3.22231 8.12667C3.22231 5.60318 5.27566 3.54983 7.79916 3.54983C8.84245 3.54983 9.82402 3.89102 10.6386 4.53687L13.3473 6.86164L15.8427 4.73048L12.6719 2.03602C11.2958 0.933912 9.56538 0.327148 7.79952 0.327148C3.49884 0.327514 0 3.82636 0 8.1274C0 12.4284 3.49884 15.9269 7.79952 15.9269C9.73379 15.9269 11.5877 15.2142 13.0226 13.92L23.9772 4.5639C24.7984 3.90051 25.7913 3.55019 26.8499 3.55019Z" fill="black"/>
<path d="M34.5963 7.21459L29.5774 7.2124C29.1887 7.2124 28.8333 7.43158 28.6594 7.77935L27.3301 10.4351H30.8074C30.0103 11.8024 28.5283 12.7047 26.8504 12.7047C25.783 12.7047 24.7452 12.3299 23.9262 11.649L21.2928 9.40018L18.8105 11.52L21.8542 14.1173C23.2522 15.2844 25.0265 15.9274 26.8501 15.9274C30.8271 15.9274 34.159 12.9524 34.6006 9.00493C34.6006 9.00493 34.6496 8.41972 34.6496 8.12748C34.6496 7.8188 34.631 7.51414 34.5959 7.21459H34.5963Z" fill="black"/>
<path d="M45.1879 0.328094H47.1876V5.79043H50.6817L50.1465 7.34697C50.0965 7.46569 49.9803 7.54277 49.8517 7.54277H46.7916C45.9061 7.54277 45.1883 6.82496 45.1883 5.93947V0.328094H45.1879ZM51.2724 0.328094H53.2822V7.54277H51.2724V0.328094ZM55.3246 0.328094H59.6611L59.1431 1.99167C59.1267 2.04427 59.0777 2.08044 59.0226 2.08044H56.1312V3.30712H58.6938L58.1802 4.83553C58.1539 4.91371 58.0805 4.96667 57.9979 4.96667H56.1312V7.5435H54.1319V1.5208C54.1319 0.862163 54.666 0.328094 55.3246 0.328094V0.328094ZM61.0902 0.328094H65.4266L64.9086 1.99167C64.8922 2.04427 64.8433 2.08044 64.7881 2.08044H61.8967V3.30712H64.4593L63.9457 4.83553C63.9194 4.91371 63.846 4.96667 63.7634 4.96667H61.8967V7.5435H59.8975V1.5208C59.8975 0.862163 60.4315 0.328094 61.0902 0.328094V0.328094ZM70.5839 0.328094V3.23186H67.8548V0.328094H66.036V7.54277H67.8548V5.05106H70.5839V7.54277H72.4028V0.328094H70.5839ZM98.0326 0.328094H102.701L102.094 2.02857H98.8768V3.12118H101.733V4.69818H98.8768V5.8423H102.146L102.752 7.54277H98.0326C97.4061 7.54277 96.8983 7.035 96.8983 6.40851V1.46272C96.8983 0.836227 97.4061 0.328459 98.0326 0.328459V0.328094ZM109.258 5.15882C109.759 4.62768 110.035 3.88539 110.035 3.15625C110.035 1.49084 108.971 0.328094 107.448 0.328094H103.584V7.54314H105.403V5.91828H106.967C107.001 5.91974 107.333 5.94056 107.636 6.13563C108.028 6.38842 108.218 6.84505 108.218 7.53181H110.037C110.037 6.41144 109.691 5.66038 109.258 5.15882V5.15882ZM105.403 4.09909V2.14692H107.448C107.792 2.14692 107.93 2.27734 108.012 2.39094C108.141 2.56994 108.216 2.84903 108.216 3.15661C108.216 3.52118 108.018 4.09945 107.488 4.09945H105.403V4.09909ZM93.12 3.47698C92.9009 3.47771 92.6897 3.60593 92.6002 3.80977L92.0435 5.05398H93.801C93.6453 5.81928 93.1398 6.19847 92.2912 6.19847C91.0966 6.19847 90.2966 5.21398 90.2966 3.91132C90.2966 2.60866 91.1061 1.64354 92.232 1.64354C92.9242 1.64354 93.4353 1.98108 93.7652 2.64775H95.9679C95.4397 1.53139 94.7255 0.025991 92.3208 0.00261176C89.8722 0.00261176 88.2729 1.62381 88.2729 3.91132C88.2729 6.19883 89.912 7.76195 92.2517 7.76195C93.95 7.76195 95.2432 6.91263 95.8061 5.43608C95.9938 4.93416 96.0728 4.27808 96.0728 3.47698H93.1204H93.12ZM77.262 0.0910144C77.2021 0.0753065 77.0775 0.0420642 76.6092 0.0256257L76.5771 0.0245298L76.5449 0.0256257C76.0766 0.0420642 75.952 0.0753065 75.8921 0.0910144C74.3834 0.489922 73.3295 1.89194 73.3295 3.50073V7.54277H75.1484V6.1718H77.376V4.35297H75.1484V3.50073C75.1484 2.73067 75.6273 2.06217 76.3181 1.86016C76.3791 1.84665 76.4514 1.82948 76.5774 1.82948C76.7035 1.82948 76.782 1.84774 76.8364 1.8598C77.5272 2.06181 78.0061 2.73031 78.0061 3.50036V7.54241H79.8249V3.50036C79.8249 1.89158 78.7711 0.489191 77.2624 0.0906491L77.262 0.0910144ZM87.5035 0.328094H85.6847V4.54621L82.4584 0.328094H80.6578V7.54277H82.4767V3.34766L85.6847 7.53875V7.54277H87.5035V0.328094ZM42.0913 5.51791C41.5451 5.85874 40.8175 5.93435 40.0876 5.56284C39.7921 5.41234 39.5477 5.17416 39.3946 4.8801C38.6297 3.41305 39.6821 1.94016 41.0721 1.94016C41.3968 1.94016 41.703 2.02089 41.9718 2.163C42.0069 2.18163 43.3348 2.97944 43.3348 2.97944L44.423 1.36043L42.9786 0.503073C41.9791 -0.0649687 40.7035 -0.201226 39.4067 0.350743C38.5709 0.706545 37.9024 1.37577 37.5469 2.21195C36.3498 5.02951 38.3992 7.74953 41.0721 7.74953C41.7822 7.74953 42.4482 7.55738 43.021 7.2224V7.22313L44.4222 6.39061L43.334 4.77124L42.0916 5.51755L42.0913 5.51791ZM37.4121 12.6329C37.4121 10.528 38.7385 9.33859 40.7042 9.33859C42.6699 9.33859 43.505 10.3454 43.7994 11.6261H41.9817C41.7851 11.2601 41.4904 10.8023 40.7042 10.8023C39.6726 10.8023 39.1813 11.4891 39.1813 12.6329C39.1813 13.7766 39.6726 14.4626 40.7042 14.4626C41.5393 14.4626 41.8834 14.051 42.031 13.5932H40.4474L40.782 12.6281C40.8478 12.4389 41.0261 12.3121 41.2262 12.3121H43.8984V12.9072C43.8984 14.6917 42.6699 15.9271 40.7046 15.9271C38.7393 15.9271 37.4125 14.737 37.4125 12.6329H37.4121ZM54.5206 9.43028H56.8541L58.2269 13.5476L59.5994 9.43028H61.9329V15.8354H60.2858V11.6718L58.913 15.8354H57.5405L56.1677 11.6718V15.8354H54.5206V9.43028V9.43028ZM64.5722 9.43028H69.5706L69.1589 10.894H66.2193V11.9008H68.9759V13.2736H66.2193V14.3721H69.2502L69.6619 15.8358H64.5722V9.43064V9.43028ZM71.9808 13.8223H73.628C73.674 14.234 73.994 14.509 74.6804 14.509C75.4581 14.509 75.6868 14.234 75.6868 13.914C75.6868 12.8619 72.2099 13.914 72.2099 11.3057C72.2099 9.93366 73.3993 9.33859 74.6804 9.33859C76.4649 9.33859 77.1966 10.2997 77.2883 11.3518H75.6412C75.5951 10.9857 75.2751 10.7567 74.7257 10.7567C74.131 10.7567 73.9023 11.031 73.9023 11.3054C73.9023 12.4038 77.3796 11.415 77.3796 13.8679C77.3796 15.0574 76.4189 15.9268 74.6804 15.9268C73.2163 15.9268 72.0725 15.24 71.9808 13.8219V13.8223ZM49.7224 9.60672C49.6723 9.59357 49.5682 9.5658 49.1766 9.55192L49.1496 9.55083L49.1226 9.55192C48.7313 9.5658 48.6272 9.5932 48.5768 9.60672C47.3158 9.93987 46.4347 11.1121 46.4347 12.4568V15.8354H47.9551V14.6895H50.3434V15.8354H51.8638V12.4568C51.8638 11.1121 50.983 9.93987 49.7217 9.60672H49.7224ZM47.9554 13.1691V12.4568C47.9554 11.8131 48.3558 11.2542 48.933 11.0855C48.9841 11.0741 49.0444 11.0599 49.1496 11.0599C49.2548 11.0599 49.3206 11.0752 49.3659 11.0855C49.9434 11.2542 50.3438 11.8131 50.3438 12.4568V13.1691H47.9554Z" fill="black"/>
</g>
</g>
<defs>
<clipPath id="clip0_4336_2393">
<rect width="110" height="15.9271" fill="white"/>
</clipPath>
<clipPath id="clip1_4336_2393">
<rect width="110.036" height="15.9271" fill="white"/>
</clipPath>
</defs>
</svg>
