<?xml version="1.0" encoding="utf-8"?>
<!-- Generator: Adobe Illustrator 16.0.0, SVG Export Plug-In . SVG Version: 6.00 Build 0)  -->
<!DOCTYPE svg PUBLIC "-//W3C//DTD SVG 1.1//EN" "http://www.w3.org/Graphics/SVG/1.1/DTD/svg11.dtd">
<svg version="1.1"
	 id="Layer_1" xmlns:dc="http://purl.org/dc/elements/1.1/" xmlns:cc="http://creativecommons.org/ns#" xmlns:rdf="http://www.w3.org/1999/02/22-rdf-syntax-ns#" xmlns:svg="http://www.w3.org/2000/svg" xmlns:sodipodi="http://sodipodi.sourceforge.net/DTD/sodipodi-0.dtd" xmlns:inkscape="http://www.inkscape.org/namespaces/inkscape" sodipodi:docname="DreamWorks Pictures 1997.svg" inkscape:version="0.91 r13725"
	 xmlns="http://www.w3.org/2000/svg" xmlns:xlink="http://www.w3.org/1999/xlink" x="0px" y="0px" width="1000px"
	 height="196.717px" viewBox="0 0 1000 196.717" enable-background="new 0 0 1000 196.717" xml:space="preserve">
<sodipodi:namedview  gridtolerance="10" guidetolerance="10" objecttolerance="10" showgrid="false" inkscape:cy="98.358498" inkscape:cx="500" inkscape:zoom="0.296" borderopacity="1" bordercolor="#666666" pagecolor="#ffffff" id="namedview21" inkscape:window-maximized="0" inkscape:window-y="0" inkscape:window-x="0" inkscape:window-height="480" inkscape:window-width="640" inkscape:current-layer="Layer_1" inkscape:pageshadow="2" inkscape:pageopacity="0">
	</sodipodi:namedview>
<path id="path10707_1_" inkscape:connector-curvature="0" fill="#04549C" d="M777.267,51.553c-2.935,1.388-6.612,1.68-11.495,1.68
	h-2.188V30.801c0-3.921,0.454-4.935,6.908-4.935c6.03,0,15.313,3.868,15.313,13.23C785.803,43.871,783.534,48.459,777.267,51.553
	 M957.045,45.391l-3.414-1.092c-10.026-2.667-15.925-5.548-15.925-10.482c0-4.668,5.576-8.51,13.472-8.51
	c12.244,0,17.634,6.962,21.047,13.444l6.803-0.721c-1.71-6.642-2.828-11.39-3.414-15.204c-2.029-0.399-4.484-0.8-8.03-1.413
	c-4.506-0.772-9.44-1.174-14.242-1.174c-24.272,0-36.942,9.016-36.942,20.032c0,10.482,14.217,15.604,27.072,19.231l2.269,0.641
	c9.655,2.614,15.496,5.948,15.496,11.736c0,6.295-6.188,9.682-14.242,9.682c-15.123,0-24.272-10.855-27.477-16.537l-6.854,1.281
	c1.68,5.868,3.466,10.669,4.669,14.857c-5.097-0.64-9.179-2.188-16.435-8.295c-9.573-8.189-19.577-17.205-29.044-26.434
	c6.373-4.801,14-9.789,22.189-14.831c7.896-4.961,12.646-6.188,21.339-6.748v-3.121h-40.784v3.121l5.762,0.347
	c4.137,0.293,2.479,2.988,0.32,4.721c-8.827,7.417-18.111,14.618-29.207,22.62V37.339c0-10.537,1.199-11.923,11.256-12.483v-3.122
	h-47.504v3.122c10.668,0.561,11.843,1.945,11.843,12.483v32.248c0,6.161-0.429,9.656-2.774,11.016
	c-3.548,1.682-6.056,0.587-8.722-1.361c-2.429-1.947-5.815-5.948-11.017-11.203c-4.483-4.455-10.138-11.203-12.271-13.924
	c11.364-2.8,19.767-7.868,19.767-16.51c0-5.708-4.588-10.136-10.75-12.537c-5.976-2.453-13.95-3.333-25.874-3.333h-48.705
	l0.881,3.121c10.27,0.562,10.59,1.946,10.59,12.483v32.248c0,10.509-1.227,11.896-12.108,12.51v3.014h49.347v-3.014
	c-10.563-0.615-11.844-2-11.844-12.51V57.823h2.026c2.906,0,5.042,1.467,6.455,3.494c3.842,5.468,8.107,11.55,12.695,15.684
	c6.107,5.708,11.098,9.362,32.437,8.936c1.602,0,7.709-0.399,9.095-0.826h37.185v-3.014c-10.806-0.615-12.353-1.999-12.005-12.509
	V53.956h0.295c11.149,10.617,26.967,24.966,32.81,31.155h34.969v-1.974c1.949,0.533,4.588,1.095,7.976,1.813
	c4.162,0.854,10.536,1.626,16.671,1.626c24.031,0,39.317-8.722,39.317-20.725c0-11.444-12.216-16.538-26.461-20.459"/>
<path id="path10711_1_" inkscape:connector-curvature="0" fill="#04549C" d="M688.289,81.566c-15.258,0-25.926-12.856-25.926-30.568
	c0-17.098,10.026-25.687,22.003-25.687c13.499,0,24.756,10.856,24.756,30.461C709.122,73.458,701.786,81.566,688.289,81.566
	 M319.394,61.694l9.257-18.938h0.479l9.39,18.938H319.394L319.394,61.694z M188.347,53c-2.881,1.387-6.535,1.682-11.363,1.682
	h-2.053V31.875c0-3.895,0.455-4.881,6.776-4.881c5.841,0,15.07,3.841,15.07,13.364C196.777,45.186,194.509,49.799,188.347,53
	 M69.384,79.861c-10.296,0-15.098-2.988-15.098-14.751V14.217c0-3.254,0.192-6.321,1.28-6.562c1.494-0.587,4.348-0.96,9.283-0.96
	c18.378,0,41.85,7.922,41.85,36.409C106.7,66.471,87.976,79.861,69.384,79.861 M738.141,52.68c0-19.312-22.031-32.435-50.598-32.435
	c-22.486,0-37.529,6.641-45.984,15.337c5.146-10.029,8.588-16.324,9.067-17.124c7.282-11.817,9.202-12.884,21.181-13.95V0H620.67
	v4.508l8.084,0.508c9.255,0.561,9.87,2.747,7.07,10.323c-2.989,7.948-10.883,26.806-18.327,42.49l-0.479-0.693L584.503,0.107
	h-15.017l-28.009,57.028l-0.397,0.693l-20.406-44.972c-2.535-5.521-1.896-7.148,6.058-7.841l6.802-0.508V0H466.74v4.508
	c9.843,0.828,13.71,1.999,19.499,13.149l2.614,5.094h-31.875l-23.874,39.104l-27.286-39.104h-36.623v3.122
	c12.322,0.719,13.522,2.454,12.43,14.99l-1.708,19.925c-0.8,9.016-1.707,14.27-2.48,17.337c-0.319,1.014-0.4,2.268-1.387,2.481
	c-1.041,0.213-3.388-3.521-5.415-7.148c-5.734-10.083-12.136-21.713-18.591-33.583l-10.216-18.618l-10.35,1.387l-29.979,51.08
	c-0.32,0.587-0.641,1.148-0.986,1.654c-1.148,1.519-2.294,3.414-3.468,4.24c-3.388,2.375-12.029,2.961-18.084,2.961
	c-4.748,0-8.215-0.107-10.669-0.879c-2.748-0.879-3.067-4.054-3.067-9.256V56.39h7.628c13.097,0,13.55,0.507,15.097,9.282h6.668
	V42.279h-6.668c-1.547,7.522-2,8.109-15.097,8.109h-7.628V31.37c0-3.521,0.319-4.188,6.081-4.188h2.641
	c8.029,0,13.097,0.64,15.471,2.267c2.428,1.575,4.135,5.068,5.682,9.896l6.722-0.242c-0.828-7.495-1.575-14.67-1.735-16.351h-72.125
	v3.122c10.188,0.587,11.442,1.974,11.442,12.696v32.622c0,9.362-0.986,11.07-9.255,11.737c-1.441-0.748-2.774-1.575-4.215-2.641
	c-2.347-1.946-5.682-5.335-10.83-10.589c-4.321-4.481-9.896-11.336-12.057-14.11c11.203-2.828,19.472-8.029,19.472-16.698
	c0-5.841-4.535-10.322-10.536-12.803c-5.895-2.48-13.71-3.335-25.473-3.335h-46.065c-3.361-4.347-7.762-8.055-12.563-10.936
	C113.423,3.254,91.391,0.107,64.85,0.107H1.821v5.121c14.058,0.826,15.792,1.789,15.792,16.058v43.611
	c0,14.324-1.733,15.978-17.471,16.804v4.402h55.667c49.799,0,90.637-14.191,90.637-47.106c0-4.614-1.387-8.935-3.734-12.856
	c7.175,0.772,8.135,3.014,8.135,12.43v32.622c0,10.67-1.227,12.084-11.923,12.697v3.066h47.586V83.89
	c-10.403-0.614-11.577-2.027-11.577-12.697V59.349h1.92c2.854,0,4.961,1.44,6.349,3.521c3.788,5.601,7.976,11.683,12.51,15.924
	c6.028,5.735,10.963,8.722,32.354,9.016c3.121-0.085,5.095-0.48,6.136-0.854h52.52H303.9h17.711V83.89l-4.35-0.32
	c-6.854-0.427-7.042-2.214-4.934-6.481l4.48-9.442h24.514l5.495,10.082c1.92,3.548,1.628,5.228-3.921,5.762l-4.509,0.399v3.067
	h27.688h19.365h19.178V83.89c-10.216-0.534-13.63-2.134-14.244-5.762c-0.639-3.067-0.746-7.815-0.292-16.271l1.095-21.979h0.319
	l28.514,46.066h8.43l30.113-49.613h0.614l0.453,34.863c0.15,10.963-0.292,12.003-11.976,12.697v3.067h48.759v-3.067
	c-11.177-0.693-11.523-1.733-12.03-12.697l-1.547-33.076c-0.373-9.069,0.021-11.095,7.843-11.896l31.769,61.749h16.431
	l28.703-54.413h0.425l31.447,54.413h16.535c6.139-13.336,12.19-25.793,17.473-36.436c-0.084,0.96-0.127,1.867-0.127,2.774
	c0,17.924,20.484,32.275,52.015,32.275c30.034,0,52.813-13.017,52.813-33.903"/>
<path id="path10725_1_" inkscape:connector-curvature="0" fill="#5A9FD6" d="M0,107.778h544.459v3.256H0V107.778z"/>
<path id="path10727_1_" inkscape:connector-curvature="0" fill="#5A9FD6" d="M544.459,107.753H979.72v3.2H544.459V107.753
	L544.459,107.753z"/>
<path id="path10731" inkscape:connector-curvature="0" fill="#04549C" d="M989.275,20.097v8.376h1.47v-3.36h1.173
	c0.771,0,1.332,0.149,1.628,0.319c0.56,0.348,0.854,0.935,0.854,1.921v0.666v0.241v0.042v0.171h1.416l-0.021-0.171
	c-0.064-0.042-0.064-0.214-0.087-0.455c-0.021-0.149-0.021-0.427-0.021-0.562v-0.64c0-0.399-0.191-0.8-0.45-1.333
	c-0.321-0.348-0.827-0.666-1.468-0.773c0.559-0.085,0.932-0.241,1.253-0.427c0.533-0.294,0.801-0.828,0.801-1.575
	c0-1.148-0.398-1.814-1.332-2.214c-0.481-0.128-1.229-0.241-2.295-0.241h-2.908L989.275,20.097L989.275,20.097z M994.398,22.658
	c0,0.693-0.349,1.042-0.935,1.28c-0.267,0.107-0.746,0.192-1.357,0.192h-1.358v-2.987H992c0.825,0,1.413,0.107,1.813,0.267
	c0.371,0.213,0.587,0.694,0.587,1.254 M1000,24.239c0-1.999-0.72-3.895-2.24-5.309c-1.469-1.574-3.307-2.293-5.414-2.293
	c-2.106,0-3.947,0.721-5.388,2.293c-1.521,1.413-2.241,3.308-2.241,5.309c0,2.16,0.722,3.974,2.241,5.441
	c1.439,1.494,3.28,2.267,5.388,2.267c2.108,0,3.945-0.771,5.414-2.267C999.28,28.213,1000,26.399,1000,24.239 M992.346,17.73
	c1.813,0,3.389,0.667,4.669,1.948c1.255,1.281,1.948,2.801,1.948,4.563c0,1.92-0.693,3.467-1.948,4.748
	c-1.28,1.254-2.854,1.92-4.669,1.92c-1.841,0-3.388-0.666-4.669-1.92c-1.279-1.281-1.919-2.828-1.919-4.748
	c0-1.76,0.64-3.281,1.919-4.563C988.983,18.399,990.53,17.73,992.346,17.73"/>
<path id="path10739" inkscape:connector-curvature="0" fill="#04549C" d="M83.245,179.11c0,10.91,1.2,11.578,12.082,12.19v3.948
	H44.595v-3.948c10.803-0.614,12.057-1.28,12.057-12.19v-33.34c0-10.91-1.255-11.658-12.057-12.189v-4.057h50.732v4.057
	c-10.883,0.531-12.082,1.279-12.082,12.189V179.11z"/>
<path id="path10739_1_" inkscape:connector-curvature="0" fill="#04549C" d="M769.078,179.11c0,10.91,1.201,11.578,12.082,12.19
	v3.948h-50.732v-3.948c10.803-0.614,12.057-1.28,12.057-12.19v-33.34c0-10.91-1.254-11.658-12.057-12.189v-4.057h50.732v4.057
	c-10.883,0.531-12.082,1.279-12.082,12.189V179.11z"/>
<path id="path10743" inkscape:connector-curvature="0" fill="#04549C" d="M638.31,148.86c-5.014-12.297-14.75-15.496-25.873-15.496
	c-18.725,0-30.354,13.07-30.354,27.605c0,18.672,14.137,30.542,30.221,30.542c13.629,0,21.445-5.653,29.447-16.805l6.908,0.721
	c-2.105,5.976-5.842,14.646-8.508,18.486c-3.922,0.719-17.898,2.802-28.514,2.802c-42.064,0-58.709-17.074-58.709-33.316
	c0-20.992,25.42-35.344,61.588-35.344c12.938,0,23.5,2.026,27.822,2.642c1.279,5.521,1.947,10.028,2.854,17.577L638.31,148.86
	L638.31,148.86L638.31,148.86z"/>
<path id="path10747" inkscape:connector-curvature="0" fill="#04549C" d="M262.984,179.11c0,10.91,1.28,11.578,14.43,12.19v3.948
	h-54.786v-3.948c12.536-0.614,13.764-1.28,13.764-12.19v-44.25h-2.642c-10.536,0-14.724,1.175-17.23,3.066
	c-1.896,1.439-3.761,4.108-5.763,9.764h-6.614c0.614-8.51,1.572-15.498,1.893-18.112h87.649c0.148,1.708,0.936,10.377,1.761,17.791
	l-6.881,0.321c-2.401-6.082-4.136-8.722-6.43-10.403c-2.693-1.868-7.867-2.427-15.363-2.427h-3.788L262.984,179.11L262.984,179.11z"
	/>
<path id="path10747_1_" inkscape:connector-curvature="0" fill="#04549C" d="M701.984,179.11c0,10.91,1.281,11.578,14.43,12.19
	v3.948h-54.785v-3.948c12.535-0.614,13.764-1.28,13.764-12.19v-44.25h-2.643c-10.535,0-14.723,1.175-17.23,3.066
	c-1.895,1.439-3.76,4.108-5.762,9.764h-6.615c0.615-8.51,1.572-15.498,1.893-18.112h87.65c0.148,1.708,0.936,10.377,1.76,17.791
	l-6.881,0.321c-2.4-6.082-4.135-8.722-6.43-10.403c-2.693-1.868-7.867-2.427-15.363-2.427h-3.787V179.11L701.984,179.11z"/>
<path id="path10755" inkscape:connector-curvature="0" fill="#04549C" d="M418.336,162.218h2.24c4.988,0,8.75-0.295,11.734-1.682
	c6.402-3.28,8.725-8.057,8.725-12.938c0-9.654-9.496-12.937-15.633-12.937c-6.563,0-7.066,0.292-7.066,4.321v23.231V162.218
	L418.336,162.218z M418.336,179.128c0,10.882,1.281,11.575,12.082,12.188v3.923h-49.506v-3.923
	c11.148-0.61,12.375-1.303,12.375-12.188v-33.343c0-10.937-1.227-11.681-11.68-12.218v-4.053h48.811
	c12.217,0,20.354,1.066,26.487,3.521c6.217,2.56,10.938,7.042,10.938,12.987c0,8.885-8.641,14.191-20.192,17.072
	c2.159,2.883,8.003,9.869,12.513,14.457c5.307,5.389,8.803,8.803,11.307,10.856c2.828,2.134,5.309,3.44,9.205,4.215l-0.295,3.521
	l-6.75-0.063c-22.217-0.4-27.368-3.389-33.636-9.178c-4.695-4.375-9.121-10.643-13.018-16.297c-1.412-2.135-3.6-3.682-6.563-3.682
	h-2.078v12.189V179.128L418.336,179.128z"/>
<path id="path10759" inkscape:connector-curvature="0" fill="#04549C" d="M309.493,145.769c0-10.91-1.229-11.658-11.709-12.189
	v-4.028h74.205c0.15,1.734,0.959,9.121,1.705,16.778l-6.881,0.191c-1.57-4.883-3.309-7.711-5.789-9.391
	c-2.506-1.708-7.654-2.268-15.922-2.268h-2.693c-5.977,0-6.297,0-6.297,3.521v19.499h7.869c13.496,0,13.924-0.615,15.496-8.242
	h6.855v23.739h-6.855c-1.572-8.829-2-9.415-15.496-9.415h-7.869v16.43c0,5.229,0.32,7.815,3.148,8.644
	c2.561,0.937,6.133,0.987,10.936,0.987c6.295,0,13.123-0.588,16.617-3.018c2.666-1.813,5.334-5.601,7.656-10.455l6.936,0.772
	c-0.803,4.909-4.135,15.204-5.521,17.925h-79.701v-3.948c12.082-0.614,13.313-1.28,13.313-12.19v-33.34v-0.002H309.493z"/>
<path id="path10759_1_" inkscape:connector-curvature="0" fill="#04549C" d="M883.493,145.769c0-10.91-1.229-11.658-11.709-12.189
	v-4.028h74.205c0.15,1.734,0.959,9.121,1.705,16.778l-6.881,0.191c-1.57-4.883-3.309-7.711-5.789-9.391
	c-2.506-1.708-7.654-2.268-15.922-2.268h-2.693c-5.977,0-6.297,0-6.297,3.521v19.499h7.869c13.496,0,13.924-0.615,15.496-8.242
	h6.855v23.739h-6.855c-1.572-8.829-2-9.415-15.496-9.415h-7.869v16.43c0,5.229,0.32,7.815,3.148,8.644
	c2.561,0.937,6.133,0.987,10.936,0.987c6.295,0,13.123-0.588,16.617-3.018c2.666-1.813,5.334-5.601,7.656-10.455l6.936,0.772
	c-0.803,4.909-4.135,15.204-5.521,17.925h-79.701v-3.948c12.082-0.614,13.313-1.28,13.313-12.19v-33.34v-0.002H883.493z"/>
<path id="path7749" inkscape:connector-curvature="0" fill="#04549C" d="M818.745,195.253
	c-10.801-18.194-25.525-43.125-31.17-52.617c-5.172-8.688-8.293-9.189-15.813-9.79v-3.935h50.594v3.935l-5.33,0.403
	c-5.801,0.498-5.801,1.315-4.066,4.836c2.809,5.653,15.184,25.563,20.984,35.453c4.842-8.589,14.873-27.869,17.377-32.619
	c3.293-6.156,2.346-7.256-4.701-7.771l-4.697-0.302v-3.935h37.902v3.935c-8.922,0.7-11.117,1.216-17.221,10.403
	c-0.939,1.403-20.051,31.39-31.797,52h-12.063"/>
<path id="path7759" inkscape:connector-curvature="0" fill="#04549C" d="M189.063,195.92h-13.463l-57.961-47.664h-0.3v18.578
	c0,10.605,0.617,16.143,1.248,19.279c0.785,3.536,5.013,4.854,15.343,5.153v3.937H94.938v-3.937
	c6.889-0.2,10.957-1.617,11.744-5.153c0.631-3.138,1.264-8.674,1.264-19.279v-18.578c0-7.476-0.318-8.791-3.455-11.623
	c-2.35-2.104-6.258-2.818-11.904-3.12v-3.935h34.611l52.168,41.894h0.316v-13.526c0-10.607-0.646-16.158-1.265-19.277
	c-0.785-3.535-5.012-4.854-15.354-5.154v-3.936h39.938v3.936c-7.819,0.201-11.889,1.619-12.674,5.154
	c-0.633,3.117-1.264,8.67-1.264,19.277v37.971"/>
<path id="b16CMsCLEQ_1_" fill="#04549C" d="M525.142,191.268c2.842-0.233,4.412-0.368,4.727-0.389
	c5.813-0.503,6.115-1.497,4.068-5.155c-0.385-0.691-2.256-4.094-5.627-10.24h-25.676c-2.795,5.8-4.338,9.025-4.654,9.671
	c-2.234,4.339-2.012,5.333,5.146,5.823c0.305,0.023,1.814,0.122,4.539,0.289v3.904H471.2c0-2.343,0-3.647,0-3.904
	c7.969-0.635,10.354-1.137,15.49-9.604c2.094-3.47,12.516-20.838,31.293-52.118l10.842-1.414
	c6.389,11.433,9.943,17.781,10.658,19.053c6.701,12.014,13.486,23.961,19.406,34.201c5.029,8.746,7.826,9.25,15.498,9.883
	c0,0.269,0,1.598,0,3.983h-49.141L525.142,191.268 M505.243,169.437h20.051l-9.873-19.23h-0.492L505.243,169.437"/>
</svg>
