<?xml version="1.0" encoding="UTF-8"?>
<svg version="1.1" xmlns="http://www.w3.org/2000/svg" width="600" height="200">
<path d="M0 0 C198 0 396 0 600 0 C600 66 600 132 600 200 C402 200 204 200 0 200 C0 134 0 68 0 0 Z " fill="#EEEEEE" transform="translate(0,0)"/>
<path d="M0 0 C4.45820633 -0.08800873 8.91618539 -0.14072922 13.375 -0.1875 C14.62667969 -0.21263672 15.87835938 -0.23777344 17.16796875 -0.26367188 C33.88296624 -0.39494149 33.88296624 -0.39494149 39.99609375 4.64599609 C42.63459288 7.34539583 43.86576476 9.3422473 44.625 13.0625 C43.82064302 16.84297781 42.48415562 19.04586899 40 22 C37.25 23.375 37.25 23.375 35 24 C35 24.66 35 25.32 35 26 C35.721875 26.103125 36.44375 26.20625 37.1875 26.3125 C42.216459 27.54180109 45.82620364 30.10610052 49.05078125 34.1953125 C50.8932573 37.69829167 50.60571652 41.17985604 50 45 C48.18313803 50.79124753 44.1905448 54.13154103 39 57 C31.00592835 60.89408101 22.59201386 60.34456742 13.9375 60.1875 C12.48503995 60.17242256 11.03256473 60.15873958 9.58007812 60.14648438 C6.05306543 60.11372861 2.52663215 60.06211664 -1 60 C-0.67 59.34 -0.34 58.68 0 58 C0.66 58 1.32 58 2 58 C2.05067075 50.38284136 2.08572127 42.76572613 2.10986328 35.1484375 C2.11992668 32.5566241 2.13357864 29.96482207 2.15087891 27.37304688 C2.17511195 23.64971106 2.18647974 19.92652523 2.1953125 16.203125 C2.20563507 15.04258606 2.21595764 13.88204712 2.22659302 12.68634033 C2.22674408 11.60552185 2.22689514 10.52470337 2.22705078 9.41113281 C2.231492 8.46071106 2.23593323 7.51028931 2.24050903 6.53106689 C1.98989712 3.89367942 1.34166934 2.26168661 0 0 Z " fill="#0A0A0A" transform="translate(389,46)"/>
<path d="M0 0 C5.61 0 11.22 0 17 0 C18.10859375 2.3615625 19.2171875 4.723125 20.359375 7.15625 C21.44475048 9.46658259 22.53046479 11.77675566 23.61621094 14.08691406 C24.36526261 15.68114894 25.11396706 17.27554701 25.86230469 18.87011719 C26.94372728 21.17426826 28.0264356 23.4778115 29.109375 25.78125 C29.43871033 26.48366821 29.76804565 27.18608643 30.10736084 27.90979004 C32.33474379 32.64324165 34.64581284 37.32826672 37 42 C41.46986968 33.45988474 45.51053886 24.76727148 49.375 15.9375 C50.03604736 14.43884399 50.03604736 14.43884399 50.71044922 12.90991211 C51.12311035 11.95866455 51.53577148 11.00741699 51.9609375 10.02734375 C52.33009277 9.17906006 52.69924805 8.33077637 53.07958984 7.45678711 C54.21239314 4.6329443 54.21239314 4.6329443 55 0 C60.61 0 66.22 0 72 0 C71.67 0.99 71.34 1.98 71 3 C70.78531307 8.61664389 71.28056211 13.81539927 72.2421875 19.33984375 C72.37062042 20.10623672 72.49905334 20.8726297 72.63137817 21.6622467 C72.9023985 23.27201239 73.17651898 24.88125896 73.45361328 26.48999023 C73.87309884 28.92645764 74.28308823 31.36437315 74.69140625 33.80273438 C76.58298374 47.28751909 76.58298374 47.28751909 81 60 C75.06 60 69.12 60 63 60 C63.66 59.01 64.32 58.02 65 57 C65.99231539 48.21814674 64.48962454 39.19298158 63.34594727 30.4777832 C63.05805918 28.2785761 62.78316545 26.07800394 62.50976562 23.87695312 C62.30535529 17.43338836 62.30535529 17.43338836 60 12 C57.16805172 18.35289162 54.33827224 24.70674594 51.51000977 31.0612793 C50.54729513 33.22361203 49.58408133 35.38572258 48.62036133 37.54760742 C47.23648375 40.65225095 45.85439403 43.75768491 44.47265625 46.86328125 C44.04034195 47.83211746 43.60802765 48.80095367 43.16261292 49.79914856 C42.76227341 50.6998558 42.3619339 51.60056305 41.94946289 52.52856445 C41.41984703 53.71770195 41.41984703 53.71770195 40.87953186 54.93086243 C39.91231776 57.12955513 39.91231776 57.12955513 39 60 C35.9901707 59.77704968 34.92971169 58.93093623 32.7578125 56.796875 C28.60777929 51.64664016 26.24276702 45.36821174 23.5625 39.375 C22.46320052 36.94367665 21.35854907 34.51484442 20.25390625 32.0859375 C19.71910645 30.90483398 19.18430664 29.72373047 18.63330078 28.50683594 C16.5704707 24.07776399 14.35023599 19.73943345 12.08178711 15.41259766 C11 13 11 13 11 10 C10.34 10 9.68 10 9 10 C8.96261719 10.95777344 8.92523438 11.91554688 8.88671875 12.90234375 C8.54134795 20.27212617 7.86083582 27.38111859 6.4375 34.625 C3.64255326 47.77362138 3.64255326 47.77362138 7 60 C1.72 60 -3.56 60 -9 60 C-8.37440186 58.86933105 -7.74880371 57.73866211 -7.10424805 56.57373047 C-4.84981809 52.05047516 -3.99860117 47.79686399 -3.33203125 42.8203125 C-3.20688644 41.96750702 -3.08174164 41.11470154 -2.95280457 40.23605347 C-2.55974588 37.53404723 -2.186079 34.82976032 -1.8125 32.125 C-1.55134994 30.31883364 -1.28898994 28.51284178 -1.02539062 26.70703125 C0.16083171 18.4824374 1.22348615 10.27469378 2 2 C1.34 2 0.68 2 0 2 C0 1.34 0 0.68 0 0 Z " fill="#0C0C0C" transform="translate(298,46)"/>
<path d="M0 0 C4.7173855 -0.95479317 9.37339725 -1.57432204 14 0 C18.7105467 3.43102715 22.06365274 8.40685423 25.50683594 13.04199219 C27.63962952 15.83875551 29.97619501 18.36476353 32.375 20.9375 C37.99267173 27.07984961 43.45071165 33.30059841 48.71484375 39.75 C49.51913818 40.73484375 50.32343262 41.7196875 51.15209961 42.734375 C51.76190674 43.48203125 52.37171387 44.2296875 53 45 C53.09903517 39.39499036 53.17154712 33.79049238 53.21972656 28.18481445 C53.23981546 26.2787997 53.26709194 24.37284638 53.30175781 22.46704102 C53.35039642 19.72396674 53.37299579 16.98170875 53.390625 14.23828125 C53.41127014 13.38913651 53.43191528 12.53999176 53.45318604 11.66511536 C53.45348816 10.86466293 53.45379028 10.06421051 53.45410156 9.23950195 C53.46742523 8.19026299 53.46742523 8.19026299 53.48101807 7.11982727 C52.99016235 4.24216784 52.99016235 4.24216784 49 0 C54.61 0 60.22 0 66 0 C64.68 1.98 63.36 3.96 62 6 C61.39649628 8.85281998 61.39649628 8.85281998 61.45410156 11.82177734 C61.43438293 12.94248627 61.41466431 14.06319519 61.39434814 15.21786499 C61.39250519 17.00881088 61.39250519 17.00881088 61.390625 18.8359375 C61.37408875 20.07042633 61.35755249 21.30491516 61.34051514 22.57681274 C61.29203184 26.50959244 61.27066214 30.44198538 61.25 34.375 C61.2240362 37.04563145 61.19191372 39.71614473 61.16015625 42.38671875 C61.08627234 48.92440896 61.03463162 55.46199038 61 62 C53.20916877 60.89923784 49.86834469 57.02312798 44.93359375 51.25 C42.93194326 48.92080671 40.87887627 46.64689289 38.8125 44.375 C34.65542836 39.77176906 30.61074634 35.08041646 26.60083008 30.34912109 C22.17014615 25.14006344 17.58967109 20.06903673 13 15 C12.95041601 20.44432256 12.91419334 25.88851249 12.89013672 31.33300781 C12.88010369 33.18361706 12.86647414 35.03421055 12.84912109 36.88476562 C12.82475392 39.5508209 12.81348977 42.21666584 12.8046875 44.8828125 C12.79436493 45.70492218 12.78404236 46.52703186 12.77340698 47.37405396 C12.77318039 48.54458817 12.77318039 48.54458817 12.77294922 49.73876953 C12.768508 50.41827667 12.76406677 51.09778381 12.75949097 51.79788208 C12.99769247 54.69760553 12.99769247 54.69760553 15 60 C10.38 60 5.76 60 1 60 C1.66 58.35 2.32 56.7 3 55 C3.30455502 52.4666488 3.30455502 52.4666488 3.2746582 49.81420898 C3.28895622 48.30255409 3.28895622 48.30255409 3.30354309 46.76036072 C3.30263168 45.68315262 3.30172028 44.60594452 3.30078125 43.49609375 C3.30506638 42.38065689 3.3093515 41.26522003 3.31376648 40.11598206 C3.31950153 37.76165444 3.32001613 35.40730911 3.31567383 33.05297852 C3.31250845 29.44712261 3.33600301 25.84208297 3.36132812 22.23632812 C3.36360061 19.9479177 3.36430485 17.65950507 3.36328125 15.37109375 C3.372491 14.29186142 3.38170074 13.21262909 3.39118958 12.10069275 C3.38184639 10.5937661 3.38184639 10.5937661 3.37231445 9.05639648 C3.37294388 8.17435043 3.3735733 7.29230438 3.3742218 6.38352966 C2.92729549 3.5369234 1.87872155 2.14238202 0 0 Z " fill="#0B0B0B" transform="translate(107,46)"/>
<path d="M0 0 C1.546875 0.00193359 1.546875 0.00193359 3.125 0.00390625 C10.70189473 0.09292982 10.70189473 0.09292982 14.125 2.375 C14.41796875 4.7578125 14.41796875 4.7578125 14.3125 7.5 C14.27189453 8.86511719 14.27189453 8.86511719 14.23046875 10.2578125 C14.19566406 10.95648438 14.16085938 11.65515625 14.125 12.375 C11.73834357 11.18683771 9.36561348 9.98011901 7 8.75 C1.58311359 6.45015814 -4.29066491 6.6212356 -9.875 8.25 C-12.01543225 9.33567897 -12.01543225 9.33567897 -13.875 11.375 C-14.45395871 15.94103845 -14.45395871 15.94103845 -12.65234375 19.94140625 C-10.58369424 21.6099653 -8.51689815 22.7161922 -6.125 23.875 C-4.79082031 24.52275391 -4.79082031 24.52275391 -3.4296875 25.18359375 C-0.27533466 26.65466044 2.92300636 28.0111879 6.125 29.375 C11.22087766 31.61914612 15.86763648 33.69253994 19.125 38.375 C20.16002357 43.76078638 19.75539828 49.09174525 16.66015625 53.7734375 C10.87298667 59.81094266 3.88329234 62.32143425 -4.2734375 62.54296875 C-5.93226186 62.55485523 -7.59113355 62.56121605 -9.25 62.5625 C-10.075 62.57474609 -10.9 62.58699219 -11.75 62.59960938 C-16.82598376 62.61169505 -21.13595245 62.27433107 -25.875 60.375 C-27.38981367 56.96666925 -28.07005117 54.64283264 -27.5 50.9375 C-27.29375 50.421875 -27.0875 49.90625 -26.875 49.375 C-25.18229167 50.38411458 -23.48958333 51.39322917 -21.796875 52.40234375 C-15.17731632 55.75248625 -5.53224854 55.4435143 1.59375 53.80859375 C4.86410434 52.48520884 6.14244717 51.34882925 8.125 48.375 C8.43650132 45.39823485 8.43650132 45.39823485 7.125 42.375 C1.45003854 37.72865348 -5.70536372 35.14519905 -12.42773438 32.4140625 C-18.90165558 29.66854884 -23.94709316 26.00131547 -26.875 19.375 C-27.44949948 15.41733693 -27.73275324 12.98003826 -25.84375 9.4453125 C-19.21028614 0.85866206 -10.23895759 -0.24877263 0 0 Z " fill="#0E0E0E" transform="translate(209.875,44.625)"/>
<path d="M0 0 C4.82625 -0.0825 9.6525 -0.165 14.625 -0.25 C16.13658691 -0.28641602 17.64817383 -0.32283203 19.20556641 -0.36035156 C20.40874512 -0.3703418 21.61192383 -0.38033203 22.8515625 -0.390625 C24.68968506 -0.4220459 24.68968506 -0.4220459 26.56494141 -0.45410156 C31.51812742 0.20069062 34.52510752 2.52510752 38 6 C38.475864 9.24907146 38.37037705 12.53251502 38.375 15.8125 C38.39949219 16.71548828 38.42398438 17.61847656 38.44921875 18.54882812 C38.46783755 22.77219273 38.40359674 25.31459673 36.2265625 29.01171875 C31.90857723 32.86760384 28.82632246 33.24429087 23.046875 33.1953125 C21.83870117 33.19031738 20.63052734 33.18532227 19.38574219 33.18017578 C17.85594727 33.16196777 16.32615234 33.14375977 14.75 33.125 C9.8825 33.08375 5.015 33.0425 0 33 C0 22.11 0 11.22 0 0 Z " fill="#090909" transform="translate(291,115)"/>
<path d="M0 0 C12.21 0 24.42 0 37 0 C37 3.3 37 6.6 37 10 C36.36707031 9.68289062 35.73414063 9.36578125 35.08203125 9.0390625 C30.94688531 7.64495753 27.02419788 7.53929479 22.6875 7.375 C21.85154297 7.33632813 21.01558594 7.29765625 20.15429688 7.2578125 C18.10320741 7.16404841 16.05163485 7.08095755 14 7 C14 12.61 14 18.22 14 24 C19.61 24 25.22 24 31 24 C31 26.64 31 29.28 31 32 C25.39 31.67 19.78 31.34 14 31 C14 38.26 14 45.52 14 53 C18.888125 52.8453125 18.888125 52.8453125 23.875 52.6875 C25.38296143 52.65015747 25.38296143 52.65015747 26.92138672 52.61206055 C33.3377456 52.35538121 38.94746212 51.12965759 45 49 C43.125 57.75 43.125 57.75 42 60 C28.14 60 14.28 60 0 60 C0.66 58.68 1.32 57.36 2 56 C2.30068163 53.52518766 2.30068163 53.52518766 2.25878906 50.8359375 C2.26509338 49.80807129 2.27139771 48.78020508 2.27789307 47.72119141 C2.27182037 46.06482666 2.27182037 46.06482666 2.265625 44.375 C2.26753845 43.23595215 2.2694519 42.0969043 2.27142334 40.92333984 C2.27278387 38.51594827 2.26909667 36.10854933 2.26074219 33.70117188 C2.25004108 30.01415544 2.26064225 26.32762626 2.2734375 22.640625 C2.27211588 20.30208226 2.26955344 17.96353982 2.265625 15.625 C2.26967346 14.52075684 2.27372192 13.41651367 2.27789307 12.27880859 C2.27158875 11.25094238 2.26528442 10.22307617 2.25878906 9.1640625 C2.25719788 8.26123535 2.25560669 7.3584082 2.25396729 6.42822266 C2.10444256 3.62264012 2.10444256 3.62264012 0 0 Z " fill="#131313" transform="translate(55,46)"/>
<path d="M0 0 C1.11568359 -0.02449219 2.23136719 -0.04898438 3.38085938 -0.07421875 C10.02876673 -0.09786276 14.32958833 0.30933501 19.6875 4.375 C21.50454899 8.00909798 20.95790718 12.24837548 21 16.25 C21.02900391 17.16136719 21.05800781 18.07273438 21.08789062 19.01171875 C21.15123576 25.66783051 21.15123576 25.66783051 19.04296875 28.8828125 C12.70646465 32.89698259 6.4105111 32.74083007 -0.875 32.75 C-2.41704102 32.78673828 -2.41704102 32.78673828 -3.99023438 32.82421875 C-11.50728051 32.853449 -11.50728051 32.853449 -15.40234375 30.5390625 C-19.66896293 25.7053058 -19.64941394 22.64254648 -19.625 16.5 C-19.64111328 15.69691406 -19.65722656 14.89382812 -19.67382812 14.06640625 C-19.67768881 9.37953183 -19.45755943 6.10931436 -16.3125 2.375 C-11.34570125 -0.75495264 -5.67397802 0.00648825 0 0 Z " fill="#0C0C0C" transform="translate(448.3125,115.625)"/>
<path d="M0 0 C11.88 0 23.76 0 36 0 C36 3.3 36 6.6 36 10 C34.68 9.34 33.36 8.68 32 8 C29.78395837 7.63991339 29.78395837 7.63991339 27.453125 7.5859375 C26.60878906 7.54726563 25.76445313 7.50859375 24.89453125 7.46875 C23.58548828 7.42234375 23.58548828 7.42234375 22.25 7.375 C21.36183594 7.33632813 20.47367188 7.29765625 19.55859375 7.2578125 C17.37272833 7.16379678 15.18639308 7.08081998 13 7 C13 12.61 13 18.22 13 24 C18.61 24 24.22 24 30 24 C30 26.64 30 29.28 30 32 C24.72 31.67 19.44 31.34 14 31 C14 38.26 14 45.52 14 53 C29.77205406 52.67343132 29.77205406 52.67343132 45 49 C44.52269162 50.4589426 44.04308958 51.91713496 43.5625 53.375 C43.29566406 54.18710938 43.02882813 54.99921875 42.75390625 55.8359375 C42 58 42 58 41 60 C27.14 60 13.28 60 -1 60 C-0.01 58.35 0.98 56.7 2 55 C2.44026077 52.47152127 2.44026077 52.47152127 2.37231445 49.81420898 C2.37854324 48.80643906 2.38477203 47.79866913 2.39118958 46.76036072 C2.38197983 45.68315262 2.37277008 44.60594452 2.36328125 43.49609375 C2.36402901 41.82293846 2.36402901 41.82293846 2.36479187 40.11598206 C2.36245458 37.76162939 2.35274646 35.40727407 2.33618164 33.05297852 C2.31256355 29.44720153 2.31562686 25.84216295 2.32226562 22.23632812 C2.31668952 19.94791225 2.30958007 17.6594995 2.30078125 15.37109375 C2.30169266 14.29186142 2.30260406 13.21262909 2.30354309 12.10069275 C2.29401108 11.09607498 2.28447906 10.09145721 2.2746582 9.05639648 C2.27005081 8.17435043 2.26544342 7.29230438 2.26069641 6.38352966 C2.09767793 3.61649721 2.09767793 3.61649721 0 0 Z " fill="#101010" transform="translate(503,46)"/>
<path d="M0 0 C12.21 0 24.42 0 37 0 C37 3.3 37 6.6 37 10 C36.36707031 9.68289062 35.73414063 9.36578125 35.08203125 9.0390625 C30.94688531 7.64495753 27.02419788 7.53929479 22.6875 7.375 C21.85154297 7.33632813 21.01558594 7.29765625 20.15429688 7.2578125 C18.10320741 7.16404841 16.05163485 7.08095755 14 7 C14 12.61 14 18.22 14 24 C19.61 24 25.22 24 31 24 C31 26.64 31 29.28 31 32 C25.39 31.67 19.78 31.34 14 31 C14 38.26 14 45.52 14 53 C30.24474952 52.53107889 30.24474952 52.53107889 46 49 C44.78322054 52.7372512 43.46233512 56.3441622 42 60 C28.14 60 14.28 60 0 60 C0.99 58.35 1.98 56.7 3 55 C3.44670005 52.47185895 3.44670005 52.47185895 3.38818359 49.81420898 C3.39764008 48.80643906 3.40709656 47.79866913 3.4168396 46.76036072 C3.41076691 45.68315262 3.40469421 44.60594452 3.3984375 43.49609375 C3.40130768 42.38065689 3.40417786 41.26522003 3.40713501 40.11598206 C3.40917369 37.76164237 3.40365758 35.40728567 3.39111328 33.05297852 C3.37504254 29.44704408 3.39097724 25.84222797 3.41015625 22.23632812 C3.40817408 19.94791419 3.40433095 17.65950095 3.3984375 15.37109375 C3.40451019 14.29186142 3.41058289 13.21262909 3.4168396 12.10069275 C3.40738312 11.09607498 3.39792664 10.09145721 3.38818359 9.05639648 C3.38579681 8.17435043 3.38341003 7.29230438 3.38095093 6.38352966 C3.10985862 3.49894796 3.10985862 3.49894796 0 0 Z " fill="#0A0A0A" transform="translate(239,46)"/>
<path d="M0 0 C5.94 0 11.88 0 18 0 C17.01 1.65 16.02 3.3 15 5 C14.5376627 7.43367514 14.5376627 7.43367514 14.56762695 9.97387695 C14.54783279 10.93449539 14.52803864 11.89511383 14.50764465 12.88484192 C14.49805977 14.42104439 14.49805977 14.42104439 14.48828125 15.98828125 C14.47033005 17.04661667 14.45237885 18.10495209 14.43388367 19.19535828 C14.37980509 22.56769862 14.3458921 25.9398976 14.3125 29.3125 C14.27932484 31.6022332 14.244835 33.89194775 14.20898438 36.18164062 C14.12408002 41.78763365 14.05571967 47.39364503 14 53 C17.18295695 52.8907499 20.36481242 52.76151538 23.546875 52.62890625 C24.44003418 52.59849243 25.33319336 52.56807861 26.25341797 52.53674316 C33.42251005 52.22297218 39.38846533 50.8891869 46 48 C44.66666667 52 43.33333333 56 42 60 C28.14 60 14.28 60 0 60 C0.99 58.35 1.98 56.7 3 55 C3.44670005 52.47185895 3.44670005 52.47185895 3.38818359 49.81420898 C3.39764008 48.80643906 3.40709656 47.79866913 3.4168396 46.76036072 C3.41076691 45.68315262 3.40469421 44.60594452 3.3984375 43.49609375 C3.40130768 42.38065689 3.40417786 41.26522003 3.40713501 40.11598206 C3.40917369 37.76164237 3.40365758 35.40728567 3.39111328 33.05297852 C3.37504254 29.44704408 3.39097724 25.84222797 3.41015625 22.23632812 C3.40817408 19.94791419 3.40433095 17.65950095 3.3984375 15.37109375 C3.40451019 14.29186142 3.41058289 13.21262909 3.4168396 12.10069275 C3.40738312 11.09607498 3.39792664 10.09145721 3.38818359 9.05639648 C3.38579681 8.17435043 3.38341003 7.29230438 3.38095093 6.38352966 C3.10985862 3.49894796 3.10985862 3.49894796 0 0 Z " fill="#0C0C0C" transform="translate(449,46)"/>
<path d="M0 0 C2.97 0 5.94 0 9 0 C9.33 8.25 9.66 16.5 10 25 C12.784375 25.020625 15.56875 25.04125 18.4375 25.0625 C19.31591553 25.071604 20.19433105 25.08070801 21.09936523 25.09008789 C23.06645974 25.09723091 25.03353621 25.05031893 27 25 C28.71443219 23.28556781 28.23052967 20.99554759 28.31640625 18.65234375 C28.35830078 17.57275391 28.40019531 16.49316406 28.44335938 15.38085938 C28.48267578 14.24455078 28.52199219 13.10824219 28.5625 11.9375 C28.62727539 10.22723633 28.62727539 10.22723633 28.69335938 8.48242188 C28.79982839 5.65507805 28.90184207 2.82764262 29 0 C31.97 0 34.94 0 38 0 C38.11638426 4.06225821 38.18731373 8.1240863 38.25 12.1875 C38.30027344 13.91323242 38.30027344 13.91323242 38.3515625 15.67382812 C38.36445313 16.78564453 38.37734375 17.89746094 38.390625 19.04296875 C38.41157227 20.06414795 38.43251953 21.08532715 38.45410156 22.13745117 C37.86924947 25.82422041 36.64409119 27.39681718 34 30 C28.89087986 32.70869024 23.71451188 32.40405614 18.0625 32.4375 C17.08603516 32.47037109 16.10957031 32.50324219 15.10351562 32.53710938 C7.06495452 32.59705797 7.06495452 32.59705797 3.37109375 29.59765625 C-0.00171348 25.9025709 -0.12242276 24.23970705 -0.09765625 19.3359375 C-0.09443359 18.21445313 -0.09121094 17.09296875 -0.08789062 15.9375 C-0.07951172 14.761875 -0.07113281 13.58625 -0.0625 12.375 C-0.05798828 11.19164063 -0.05347656 10.00828125 -0.04882812 8.7890625 C-0.03701467 5.85932493 -0.02054258 2.92968728 0 0 Z " fill="#121212" transform="translate(207,116)"/>
<path d="M0 0 C0.98548828 -0.02900391 1.97097656 -0.05800781 2.98632812 -0.08789062 C8.99764461 -0.14037358 12.69174894 0.14920784 17.1875 4.3125 C17.5625 7.0625 17.5625 7.0625 17.1875 9.3125 C14.5475 9.3125 11.9075 9.3125 9.1875 9.3125 C8.8575 8.3225 8.5275 7.3325 8.1875 6.3125 C2.9075 6.3125 -2.3725 6.3125 -7.8125 6.3125 C-7.8125 7.9625 -7.8125 9.6125 -7.8125 11.3125 C-7.16700195 11.35213867 -6.52150391 11.39177734 -5.85644531 11.43261719 C-2.92352726 11.6235047 0.0066141 11.84268356 2.9375 12.0625 C4.46117187 12.1553125 4.46117187 12.1553125 6.015625 12.25 C6.9953125 12.32734375 7.975 12.4046875 8.984375 12.484375 C10.33547363 12.5786377 10.33547363 12.5786377 11.71386719 12.67480469 C14.85991114 13.48584563 16.14453574 14.83267546 18.1875 17.3125 C18.91554951 20.05339228 18.76193241 22.54271206 18.1875 25.3125 C15.98009319 28.28108157 14.70152627 29.14115791 11.1875 30.3125 C7.56688341 30.5682918 3.94120497 30.54381941 0.3125 30.5625 C-0.68136719 30.583125 -1.67523438 30.60375 -2.69921875 30.625 C-11.75554215 30.67349437 -11.75554215 30.67349437 -15.8125 27.3125 C-16.8125 26.3125 -16.8125 26.3125 -16.875 23.25 C-16.854375 22.280625 -16.83375 21.31125 -16.8125 20.3125 C-14.1725 20.3125 -11.5325 20.3125 -8.8125 20.3125 C-8.4825 21.6325 -8.1525 22.9525 -7.8125 24.3125 C-2.5325 24.3125 2.7475 24.3125 8.1875 24.3125 C8.5175 22.6625 8.8475 21.0125 9.1875 19.3125 C6.89233257 18.16491628 5.56216821 18.18823277 3.01171875 18.171875 C2.18349609 18.15253906 1.35527344 18.13320312 0.50195312 18.11328125 C-1.23740077 18.07965805 -2.97712001 18.06121572 -4.71679688 18.05859375 C-9.15013499 17.92810045 -11.23575664 17.74194296 -14.88671875 15.0234375 C-17.76720621 10.96855252 -17.44067025 9.18081943 -16.8125 4.3125 C-13.10587545 -1.15918387 -5.86479149 0.05686611 0 0 Z " fill="#141414" transform="translate(68.8125,116.6875)"/>
<path d="M0 0 C0.99 -0.02900391 1.98 -0.05800781 3 -0.08789062 C9.02593997 -0.14025508 12.74550113 0.13408439 17.25 4.3125 C17.625 7.0625 17.625 7.0625 17.25 9.3125 C14.61 9.3125 11.97 9.3125 9.25 9.3125 C8.92 8.3225 8.59 7.3325 8.25 6.3125 C2.97 5.9825 -2.31 5.6525 -7.75 5.3125 C-7.42 7.6225 -7.09 9.9325 -6.75 12.3125 C-6.17032471 12.32708252 -5.59064941 12.34166504 -4.9934082 12.35668945 C-2.34912447 12.43148528 0.29394002 12.52803898 2.9375 12.625 C3.84951172 12.64755859 4.76152344 12.67011719 5.70117188 12.69335938 C14.69706398 13.05319506 14.69706398 13.05319506 18.25 16.3125 C19.15247633 19.35625557 18.87154614 22.21596834 18.25 25.3125 C16.37379387 27.81410818 15.01108697 28.93195652 12.25 30.3125 C8.48499463 30.58105112 4.71100555 30.54410387 0.9375 30.5625 C-0.10857422 30.583125 -1.15464844 30.60375 -2.23242188 30.625 C-3.24498047 30.63015625 -4.25753906 30.6353125 -5.30078125 30.640625 C-6.22544189 30.6499707 -7.15010254 30.65931641 -8.1027832 30.66894531 C-11.57054631 30.20201419 -14.26083569 28.80166431 -16.75 26.3125 C-16.79080783 24.31291636 -16.79254356 22.31204746 -16.75 20.3125 C-14.11 20.3125 -11.47 20.3125 -8.75 20.3125 C-8.42 21.6325 -8.09 22.9525 -7.75 24.3125 C-1.81 24.3125 4.13 24.3125 10.25 24.3125 C9.755 21.8375 9.755 21.8375 9.25 19.3125 C6.95483257 18.16491628 5.62466821 18.18823277 3.07421875 18.171875 C2.24599609 18.15253906 1.41777344 18.13320312 0.56445312 18.11328125 C-1.17490077 18.07965805 -2.91462001 18.06121572 -4.65429688 18.05859375 C-9.11096763 17.92741367 -11.1684484 17.75273308 -14.8203125 14.98828125 C-16.75 12.3125 -16.75 12.3125 -17.3125 8.75 C-16.67128811 4.83148289 -15.85500781 3.68691774 -12.75 1.3125 C-8.90831726 -0.60834137 -4.22623811 0.0406369 0 0 Z " fill="#131313" transform="translate(528.75,116.6875)"/>
<path d="M0 0 C17.88151659 -0.63862559 17.88151659 -0.63862559 25 5.8125 C26.47670499 9.04279216 26.36936103 11.49107022 26 15 C24.62912108 18.35103737 23.49456016 19.68562258 20.4375 21.62890625 C16.14536359 23.34088338 12.68084078 23.3368935 8.125 23.1875 C5.44375 23.125625 2.7625 23.06375 0 23 C0 15.41 0 7.82 0 0 Z " fill="#F6F6F6" transform="translate(402,76)"/>
<path d="M0 0 C12.54 0 25.08 0 38 0 C38 1.98 38 3.96 38 6 C33.38 6 28.76 6 24 6 C24 14.91 24 23.82 24 33 C20.7 33 17.4 33 14 33 C14 24.09 14 15.18 14 6 C9.38 6 4.76 6 0 6 C0 4.02 0 2.04 0 0 Z " fill="#1C1C1C" transform="translate(128,115)"/>
<path d="M0 0 C2.8875 -0.061875 5.775 -0.12375 8.75 -0.1875 C9.65331055 -0.21481201 10.55662109 -0.24212402 11.48730469 -0.27026367 C14.84075728 -0.30511739 17.42008765 -0.23962584 20.54296875 1.05078125 C22.80389263 4.07544886 22.56615714 6.65203403 22.5625 10.375 C22.58441406 11.68210938 22.60632813 12.98921875 22.62890625 14.3359375 C22 18 22 18 20.015625 20.95703125 C15.93499609 23.72149876 12.97887898 23.57153063 8.1875 23.3125 C4.1346875 23.1578125 4.1346875 23.1578125 0 23 C0 15.41 0 7.82 0 0 Z " fill="#EDEDED" transform="translate(299,120)"/>
<path d="M0 0 C0.72445313 -0.00322266 1.44890625 -0.00644531 2.1953125 -0.00976562 C5.9807029 0.02864701 7.78295894 0.16780596 11 2.3125 C11.30344568 5.21308372 11.41805667 7.85324295 11.375 10.75 C11.38660156 11.52666016 11.39820313 12.30332031 11.41015625 13.10351562 C11.38068146 18.80688724 11.38068146 18.80688724 9.70556641 21.03173828 C6.8201448 23.19848918 3.46291435 22.78388973 0 22.75 C-1.08667969 22.7799707 -1.08667969 22.7799707 -2.1953125 22.81054688 C-5.34762765 22.80763884 -7.45472818 22.74138969 -9.9765625 20.7578125 C-11.40650555 17.34123102 -11.39666665 14.4441633 -11.375 10.75 C-11.38660156 10.07775391 -11.39820313 9.40550781 -11.41015625 8.71289062 C-11.3939365 5.99067614 -11.25557981 3.79829673 -9.9765625 1.3671875 C-6.79111788 -0.33255568 -3.51583423 -0.07819916 0 0 Z " fill="#F3F3F3" transform="translate(449,120.6875)"/>
<path d="M0 0 C0.721875 0.00257812 1.44375 0.00515625 2.1875 0.0078125 C2.909375 0.00523438 3.63125 0.00265625 4.375 0 C6.1875 0.1328125 6.1875 0.1328125 7.1875 1.1328125 C7.27593793 3.58111676 7.30278752 6.00101849 7.28515625 8.44921875 C7.2837413 9.18027328 7.28232635 9.91132782 7.28086853 10.66453552 C7.27525408 13.00816882 7.26269922 15.35170789 7.25 17.6953125 C7.24498686 19.28059758 7.24042363 20.86588416 7.23632812 22.45117188 C7.22527997 26.3450886 7.20800572 30.23893455 7.1875 34.1328125 C3.8875 34.1328125 0.5875 34.1328125 -2.8125 34.1328125 C-2.83715288 29.45141996 -2.85533739 24.77006491 -2.86743164 20.08862305 C-2.87247157 18.49486636 -2.8793035 16.90111431 -2.88793945 15.30737305 C-2.90001999 13.02130997 -2.90573155 10.73530783 -2.91015625 8.44921875 C-2.91531754 7.73254532 -2.92047882 7.01587189 -2.92579651 6.27748108 C-2.92599263 4.56217578 -2.87442007 2.84699984 -2.8125 1.1328125 C-1.8125 0.1328125 -1.8125 0.1328125 0 0 Z " fill="#1D1D1D" transform="translate(377.8125,114.8671875)"/>
<path d="M0 0 C12.93636931 -0.58140986 12.93636931 -0.58140986 19 4 C20.462958 6.925916 20.44523109 8.75617347 20 12 C17.75630757 14.59577955 15.07134321 16.46432839 12 18 C9.95944995 18.07065617 7.91665743 18.08421976 5.875 18.0625 C2.966875 18.0315625 2.966875 18.0315625 0 18 C0 12.06 0 6.12 0 0 Z " fill="#F3F3F3" transform="translate(402,52)"/>
<path d="M0 0 C12.21 0 24.42 0 37 0 C37 3.3 37 6.6 37 10 C36.01 9.34 35.02 8.68 34 8 C34.66 8 35.32 8 36 8 C36 6.02 36 4.04 36 2 C34.47076904 2.06900513 34.47076904 2.06900513 32.91064453 2.1394043 C29.13546549 2.30571833 25.3597314 2.4519414 21.58349609 2.59204102 C19.94785655 2.65554996 18.31242035 2.72453859 16.67724609 2.79907227 C14.32941809 2.90514454 11.98156859 2.99161666 9.6328125 3.07421875 C8.89942657 3.11157639 8.16604065 3.14893402 7.41043091 3.18742371 C5.34814453 3.2487793 5.34814453 3.2487793 2 3 C1.34 2.01 0.68 1.02 0 0 Z " fill="#373737" transform="translate(239,46)"/>
<path d="M0 0 C4.56248659 -0.02906612 9.1249493 -0.04682113 13.6875 -0.0625 C14.98107422 -0.07087891 16.27464844 -0.07925781 17.60742188 -0.08789062 C19.47817383 -0.09272461 19.47817383 -0.09272461 21.38671875 -0.09765625 C22.53358154 -0.10289307 23.68044434 -0.10812988 24.86206055 -0.11352539 C27.70263777 -0.01075807 30.24043792 0.34683584 33 1 C33 1.33 33 1.66 33 2 C17.16 2.495 17.16 2.495 1 3 C0.67 2.01 0.34 1.02 0 0 Z " fill="#383838" transform="translate(389,46)"/>
<path d="M0 0 C1.67542976 0.28604898 3.34385343 0.61781233 5 1 C5 2.98 5 4.96 5 7 C2.625 7.625 2.625 7.625 0 8 C-0.66 7.34 -1.32 6.68 -2 6 C-1.44444444 1.44444444 -1.44444444 1.44444444 0 0 Z " fill="#A3A3A3" transform="translate(551,116)"/>
<path d="M0 0 C5.61 0 11.22 0 17 0 C17 0.66 17 1.32 17 2 C12.38 2 7.76 2 3 2 C3 5.3 3 8.6 3 12 C2.67 12 2.34 12 2 12 C2 8.7 2 5.4 2 2 C1.34 2 0.68 2 0 2 C0 1.34 0 0.68 0 0 Z " fill="#424242" transform="translate(298,46)"/>
<path d="M0 0 C2.29109597 -0.08075665 4.58299267 -0.13907731 6.875 -0.1875 C8.78925781 -0.23970703 8.78925781 -0.23970703 10.7421875 -0.29296875 C11.81726563 -0.19628906 12.89234375 -0.09960938 14 0 C14.66 0.99 15.32 1.98 16 3 C13.70890403 3.08075665 11.41700733 3.13907731 9.125 3.1875 C7.21074219 3.23970703 7.21074219 3.23970703 5.2578125 3.29296875 C4.18273437 3.19628906 3.10765625 3.09960938 2 3 C1.34 2.01 0.68 1.02 0 0 Z " fill="#3F3F3F" transform="translate(107,46)"/>
<path d="M0 0 C4.29 0 8.58 0 13 0 C12.67 0.66 12.34 1.32 12 2 C8 2 4 2 0 2 C0 1.34 0 0.68 0 0 Z " fill="#181818" transform="translate(158,47)"/>
</svg>
