<?xml version="1.0" encoding="UTF-8" standalone="no"?>
<!-- Generator: Adobe Illustrator 16.0.0, SVG Export Plug-In . SVG Version: 6.00 Build 0)  -->
<svg xmlns:dc="http://purl.org/dc/elements/1.1/" xmlns:cc="http://creativecommons.org/ns#" xmlns:rdf="http://www.w3.org/1999/02/22-rdf-syntax-ns#" xmlns:svg="http://www.w3.org/2000/svg" xmlns="http://www.w3.org/2000/svg" xmlns:sodipodi="http://sodipodi.sourceforge.net/DTD/sodipodi-0.dtd" xmlns:inkscape="http://www.inkscape.org/namespaces/inkscape" version="1.1" id="Layer_1" x="0px" y="0px" viewBox="0 0 708.66811 1000" enable-background="new 0 0 738.368 1000" xml:space="preserve" sodipodi:docname="Lionhead_Studios logo.svg" inkscape:version="0.92.3 (2405546, 2018-03-11)"><metadata id="metadata67"><rdf:RDF><cc:Work rdf:about=""><dc:format>image/svg+xml</dc:format><dc:type rdf:resource="http://purl.org/dc/dcmitype/StillImage"/><dc:title/></cc:Work></rdf:RDF></metadata><defs id="defs65">

</defs><sodipodi:namedview pagecolor="#ffffff" bordercolor="#666666" borderopacity="1" objecttolerance="10" gridtolerance="10" guidetolerance="10" inkscape:pageopacity="0" inkscape:pageshadow="2" inkscape:window-width="1366" inkscape:window-height="705" id="namedview63" showgrid="false" inkscape:zoom="0.472" inkscape:cx="300.70325" inkscape:cy="432.5092" inkscape:window-x="-8" inkscape:window-y="-8" inkscape:window-maximized="1" inkscape:current-layer="Layer_1"/>
<g id="g122"><path inkscape:connector-curvature="0" id="rect4" d="M 4.2664803,0 V 706.50517 H 708.66809 V 0 Z M 28.617377,25.824089 h 92.288263 c 29.33307,8.024491 56.9629,17.907783 83.51914,28.58837 15.13212,6.085604 42.72599,18.360905 56.32925,25.347814 32.17445,16.58091 55.24968,30.289037 86.26941,51.015467 21.95885,14.66474 41.75407,30.73834 55.63584,53.56264 7.64078,12.51428 12.57104,28.08295 4.95656,44.3686 11.14558,-5.76525 24.07063,-1.77873 31.69586,2.78996 -1.71176,-3.40082 -4.14467,-15.70112 -7.75586,-24.65441 -6.28523,-15.62342 -15.7572,-29.54381 -25.70503,-41.8728 -6.51235,-8.10338 -23.56925,-23.62112 -34.55585,-31.29895 -7.05266,-4.94164 -37.58061,-26.59742 -40.26421,-28.61639 -0.0932,0.10639 36.03939,14.71921 54.02725,25.72135 44.01811,26.90926 81.19773,54.72209 103.5415,103.54152 0.0338,0.01 0.0397,-0.01 0.0397,-0.0537 5.90033,-6.24459 8.28867,-24.52306 4.18378,-34.46013 -9.27127,-22.47766 -25.51824,-37.43778 -43.99739,-51.14623 -12.80834,-9.51272 -44.80965,-28.1637 -77.89018,-43.89231 -29.25059,-13.922422 -80.06558,-35.471162 -108.22958,-45.727396 -31.77639,-11.530492 -66.89844,-22.288874 -97.42926,-32.52 44.75686,5.473573 93.02092,11.318 231.75142,66.928778 33.05184,13.256598 63.47345,31.694878 90.86642,51.410038 16.06093,11.53049 31.5646,29.06743 39.4564,48.62241 9.76135,24.23244 -7.18902,56.14154 -21.16404,65.49528 0.0538,0.0514 0.0537,0 0.0537,0 6.17765,1.48823 14.74546,5.87083 20.04571,8.50063 12.3039,6.13701 20.92602,11.34475 31.97836,18.19897 2.85334,1.78229 14.90549,8.47608 12.78013,12.06338 -1.87433,1.30294 -6.44711,1.11782 -10.58785,0.69107 -5.73895,-0.77101 -11.39787,-2.49737 -17.62931,-4.22347 -15.09148,-4.17302 -30.79467,-11.21253 -47.87763,-12.70076 -1.27426,0.0251 -1.68786,1.53998 -1.94247,4.16978 -0.45066,4.75755 3.76013,13.12453 5.44918,16.26116 6.25654,11.74327 12.95284,22.77244 18.33438,35.23293 1.36869,3.13663 3.60046,11.07914 1.39382,14.77162 -3.29443,9.11347 -20.43164,15.01292 -39.42838,11.29294 -27.67032,-5.39349 -80.87441,-10.01825 -94.40116,9.85709 7.42681,-4.48979 20.72306,-5.60568 29.67634,-5.95114 11.01529,-0.47814 21.68485,0.29074 30.34407,1.43351 17.32323,2.31303 39.90672,6.48255 48.63408,7.86559 8.03883,1.27665 25.14919,1.24698 30.83435,-0.50664 5.82023,-1.85879 7.99541,-5.33772 8.38391,-8.89752 2.46962,-27.76594 -7.89157,-45.38182 -16.84485,-63.66254 0.4901,0 -0.25255,-0.0233 0.21245,-0.0233 2.90952,0 10.33528,1.4625 14.5872,2.81565 11.9417,3.93275 24.64063,7.27884 33.79474,14.13426 1.71176,1.27546 5.14348,4.83662 5.63597,7.01577 0.64908,2.81508 -0.49249,6.21665 0,7.04145 2.85333,-2.92267 7.37284,-4.51871 9.86876,-7.76054 -4.38459,-2.09906 -6.93413,-4.43565 -8.02669,-6.98775 -1.11408,-2.76369 0.084,-5.15343 4.51764,-6.2173 2.47202,-0.55824 0.54406,-6.90673 7.01577,-7.22589 8.27431,-1.38304 23.8833,5.79042 33.82276,9.90846 5.52617,2.41941 9.86877,3.50702 14.79965,4.88886 0.62278,0.93119 0.62265,1.75483 0.70274,3.53473 -5.95172,7.91929 -10.88057,15.94212 -14.22999,22.53217 -6.38564,-1.46074 -10.25102,-1.88652 -15.00977,-2.23198 -4.68822,-0.34665 -12.38044,-0.16031 -15.83624,0.10506 -6.20156,0.55824 -11.1825,1.27616 -15.59579,3.50672 -10.78275,5.43852 -13.80618,15.35988 -18.2083,27.47705 2.21053,-4.17014 5.62921,-8.17606 7.90061,-11.00343 10.36144,-12.93863 16.81702,-12.67273 39.12253,-12.67273 5.00619,0.23907 12.43191,0.7178 18.82233,2.41641 7.5057,1.80859 12.59496,4.46235 17.25808,7.91696 2.88322,2.12655 5.4072,5.36808 7.74653,7.73251 0.17333,-4.17302 1.28655,-12.22168 -4.94489,-19.71184 18.71942,3.5598 25.49202,-2.28558 24.66842,-3.53473 -2.71946,-7.41246 -8.10326,-12.14279 -12.40658,-17.2721 0.95749,0 6.80022,1.41031 11.86259,3.29659 6.09875,2.44452 12.22465,5.20548 12.51632,12.56535 -3.77257,7.04189 -6.72143,12.99354 -19.7282,18.33205 -0.10519,11.58547 -8.26021,33.21409 -16.17711,35.92398 -8.13207,-6.27088 -31.13046,-5.68732 -45.7414,-5.68732 -0.54868,-0.71722 -1.40597,-2.52457 -1.63428,-3.1892 -1.48704,-3.79887 -0.23798,-7.78283 1.24906,-10.86568 -7.33118,2.78999 -2.33932,0.29326 -26.24901,10.4431 -17.73683,7.49255 -37.27875,15.35771 -53.73773,24.07073 -7.4782,3.95905 -22.41099,12.6471 -26.43579,19.76789 -5.36719,9.53781 -9.3648,21.84021 -10.69524,32.38692 -0.4901,6.80282 -0.92893,13.95076 -1.0903,18.49315 -0.21039,9.06206 0.24004,16.10121 0.90586,24.46996 1.04833,13.84233 4.56895,25.50737 10.54816,34.48815 8.32811,12.51547 21.59983,23.17135 35.23058,30.31605 4.19812,2.20425 22.91515,6.98702 24.65441,9.85709 2.46962,3.79887 0.21529,13.75957 -0.70275,16.89621 -3.971,13.49687 -10.66936,20.67102 -22.53216,26.0669 -1.52409,-2.28434 -0.79612,-6.67004 0,-9.16836 1.55517,-2.44571 2.77832,-12.54024 1.38214,-16.89854 -2.60351,-8.28866 -25.62661,-26.11823 -33.10601,-31.69819 -13.87939,-10.43912 -24.11032,-19.97946 -39.2556,-29.33081 -11.46594,-7.09449 -27.17995,-13.09742 -38.91007,-19.98033 -12.53938,-7.30608 -22.09211,-13.55113 -32.40093,-23.93766 -12.32781,-12.40908 -20.11365,-30.68771 -21.15003,-38.7373 0.3861,3.79768 -1.8707,13.44279 4.92855,29.59695 5.57996,12.72706 18.82426,25.26869 29.59929,33.07801 22.26367,16.15416 47.50433,28.27019 71.15224,42.99111 12.3553,7.70294 24.92335,16.73843 29.38685,20.48231 3.45341,2.95016 11.58194,9.83102 13.29609,12.08906 10.94716,14.37307 -9.1915,34.43511 -19.85893,36.74815 -8.95568,-2.52467 -39.77588,-20.19584 -53.14006,-28.4857 -37.70062,-23.45904 -75.2707,-47.55713 -121.14044,-62.6773 -9.00708,-2.97646 -18.45289,-4.91406 -28.18914,-5.63128 -10.48335,-0.82241 -29.57289,0.15948 -36.62674,2.07087 -32.99925,9.06087 -57.48203,20.67235 -73.94221,45.83479 -16.02148,24.41533 -9.11462,50.9317 -6.17761,60.63208 4.23637,12.69717 7.55819,23.16674 11.80891,35.83761 h -52.83421 c -0.9551,-8.42254 -3.08035,-25.8768 -2.69425,-34.48582 -0.10758,-20.271 4.10442,-32.46844 7.29126,-42.13895 5.38034,-14.82492 21.05546,-36.24054 36.94426,-48.0364 9.81873,-7.27978 19.91432,-14.61497 30.30204,-21.15003 4.22442,-2.65849 8.40853,-5.2605 12.68674,-7.73251 -5.96487,0.7184 -21.66452,2.25813 -50.06759,15.03778 -46.52241,20.93802 -80.745203,70.9953 -80.957973,138.50593 h -52.12913 c 0.24027,-59.85671 0.15897,-116.66618 0.39924,-176.52648 3.75822,-11.74327 16.6316,-28.32199 23.53842,-37.59563 30.92649,-41.4206 85.648453,-66.60795 144.417393,-79.59918 v -0.71909 c -54.82304,4.88784 -97.8685,15.81041 -132.421723,40.17315 -13.62604,9.56366 -34.58233,31.15522 -35.93333,32.98461 0,0.0279 0,0.0654 0,0.0934 -0.0922,0.0631 -0.0901,0.0286 0,-0.0934 -2.3e-4,-54.89568 -0.22646,-140.43482 -0.22646,-147.28674 4.59617,-6.08441 12.90206,-15.38443 17.11333,-20.96559 7.15904,-9.43023 21.44134,-20.42981 31.72387,-26.7533 36.492113,-22.53024 95.503463,-4.94093 133.841213,3.50672 v -0.69107 c -15.43694,-6.93431 -30.72792,-14.1085 -47.91967,-19.73987 -17.57426,-5.73894 -59.33988,-11.34497 -87.329363,-7.73018 -17.55035,2.25804 -38.7529,9.48423 -48.59673,13.38949 0,-67.831 0.67706,-176.817702 0.67706,-185.958659 4.68942,-1.275455 14.53549,-4.781246 30.08958,-6.135595 11.94289,-1.010083 38.12669,2.761186 48.540713,5.682659 29.82435,8.451231 62.06729,23.621981 88.34261,43.416035 18.98479,14.29418 47.03949,38.25821 47.03949,38.17932 C 239.36617,142.38458 217.54,113.42584 198.6604,97.669736 172.82258,76.068292 148.06059,62.492769 112.44469,50.641919 96.968297,45.436104 82.274867,42.75111 64.779497,40.838526 c -10.64114,-1.170262 -25.2264,-0.132363 -36.13411,-0.212452 -0.004,-5.021729 -0.028,-9.886638 -0.028,-14.801985 z M 488.60417,234.32893 c 0.002,0.004 0.005,0.008 0.007,0.0117 0.0406,0 0.0134,-0.002 -0.007,-0.0117 z m 55.93702,67.76459 c 7.01321,2.94897 13.41367,0.6627 20.40058,4.06471 1.71654,0.8511 1.27647,3.26723 0.70509,4.96823 -0.64909,1.43325 -1.03622,2.15111 -2.0989,3.1612 -0.81046,0.82241 -2.19178,0.87627 -3.55809,0.34553 -5.19624,-2.33933 -10.93259,-5.52646 -15.44868,-12.53967 z m 74.61693,96.36465 v 0.69106 c -1.95442,7.43996 -3.87962,13.68335 -7.69283,19.87295 -2.93463,4.73006 -7.34647,11.15839 -11.31628,15.35531 h -0.70508 c 0,-4.94044 0.49262,-10.25319 0.49262,-15.16853 0.47815,-5.3134 0.77907,-15.78151 0.21246,-20.05973 6.33424,-0.21158 12.67128,-0.45199 19.00911,-0.69106 z M 561.3977,553.41204 c 2.97407,6.18841 -10.60116,21.68092 -17.60361,21.8411 -4.15629,-0.8511 -7.63716,-1.81017 -9.16603,-5.66164 -0.73037,-0.9539 -1.08747,-2.73472 -1.40783,-4.19546 8.20977,-0.37413 24.74797,-7.01845 28.17747,-11.984 z" style="fill:#000000;stroke-width:1.19536519"/><polygon transform="matrix(1.1953652,0,0,1.1953652,-87.91672,-89.83216)" points="131.884,783.278 131.884,797.415 73.548,797.415 73.548,688.97 90.041,688.97 90.041,783.278 " id="polygon6" style="fill:#000000"/><rect x="81.012299" y="733.73853" width="19.727112" height="129.63017" id="rect8" style="fill:#000000;stroke-width:1.19536519"/><path d="m 292.79513,733.97406 c 6.33663,0 11.50539,-0.21157 17.84083,-0.21157 v 129.60627 c -6.54821,-0.24027 -19.93989,0 -19.93989,0 0,0 -43.69298,-94.40038 -44.15679,-94.40038 0.46381,53.53323 0.22473,23.93719 0.22473,94.16011 -8.66042,0 -8.43449,0.24027 -16.44583,0.24027 V 733.76368 h 18.32136 c 14.82492,32.36093 44.36956,97.16167 44.36956,97.16167 0,0 -0.24146,-65.01591 -0.21397,-96.95129" id="path10" inkscape:connector-curvature="0" style="fill:#000000;stroke-width:1.19536519"/><path d="m 334.58869,733.73858 h 19.72711 v 53.50813 h 39.80207 c -0.0538,-6.69405 0.34546,-49.15342 0.29167,-53.03118 6.58885,0.24027 13.91047,0 20.49812,0.24027 V 863.36995 H 394.46214 V 804.17188 H 354.3146 v 59.19807 H 334.58749 V 733.73858 Z" id="path12" inkscape:connector-curvature="0" style="fill:#000000;stroke-width:1.19536519"/><polygon transform="matrix(1.1953652,0,0,1.1953652,-87.91672,-89.83216)" points="500.184,783.278 500.184,797.415 440.071,797.415 440.071,688.97 500.184,688.97 500.184,703.728 456.575,703.728 456.575,733.733 497.25,733.733 497.25,747.891 456.575,747.891 456.575,783.278 " id="polygon14" style="fill:#000000"/><path inkscape:connector-curvature="0" id="path16" d="m 555.06134,733.73941 c -12.43419,43.19811 -24.89763,86.40143 -37.33182,129.62942 h 19.72586 c 3.05774,-11.98354 9.34113,-36.10843 9.34113,-36.10843 h 34.49982 c 0,0 2.99127,12.03497 8.99558,36.10843 h 21.11968 C 598.72757,820.14084 586.05268,776.93752 573.37703,733.73941 Z m 8.46093,29.59464 c 2.06201,7.25348 10.90485,39.6448 12.67041,46.49783 h -24.65441 c 3.98774,-15.51584 7.98431,-31.00709 11.984,-46.49783 z" style="fill:#000000;stroke-width:1.19536519"/><path d="m 72.788177,964.33049 c 0.26537,-27.2089 -51.917104,-24.46912 -53.52487,-42.29919 1.142769,-22.98209 35.40433,-16.44703 46.25824,-5.84294 v -16.21154 c -6.20394,-6.2948 -60.5918637,-17.26586 -64.3763897,22.05329 -2.830625,30.07897 49.7367497,23.7531 52.3808997,44.39945 2.73619,26.59328 -43.016409,21.65284 -52.81959873,7.51884 v 18.30702 C 11.027241,999.78981 72.349477,1010.2564 72.788177,964.33049" id="path20" inkscape:connector-curvature="0" style="fill:#000000;stroke-width:1.19536519"/><path d="m 201.44891,893.63062 c 6.33783,0.26537 12.46049,0 18.77202,0.26537 -0.0275,30.95279 -0.21278,74.89919 -0.21278,74.89919 0,0 0.70407,18.06675 19.71516,17.35073 19.02304,-0.71722 19.48684,-17.85637 19.48684,-17.85637 0,0 0.18768,-51.38277 0,-73.9417 6.09876,0 11.97039,-0.23668 18.09544,-0.23668 -0.41359,48.14214 0,73.03801 0,73.03801 0,0 1.40814,31.89712 -37.82255,31.89712 -39.202,0 -38.03413,-30.75555 -38.03413,-30.75555 0,0 0.0275,-20.30089 0,-74.66012" id="path22" inkscape:connector-curvature="0" style="fill:#000000;stroke-width:1.19536519"/><polygon transform="matrix(1.1953652,0,0,1.1953652,-87.91672,-89.83216)" points="220.27,823.929 220.27,836.31 194.953,836.31 194.953,911.137 178.427,911.137 178.427,836.31 153.688,836.31 153.688,823.929 " id="polygon24" style="fill:#000000"/><path inkscape:connector-curvature="0" id="path26" d="m 348.94722,894.70047 c -7.37474,-0.0181 -14.92161,0.23198 -22.11659,0.36422 v 104.24658 c 24.62931,0.42555 49.13837,1.32613 62.68664,-9.18237 21.81422,-16.87138 22.3593,-70.56789 0,-87.33169 -8.95859,-6.72326 -24.3456,-8.05686 -40.57005,-8.09674 z m 5.45853,14.30703 c 8.37443,0.0646 16.00681,0.93381 21.01928,4.36122 14.99824,10.15104 16.40693,54.41611 1.42184,66.21436 -7.08135,5.57757 -17.88116,6.7228 -30.99312,6.32236 v -76.75785 c 2.88651,-0.0927 5.76052,-0.16163 8.552,-0.14009 z" style="fill:#000000;stroke-width:1.19536519"/><path d="m 450.81524,895.06386 c 6.33663,0.21398 12.43419,0 18.77082,0.21398 0.24026,21.38866 0.49249,78.19242 0.24026,104.03143 h -19.01108 z" id="path28" inkscape:connector-curvature="0" style="fill:#000000;stroke-width:1.19536519"/><path inkscape:connector-curvature="0" id="path38" d="m 639.94393,733.50127 c -5.34711,0.031 -10.88634,0.15276 -16.54834,0.23814 v 129.62942 c 20.94878,0.29047 51.63638,4.56957 69.37321,-17.26975 11.65003,-14.32287 22.80736,-68.2866 0.35721,-97.56468 -10.43689,-13.60019 -30.01123,-15.1674 -53.18208,-15.03313 z m 14.57085,17.65966 c 6.31233,0.0866 12.24157,0.71722 16.06973,3.0071 20.84478,12.46407 20.84418,72.95908 1.41949,87.36204 -6.64264,4.91534 -16.89873,5.20734 -28.89422,4.91687 v -95.0969 c 3.69144,-0.0986 7.6176,-0.24105 11.405,-0.18911 z" style="fill:#000000;stroke-width:1.19536519"/><path d="m 703.92664,964.33049 c 0.26656,-27.2089 -51.91471,-24.46912 -53.52009,-42.29919 1.16788,-22.98209 35.40313,-16.44703 46.25466,-5.84294 v -16.21154 c -6.20514,-6.2948 -60.59067,-17.26586 -64.35129,22.05329 -2.85812,30.07897 49.71046,23.7531 52.35341,44.39945 2.75292,26.59328 -43.01163,21.65284 -52.80406,7.51884 v 18.30702 c 10.31002,7.53439 71.62867,18.00098 72.06737,-27.92493" id="path40" inkscape:connector-curvature="0" style="fill:#000000;stroke-width:1.19536519"/><path inkscape:connector-curvature="0" id="path52" d="m 165.39564,731.29266 c -26.11754,0 -47.30798,30.15637 -47.30798,67.35135 0,37.19857 21.19044,67.32567 47.30798,67.32567 26.14263,0 47.33366,-30.1271 47.33366,-67.32567 0,-37.19498 -21.18983,-67.35135 -47.33366,-67.35135 z m 0.34553,18.30403 c 16.53788,0 29.95651,21.9735 29.95651,49.04732 0,27.07383 -13.41863,49.02398 -29.95651,49.02398 -16.56537,0 -29.98452,-21.95015 -29.98452,-49.02398 0,-27.07382 13.41915,-49.04732 29.98452,-49.04732 z" style="fill:#000000;stroke-width:1.19536519"/><path inkscape:connector-curvature="0" id="path54" d="m 555.13838,892.64827 c -25.62624,0 -46.38811,24.04297 -46.38811,53.6677 0,29.67853 20.76187,53.68403 46.38811,53.68403 25.57364,0 46.36709,-24.0055 46.36709,-53.68403 0,-29.62473 -20.79345,-53.6677 -46.36709,-53.6677 z m -0.31986,13.4432 c 15.45129,0 27.99303,17.87879 27.99303,39.90698 0,22.0509 -12.54174,39.93501 -27.99303,39.93501 -15.48835,0 -28.02804,-17.88411 -28.02804,-39.93501 0,-22.02819 12.53969,-39.90698 28.02804,-39.90698 z" style="fill:#000000;stroke-width:1.19536519"/></g>
</svg>