<?xml version="1.0" encoding="UTF-8"?>
<svg version="1.1" xmlns="http://www.w3.org/2000/svg" width="400" height="300">
<path d="M0 0 C132 0 264 0 400 0 C400 99 400 198 400 300 C268 300 136 300 0 300 C0 201 0 102 0 0 Z " fill="#FEFDFD" transform="translate(0,0)"/>
<path d="M0 0 C0 64.68 0 129.36 0 196 C-31.329375 196.020625 -62.65875 196.04125 -94.9375 196.0625 C-104.84773193 196.071604 -114.75796387 196.08070801 -124.96850586 196.09008789 C-137.02453613 196.09460449 -137.02453613 196.09460449 -142.65968323 196.09544373 C-146.61464493 196.09637936 -150.56959335 196.10014257 -154.52455139 196.10557556 C-159.55930493 196.11240097 -164.59403896 196.11449744 -169.6287967 196.11307228 C-171.48282293 196.11337057 -173.3368498 196.1153733 -175.19087207 196.11921513 C-177.68281016 196.12414158 -180.1746711 196.1230075 -182.66661072 196.12025452 C-183.40276895 196.12316718 -184.13892717 196.12607985 -184.89739323 196.12908077 C-189.88587517 196.11412483 -189.88587517 196.11412483 -191 195 C-191.09672695 193.00038545 -191.1218703 190.99729807 -191.12025452 188.99534607 C-191.12162918 187.68977753 -191.12300385 186.38420898 -191.12442017 185.03907776 C-191.12088055 183.57870461 -191.11724573 182.11833169 -191.11352539 180.65795898 C-191.11324353 179.13073732 -191.11340123 177.60351553 -191.1139679 176.07629395 C-191.11425591 171.91738312 -191.10835855 167.75850089 -191.10139394 163.59959674 C-191.09516106 159.25805476 -191.09455665 154.91651219 -191.09336853 150.57496643 C-191.09025502 142.34786418 -191.08204137 134.12077514 -191.07201904 125.89367872 C-191.06085851 116.52986936 -191.05534761 107.16605938 -191.05032361 97.80224502 C-191.03985877 78.53482251 -191.02225895 59.26741231 -191 40 C-184.59886907 38.15933938 -178.1825696 36.59536725 -171.6875 35.125 C-171.05051178 34.98060486 -170.41352356 34.83620972 -169.75723267 34.68743896 C-152.24429989 30.73223335 -134.64641768 27.17309826 -117.0612793 23.55639648 C-102.19335508 20.49716289 -87.33778997 17.38969294 -72.5 14.1875 C-59.7819781 11.44434347 -47.05692331 8.74302523 -34.3125 6.125 C-33.63251953 5.9852475 -32.95253906 5.845495 -32.25195312 5.70150757 C-29.0796827 5.05021932 -25.90672101 4.40253174 -22.73291016 3.75878906 C-20.10623375 3.22486426 -17.48118383 2.68518381 -14.85693359 2.13964844 C-13.50230037 1.86122239 -12.14764607 1.58289888 -10.79296875 1.3046875 C-9.58535889 1.05444824 -8.37774902 0.80420898 -7.13354492 0.54638672 C-4 0 -4 0 0 0 Z " fill="#E0300B" transform="translate(319,8)"/>
<path d="M0 0 C12.38222489 2.25131362 12.38222489 2.25131362 16.55859375 3.26171875 C17.97966431 3.60372314 17.97966431 3.60372314 19.42944336 3.95263672 C20.42210205 4.1951416 21.41476074 4.43764648 22.4375 4.6875 C23.51459229 4.94805176 24.59168457 5.20860352 25.70141602 5.47705078 C34.77845535 7.68114799 43.83568009 9.96286962 52.89306641 12.24609375 C63.90516673 15.00706571 74.95443915 17.60225299 86.01538086 20.15966797 C93.85566028 21.97947289 101.64051772 23.9112425 109.39135742 26.08740234 C112.97401274 27.05829251 112.97401274 27.05829251 116.59887695 27.52978516 C124.85866779 28.80232993 124.85866779 28.80232993 127.98828125 32.08642578 C129.76274626 35.00015346 131.14164601 37.93284873 132.5 41.0625 C133.35025567 42.84971873 134.20067341 44.63686384 135.05491638 46.42218018 C136.00824349 48.43043596 136.94039953 50.44769873 137.87158203 52.46630859 C141.57538347 60.42997877 145.59121238 68.24434193 149.5390625 76.08883667 C150.90934321 78.81890209 152.27078519 81.55317454 153.62890625 84.28930664 C157.87634109 92.83856705 162.1709181 101.33086286 166.82250977 109.66845703 C168 112 168 112 168 114 C112.56 114 57.12 114 0 114 C0 76.38 0 38.76 0 0 Z " fill="#FEFCFC" transform="translate(141,58)"/>
<path d="M0 0 C4.10925474 3.39460174 7.5785553 7.24240202 8.40405273 12.64379883 C8.43615471 15.7009153 8.45782036 18.75520877 8.4375 21.8125 C8.4674707 23.39514648 8.4674707 23.39514648 8.49804688 25.00976562 C8.49380937 31.81095619 7.62922976 36.21591508 4 42 C-1.50979599 47.36851917 -6.8677309 48.3618754 -14.375 48.375 C-15.46941406 48.41173828 -15.46941406 48.41173828 -16.5859375 48.44921875 C-22.68638515 48.48189972 -26.9189463 46.89474311 -31.46557617 42.62304688 C-37.01653032 36.44928312 -37.3632723 30.01774229 -37.375 22.125 C-37.39949219 21.26519531 -37.42398438 20.40539062 -37.44921875 19.51953125 C-37.4793492 12.90087549 -36.14443063 7.4856348 -31.62304688 2.47363281 C-23.19490382 -5.11389363 -9.82232574 -5.06243072 0 0 Z " fill="#2A3025" transform="translate(116,243)"/>
<path d="M0 0 C3.90852505 2.90265463 5.88248559 6.35457495 7.21875 10.93359375 C7.65266359 14.23639237 7.68385479 17.48096176 7.65625 20.80859375 C7.6862207 22.07896484 7.6862207 22.07896484 7.71679688 23.375 C7.71168957 30.04513935 6.38570281 36.4482898 1.77124023 41.52661133 C-5.73360268 48.02593039 -13.21919586 47.73418598 -22.71777344 47.17626953 C-26.97231918 46.6759124 -29.88399411 45.01543935 -32.78125 41.93359375 C-38.1051783 35.10804465 -38.01974109 29.51206281 -38.09375 21.18359375 C-38.12275391 20.11109375 -38.15175781 19.03859375 -38.18164062 17.93359375 C-38.23440824 11.34170039 -37.79136795 7.24717811 -33.78125 1.93359375 C-32 0.19140625 -32 0.19140625 -30.28125 -0.94140625 C-29.7140625 -1.33070313 -29.146875 -1.72 -28.5625 -2.12109375 C-20.06457642 -6.6309567 -7.98493829 -4.78045648 0 0 Z " fill="#2A3025" transform="translate(218.78125,244.06640625)"/>
<path d="M0 0 C12 0 12 0 16.3125 3.31640625 C17.57427247 4.70278204 18.80360265 6.11932954 20 7.5625 C21.23853053 8.99049773 22.48805509 10.40905753 23.75 11.81640625 C24.28109375 12.45006104 24.8121875 13.08371582 25.359375 13.73657227 C26.93492088 15.24942351 26.93492088 15.24942351 29.09619141 14.78540039 C31.40444237 13.83315066 32.65226691 12.67861258 34.375 10.875 C35.29539062 9.94107422 35.29539062 9.94107422 36.234375 8.98828125 C38.02398011 7.06905738 38.02398011 7.06905738 39.328125 4.98046875 C40.625 3.0625 40.625 3.0625 44 0 C48.29 0 52.58 0 57 0 C57 16.17 57 32.34 57 49 C53.04 49 49.08 49 45 49 C45 39.43 45 29.86 45 20 C39.12832762 22.34866895 36.57220421 25.38655468 32.40234375 29.98046875 C30 32 30 32 28.0078125 32.11328125 C25.13066675 30.5179767 23.18842401 28.39012143 20.9375 26 C17.49289313 22.1914902 17.49289313 22.1914902 13 20 C13 29.57 13 39.14 13 49 C8.71 49 4.42 49 0 49 C0 32.83 0 16.66 0 0 Z " fill="#2C3227" transform="translate(19,241)"/>
<path d="M0 0 C12 0 12 0 15.5 3.1875 C16.27923828 4.26644531 16.27923828 4.26644531 17.07421875 5.3671875 C19.56514853 8.77263713 22.41658419 11.75099326 25.3125 14.8125 C28.08661418 17.76718533 30.74345355 20.61518032 33 24 C33.99 24 34.98 24 36 24 C36.33 16.08 36.66 8.16 37 0 C40.96 0 44.92 0 49 0 C49 16.17 49 32.34 49 49 C45.04 49 41.08 49 37 49 C34.04389833 45.94369149 32.21941797 43.51154487 30 40 C28.50411512 38.10503629 26.98230201 36.23030208 25.4375 34.375 C24.68210938 33.45847656 23.92671875 32.54195313 23.1484375 31.59765625 C22.43945312 30.74042969 21.73046875 29.88320313 21 29 C20.39414063 28.25621094 19.78828125 27.51242187 19.1640625 26.74609375 C17.82155482 25.1252613 16.41744041 23.55572728 15 22 C14.34 22 13.68 22 13 22 C12.67 30.91 12.34 39.82 12 49 C8.04 49 4.08 49 0 49 C0 32.83 0 16.66 0 0 Z " fill="#272D22" transform="translate(128,241)"/>
<path d="M0 0 C4.29 0 8.58 0 13 0 C13 16.17 13 32.34 13 49 C8.71 49 4.42 49 0 49 C-0.33 44.71 -0.66 40.42 -1 36 C-8.26 36 -15.52 36 -23 36 C-23.33 40.29 -23.66 44.58 -24 49 C-27.96 49 -31.92 49 -36 49 C-36 38.44 -36 27.88 -36 17 C-32.04 17 -28.08 17 -24 17 C-23.67 18.98 -23.34 20.96 -23 23 C-15.41 23.33 -7.82 23.66 0 24 C0 16.08 0 8.16 0 0 Z " fill="#2B3126" transform="translate(368,241)"/>
<path d="M0 0 C18.15 0 36.3 0 55 0 C55 3.63 55 7.26 55 11 C47.08 11 39.16 11 31 11 C31 23.54 31 36.08 31 49 C26.71 49 22.42 49 18 49 C17.505 30.685 17.505 30.685 17 12 C11.39 11.67 5.78 11.34 0 11 C0 7.37 0 3.74 0 0 Z " fill="#2C3126" transform="translate(289,241)"/>
<path d="M0 0 C4.29 0 8.58 0 13 0 C13.33 12.21 13.66 24.42 14 37 C21.92 37.33 29.84 37.66 38 38 C38 41.63 38 45.26 38 49 C25.46 49 12.92 49 0 49 C0 32.83 0 16.66 0 0 Z " fill="#2B3125" transform="translate(229,241)"/>
<path d="M0 0 C3.96 0 7.92 0 12 0 C12 16.17 12 32.34 12 49 C8.04 49 4.08 49 0 49 C0 32.83 0 16.66 0 0 Z " fill="#282D22" transform="translate(272,241)"/>
<path d="M0 0 C2.73481781 1.63030856 4.19865364 2.50494518 6 5 C6.79670571 8.21783455 6.70560241 11.26612336 6.5625 14.5625 C6.56056641 15.41263672 6.55863281 16.26277344 6.55664062 17.13867188 C6.48026857 20.74513 6.36556042 23.31444176 4.65234375 26.52734375 C1.30687684 29.50900102 -2.58767911 29.32753919 -6.83984375 29.29296875 C-9 29 -9 29 -11.5 27.125 C-14.36735817 23.06290925 -14.25188083 19.52490979 -14.3125 14.6875 C-14.34150391 13.92759766 -14.37050781 13.16769531 -14.40039062 12.38476562 C-14.44542803 8.39722281 -14.3002138 6.47229512 -12.10546875 3.01953125 C-8.59657985 -0.3461377 -4.72425712 -1.0914663 0 0 Z " fill="#F9FAF9" transform="translate(207,251)"/>
<path d="M0 0 C3.5386994 1.65139305 4.81070153 2.71605229 7 6 C7.27541564 8.82083596 7.41592043 11.49037155 7.4375 14.3125 C7.48680664 15.43301758 7.48680664 15.43301758 7.53710938 16.57617188 C7.57570319 20.57238599 7.2400418 23.26287811 4.78515625 26.5 C1.84766501 29.13673828 0.85955207 29.80208045 -3 29.6875 C-3.825 29.69136719 -4.65 29.69523437 -5.5 29.69921875 C-9.26711605 28.64560348 -10.69490153 27.15285798 -13 24 C-13.73973071 20.81207779 -13.74492836 17.76093198 -13.6875 14.5 C-13.71521484 13.65824219 -13.74292969 12.81648438 -13.77148438 11.94921875 C-13.74807729 6.00381905 -13.74807729 6.00381905 -11.7409668 3.31054688 C-7.88121351 -0.08386321 -5.02992187 -0.731625 0 0 Z " fill="#FAFAF9" transform="translate(105,251)"/>
<path d="M0 0 C2.475 0.495 2.475 0.495 5 1 C5.33 1.99 5.66 2.98 6 4 C6.33 2.68 6.66 1.36 7 0 C8.32 0 9.64 0 11 0 C11 3.63 11 7.26 11 11 C10.34 11 9.68 11 9 11 C8.67 9.68 8.34 8.36 8 7 C7.67 8.32 7.34 9.64 7 11 C4.69 11 2.38 11 0 11 C0 7.37 0 3.74 0 0 Z " fill="#797D76" transform="translate(341,15)"/>
<path d="M0 0 C1.32 0 2.64 0 4 0 C4 3.63 4 7.26 4 11 C3.34 11 2.68 11 2 11 C1.67 9.68 1.34 8.36 1 7 C0.67 7.99 0.34 8.98 0 10 C-0.66 10 -1.32 10 -2 10 C-1.34 6.7 -0.68 3.4 0 0 Z " fill="#383D34" transform="translate(348,15)"/>
<path d="M0 0 C2.64 0 5.28 0 8 0 C8 0.66 8 1.32 8 2 C7.01 2 6.02 2 5 2 C5 4.97 5 7.94 5 11 C4.34 11 3.68 11 3 11 C3 7.7 3 4.4 3 1 C2.01 0.67 1.02 0.34 0 0 Z " fill="#44483F" transform="translate(332,15)"/>
<path d="M0 0 C0.99 0 1.98 0 3 0 C2.855625 0.53625 2.71125 1.0725 2.5625 1.625 C1.90546252 4.39915827 1.44780052 7.18525388 1 10 C0.67 10 0.34 10 0 10 C0 6.7 0 3.4 0 0 Z " fill="#282D23" transform="translate(342,15)"/>
</svg>
