<?xml version="1.0" encoding="UTF-8"?>
<svg version="1.1" xmlns="http://www.w3.org/2000/svg" width="313" height="236">
<path d="M0 0 C103.29 0 206.58 0 313 0 C313 77.88 313 155.76 313 236 C209.71 236 106.42 236 0 236 C0 158.12 0 80.24 0 0 Z " fill="#FDFDFD" transform="translate(0,0)"/>
<path d="M0 0 C0.33 0 0.66 0 1 0 C1.07476562 0.83402344 1.14953125 1.66804688 1.2265625 2.52734375 C2.6912262 15.06314186 8.52471122 21.76345725 16.68505859 30.86499023 C24.54104398 39.73567532 24.54104398 39.73567532 25.3125 45.22265625 C24.35453879 50.8626529 22.10684688 54.49135836 18.40234375 58.90234375 C15.68644733 62.24745495 14.12016555 64.30303982 13.375 68.625 C14.3571829 73.92878769 17.13254232 77.00861979 20.625 81 C24.7249733 86.17891364 25.26018335 90.49541625 25 97 C26.32 97.33 27.64 97.66 29 98 C29.703125 99.59765625 29.703125 99.59765625 30 102 C28.671875 104.99609375 28.671875 104.99609375 26.75 108.4375 C23.67413167 114.18032799 21.95863225 119.52721839 20.671875 125.9453125 C19.50520058 131.24961131 18.16912305 137.08034725 13.99609375 140.7734375 C12 142 12 142 10 142 C10 142.66 10 143.32 10 144 C10.99 144.33 11.98 144.66 13 145 C12.75855347 146.86258748 12.51489761 148.72490848 12.26171875 150.5859375 C11.96252546 153.00577719 11.96252546 153.00577719 11.95703125 155.4765625 C11.75600743 161.66043811 10.24901884 164.94583361 5.9140625 169.37890625 C3.4713695 171.44771767 0.94437259 172.76747194 -2 174 C-2.99 174.99 -2.99 174.99 -4 176 C-4.99 176 -5.98 176 -7 176 C-7.02505615 175.35039307 -7.0501123 174.70078613 -7.07592773 174.03149414 C-7.19313851 171.04168912 -7.31528919 168.05210465 -7.4375 165.0625 C-7.47681641 164.04091797 -7.51613281 163.01933594 -7.55664062 161.96679688 C-7.80033351 149.40483703 -7.80033351 149.40483703 -12.0625 137.8125 C-14.46376931 133.59191606 -15.33952474 130.87615322 -15 126 C-15.66 126 -16.32 126 -17 126 C-17.58007812 124.42412109 -17.58007812 124.42412109 -18.171875 122.81640625 C-18.69735694 121.39822998 -19.22343801 119.98027561 -19.75 118.5625 C-20.02078369 117.8312793 -20.29156738 117.10005859 -20.57055664 116.34667969 C-22.30544923 111.71001861 -24.18213225 107.21150539 -26.43359375 102.796875 C-27.16074538 100.49004913 -26.87927425 99.23127658 -26 97 C-23.9375 95.75 -23.9375 95.75 -22 95 C-21.34 95.66 -20.68 96.32 -20 97 C-19.79375 95.845 -19.5875 94.69 -19.375 93.5 C-18.51948257 89.93324719 -17.20957321 87.7511012 -14.875 84.9375 C-12.57101054 82.0645547 -12.01686648 81.11056916 -11.4375 77.3125 C-11.76482807 74.021604 -11.76482807 74.021604 -13.5 71.75 C-15.95446616 67.25014537 -15.93113976 62.99012225 -15 58 C-13.53140691 55.04275107 -11.8633712 52.46826428 -9.921875 49.80078125 C-9.28765625 48.87652344 -8.6534375 47.95226562 -8 47 C-7.62810547 46.4829248 -7.25621094 45.96584961 -6.87304688 45.43310547 C-2.71195163 38.68325124 -3.70124426 31.11649297 -4 23.5 C-4.64560205 7.04099061 -4.64560205 7.04099061 0 0 Z " fill="#E88426" transform="translate(100,24)"/>
<path d="M0 0 C0.99 0.99 1.98 1.98 3 3 C3.33 2.34 3.66 1.68 4 1 C7.125 0.55078125 7.125 0.55078125 11 0.3125 C12.918125 0.18294922 12.918125 0.18294922 14.875 0.05078125 C16.421875 0.02564453 16.421875 0.02564453 18 0 C22.11721376 4.11721376 21.41511566 15.20134265 21.75390625 20.62890625 C21.74339551 22.9535058 21.74339551 22.9535058 23 24 C23.29579705 25.48269895 23.5374542 26.97631385 23.75390625 28.47265625 C23.88603516 29.37177734 24.01816406 30.27089844 24.15429688 31.19726562 C24.28900391 32.14279297 24.42371094 33.08832031 24.5625 34.0625 C24.70107422 35.01189453 24.83964844 35.96128906 24.98242188 36.93945312 C25.32532186 39.2924565 25.66433937 41.64595483 26 44 C26.18175781 42.57107422 26.18175781 42.57107422 26.3671875 41.11328125 C26.53476562 39.85902344 26.70234375 38.60476562 26.875 37.3125 C27.03742187 36.07113281 27.19984375 34.82976562 27.3671875 33.55078125 C28 30 28 30 29.04296875 27.45703125 C30.24650927 24.36712519 30.31428128 21.68323584 30.4375 18.375 C30.80538593 11.91655819 32.00772054 6.13972914 34 0 C36.79192205 -0.05380578 39.5828141 -0.09357669 42.375 -0.125 C43.1690625 -0.14175781 43.963125 -0.15851563 44.78125 -0.17578125 C46.85492015 -0.19335473 48.92883241 -0.10335168 51 0 C53.52016863 2.52016863 53.37055421 3.66110383 53.67016602 7.16479492 C53.76689102 8.24319138 53.86361603 9.32158783 53.96327209 10.43266296 C54.05918137 11.60343887 54.15509064 12.77421478 54.25390625 13.98046875 C54.35968491 15.18181961 54.46546356 16.38317047 54.57444763 17.6209259 C54.91227208 21.475769 55.23778944 25.33153207 55.5625 29.1875 C55.89320558 33.02536834 56.22643329 36.8630052 56.56126404 40.70051575 C56.76901099 43.09095797 56.97393079 45.48164801 57.17567444 47.87260437 C57.72952459 54.45974633 57.72952459 54.45974633 58.56396484 61.01513672 C58.93188531 63.53372327 59.11733024 65.86439938 59.09765625 68.40234375 C59.09282227 69.51899414 59.09282227 69.51899414 59.08789062 70.65820312 C59.07532227 71.78645508 59.07532227 71.78645508 59.0625 72.9375 C59.05798828 73.71673828 59.05347656 74.49597656 59.04882812 75.29882812 C59.03716908 77.19925268 59.01923877 79.09963706 59 81 C58.01 81.495 58.01 81.495 57 82 C58.485 82.99 58.485 82.99 60 84 C60.328125 85.875 60.328125 85.875 60.25 88 C60.23453125 88.70125 60.2190625 89.4025 60.203125 90.125 C60 92 60 92 59 94 C56.52076199 94.02685095 54.0418116 94.04676547 51.5625 94.0625 C50.85544922 94.07087891 50.14839844 94.07925781 49.41992188 94.08789062 C47.61306441 94.09653588 45.80612397 94.05220011 44 94 C40.77333211 90.77333211 41.6671697 80.58090951 41.4375 76.0625 C41.3950415 75.24998779 41.35258301 74.43747559 41.30883789 73.6003418 C40.9142663 65.39849242 40.90540265 57.20894785 41 49 C40.34 49 39.68 49 39 49 C38.87882812 49.68964844 38.75765625 50.37929687 38.6328125 51.08984375 C38.46523438 52.02957031 38.29765625 52.96929687 38.125 53.9375 C37.88136719 55.31228516 37.88136719 55.31228516 37.6328125 56.71484375 C37.14270491 59.25916773 36.58568432 61.7542912 35.98828125 64.2734375 C34.7313894 69.85513736 34.30467542 75.46274313 33.87695312 81.15820312 C33.43598867 86.07237453 32.56892883 89.66712003 30 94 C27.03 94 24.06 94 21 94 C19.11600652 90.23201303 18.52731917 87.86859523 17.96484375 83.7734375 C17.79533203 82.5771875 17.62582031 81.3809375 17.45117188 80.1484375 C17.28166016 78.90320313 17.11214844 77.65796875 16.9375 76.375 C16.59546952 73.90322584 16.25056588 71.43184699 15.90234375 68.9609375 C15.75273193 67.86571777 15.60312012 66.77049805 15.44897461 65.64208984 C15.13731813 63.03209479 15.13731813 63.03209479 14 61 C13.9283265 58.44842345 13.90691558 55.92527029 13.9375 53.375 C13.94201172 52.66859375 13.94652344 51.9621875 13.95117188 51.234375 C13.96296125 49.48954725 13.98089676 47.744763 14 46 C12.68 46 11.36 46 10 46 C9.95745644 47.99954746 9.95919217 50.00041636 10 52 C10.495 52.495 10.495 52.495 11 53 C11.39561 60.63294579 10.99749064 68.3125675 10.5625 75.9375 C10.52334473 76.63423828 10.48418945 77.33097656 10.44384766 78.04882812 C9.70430023 89.89292105 9.70430023 89.89292105 7.77734375 92.921875 C5.29263502 94.42908293 3.44908897 94.32833349 0.5625 94.25 C-0.38496094 94.23453125 -1.33242188 94.2190625 -2.30859375 94.203125 C-4.68078124 94.02409198 -6.71311643 93.6083726 -9 93 C-8.85785272 89.99978513 -8.71138304 86.99988211 -8.5625 84 C-8.52318359 83.16082031 -8.48386719 82.32164062 -8.44335938 81.45703125 C-8.18148668 76.25986542 -7.7100648 71.15542847 -7 66 C-5.515 65.505 -5.515 65.505 -4 65 C-3.835 64.34 -3.67 63.68 -3.5 63 C-3.335 62.34 -3.17 61.68 -3 61 C-1.515 60.505 -1.515 60.505 0 60 C0.33 59.34 0.66 58.68 1 58 C-1.31 58 -3.62 58 -6 58 C-5.51497135 50.06084685 -4.8580172 42.15681156 -4 34.25 C-3.9170166 33.46383301 -3.8340332 32.67766602 -3.74853516 31.86767578 C-3.12063841 26.24127681 -3.12063841 26.24127681 -2 24 C-1.85910218 22.27273078 -1.77417312 20.54071368 -1.71875 18.80859375 C-1.68136719 17.78185547 -1.64398437 16.75511719 -1.60546875 15.69726562 C-1.53503 13.52018637 -1.46471795 11.34310302 -1.39453125 9.16601562 C-1.35714844 8.14056641 -1.31976562 7.11511719 -1.28125 6.05859375 C-1.23581055 4.64018188 -1.23581055 4.64018188 -1.18945312 3.19311523 C-1 1 -1 1 0 0 Z " fill="#252122" transform="translate(19,125)"/>
<path d="M0 0 C1.58010949 5.214898 0.92100699 10.49474305 0.6875 15.875 C0.65205078 16.95136719 0.61660156 18.02773437 0.58007812 19.13671875 C0.36199961 24.41617172 0.10441997 29.06964464 -2 34 C-1.01 33.34 -0.02 32.68 1 32 C3.48046875 32.0234375 3.48046875 32.0234375 6.1875 32.375 C7.08855469 32.48585937 7.98960937 32.59671875 8.91796875 32.7109375 C9.60503906 32.80632812 10.29210937 32.90171875 11 33 C10.98952637 32.0713916 10.97905273 31.1427832 10.96826172 30.18603516 C10.93420796 26.7457431 10.90911507 23.30562973 10.89013672 19.86523438 C10.88006957 18.3752968 10.86641482 16.88537903 10.84912109 15.39550781 C10.82490347 13.25580972 10.81352436 11.11637247 10.8046875 8.9765625 C10.79421387 7.68830566 10.78374023 6.40004883 10.77294922 5.07275391 C11 2 11 2 13 0 C15.75589777 0.01747927 18.38786676 0.13863271 21.125 0.375 C22.25615234 0.46007812 22.25615234 0.46007812 23.41015625 0.546875 C25.27418096 0.6884465 27.13721137 0.84299959 29 1 C29.2556161 8.31011473 29.45067637 15.61925747 29.56993389 22.93294621 C29.62719714 26.32987536 29.70473614 29.72373485 29.82983398 33.11889648 C29.97295951 37.02809974 30.02571821 40.93609018 30.07421875 44.84765625 C30.13099289 46.05833267 30.18776703 47.26900909 30.2462616 48.51637268 C30.2488023 52.00448459 30.12720721 54.69529728 29 58 C23.98673031 62.93415925 18.03988263 65.84355816 11 66 C11 64.68 11 63.36 11 62 C7.37 62 3.74 62 0 62 C0 72.23 0 82.46 0 93 C-3.90138995 93.97534749 -7.00721803 94 -11 94 C-12.66804677 94.32635698 -14.33524314 94.65725594 -16 95 C-19.96084683 91.03915317 -18.10708855 76.70360153 -18.125 71.125 C-18.12959229 70.32916504 -18.13418457 69.53333008 -18.13891602 68.71337891 C-18.12668835 64.04436556 -17.708958 59.62484319 -17 55 C-16.91609847 53.23066472 -16.86949047 51.45881489 -16.875 49.6875 C-16.87242187 48.84574219 -16.86984375 48.00398438 -16.8671875 47.13671875 C-16.86355104 44.94717779 -16.86355104 44.94717779 -18 43 C-18.08902493 41.64154807 -18.11760132 40.27884026 -18.11352539 38.91748047 C-18.11344986 38.07675995 -18.11337433 37.23603943 -18.11329651 36.36984253 C-18.10813522 35.46146637 -18.10297394 34.55309021 -18.09765625 33.6171875 C-18.0962413 32.68778351 -18.09482635 31.75837952 -18.09336853 30.80081177 C-18.08776053 27.82550876 -18.07520668 24.85028036 -18.0625 21.875 C-18.05748603 19.86067817 -18.05292295 17.84635516 -18.04882812 15.83203125 C-18.0377885 10.88799198 -18.02051849 5.94400865 -18 1 C-16.43144003 0.65088477 -14.86067189 0.31168299 -13.2890625 -0.0234375 C-12.41459473 -0.21341309 -11.54012695 -0.40338867 -10.63916016 -0.59912109 C-6.86352163 -1.17262696 -3.73993037 -0.6925797 0 0 Z " fill="#242022" transform="translate(195,124)"/>
<path d="M0 0 C1.27875 0.144375 2.5575 0.28875 3.875 0.4375 C7 1 7 1 9 3 C8.69922675 5.005155 8.3564309 7.00398694 8 9 C7.61075505 16.68758772 8.32825221 24.34687344 9 32 C8.01 32.33 7.02 32.66 6 33 C5.34 31.35 4.68 29.7 4 28 C0.94771517 27.70651107 -1.95531533 27.58385798 -5 28 C-7.52383326 30.0296131 -7.52383326 30.0296131 -9 33 C-9.54914063 33.85207031 -10.09828125 34.70414063 -10.6640625 35.58203125 C-12.49186679 40.25843112 -11.84887541 43.70588094 -11 48.5625 C-10.88527344 49.39974609 -10.77054687 50.23699219 -10.65234375 51.09960938 C-9.74876902 56.63948742 -8.36776664 59.23636007 -4 63 C-2.6875 66.3125 -2.6875 66.3125 -2 69 C-1.690625 67.9171875 -1.690625 67.9171875 -1.375 66.8125 C-0.03206506 64.06558762 0.75137118 63.19840859 3.0625 61.375 C6.2107551 59.26591005 6.2107551 59.26591005 7 56 C7.66 56 8.32 56 9 56 C8.9278125 57.13695312 8.855625 58.27390625 8.78125 59.4453125 C8.19984529 68.98200802 7.86170606 78.44235215 8 88 C1.44532289 90.86463666 -5.06776766 92.49998609 -12 90 C-15.5104143 87.02354932 -18.20884182 83.64013546 -21 80 C-21.52335937 79.52046875 -22.04671875 79.0409375 -22.5859375 78.546875 C-24.615949 76.32619944 -25.49626502 73.90182655 -26.625 71.125 C-27.05039062 70.09632813 -27.47578125 69.06765625 -27.9140625 68.0078125 C-33.20723877 53.34685665 -32.13553075 31.10343495 -25.6484375 17.09375 C-25.10445313 16.0728125 -24.56046875 15.051875 -24 14 C-23.55914062 13.0615625 -23.11828125 12.123125 -22.6640625 11.15625 C-20.46517539 6.73046448 -18.65979823 4.04576508 -14 2 C-13.071875 1.4225 -12.14375 0.845 -11.1875 0.25 C-7.15775612 -1.33029172 -4.11350749 -0.7846575 0 0 Z " fill="#252022" transform="translate(285,127)"/>
<path d="M0 0 C3.66992865 0.29359429 7.34024675 0.50524255 11.015625 0.71875 C14 1 14 1 15 2 C15.09993532 4.0605531 15.13080906 6.1245259 15.1328125 8.1875 C15.13474609 10.07082031 15.13474609 10.07082031 15.13671875 11.9921875 C15.13462402 12.64928711 15.1325293 13.30638672 15.13037109 13.98339844 C15.12502234 15.99161335 15.13031691 17.99960459 15.13671875 20.0078125 C15.13542969 21.26335937 15.13414062 22.51890625 15.1328125 23.8125 C15.13168457 24.97394531 15.13055664 26.13539063 15.12939453 27.33203125 C15 30 15 30 14 31 C12.48071962 31.07179964 10.95832518 31.08392007 9.4375 31.0625 C8.61121094 31.05347656 7.78492188 31.04445312 6.93359375 31.03515625 C6.29550781 31.02355469 5.65742188 31.01195312 5 31 C5.01160156 32.01320312 5.02320313 33.02640625 5.03515625 34.0703125 C5.04454209 35.42187314 5.05364143 36.7734358 5.0625 38.125 C5.07087891 38.79015625 5.07925781 39.4553125 5.08789062 40.140625 C5.10338018 43.30049429 4.95843643 46.24708824 4.43359375 49.3671875 C3.74055835 51.96996126 3.74055835 51.96996126 5 54 C5.09923388 56.97795271 5.13981013 59.93203842 5.1328125 62.91015625 C5.13424759 64.23411659 5.13424759 64.23411659 5.13571167 65.58482361 C5.13639269 67.45181347 5.13454385 69.31880569 5.13037109 71.18579102 C5.1250154 74.05425288 5.13032199 76.92255861 5.13671875 79.79101562 C5.13605808 81.60156285 5.13477715 83.41210997 5.1328125 85.22265625 C5.13483673 86.08617203 5.13686096 86.94968781 5.13894653 87.83937073 C5.11495439 93.88504561 5.11495439 93.88504561 4 95 C2.06461065 95.09955104 0.12544231 95.12968668 -1.8125 95.125 C-3.39998047 95.12886719 -3.39998047 95.12886719 -5.01953125 95.1328125 C-7.55004058 95.02005062 -9.58413701 94.6840421 -12 94 C-12.66 94 -13.32 94 -14 94 C-14.09280363 86.52420441 -14.16381701 79.04853363 -14.20724869 71.57227802 C-14.22809712 68.10046816 -14.25636295 64.62905327 -14.30175781 61.1574707 C-14.35365439 57.16353631 -14.37296773 53.17001485 -14.390625 49.17578125 C-14.41127014 47.93290848 -14.43191528 46.69003571 -14.45318604 45.40950012 C-14.45348816 44.24867416 -14.45379028 43.08784821 -14.45410156 41.8918457 C-14.46298401 40.87258499 -14.47186646 39.85332428 -14.48101807 38.80317688 C-14 36 -14 36 -10 31 C-14.62 31 -19.24 31 -24 31 C-24 21.43 -24 11.86 -24 2 C-20.7792652 0.3896326 -17.22624613 0.29480113 -13.6875 -0.125 C-12.92759766 -0.22425781 -12.16769531 -0.32351562 -11.38476562 -0.42578125 C-7.28831183 -0.91692862 -4.04371185 -0.98307419 0 0 Z " fill="#252022" transform="translate(156,124)"/>
<path d="M0 0 C6.20917216 2.29969339 9.52588477 8.73279303 13 14 C13.721875 14.845625 14.44375 15.69125 15.1875 16.5625 C17 19 17 19 17.328125 21.4453125 C18.22258653 24.84634647 19.60246328 25.5198017 22.5625 27.3125 C23.38878906 27.82425781 24.21507813 28.33601563 25.06640625 28.86328125 C25.70449219 29.23839844 26.34257813 29.61351562 27 30 C27 29.34 27 28.68 27 28 C28.32 27.67 29.64 27.34 31 27 C31.10699219 26.27941406 31.21398437 25.55882812 31.32421875 24.81640625 C32.05928075 21.75293976 33.17465727 19.62024492 34.8125 16.9375 C35.31394531 16.10089844 35.81539062 15.26429688 36.33203125 14.40234375 C38 12 38 12 40.13671875 9.87890625 C42.23165438 8.04416213 42.23165438 8.04416213 43 5 C45.83470803 2.79522708 47.19204286 1.91022698 50.8125 2.3125 C51.534375 2.539375 52.25625 2.76625 53 3 C53.703125 4.59765625 53.703125 4.59765625 54 7 C52.671875 9.99609375 52.671875 9.99609375 50.75 13.4375 C47.67413167 19.18032799 45.95863225 24.52721839 44.671875 30.9453125 C43.50520058 36.24961131 42.16912305 42.08034725 37.99609375 45.7734375 C36 47 36 47 34 47 C34 47.66 34 48.32 34 49 C34.99 49.33 35.98 49.66 37 50 C36.75855347 51.86258748 36.51489761 53.72490848 36.26171875 55.5859375 C35.96252546 58.00577719 35.96252546 58.00577719 35.95703125 60.4765625 C35.75600743 66.66043811 34.24901884 69.94583361 29.9140625 74.37890625 C27.4713695 76.44771767 24.94437259 77.76747194 22 79 C21.01 79.99 21.01 79.99 20 81 C19.01 81 18.02 81 17 81 C16.97494385 80.35039307 16.9498877 79.70078613 16.92407227 79.03149414 C16.80686149 76.04168912 16.68471081 73.05210465 16.5625 70.0625 C16.52318359 69.04091797 16.48386719 68.01933594 16.44335938 66.96679688 C16.19966649 54.40483703 16.19966649 54.40483703 11.9375 42.8125 C9.53623069 38.59191606 8.66047526 35.87615322 9 31 C8.34 31 7.68 31 7 31 C6.61328125 29.94941406 6.2265625 28.89882812 5.828125 27.81640625 C5.30264306 26.39822998 4.77656199 24.98027561 4.25 23.5625 C3.97921631 22.8312793 3.70843262 22.10005859 3.42944336 21.34667969 C1.69455077 16.71001861 -0.18213225 12.21150539 -2.43359375 7.796875 C-3.16299494 5.4829126 -2.85881701 4.246851 -2 2 C-1.34 1.34 -0.68 0.68 0 0 Z " fill="#251F1E" transform="translate(76,119)"/>
<path d="M0 0 C1.58206057 0.00667536 3.16410534 0.0186375 4.74609375 0.03515625 C5.55240234 0.03966797 6.35871094 0.04417969 7.18945312 0.04882812 C9.18753131 0.06065107 11.18557158 0.07858711 13.18359375 0.09765625 C13.9450977 4.14728665 14.30254581 7.9553076 14.28125 12.07348633 C14.27794678 13.23362747 14.27464355 14.39376862 14.27124023 15.58906555 C14.26294189 16.83584579 14.25464355 18.08262604 14.24609375 19.3671875 C14.24030128 21.36863261 14.23451561 23.37007775 14.2290802 25.37152386 C14.21603855 29.57768241 14.19420211 33.78380404 14.17321777 37.9899292 C14.149773 42.76150631 14.13136827 47.53306284 14.12109375 52.3046875 C14.11957306 52.97127506 14.11805237 53.63786263 14.1164856 54.32464981 C14.09742793 67.26713816 14.51862848 80.17360965 15.18359375 93.09765625 C11.19085599 93.95348573 7.52495458 94.23191272 3.43359375 94.22265625 C2.28375 94.22523438 1.13390625 94.2278125 -0.05078125 94.23046875 C-2.81640625 94.09765625 -2.81640625 94.09765625 -3.81640625 93.09765625 C-4.96675913 83.80962188 -5.53168359 74.15320846 -4.31640625 64.84765625 C-3.11821396 55.33058603 -3.48586882 45.57773544 -4.81640625 36.09765625 C-3.49640625 35.43765625 -2.17640625 34.77765625 -0.81640625 34.09765625 C-1.13480469 33.2571875 -1.45320312 32.41671875 -1.78125 31.55078125 C-2.87940616 27.88749805 -3.18825537 24.66067376 -3.37890625 20.84765625 C-3.46192765 16.30944292 -3.46192765 16.30944292 -4.81640625 12.09765625 C-4.91225604 10.24549995 -4.94624231 8.38978472 -4.94140625 6.53515625 C-4.94398438 5.54386719 -4.9465625 4.55257812 -4.94921875 3.53125 C-4.73085634 -0.46991997 -4.21488722 0.10785279 0 0 Z " fill="#262123" transform="translate(234.81640625,124.90234375)"/>
<path d="M0 0 C0.33 0 0.66 0 1 0 C1.81805218 7.49881163 -0.52818348 11.12639644 -5 17 C-7.99406662 21.49109993 -7.71698637 25.73507067 -7 31 C-5.93144846 33.54069268 -4.70136104 35.72584571 -3.19140625 38.02734375 C0.71241859 44.49105373 -0.11815248 54.62725263 -1.56640625 61.80859375 C-2.25785205 63.95533386 -3.04548955 65.9584082 -4 68 C-4.433125 68.99 -4.86625 69.98 -5.3125 71 C-7 73 -7 73 -10 74 C-13 74 -13 74 -14.6796875 72.84375 C-16.499757 70.30211449 -16.26623379 68.59052758 -16.125 65.5 C-15.9919248 62.19973502 -15.94617613 60.1614716 -17 57 C-18.93330603 55.90833725 -18.93330603 55.90833725 -21 55 C-23 53 -23 53 -23.5 50.4375 C-22.96594426 46.76586679 -22.23572787 45.74657927 -20.0625 42.875 C-16.66404557 38.18529132 -16.48604866 34.4552482 -16.2421875 28.7890625 C-15.67446166 22.25105847 -12.14837981 18.99496302 -7.375 14.8125 C-6.59898438 14.17957031 -5.82296875 13.54664062 -5.0234375 12.89453125 C-1.00882815 9.13567887 -0.61764445 5.3529186 0 0 Z " fill="#F7CF0D" transform="translate(112,66)"/>
<path d="M0 0 C0.85722656 0.17273438 1.71445313 0.34546875 2.59765625 0.5234375 C3.45230469 0.68070313 4.30695313 0.83796875 5.1875 1 C8.47098026 2.1930497 9.71620546 2.94005722 11.66015625 5.8984375 C12.14670973 9.49456919 12.03548939 13.02823808 11.91015625 16.6484375 C11.89210937 17.63199219 11.8740625 18.61554688 11.85546875 19.62890625 C11.80839751 22.05307533 11.74266367 24.47525809 11.66015625 26.8984375 C7.99028404 28.12172824 5.32047803 27.77864756 1.47265625 27.4609375 C0.20035156 27.35910156 -1.07195312 27.25726563 -2.3828125 27.15234375 C-3.35863281 27.06855469 -4.33445313 26.98476562 -5.33984375 26.8984375 C-5.42661283 22.77356912 -5.4801567 18.64893366 -5.52734375 14.5234375 C-5.55248047 13.3478125 -5.57761719 12.1721875 -5.60351562 10.9609375 C-5.61318359 9.83945313 -5.62285156 8.71796875 -5.6328125 7.5625 C-5.64852295 6.52561035 -5.6642334 5.4887207 -5.68041992 4.42041016 C-5.56802979 3.58815918 -5.45563965 2.7559082 -5.33984375 1.8984375 C-2.33984375 -0.1015625 -2.33984375 -0.1015625 0 0 Z " fill="#242021" transform="translate(211.33984375,192.1015625)"/>
<path d="M0 0 C0.10094304 8.41192037 0.10102642 16.64399592 -1 25 C-3.33294775 25.04241723 -5.66702567 25.04092937 -8 25 C-8.33 24.67 -8.66 24.34 -9 24 C-11.33293334 23.95679753 -13.6670134 23.95977609 -16 24 C-16.99 24 -17.98 24 -19 24 C-19.13489391 21.73078464 -19.23193995 19.4592933 -19.3125 17.1875 C-19.37050781 15.92292969 -19.42851563 14.65835938 -19.48828125 13.35546875 C-19 10 -19 10 -16.6328125 8.2109375 C-15.32957031 7.61152344 -15.32957031 7.61152344 -14 7 C-13.195625 6.154375 -12.39125 5.30875 -11.5625 4.4375 C-8.01486458 1.06291997 -4.86046341 0 0 0 Z " fill="#2A2628" transform="translate(113,194)"/>
<path d="M0 0 C6.69465551 10.04198327 5.30488046 22.47100183 5 34 C0.15908551 32.28199718 -1.65549321 30.68901357 -4 26 C-4.61299771 20.57059175 -3.8280663 17.12176549 -1.734375 12.1640625 C-0.39991444 8.23166278 -0.24500419 4.12282911 0 0 Z " fill="#E3842A" transform="translate(109,6)"/>
<path d="M0 0 C3.48584286 0.03134751 6.09479083 0.60989542 9.25 2.1875 C9.91 1.5275 10.57 0.8675 11.25 0.1875 C14.30337649 -0.36291891 17.19841524 -0.37698729 20.25 0.1875 C22.35361696 2.6098468 23.25 3.96995634 23.25 7.1875 C20.61 7.1875 17.97 7.1875 15.25 7.1875 C15.25 6.1975 15.25 5.2075 15.25 4.1875 C14.71375 4.6825 14.1775 5.1775 13.625 5.6875 C10.56754465 7.61852443 8.811827 7.63272837 5.25 7.1875 C2.875 5.6875 2.875 5.6875 1.25 4.1875 C1.25 5.1775 1.25 6.1675 1.25 7.1875 C-1.39 7.1875 -4.03 7.1875 -6.75 7.1875 C-4.52837838 0.22641892 -4.52837838 0.22641892 0 0 Z " fill="#252223" transform="translate(207.75,223.8125)"/>
<path d="M0 0 C3.45027041 4.35034095 4.1536897 7.48215856 4.1875 13 C4.20167969 14.051875 4.21585938 15.10375 4.23046875 16.1875 C4 19 4 19 2 22 C0.25 21.9375 0.25 21.9375 -2 21 C-4.80096631 17.29061219 -6.38790517 14.63779697 -6.0625 9.9375 C-5.25966336 5.55606175 -3.06102901 3.13951693 0 0 Z " fill="#EA8123" transform="translate(89,45)"/>
<path d="M0 0 C10.55808656 -0.55353075 10.55808656 -0.55353075 15 3 C15 2.01 15 1.02 15 0 C17.64 0 20.28 0 23 0 C23 2.31 23 4.62 23 7 C17.158256 7.35050464 13.1468192 7.16727335 8 4 C8 4.99 8 5.98 8 7 C5.66705225 7.04241723 3.33297433 7.04092937 1 7 C0 6 0 6 -0.0625 2.9375 C-0.041875 1.968125 -0.02125 0.99875 0 0 Z " fill="#252223" transform="translate(27,224)"/>
<path d="M0 0 C1.744465 5.233395 1.35409992 11.93545807 -0.890625 17.015625 C-1.9375 18.5625 -1.9375 18.5625 -4 21 C-6.33043558 24.49565336 -6.58763244 25.8865729 -6 30 C-3.67678298 32.24191401 -3.67678298 32.24191401 -1 34 C1.28953031 37.43429546 1.17058961 38.55897501 1 42.5625 C0.83277304 45.43000484 0.83277304 45.43000484 1 48 C2.89755144 50.34973818 2.89755144 50.34973818 6.125 50.125 C7.07375 50.08375 8.0225 50.0425 9 50 C8.67 51.65 8.34 53.3 8 55 C7.01 55 6.02 55 5 55 C4.67 55.66 4.34 56.32 4 57 C1.5390625 55.5078125 1.5390625 55.5078125 -1 53 C-1.45345107 50.12029128 -1.65580745 47.74522756 -1.625 44.875 C-1.625 42.19954241 -1.74723663 39.67458917 -2 37 C-2.99 36.34 -3.98 35.68 -5 35 C-5 34.34 -5 33.68 -5 33 C-5.66 33 -6.32 33 -7 33 C-8.60355101 29.49223216 -9.22036864 26.85645121 -9 23 C-8.34 23 -7.68 23 -7 23 C-7.33 22.01 -7.66 21.02 -8 20 C-7 17 -7 17 -4.484375 15.7265625 C-1.6724242 14.1909602 -1.6724242 14.1909602 -1.328125 10.8984375 C-1.30234375 9.73570313 -1.2765625 8.57296875 -1.25 7.375 C-1.0546697 1.0546697 -1.0546697 1.0546697 0 0 Z " fill="#E48B12" transform="translate(96,89)"/>
<path d="M0 0 C5.841744 -0.35050464 9.8531808 -0.16727335 15 3 C15 2.01 15 1.02 15 0 C17.64 0 20.28 0 23 0 C23 2.31 23 4.62 23 7 C17.5610835 7.21755666 13.12919186 7.10428384 8 5 C8 5.66 8 6.32 8 7 C5.36 7 2.72 7 0 7 C0 4.69 0 2.38 0 0 Z " fill="#201D1E" transform="translate(255,224)"/>
<path d="M0 0 C10.55808656 -0.55353075 10.55808656 -0.55353075 15 3 C15.33 2.01 15.66 1.02 16 0 C18.31 0 20.62 0 23 0 C23 2.31 23 4.62 23 7 C17.158256 7.35050464 13.1468192 7.16727335 8 4 C8 4.99 8 5.98 8 7 C5.36 7 2.72 7 0 7 C0 4.69 0 2.38 0 0 Z " fill="#282526" transform="translate(173,224)"/>
<path d="M0 0 C0.66 0.33 1.32 0.66 2 1 C0.59858309 6.22346304 -1.84325826 9.74206928 -5 14 C-7.40249894 17.66095077 -7.30126857 20.66083323 -7 25 C-5.49548862 28.18261402 -5.49548862 28.18261402 -3.5 31.3125 C1.15765744 39.6522632 0.86221627 47.69921959 0 57 C-0.08636719 58.00289062 -0.17273438 59.00578125 -0.26171875 60.0390625 C-0.625 62.4375 -0.625 62.4375 -2 66 C-5.125 68.0625 -5.125 68.0625 -8 69 C-7.731875 68.360625 -7.46375 67.72125 -7.1875 67.0625 C-6.795625 66.051875 -6.40375 65.04125 -6 64 C-5.73574219 63.40316406 -5.47148438 62.80632812 -5.19921875 62.19140625 C-2.08044461 54.37229951 -0.98015418 43.85402525 -4.3125 35.9375 C-5.41061411 34.02596804 -6.53451207 32.12894329 -7.6875 30.25 C-9.64054336 25.41389262 -10.00253962 21.13105347 -9 16 C-7.44560484 13.17861086 -5.68572041 10.76441252 -3.69140625 8.23828125 C-1.72759794 5.63952337 -0.74898121 3.16236512 0 0 Z " fill="#E58C12" transform="translate(113,70)"/>
<path d="M0 0 C2.60423592 -0.02697137 5.20819244 -0.04682489 7.8125 -0.0625 C8.55048828 -0.07087891 9.28847656 -0.07925781 10.04882812 -0.08789062 C13.29922068 -0.10259828 15.89404895 -0.03531702 19 1 C18.690625 1.928125 18.690625 1.928125 18.375 2.875 C18.25125 3.57625 18.1275 4.2775 18 5 C18.66 5.66 19.32 6.32 20 7 C13.33333333 7 6.66666667 7 0 7 C0 4.69 0 2.38 0 0 Z " fill="#232122" transform="translate(93,224)"/>
<path d="M0 0 C0.92425781 0.06316406 1.84851563 0.12632812 2.80078125 0.19140625 C3.73277344 0.23136719 4.66476563 0.27132812 5.625 0.3125 C8.11328125 0.75390625 8.11328125 0.75390625 11.11328125 2.75390625 C11.11328125 3.41390625 11.11328125 4.07390625 11.11328125 4.75390625 C12.43328125 5.41390625 13.75328125 6.07390625 15.11328125 6.75390625 C15.11328125 7.08390625 15.11328125 7.41390625 15.11328125 7.75390625 C7.19328125 7.75390625 -0.72671875 7.75390625 -8.88671875 7.75390625 C-2.88671875 0.75390625 -2.88671875 0.75390625 0 0 Z " fill="#211F20" transform="translate(141.88671875,223.24609375)"/>
<path d="M0 0 C0.66 0 1.32 0 2 0 C2.07457894 4.57149757 2.12880276 9.14263509 2.16479492 13.71459961 C2.17981105 15.2673968 2.20023028 16.82015209 2.22631836 18.37280273 C2.26302073 20.61452624 2.27979787 22.85568539 2.29296875 25.09765625 C2.30845261 25.78336197 2.32393646 26.46906769 2.33988953 27.17555237 C2.34162145 32.22133364 1.18731046 35.56230784 -1 40 C-4.3 39.34 -7.6 38.68 -11 38 C-10.67 36.35 -10.34 34.7 -10 33 C-9.34 33.33 -8.68 33.66 -8 34 C-8 34.66 -8 35.32 -8 36 C-6.68 36 -5.36 36 -4 36 C-2.49843126 32.99686252 -2.90718796 30.20932478 -2.9375 26.875 C-2.94652344 25.59367187 -2.95554687 24.31234375 -2.96484375 22.9921875 C-2.97644531 22.00476563 -2.98804687 21.01734375 -3 20 C-2.34 20.33 -1.68 20.66 -1 21 C-0.67 14.07 -0.34 7.14 0 0 Z " fill="#FDF1D6" transform="translate(95,30)"/>
<path d="M0 0 C0.33 0 0.66 0 1 0 C1.66 4.95 2.32 9.9 3 15 C2.01 14.67 1.02 14.34 0 14 C-1.27305556 15.04871253 -1.27305556 15.04871253 -1.11352539 17.40844727 C-1.10828857 18.45057373 -1.10305176 19.4927002 -1.09765625 20.56640625 C-1.09443359 21.69111328 -1.09121094 22.81582031 -1.08789062 23.97460938 C-1.07951172 25.15861328 -1.07113281 26.34261719 -1.0625 27.5625 C-1.05798828 28.75037109 -1.05347656 29.93824219 -1.04882812 31.16210938 C-1.03699675 34.10812226 -1.02051287 37.05403681 -1 40 C-1.66 40 -2.32 40 -3 40 C-3.144375 40.78375 -3.28875 41.5675 -3.4375 42.375 C-4 45 -4 45 -5 47 C-5.66 46.67 -6.32 46.34 -7 46 C-6.50814209 44.99316162 -6.01628418 43.98632324 -5.50952148 42.94897461 C-3.88170794 39.1359902 -3.7059736 35.98453803 -3.84765625 31.81640625 C-3.87585074 30.46289477 -3.90383921 29.10937899 -3.93164062 27.75585938 C-3.99366182 25.65817025 -4.06255645 23.56090894 -4.13696289 21.46362305 C-4.40127122 13.3818512 -4.58857309 6.95918619 0 0 Z " fill="#DA8533" transform="translate(100,24)"/>
<path d="M0 0 C5.28 0 10.56 0 16 0 C15.67 1.32 15.34 2.64 15 4 C15.33 4.99 15.66 5.98 16 7 C11.05 7 6.1 7 1 7 C0 3 0 3 0 0 Z " fill="#322E2F" transform="translate(7,224)"/>
<path d="M0 0 C0.66 0 1.32 0 2 0 C1.835 0.825 1.67 1.65 1.5 2.5 C0.52903647 9.29674469 0.34446655 13.90744426 4 20 C2.68 19.67 1.36 19.34 0 19 C-0.33 20.32 -0.66 21.64 -1 23 C-3.45489316 17.87674471 -4.50341703 13.66104589 -5 8 C-5.99 9.32 -6.98 10.64 -8 12 C-7.67506385 8.4257023 -7.36129314 6.44287547 -5.0625 3.625 C-3 2 -3 2 -1 2 C-0.67 1.34 -0.34 0.68 0 0 Z " fill="#FCECD1" transform="translate(105,18)"/>
<path d="M0 0 C4.95 0 9.9 0 15 0 C14.67 1.32 14.34 2.64 14 4 C14.99 5.485 14.99 5.485 16 7 C10.72 7 5.44 7 0 7 C0 4.69 0 2.38 0 0 Z " fill="#242223" transform="translate(73,224)"/>
<path d="M0 0 C4.62 0 9.24 0 14 0 C13.67 1.32 13.34 2.64 13 4 C13.33 4.99 13.66 5.98 14 7 C9.05 7 4.1 7 -1 7 C-0.67 4.69 -0.34 2.38 0 0 Z " fill="#252223" transform="translate(236,224)"/>
<path d="M0 0 C0.66 0.33 1.32 0.66 2 1 C2 14.2 2 27.4 2 41 C1.01 41 0.02 41 -1 41 C-0.67 27.47 -0.34 13.94 0 0 Z " fill="#3C383A" transform="translate(159,177)"/>
<path d="M0 0 C3.45027041 4.35034095 4.1536897 7.48215856 4.1875 13 C4.20167969 14.051875 4.21585938 15.10375 4.23046875 16.1875 C4 19 4 19 2 22 C0.25 21.9375 0.25 21.9375 -2 21 C-4.80096631 17.29061219 -6.38790517 14.63779697 -6.0625 9.9375 C-5.25966336 5.55606175 -3.06102901 3.13951693 0 0 Z M-2.625 6.0625 C-4.73372803 9.0338895 -4.31129458 11.4512418 -4 15 C-3.40019748 17.37181245 -3.40019748 17.37181245 -2 19 C0.05000871 19.80528889 0.05000871 19.80528889 2 20 C3.01603857 14.20858017 2.96263236 10.5415502 1 5 C-1.04459814 4.81758355 -1.04459814 4.81758355 -2.625 6.0625 Z " fill="#D78B43" transform="translate(89,45)"/>
<path d="M0 0 C5.61 0 11.22 0 17 0 C17 0.66 17 1.32 17 2 C15.35 2 13.7 2 12 2 C12 3.65 12 5.3 12 7 C9.36 7 6.72 7 4 7 C4 5.35 4 3.7 4 2 C2.68 2 1.36 2 0 2 C0 1.34 0 0.68 0 0 Z " fill="#232122" transform="translate(281,224)"/>
<path d="M0 0 C5.94 0 11.88 0 18 0 C18 0.66 18 1.32 18 2 C16.35 2 14.7 2 13 2 C13 3.65 13 5.3 13 7 C10.69 7 8.38 7 6 7 C5.67 5.35 5.34 3.7 5 2 C3.35 2 1.7 2 0 2 C0 1.34 0 0.68 0 0 Z " fill="#211F20" transform="translate(115,224)"/>
<path d="M0 0 C5.61 0 11.22 0 17 0 C17 0.66 17 1.32 17 2 C15.68 2 14.36 2 13 2 C13 3.32 13 4.64 13 6 C10.29120665 7.35439668 7.99066732 7.06501451 5 7 C5 5.35 5 3.7 5 2 C3.35 2 1.7 2 0 2 C0 1.34 0 0.68 0 0 Z " fill="#222021" transform="translate(53,224)"/>
<path d="M0 0 C0.66 0.33 1.32 0.66 2 1 C1.43545368 2.48643845 0.84765111 3.96406016 0.25 5.4375 C-0.07484375 6.26121094 -0.3996875 7.08492187 -0.734375 7.93359375 C-2 10 -2 10 -4.140625 10.78515625 C-4.75421875 10.85605469 -5.3678125 10.92695313 -6 11 C-6 11.66 -6 12.32 -6 13 C-9.59513939 11.3407049 -12.86406334 9.42322378 -16 7 C-16 5.68 -16 4.36 -16 3 C-15.34 3 -14.68 3 -14 3 C-14 3.99 -14 4.98 -14 6 C-13.01 6.33 -12.02 6.66 -11 7 C-10.34 7.66 -9.68 8.32 -9 9 C-6.89179203 8.6814823 -6.89179203 8.6814823 -5 8 C-4.9175 7.236875 -4.835 6.47375 -4.75 5.6875 C-3.85384206 2.47626739 -2.78388975 1.70625501 0 0 Z " fill="#D47F32" transform="translate(109,136)"/>
<path d="M0 0 C0.33 0 0.66 0 1 0 C1.81805218 7.49881163 -0.52818348 11.12639644 -5 17 C-7.18994248 20.28491373 -7.35277339 21.83095639 -7.625 25.6875 C-7.73714844 27.17830078 -7.73714844 27.17830078 -7.8515625 28.69921875 C-7.90054688 29.45847656 -7.94953125 30.21773437 -8 31 C-10 29 -10 29 -10.1953125 26.8359375 C-10.17210938 26.02382812 -10.14890625 25.21171875 -10.125 24.375 C-10.10695313 23.55773437 -10.08890625 22.74046875 -10.0703125 21.8984375 C-10.03550781 20.95871094 -10.03550781 20.95871094 -10 20 C-10.99 20.66 -11.98 21.32 -13 22 C-11.20641047 17.74022486 -8.3998648 15.63224359 -4.875 12.78125 C-0.98106731 9.08201394 -0.60183932 5.21594081 0 0 Z " fill="#FCC51A" transform="translate(112,66)"/>
<path d="M0 0 C6.69465551 10.04198327 5.30488046 22.47100183 5 34 C4.34 33.67 3.68 33.34 3 33 C3 25.74 3 18.48 3 11 C2.01 11 1.02 11 0 11 C-0.33 12.32 -0.66 13.64 -1 15 C-2.50416548 11.99166904 -1.60839737 9.65038422 -1.0625 6.375 C-0.86785156 5.18648437 -0.67320313 3.99796875 -0.47265625 2.7734375 C-0.31667969 1.85820313 -0.16070312 0.94296875 0 0 Z " fill="#E2A262" transform="translate(109,6)"/>
<path d="M0 0 C2.31 0 4.62 0 7 0 C7 2.31 7 4.62 7 7 C4.03 7 1.06 7 -2 7 C-2.33 5.68 -2.66 4.36 -3 3 C-2.34 3 -1.68 3 -1 3 C-0.67 2.01 -0.34 1.02 0 0 Z " fill="#201D1E" transform="translate(189,224)"/>
<path d="M0 0 C2.64 0 5.28 0 8 0 C8 2.31 8 4.62 8 7 C5.36 7 2.72 7 0 7 C0 4.69 0 2.38 0 0 Z " fill="#2C2A2B" transform="translate(160,224)"/>
<path d="M0 0 C1.32 0 2.64 0 4 0 C5.0161692 4.62921525 4.83796731 8.34462607 4 13 C3.34 13 2.68 13 2 13 C1.67 13.99 1.34 14.98 1 16 C0.93941406 15.39671875 0.87882812 14.7934375 0.81640625 14.171875 C0.69072266 12.97304687 0.69072266 12.97304687 0.5625 11.75 C0.48128906 10.96109375 0.40007813 10.1721875 0.31640625 9.359375 C0.05958718 7.01956386 0.05958718 7.01956386 -0.59765625 4.890625 C-1 3 -1 3 0 0 Z " fill="#EDECEC" transform="translate(29,171)"/>
<path d="M0 0 C-0.20625 0.61875 -0.4125 1.2375 -0.625 1.875 C-0.74875 2.57625 -0.8725 3.2775 -1 4 C-0.34 4.66 0.32 5.32 1 6 C-2.3 6 -5.6 6 -9 6 C-8.67 5.01 -8.34 4.02 -8 3 C-8.99 2.34 -9.98 1.68 -11 1 C-6.8204355 -1.78637633 -4.85331323 -0.79562512 0 0 Z " fill="#3B3638" transform="translate(112,225)"/>
<path d="M0 0 C2.31 0.66 4.62 1.32 7 2 C7 2.99 7 3.98 7 5 C2.57669127 7.57688169 -0.9691294 7.14796678 -6 7 C-4.02 4.69 -2.04 2.38 0 0 Z " fill="#3A3738" transform="translate(139,224)"/>
<path d="M0 0 C1.98 0 3.96 0 6 0 C6.33 1.98 6.66 3.96 7 6 C4.03 6 1.06 6 -2 6 C-2 5.01 -2 4.02 -2 3 C-1.34 3 -0.68 3 0 3 C0 2.01 0 1.02 0 0 Z " fill="#201C1D" transform="translate(271,225)"/>
<path d="M0 0 C0 2.31 0 4.62 0 7 C-2.31 7 -4.62 7 -7 7 C-7 5.02 -7 3.04 -7 1 C-4.50935112 0.31292445 -2.62113708 0 0 0 Z " fill="#211D1F" transform="translate(50,224)"/>
<path d="M0 0 C0.04254356 1.99954746 0.04080783 4.00041636 0 6 C-0.33 6.33 -0.66 6.66 -1 7 C-3.69082872 6.82364548 -6.32851446 6.38164079 -9 6 C-8 3 -8 3 -5.625 1.3125 C-3 0 -3 0 0 0 Z " fill="#2C2A2B" transform="translate(226,185)"/>
<path d="M0 0 C0.804375 0.495 0.804375 0.495 1.625 1 C4.5391061 2.22699204 6.86867708 2.14233286 10 2 C9.67 3.65 9.34 5.3 9 7 C8.01 7 7.02 7 6 7 C5.67 7.66 5.34 8.32 5 9 C2.5 7.3125 2.5 7.3125 0 5 C-0.3125 2.25 -0.3125 2.25 0 0 Z " fill="#E88B15" transform="translate(95,137)"/>
<path d="M0 0 C0.66 0.33 1.32 0.66 2 1 C2.73493195 6.87945561 2.73493195 6.87945561 0.734375 9.9296875 C-0.35256558 11.24351374 -1.4411496 12.55598183 -2.53125 13.8671875 C-4.88422663 17.28400995 -5.45562274 20.94532801 -6 25 C-6.33 25 -6.66 25 -7 25 C-7.14285714 16.42857143 -7.14285714 16.42857143 -6 13 C-5.34 13 -4.68 13 -4 13 C-3.67 12.01 -3.34 11.02 -3 10 C-2.34 10 -1.68 10 -1 10 C-0.67 6.7 -0.34 3.4 0 0 Z " fill="#FDEED1" transform="translate(87,97)"/>
<path d="M0 0 C0.33 0 0.66 0 1 0 C1.33 3.96 1.66 7.92 2 12 C1.01 11.01 0.02 10.02 -1 9 C-2.81115956 10.81115956 -2.38199448 13.61278227 -2.5625 16.0625 C-2.64628906 17.16722656 -2.73007813 18.27195312 -2.81640625 19.41015625 C-2.87699219 20.26480469 -2.93757813 21.11945312 -3 22 C-3.33 22 -3.66 22 -4 22 C-4.42691034 13.55666209 -4.63421641 7.24096313 0 0 Z " fill="#D58F4A" transform="translate(100,24)"/>
<path d="M0 0 C2.3125 -0.3125 2.3125 -0.3125 5 0 C6.81883009 2.3832946 8 3.95818337 8 7 C5.36 7 2.72 7 0 7 C0 4.69 0 2.38 0 0 Z " fill="#292627" transform="translate(223,224)"/>
<path d="M0 0 C4.95 0 9.9 0 15 0 C15 0.66 15 1.32 15 2 C12.29120665 3.35439668 9.99066732 3.06501451 7 3 C7 2.34 7 1.68 7 1 C4.69 1.66 2.38 2.32 0 3 C0 2.01 0 1.02 0 0 Z " fill="#423F40" transform="translate(73,224)"/>
<path d="M0 0 C2.64 0 5.28 0 8 0 C7.67 0.66 7.34 1.32 7 2 C4.03 1.505 4.03 1.505 1 1 C1 1.99 1 2.98 1 4 C-1.57213134 5.61949011 -2.67669159 6.04408751 -5.75 5.625 C-6.4925 5.41875 -7.235 5.2125 -8 5 C-8 4.34 -8 3.68 -8 3 C-6.25 1.875 -6.25 1.875 -4 1 C-1.75 1.875 -1.75 1.875 0 3 C0 2.01 0 1.02 0 0 Z " fill="#343032" transform="translate(270,224)"/>
<path d="M0 0 C0.8125 1.625 0.8125 1.625 1 4 C-0.45145896 6.29767635 -2.10430963 8.01403866 -4 10 C-4.33 10 -4.66 10 -5 10 C-4.64766839 4.5388601 -4.64766839 4.5388601 -4 2 C-1.9375 0.5 -1.9375 0.5 0 0 Z " fill="#DE812D" transform="translate(116,125)"/>
<path d="M0 0 C0.66 0 1.32 0 2 0 C1.40895235 4.84659077 0.02055843 8.60748167 -2 13 C-2.33 13 -2.66 13 -3 13 C-3 10.03 -3 7.06 -3 4 C-2.01 3.67 -1.02 3.34 0 3 C0 2.01 0 1.02 0 0 Z " fill="#FDF4DE" transform="translate(105,18)"/>
<path d="M0 0 C0.66 0.33 1.32 0.66 2 1 C1.67 1.33 1.34 1.66 1 2 C0.76572222 4.01594582 0.58663876 6.038474 0.4375 8.0625 C0.35371094 9.16722656 0.26992187 10.27195312 0.18359375 11.41015625 C0.12300781 12.26480469 0.06242187 13.11945312 0 14 C-0.33 14 -0.66 14 -1 14 C-1.33 11.36 -1.66 8.72 -2 6 C-2.99 7.32 -3.98 8.64 -5 10 C-4.56802365 5.2482602 -3.67230705 3.07999946 0 0 Z " fill="#F6E4C6" transform="translate(102,20)"/>
<path d="M0 0 C0.33 0 0.66 0 1 0 C1.8119452 7.44283101 -0.47682083 11.18448392 -5 17 C-5.99 16.34 -6.98 15.68 -8 15 C-7.21625 14.4225 -6.4325 13.845 -5.625 13.25 C-1.05460886 9.33252188 -0.68098853 5.9019006 0 0 Z " fill="#FDB929" transform="translate(112,66)"/>
<path d="M0 0 C0.66 0 1.32 0 2 0 C2.99 3.63 3.98 7.26 5 11 C4.01 11.33 3.02 11.66 2 12 C1.34 8.04 0.68 4.08 0 0 Z " fill="#FCF6E4" transform="translate(123,109)"/>
<path d="M0 0 C4.75 -0.125 4.75 -0.125 7 1 C7 1.99 7 2.98 7 4 C5.02 4 3.04 4 1 4 C0.67 2.68 0.34 1.36 0 0 Z " fill="#5E5E5E" transform="translate(300,223)"/>
<path d="M0 0 C1.65 0 3.3 0 5 0 C5.33 0.99 5.66 1.98 6 3 C5.01 3 4.02 3 3 3 C2.67 3.66 2.34 4.32 2 5 C1.01 4.01 0.02 3.02 -1 2 C-0.67 1.34 -0.34 0.68 0 0 Z " fill="#E98320" transform="translate(98,141)"/>
<path d="M0 0 C0.33 0.99 0.66 1.98 1 3 C-1.05233685 5.2477975 -2.00667261 6.0022242 -5 7 C-5.33 6.34 -5.66 5.68 -6 5 C-4.62308038 2.24616077 -2.63279958 1.48516899 0 0 Z " fill="#2E2B2C" transform="translate(271,129)"/>
<path d="M0 0 C4.29 0 8.58 0 13 0 C13 0.33 13 0.66 13 1 C12.32453125 1.04898438 11.6490625 1.09796875 10.953125 1.1484375 C10.06109375 1.22320312 9.1690625 1.29796875 8.25 1.375 C7.36828125 1.44460937 6.4865625 1.51421875 5.578125 1.5859375 C3.00933618 1.99850055 1.24158985 2.71160957 -1 4 C-0.67 2.68 -0.34 1.36 0 0 Z " fill="#5F5E5F" transform="translate(53,125)"/>
<path d="M0 0 C0.33 0 0.66 0 1 0 C1 1.98 1 3.96 1 6 C-2.28976808 7.09658936 -3.71303767 6.79953138 -7 6 C-4.35261084 4.5393715 -3.10551666 4 0 4 C0 2.68 0 1.36 0 0 Z " fill="#555354" transform="translate(222,213)"/>
<path d="M0 0 C0.66 0 1.32 0 2 0 C2 2.64 2 5.28 2 8 C1.01 7.67 0.02 7.34 -1 7 C-0.67 4.69 -0.34 2.38 0 0 Z " fill="#E7E5E6" transform="translate(58,174)"/>
<path d="M0 0 C0.33 0.66 0.66 1.32 1 2 C1.66 2 2.32 2 3 2 C2.67 3.32 2.34 4.64 2 6 C1.34 6 0.68 6 0 6 C-0.66 4.35 -1.32 2.7 -2 1 C-1.34 0.67 -0.68 0.34 0 0 Z " fill="#2C2B2B" transform="translate(291,154)"/>
<path d="M0 0 C2.475 0.495 2.475 0.495 5 1 C5.33 2.32 5.66 3.64 6 5 C5.01 5.495 5.01 5.495 4 6 C0 1.125 0 1.125 0 0 Z " fill="#2B2624" transform="translate(124,121)"/>
<path d="M0 0 C0.75 1.75 0.75 1.75 1 4 C-0.9375 6.25 -0.9375 6.25 -3 8 C-3.66 7.34 -4.32 6.68 -5 6 C-3.35 4.02 -1.7 2.04 0 0 Z " fill="#DF8F43" transform="translate(88,105)"/>
<path d="M0 0 C2.12508244 3.18762365 2.5020163 5.26512223 3 9 C2.01 9 1.02 9 0 9 C0 6.03 0 3.06 0 0 Z " fill="#CD9B64" transform="translate(109,6)"/>
<path d="M0 0 C1.65 0 3.3 0 5 0 C3.68 0.33 2.36 0.66 1 1 C1 2.98 1 4.96 1 7 C-0.32 6.34 -1.64 5.68 -3 5 C-2.34 5 -1.68 5 -1 5 C-0.67 3.35 -0.34 1.7 0 0 Z " fill="#3D3A3B" transform="translate(42,224)"/>
</svg>
