<svg xmlns="http://www.w3.org/2000/svg" width="258.177" height="387.33"><path fill="#f7a508" d="M 0,387.32969 C 0,258.209 0,129.08829 0,0 c 86.05899,0 172.11801,0 258.177,0 0,129.08829 0,258.209 0,387.32969 -86.05899,0 -172.11801,0 -258.177,0 z"/><path d="m 251.07501,380.42163 c -81.34574,-0.0323 -162.691802,-0.0323 -244.0380348,-0.0323 0,-38.09015 0,-76.18116 0,-114.27175 81.3462328,-0.0319 162.6922948,-0.0644 244.0380348,-0.0644 0,38.1225 0,76.24596 0,114.36851 z"/><path fill="#f7a508" d="m 221.95861,325.02896 c 0,-1.38832 0,-2.74386 0,-4.09937 0.12914,-2.58277 0.25772,-5.16506 0.41941,-7.71495 0.58146,-5.87524 1.58189,-11.29817 3.3897,-16.78592 3.13089,-7.29505 7.68255,-16.30119 17.23724,-14.2999 0.87175,0.35467 1.77588,0.74214 2.67956,1.12963 -0.033,3.45403 -0.033,6.90804 -0.033,10.39444 -2.71147,-0.87213 -3.67995,-1.19436 -6.13313,0.19357 -1.25918,1.16198 -1.77534,1.93693 -2.64709,3.45357 -1.84018,4.32571 -2.51794,8.8126 -3.00219,13.65454 -0.12883,2.77623 -0.25773,5.55251 -0.38747,8.36075 0,1.64624 0,3.29245 0,4.93868 0.25883,7.1988 0.25883,14.30033 2.06613,21.56349 1.38835,3.77667 3.06696,7.77934 8.03811,7.42425 0.6777,-0.25772 1.38788,-0.51666 2.09805,-0.77456 0,3.61562 0,7.26274 0,10.91071 -3.16376,1.93694 -5.00349,1.77537 -8.39317,1.29115 -4.13138,-1.67865 -5.84241,-3.42164 -8.26359,-6.87565 -0.64533,-1.19436 -1.29112,-2.35638 -1.90452,-3.5184 -2.51752,-6.55299 -3.67995,-12.23419 -4.58361,-18.91633 -0.19384,-3.45405 -0.38748,-6.90803 -0.581,-10.3297 z"/><path fill="#b57b00" d="m 98.938795,364.44308 c 0,-27.34143 0,-54.68247 0,-81.99155 0,-0.0323 0,-0.0323 0,-0.0323 0.09692,0 0.09692,0 0,82.02396 z"/><path fill="#3a2900" d="m 12.105065,282.45153 c 0,27.30908 0,54.65012 0,81.99155 -0.06471,0 -0.09692,0 -0.129137,0 0,-27.34143 0,-54.68247 0,-81.99155 0.03304,0 0.06471,0 0.129137,0 z"/><path fill="#f7a508" d="m 12.105065,364.44308 c 0,-27.34143 0,-54.68247 0,-81.99155 1.549507,-0.0323 3.131119,-0.0323 4.713005,-0.0323 6.811055,0.19356 11.943522,1.09761 17.043716,6.19789 2.614763,3.13134 4.325567,6.45576 5.55234,10.71669 1.19445,6.3919 0.903905,12.68607 -1.710775,18.94877 -0.581255,1.03285 -1.162234,2.06568 -1.743239,3.13137 -2.711465,3.55077 -5.519906,5.93909 -9.554927,7.84413 -1.097444,0.35505 -2.162866,0.74207 -3.228122,1.12957 -0.03305,11.33053 -0.06471,22.6926 -0.09692,34.05554 -3.679938,0 -7.32752,0 -10.975269,0 z"/><path fill="#f7a508" d="m 46.838651,281.80571 c 3.970398,0 7.94085,0 11.943437,0 2.873037,27.53503 5.746074,55.07001 8.651299,82.605 -3.679937,0 -7.359872,0 -11.03981,0 -0.226059,-4.90677 -0.452089,-9.81303 -0.64563,-14.68739 -2.033673,0 -4.067375,0 -6.101159,0 -0.419626,4.87436 -0.8069,9.78062 -1.194338,14.68739 -3.647583,0 -7.262896,0 -10.878263,0 3.066493,-27.53499 6.165507,-55.06997 9.264464,-82.605 z"/><path fill="#b57b00" d="m 71.597326,282.45153 c 0.03305,0 0.06471,0 0.09692,0 0,27.30908 0,54.65012 0,81.99155 -0.03305,-27.34143 -0.06471,-54.68247 -0.09692,-81.99155 z"/><path fill="#f7a508" d="m 71.694302,364.44308 c 0,-27.34143 0,-54.68247 0,-81.99155 3.324879,0 6.64973,0 10.006768,0 5.003521,31.15016 5.132659,31.27927 6.908059,42.67422 0.225782,0.0321 0.451814,0.0647 0.67779,0.0972 -0.41971,-14.26834 -0.839336,-28.53589 -1.22661,-42.77138 3.615396,0 7.23071,0 10.878486,0 0,27.30906 0,54.65009 0,81.99153 -3.195907,-0.0322 -6.391649,-0.0322 -9.587308,-0.0322 -2.550139,-15.17163 -5.067842,-30.34322 -7.585793,-45.51482 -0.161077,0 -0.290407,0 -0.41971,0 0.355032,15.1716 0.710172,30.34319 1.097693,45.51482 -3.583208,0 -7.166415,0 -10.749375,0.0322 z"/><path fill="#f7a508" d="m 104.74922,282.45153 c 1.38787,-0.0323 2.77605,-0.0323 4.19637,-0.0323 5.55209,0.35508 9.87783,1.38837 14.42929,5.5521 0.12913,0.25827 0.12913,0.25827 1.67861,1.96937 0.74235,1.12958 1.51707,2.25917 2.29181,3.42158 2.8087,5.77804 4.51928,11.39493 5.45533,18.109 0.64539,7.77975 0.8069,15.46236 0.033,23.46762 -1.0004,6.42425 -2.00131,12.75083 -5.19678,18.78719 -2.45341,3.87389 -4.58384,6.64971 -8.58649,8.87696 -2.32418,0.90411 -4.58383,1.51702 -6.7467,1.77536 -2.51773,0 -5.03565,0.0323 -7.55341,0.0647 0,-27.34145 0,-54.68247 0,-81.99154 z"/><path fill="#f7a508" d="m 137.99765,282.45153 c 6.26272,0 12.52452,0 18.8196,0 0,3.5832 0,7.16633 0,10.78148 -2.58277,0 -5.16503,0 -7.74736,0.032 -0.0972,0 -0.0972,25.88875 0,25.88875 2.58233,0 5.16459,0 7.74736,0 0,3.55124 0,7.10203 0,10.65236 -2.58277,0 -5.16503,0 -7.74736,0 -0.0972,0 -0.0972,23.88793 0,23.88793 2.58233,0 5.16459,0 7.74736,0 0,3.58273 0,7.16592 0,10.74906 -6.29508,0 -12.55688,0 -18.8196,0 0,-27.34143 0,-54.68247 0,-81.99155 z"/><path fill="#7b5208" d="m 156.81725,364.44308 c 0,-3.58314 0,-7.16633 0,-10.74906 0.097,0 0.097,10.74906 0,10.74906 z"/><path fill="#f7a508" d="m 168.34134,282.45153 c 3.00174,0 6.00393,0.0319 9.03806,0.0644 3.38967,43.61072 3.38967,43.61072 3.5512,44.41766 0.12883,-0.38753 0.12883,-0.38753 4.06697,-44.48201 3.00222,0 6.00395,0 9.03856,0 2.64665,27.30906 5.32617,54.61816 8.00526,81.95918 -3.64756,0 -7.29509,0 -10.91026,0 -0.87171,-12.91198 -1.71102,-25.79159 -2.55033,-38.67159 -0.0642,-0.12914 -0.12914,-0.25828 -0.16108,-0.38747 -1.9693,13.00919 -3.93821,26.01791 -5.90759,39.05906 -1.22639,0 -2.45313,0 -3.64756,0 -5.35856,-38.89751 -5.35856,-38.89751 -5.48775,-39.091 -1.00038,13.00872 -2.00128,26.04985 -3.00217,39.091 -3.51833,0 -7.03722,0 -10.52321,0 2.80873,-27.34102 5.64895,-54.65012 8.48998,-81.95918 z"/><path fill="#f7a508" d="m 206.62546,364.41071 c 0,-27.34104 0,-54.6501 0,-81.95918 3.64749,0 7.29511,0 10.97539,0 0,27.30908 0,54.65012 0,81.99155 -3.68028,-0.0321 -7.3279,-0.0321 -10.97539,-0.0321 z"/><path fill="#b57b00" d="m 206.62546,282.41911 c 0,0 0,0 0,0.0323 0,27.30908 0,54.61814 0,81.95918 -0.097,0 -0.097,-81.9916 0,-81.9916 z"/><path fill="#3a2900" d="m 245.68452,363.37789 c 0,-3.64797 0,-7.29509 0,-10.91071 0.0331,3.61562 0.0642,7.26274 0.12914,10.91071 -0.0649,0 -0.0967,0 -0.12914,0 z"/><path fill="#b57b00" d="m 149.06989,329.80609 c 0,0.0331 0,0.0647 0,0.0972 0,7.9085 0,15.8498 0,23.7907 -0.0972,0 -0.0972,-23.88789 0,-23.88789 z"/><path fill="#b48404" d="m 115.918,296.23477 c -0.0331,18.23861 -0.0331,36.47678 -0.0331,54.71535 -0.0647,0.0319 -0.0647,0.0319 -0.16108,-54.81211 0.19357,0 0.19357,0 0.19357,0.0967 z"/><path d="m 115.88584,350.95012 c 0,-18.23857 0,-36.47674 0.033,-54.71535 1.45273,1.32403 1.45273,1.32403 2.19525,2.19527 3.58296,6.74652 3.45385,14.84891 3.77675,22.59585 0,1.61429 0,3.22811 0,4.84238 -0.29041,7.7474 -0.0969,14.88091 -3.42166,22.33756 -0.74253,0.90413 -1.67862,2.09849 -2.58252,2.74429 z"/><path d="m 50.228043,338.90943 c 0.774546,-14.65543 1.452529,-29.11647 1.936779,-43.57833 0.29038,0 0.580924,0 0.871469,0 0.64552,14.52627 1.32353,29.05207 2.001321,43.61073 -1.613856,-0.0321 -3.227875,-0.0321 -4.809569,-0.0321 z"/><path fill="#3a2900" d="m 149.06989,329.90329 c 0,-0.0322 0,-0.0644 0,-0.0972 2.58233,0 5.16459,0 7.74736,0 0,0 0,0.0331 0,0.0647 -2.58277,0 -5.16503,0 -7.74736,0.0323 z"/><path fill="#7b5208" d="m 156.81725,329.87088 c 0,-0.0319 0,-0.0647 0,-0.0647 0,-3.55033 0,-7.10115 0,-10.65236 0.097,0 0.097,10.71712 0,10.71712 z"/><path fill="#b57b00" d="m 149.06989,293.26501 c 0,0 0,0.0328 0,0.0647 0,8.5867 0,17.20531 0,25.82395 -0.0972,0 -0.0972,-25.88874 0,-25.88874 z"/><path fill="#7b5200" d="m 23.177063,294.68577 c 0,7.94087 0,15.91413 0,23.88697 -0.09692,0 -0.06471,-23.91938 0,-23.88697 z"/><path d="m 23.177063,318.57274 c 0,-7.97284 0,-15.9461 0,-23.88697 5.746073,3.35681 6.230076,10.91019 4.810009,17.17292 -0.710171,1.80732 -1.484937,3.29245 -2.679331,4.80995 -0.710337,0.61298 -1.420507,1.25877 -2.130678,1.9041 z"/><path fill="#3a2900" d="m 245.65206,293.65289 c 0,-3.4864 0,-6.94041 0.033,-10.39444 0.0331,10.4264 0.0331,10.4264 -0.033,10.39444 z"/><path fill="#7b5200" d="m 149.06989,293.32977 c 0,-0.0319 0,-0.0647 0,-0.0647 2.58233,-0.0319 5.16459,-0.0319 7.74736,-0.0319 0,0 0,0 0,0.0319 -2.58277,0 -5.16503,0.0328 -7.74736,0.0647 z"/><path fill="#7b5208" d="m 156.81725,293.26501 c 0,-0.0319 0,-0.0319 0,-0.0319 0,-3.61518 0,-7.1983 0,-10.78151 0,-0.0323 0,-0.0323 0,-0.0323 0.097,0 0.097,10.8459 0,10.8459 z"/><path fill="#7b5200" d="m 168.34134,282.45153 c 0,-0.0969 0,-0.0969 9.03806,-0.0969 0,0.0319 0,0.0969 0,0.16108 -3.03413,-0.0323 -6.03632,-0.0644 -9.03806,-0.0644 z"/><path fill="#7b5200" d="m 71.597326,282.45153 c 0,-0.0969 0,-0.0969 10.103744,0 -3.357038,0 -6.681889,0 -10.006768,0 -0.03305,0 -0.06471,0 -0.09692,0 z"/><path fill="#7b5200" d="m 88.060309,282.45153 c 3.615396,-0.0323 7.23071,-0.0323 10.878486,-0.0323 0,0 0,0 0,0.0323 -3.647776,0 -7.26309,0 -10.878486,0 z"/><path fill="#7b5200" d="m 137.99765,282.45153 c 6.26272,-0.0323 12.52452,-0.0323 18.8196,-0.0323 0,0 0,0 0,0.0323 -6.29508,0 -12.55688,0 -18.8196,0 z"/><path fill="#7b5200" d="m 184.99757,282.45153 c 0,-0.0969 9.03856,-0.0969 9.03856,0 -3.03461,0 -6.03634,0 -9.03856,0 z"/><path fill="#7b5200" d="m 206.62546,282.45153 c 0,-0.0323 0,-0.0323 0,-0.0323 3.64749,0 7.29511,0 10.97539,0.0323 -3.68028,0 -7.3279,0 -10.97539,0 z"/><path d="m 7.0369752,259.33857 c 0,-84.08962 0,-168.179523 0,-252.2369987 81.3784208,0 162.7570648,0 244.1347848,0 -0.033,84.0574757 -0.033,168.1151787 -0.033,252.2050287 -81.37862,0 -162.756599,0 -244.1028591,0.0319 z"/><path fill="#f7a508" d="m 8.3281249,258.04742 c 0,-83.21817 0,-166.436338 0,-249.6547266 80.5069251,0 161.0135951,0 241.5529051,0 0,83.2183886 0,166.4365566 0,249.6547266 -80.50689,0 -161.013821,0 -241.5529051,0 z"/><path d="m 218.37544,188.83885 c 0,2.29184 0,4.5839 0,6.90831 -0.64583,7.42424 -2.00133,14.49342 -4.26094,21.82132 -2.35689,6.7141 -5.58452,13.00877 -9.7487,18.98029 -4.74519,6.03673 -9.81346,11.16902 -17.14097,13.8161 -2.2592,0.48425 -4.16375,0.80733 -6.29423,0.87171 -0.71011,-0.0642 -1.38831,-0.12913 -2.0661,-0.19384 -6.10111,-1.74302 -8.71582,-4.0994 -12.1694,-8.94132 -0.61382,-1.13001 -1.1948,-2.25967 -1.77583,-3.38969 -1.25881,-3.16328 -2.13046,-5.87476 -2.84063,-8.87694 -1.54907,-8.87696 -1.12958,-16.81785 0.16163,-25.53367 0.12913,-0.12883 0.64579,-2.90545 0.77449,-3.03417 2.09811,-9.23224 5.55259,-17.39901 10.55563,-25.24317 3.80908,-5.55212 7.8441,-9.87762 13.5258,-13.55757 4.71276,-2.19525 8.48947,-3.87367 13.94481,-2.93759 5.35859,1.54946 8.29597,3.93825 11.65323,8.84475 0.64539,1.19444 1.29116,2.38878 1.9365,3.6154 1.51708,3.51857 2.4212,7.39206 3.19613,11.45945 0.16108,1.77541 0.35465,3.58321 0.54863,5.39075 z"/><path d="m 84.122017,215.6959 c 0,-1.1296 -0.839254,-1.25874 -1.387878,-1.35556 -0.581007,0.58105 -0.09692,2.00133 1.19442,1.61387 0,0.45186 -0.161627,0.41946 0.322705,1.03329 0.677955,0.38702 4.099619,2.38835 4.712977,3.32487 0.193569,0.16108 0.419681,0.32235 0.645603,0.51617 -4.164187,0.6134 -7.359873,3.03463 -10.846103,4.9387 -0.903877,1.35597 -1.646456,1.13008 -2.87301,0.83932 -2.679277,-1.51707 -5.100278,-2.87302 -7.166168,-4.48685 -3.324849,-3.22767 -3.324849,-3.22767 -4.842142,-4.84191 -3.034169,-3.67994 -5.422955,-7.61824 -7.68255,-11.33058 -1.48491,-3.1309 -2.969846,-6.26223 -4.422514,-9.36116 -2.22727,-6.35903 -4.325539,-12.71824 -5.358388,-18.91612 -0.225783,-3.38951 -0.225783,-3.38951 -0.258549,-6.29471 -0.451897,-0.45183 0.0647,-6.97235 0.323063,-7.2307 1.194338,-7.06941 2.743625,-14.52604 6.552752,-20.49779 0.774712,-0.45203 1.839968,-0.74258 2.743818,-1.19439 2.873036,0.355 5.132493,-0.54882 7.682632,-2.1629 0.871661,-0.83931 1.840189,-1.87212 2.905362,-2.45315 1.484691,-1.61402 3.518391,-3.5186 4.616029,-5.35855 0.613195,-0.19386 2.808247,-4.87434 3.195741,-5.61668 0.613359,-0.74255 0.613359,-0.74255 0.839281,-1.29136 0.548598,0.32306 1.03282,2.38878 1.29115,3.32488 0.516437,1.1298 1.065256,2.2596 1.614047,3.3894 0.09692,0 0.193843,0 0.290407,0 0.322704,-0.41963 0.677735,-0.80691 1.032819,-1.19435 0.839254,1.35569 0.161629,4.90668 -0.322703,6.84341 -0.58098,1.29118 -1.129799,2.58232 -1.678562,3.87372 -2.356461,3.13113 -2.356461,3.42161 -2.776087,3.55076 -2.130429,3.06654 -4.648437,6.10092 -6.746459,9.36118 -0.419681,1.25904 -1.355773,2.80846 -2.065944,4.03503 -0.257998,0.67801 -0.484194,1.35577 -0.710308,2.06593 -0.09692,-0.0969 -0.193568,-0.16163 -0.257998,-0.22579 -0.516438,1.25903 -1.065257,2.19507 -1.065257,3.7122 -1.549423,5.22938 -1.549423,5.22938 -1.839968,6.61748 -0.09692,4.09964 -0.258551,8.3284 0.09692,12.71851 0.839336,4.09958 1.936752,8.29597 4.099645,12.39552 0.193844,0.0649 0.322705,0.12914 0.58098,0.58099 0,-0.16108 0.03305,-0.29003 0.06471,-0.41985 -1.743019,-5.06785 -2.195054,-10.20034 -2.743872,-15.13922 0.161628,-5.32616 0.290765,-11.52405 2.873009,-16.04334 0.839335,-3.61533 3.712151,-7.35986 5.358552,-10.7169 0.968279,-0.83928 1.614047,-1.83998 2.195054,-2.90522 4.357727,-3.22807 9.038323,-5.97177 14.300119,-7.71499 0,-0.19384 0,-0.35503 0,-0.5164 -0.871688,-0.41963 -5.293957,0.67779 -6.036508,0.77473 0,-1.58186 3.163499,-3.61532 4.131971,-4.616 0.613222,-1.12981 0.936092,-1.90453 1.646263,-2.84084 1.614047,-1.03283 2.291811,-2.71147 3.905829,-3.71216 1.678617,-0.0969 1.872349,-0.22579 2.421003,-1.90451 0,-5.22941 1.904509,-9.1353 4.357891,-13.5254 0.936065,-3.51862 3.098929,-6.94025 4.680599,-10.20051 0.0647,-0.48422 0.0647,-0.77476 -0.033,-1.00066 -0.22606,0 -0.41969,0 -0.61342,0 -0.25855,0.258 -0.48422,0.51644 -0.71017,0.80693 -3.67994,6.39165 -7.133983,13.364 -9.522715,20.53019 -0.710171,0.87145 -4.002641,5.45536 -5.326227,5.45536 -1.678422,-1.32338 -2.259594,-1.32338 -3.970425,-1.32338 -1.291122,-0.54882 -1.710831,-1.4527 -2.259595,-2.22746 0.09692,-0.0647 0.225784,-0.12914 0.355003,-0.19384 -2.324218,-2.55015 -4.551459,-5.22942 -6.068723,-7.90848 -0.419433,-1.09769 -0.419433,-1.09769 -1.839776,-3.87375 -1.743157,-4.84212 -2.776224,-9.36111 -3.551019,-14.17093 -0.225784,-1.7108 -0.419627,-3.38939 -0.613139,-5.068087 0,-8.78016 -0.225784,-17.173101 1.80756,-25.56585 0.45209,-3.841289 2.195053,-7.295332 2.905225,-10.943053 0.323063,-0.968279 0.452034,-2.001321 1.291149,-2.323997 1.323559,-2.808496 2.873037,-5.681258 4.616221,-8.102425 1.161985,-2.259622 1.807588,-3.550827 4.164186,-4.64841 1.03282,-1.323365 2.808249,-1.258741 4.583647,-1.581665 1.969161,0.129136 3.938239,0.774712 6.262457,0.774712 0.548599,-0.645603 -0.355003,-1.613993 -0.452088,-2.001293 1.355772,-0.8069 3.679935,-1.226775 5.423179,-1.904538 0.581,-0.06471 2.19505,-0.129136 2.19505,-1.097417 -0.71017,-0.581226 -1.19442,-0.74255 -1.7108,-0.936312 -1.226779,-0.03303 -2.453388,-0.06471 -3.647754,-0.06471 -2.711491,0.193844 -4.906544,1.807781 -7.295332,2.614681 -0.193567,-0.03305 -0.387244,-0.03305 -0.580978,-0.03305 -0.419654,-1.291149 1.355719,-3.518583 2.227242,-4.454675 0.807147,-0.226058 0.807147,-0.226058 1.32353,-0.516411 3.09893,-3.518612 7.553662,-5.842829 11.524062,-8.328346 6.06873,-3.228094 11.68544,-5.616907 18.33514,-7.650389 7.26293,-1.872376 14.26771,-2.905225 22.01508,-3.098985 1.19442,0 2.42074,0 3.64755,0 4.68085,0.129137 9.42605,0.678011 14.36468,1.387962 6.55299,1.291369 12.68655,3.260309 19.1747,6.036562 3.29245,1.549451 6.84324,3.647501 10.36206,5.681202 6.00396,4.29335 11.10418,9.006384 16.30121,14.784342 1.29112,1.807614 2.61475,3.647804 3.93828,5.487524 3.06657,5.197226 5.4553,10.297478 7.2307,16.463012 1.00091,4.64841 1.4851,9.103113 1.90459,14.074199 0,2.098076 0,4.228534 0,6.359212 -0.51672,3.29247 -1.19441,6.617348 -2.324,9.974608 -0.54904,2.743627 -1.06572,5.487497 -1.58233,8.231337 -0.64541,2.42098 -1.25832,5.39077 -2.32397,7.8118 -1.22636,4.42246 -2.58235,8.78019 -3.5508,13.20267 -0.16163,0.29038 -0.32271,0.58098 -0.45181,0.90369 -1.71067,7.61817 -3.16381,15.39776 -5.81045,22.91898 -0.12914,0.90386 -0.25855,1.03305 -0.32271,2.13042 -0.51665,1.67866 1.42033,2.67931 1.42033,4.42253 -0.19384,0.19384 -0.35504,0.38725 -0.51667,0.61336 -1.6462,0 -3.38961,-0.7425 -4.48686,-1.54942 -1.32355,-0.29078 -2.22768,-0.45205 -3.29246,-0.51667 -0.80694,-0.033 -1.58184,-0.033 -2.35636,-0.033 -0.4199,-0.12914 -0.4199,-0.12914 -0.61389,-0.32307 0.0649,-0.0969 0.12915,-0.16108 0.19384,-0.22579 -0.80689,0.0969 -0.80689,0.0969 -1.4851,0.355 -0.033,0.0647 -0.0642,0.12914 -0.0969,0.22579 -1.06479,0.19384 -2.12997,0.38746 -3.16326,0.58103 -3.84107,2.22744 -3.84107,2.22744 -7.1016,4.32573 -4.13221,3.19572 -7.58579,6.71411 -10.78146,10.84608 -0.83935,1.22658 -1.67869,2.45337 -2.48599,3.67994 -4.55125,7.87628 -7.55342,15.26856 -9.81266,24.27473 -0.87212,4.19659 -1.54988,8.61863 -1.87256,13.10592 -0.0649,1.03284 -0.0967,2.06572 -0.12914,3.13089 -0.0967,0 -0.0967,3.22812 0,3.22812 0,0 0,0.0331 0,0.0649 0.033,0.90318 0.0642,1.83973 0.12914,2.77581 0.64535,8.07004 2.13048,15.62386 7.16641,22.59629 3.48593,3.80913 4.06691,4.00262 4.06691,4.84193 -0.25773,0.19357 -0.48379,0.41946 -0.70973,0.64535 -2.32436,-0.77449 -2.90537,-1.19434 -4.2613,-2.64711 -1.38791,-0.74214 -1.83981,-1.58138 -2.64712,-2.42076 -3.45363,-2.7114 -6.55256,-5.93952 -9.61908,-8.52185 -2.67953,-3.55124 -5.13272,-7.10155 -7.10201,-10.65278 -0.8069,-2.09808 -1.61382,-4.16378 -2.42076,-6.22992 -1.51705,-1.58182 -1.51705,-1.58182 -2.45316,-2.35632 -1.32356,-0.0649 -2.61512,-0.0969 -3.90585,-0.12914 -1.25919,0.74256 -3.71236,1.42029 -5.03594,1.2264 -1.87213,-1.743 -2.55008,-2.29165 -4.51919,-0.77456 -1.32359,2.03368 -3.13114,4.42249 -5.03573,5.93959 0,0.0649 0,0.12914 0,0.22578 -0.29038,0.0647 -0.71018,0.38742 -1.22656,0.61336 -2.58251,0 -3.09892,1.25877 -5.19725,2.42077 -1.51707,3.067 -2.84058,6.19832 -4.48684,9.23245 -1.67864,0.5486 -5.32617,0.19357 -6.97265,0.19357 -0.0331,-0.0969 -0.0647,-0.16162 -0.0647,-0.22578 -2.00132,-0.38703 -1.87216,-1.54951 -3.00196,-2.03373 -2.195052,-2.93736 -3.22812,-5.97196 -4.906543,-8.7478 0,-1.03329 0.06471,-1.54952 0.419681,-2.32445 0.419627,-0.12913 0.839336,-0.2255 1.258742,-0.32269 1.129797,1.22676 2.74387,0.9685 3.64775,-0.48423 -0.32309,-3.61517 -3.098932,-0.93612 -4.809735,-2.29158 -1.936752,0 -5.197036,-0.9685 -6.585162,-1.96939 -2.324217,-0.51614 -3.712151,-2.22725 -5.455335,-2.87301 -0.225783,0 -0.451871,0 -0.678012,0.033 z"/><path fill="#f7a508" d="m 188.06458,245.13543 c -4.64885,-2.32398 2.03326,-6.16546 2.03326,-1.45267 -0.35501,0.93606 -1.12958,1.38788 -2.03326,1.45267 z"/><path fill="#f7a508" d="m 177.79932,243.45681 c -2.45364,-1.38791 -2.0981,-3.80907 0.0967,-4.90632 1.32353,0 3.67993,1.5171 2.74383,3.38925 -1.03328,1.03285 -1.54941,1.32356 -2.84056,1.51707 z"/><path fill="#f7a508" d="m 195.45644,239.80931 c -0.71014,-0.80692 -0.71014,-0.71017 -0.71014,-1.51709 1.03329,-1.03283 2.25959,-1.12962 2.48552,0.74208 -0.67774,0.6782 -0.90368,0.71017 -1.77538,0.77501 z"/><path d="m 65.722335,235.29003 c -3.195686,-0.29076 -6.391428,-1.64625 -8.328124,-3.87347 -1.517291,-1.03329 -1.936974,-1.58189 -2.77606,-2.74388 -2.32422,-0.96844 -4.809735,-4.45441 -6.13332,-6.13354 -0.387466,-0.25772 -1.226555,-1.32312 -2.614708,-2.80821 -1.226526,-1.9046 -2.453355,-3.80867 -3.679935,-5.71367 -1.355719,-3.58318 -3.486205,-7.10156 -4.29338,-10.42642 -0.742277,-1.58183 -0.936064,-2.93741 -1.613799,-4.19659 -0.645795,-1.96892 -1.517318,-4.13175 -1.775592,-5.90696 -1.710804,-4.45465 -2.098078,-9.78082 -2.679056,-14.26793 -1.065256,-4.48684 -0.613443,-9.45798 -0.290406,-13.81586 0.742357,-5.64909 1.355772,-11.23361 3.776747,-16.26926 0.387245,-1.58162 1.000633,-2.0659 1.80756,-3.32485 0.323062,-0.0969 0.645767,-0.16162 1.000853,-0.22578 2.162673,-1.22653 4.648243,-2.45337 7.230763,-3.13112 1.097417,-0.54882 5.229388,-2.03374 6.326833,-1.16221 0,0.80712 -0.774768,0.80712 -1.323586,0.9039 -0.322705,0.87153 -0.774712,0.93606 -1.000605,2.1629 -1.581667,2.87278 -2.485599,7.23071 -3.5508,10.58774 -1.097445,5.06806 -1.93678,10.36208 -2.227241,15.78501 0.355002,3.84147 0.71017,7.68277 1.097389,11.55644 1.678644,7.45668 4.519244,15.04245 7.747366,22.46719 2.872817,5.00299 6.036342,9.74818 9.845471,14.55818 1.323309,1.51703 2.646868,3.61558 4.874137,4.616 2.679221,2.06572 4.777518,4.13179 8.58662,4.93872 0.839362,0.58103 0.839362,0.58103 0.936091,0.80731 -0.677956,0.48381 -0.613414,0.80694 -0.8069,1.67825 -2.421194,2.87301 -6.875844,3.61561 -10.136153,3.93825 z"/><path fill="#f7a508" d="m 201.26684,233.12758 c -1.58141,-1.58233 -0.033,-3.03455 1.32359,-1.67864 0.0331,0.29038 0.0642,0.61342 0.0967,0.9361 -0.61296,0.61344 -0.71019,0.67775 -1.4203,0.74254 z"/><path fill="#f7a508" d="m 171.4074,231.35175 c -3.80864,-1.42035 0.0972,-6.35899 3.35774,-3.87345 0.48425,1.00044 0.67728,1.54946 0,2.90497 -0.90412,0.9041 -2.38877,0.83978 -3.35774,0.96848 z"/><path fill="#de0800" d="m 158.52784,216.66435 c 0,1.06526 0,2.13052 0,3.22812 -0.0967,0 -0.0967,-3.22812 0,-3.22812 z"/><path fill="#f7a508" d="m 169.79404,216.82548 c -4.09978,-1.80734 0.71017,-5.58403 2.71149,-4.38964 1.41981,0 1.93647,0.25856 2.25961,2.00132 -0.7106,3.06653 -2.32442,1.96891 -4.9711,2.38832 z"/><path fill="#f7a500" d="m 84.122017,215.6959 c -0.06471,0.0642 -0.129138,0.16164 -0.193569,0.25856 -1.291424,0.38746 -1.775426,-1.03285 -1.19442,-1.61386 0.548626,0.0969 1.387879,0.22578 1.387879,1.35552 z"/><path fill="#f7a508" d="m 95.969029,210.69241 c -0.903932,-0.41941 -1.775373,-0.83931 -2.647089,-1.25877 -1.710858,-0.45185 -7.488871,-4.26091 -7.747145,-5.61644 -2.001321,-2.00176 -4.519272,-5.35902 -5.100279,-7.71495 -0.839335,-1.58231 -4.131997,-7.87677 -0.774712,-7.87677 0.742277,1.42033 2.001266,3.67995 2.195054,5.64908 1.032821,1.7754 1.904509,4.03502 3.098958,6.06873 0.419625,0.0969 0.451814,0.45187 0.742276,1.22681 0.09692,0.0331 0.193844,0.0642 0.32309,0.0969 0.03305,0.0642 0.0647,0.16162 0.129136,0.25854 3.421664,1.90407 6.036344,5.84234 10.458639,7.10152 0.742552,1.00041 1.00066,1.87216 -0.677736,2.06568 z"/><path fill="#f7a508" d="m 94.516307,205.26946 c -3.38942,-2.06567 -6.585162,-4.64838 -8.42513,-7.71497 -1.51707,-1.13001 -2.227214,-4.71277 -2.550138,-6.16544 1.194419,0.19384 1.258988,1.38813 1.936998,2.67902 0.06416,0 0.12887,0 0.225784,0 0.06471,0.48425 0.257998,0.6782 0.936064,1.356 0.290407,-0.74217 0.290407,-0.93613 1.129853,-0.29041 1.25899,2.0981 3.163498,5.39051 5.939559,6.42336 0,0.16163 0,0.32307 0.03305,0.51667 -0.193569,0.19356 -0.193569,0.19356 -0.871496,0.38746 0.806927,0.80696 1.452501,1.4847 2.646922,2.32401 0,0.12914 0,0.25855 0,0.38748 -0.355002,0.0331 -0.67779,0.0642 -1.000687,0.0969 z"/><path fill="#f7a508" d="m 173.34437,203.49411 c -1.03284,-0.61344 -1.74294,-0.35503 -2.32394,-1.356 -0.58104,-3.16327 -0.16163,-3.64754 3.0989,-3.48595 1.09718,0.61293 2.00132,0.12914 2.96982,1.8721 0.16162,1.22683 0.29038,1.35603 -0.45187,2.54993 -1.22681,0.61388 -2.35685,0.19384 -3.29291,0.41992 z"/><path fill="#f7a508" d="m 137.06155,199.62017 c -0.51619,-0.51622 -0.2904,-1.03282 -0.3227,-1.45223 0.38744,-0.38751 0.3227,-6.90806 0.3227,-7.32776 -0.355,-7.10155 -2.2596,-14.55818 -5.39093,-20.5302 -1.16198,-1.32331 -1.51662,-2.7436 -2.0981,-4.00258 -2.90523,-4.13204 -5.90718,-8.03786 -8.84476,-11.68544 -0.0331,-0.32271 -0.0647,-0.64559 -0.0647,-0.96845 1.16224,-0.16108 1.29138,-0.0647 2.51801,0.8393 1.38808,1.45251 1.38808,1.45251 3.55074,3.45406 1.61408,2.13044 3.26011,4.29306 4.90675,6.45601 2.38838,4.19629 4.74519,8.61881 5.90718,13.68668 1.9045,5.71364 1.4527,11.71779 0.96845,17.85064 -0.19384,0.61388 -0.4842,1.03329 -0.64577,1.71103 -0.033,0.54904 0.0649,1.77586 -0.80696,1.96894 z"/><path fill="#de0000" d="m 218.37544,195.74716 c 0,-2.32441 0,-4.61647 0,-6.90831 0.0969,0 0.0969,6.90831 0,6.90831 z"/><path fill="#f7a508" d="m 128.41053,191.80868 c 0.0969,-0.0647 0.19384,-0.12914 0.3227,-0.16108 -0.033,-0.16163 -0.0641,-0.29038 -0.0966,-0.41963 -0.12913,0.0331 -0.22578,0.0647 -0.3227,0.0967 -0.58123,-2.42098 -0.74258,-4.84193 -1.1944,-7.00479 -1.16223,-3.51861 -1.16223,-3.51861 -1.32353,-4.32556 -1.71082,-4.16415 -1.71082,-4.16415 -1.83996,-4.74512 -2.06592,-4.00263 -4.42233,-7.61823 -6.97246,-10.94308 -0.35536,-0.71016 -0.41963,-1.1296 -0.22606,-1.61389 1.22683,0 3.22814,2.09809 4.48711,3.16335 0.355,-0.74234 -1.51727,-3.58296 -1.51727,-4.22855 0.22579,-0.35499 0.22579,-0.25854 0.7425,-0.35499 0.67776,0.77471 1.5171,1.45246 2.16265,2.29177 0.45209,0.87151 0.58123,1.03307 1.80784,1.67862 -0.41966,-2.51793 -1.77543,-3.22809 -2.87302,-4.84214 -0.033,-0.22579 -0.033,-0.45188 -0.033,-0.64555 0.25855,-0.0647 0.25855,-0.0647 0.8069,0.16108 6.3914,5.68145 11.07226,15.81738 12.46014,24.62975 0,2.25964 0.0331,4.55166 0.0642,6.84353 -0.12914,0.19384 -0.25773,0.41963 -0.35501,0.64554 -0.19357,-0.033 -0.38702,-0.033 -0.581,-0.033 -0.48422,-1.12981 -0.48422,-1.12981 -0.58099,-1.64624 -0.0331,-1.19437 -0.0642,-2.38879 -0.0969,-3.55099 -0.12912,-0.64561 -0.12912,-0.64561 -0.41984,-1.22659 -0.096,0 -0.19357,0 -0.25772,0.0331 -0.32269,1.96912 0.93606,4.55164 -0.71017,6.19783 -0.58103,-0.0331 -0.93611,-0.16108 -1.32353,-0.12914 -0.35503,0.90388 -0.35503,2.42093 -1.03285,3.26028 -0.16162,-0.0331 -0.32306,-0.0647 -0.48424,-0.0647 -0.51666,-1.03266 -0.48422,-2.09788 -0.61339,-3.06638 z"/><path fill="#f7ad10" d="m 128.3138,191.32443 c 0.0967,-0.0331 0.19357,-0.0647 0.3227,-0.0967 0.0331,0.12914 0.0647,0.258 0.0967,0.41963 -0.12885,0.033 -0.22578,0.0969 -0.3227,0.16107 -0.0331,-0.16107 -0.0647,-0.3227 -0.0967,-0.48425 z"/><path fill="#f7a508" d="m 179.96216,191.42137 c -2.09807,-0.93628 -5.42293,-1.51727 -4.39059,-4.45465 1.64627,-1.93691 0.87175,-2.09829 3.61564,-2.09829 1.74339,0.77471 3.71231,2.03369 3.71231,4.68065 -0.45223,1.16218 -1.77535,1.74315 -2.93736,1.87229 z"/><path fill="#ad2100" d="m 134.8663,191.38905 c -0.033,-2.29187 -0.0642,-4.58389 -0.0642,-6.84353 0.033,0 0.0972,0 0.16163,0 0,6.84353 0,6.84353 -0.0972,6.84353 z"/><path fill="#f7a508" d="m 140.51559,182.18913 c -0.38746,-2.45334 -1.4203,-4.74511 -1.93691,-7.0048 -1.16201,-3.22789 -2.48557,-6.19766 -3.77673,-9.03829 0,-0.35503 0,-0.71036 0.033,-1.03304 0.35499,-0.0647 0.8713,0.033 1.4851,0.22578 -0.19384,-2.22724 -2.64709,-5.06807 -3.64797,-6.52062 -4.93893,-6.29463 -4.93893,-6.29463 -5.06784,-6.61749 -0.033,-0.54865 -0.0647,-1.09747 -0.0647,-1.6139 0.8069,-0.16163 0.8069,-0.16163 3.87324,-0.25855 1.90496,0.32307 5.00393,0.48422 7.26358,0.32307 1.42028,-1.16221 2.03326,-2.22748 0.7101,-3.55097 -1.00084,-3.48624 -3.97064,-5.87481 -6.03677,-8.29597 -0.87125,-0.83936 -1.77491,-1.54951 -1.96889,-2.42103 0.6778,0.38727 1.48511,1.06524 2.292,1.77543 1.80785,1.06523 3.58281,2.84065 5.8748,3.97045 1.32359,0.12914 2.64715,0.45204 4.26098,0.96845 2.8406,1.51707 6.77883,1.4849 10.20046,1.61402 3.8739,0.6456 7.5858,0.6456 11.75046,0.6456 1.71055,-0.19384 1.71055,-0.19384 2.51747,-0.41962 3.61562,-0.12914 7.32797,-0.25855 11.07225,-1.19443 3.93783,-0.581 7.45667,-1.48488 11.13659,-3.42159 1.42033,-0.96852 2.6791,-2.64713 3.55084,0 2.06607,2.2272 3.51831,3.26024 4.22848,6.6819 -0.0331,0.8715 0.033,2.25959 -0.51616,3.22813 -5.68126,-3.06681 -13.49301,-3.48647 -19.59411,-3.77698 -5.58453,0.35501 -11.2658,0.83933 -16.49518,2.13049 -6.10112,2.32424 -12.36341,4.19655 -17.91551,7.32766 -1.42031,-1.06518 -2.96977,-2.48553 -4.39011,-2.48553 -2.38875,0.9361 -0.80734,2.87283 -0.29076,4.74521 1.45271,2.90521 2.64708,6.2301 3.42208,9.78084 0.29037,3.22812 1.45228,7.48907 0.51621,10.81392 -0.033,0.41963 -0.0649,0.83933 -0.0649,1.25896 -0.3227,0.12882 -0.61297,0.258 -0.90366,0.41949 -0.16162,-0.0969 -0.3227,-0.19357 -0.4838,-0.25801 -0.8717,1.84003 -0.8717,1.84003 -1.03326,2.0013 z"/><path fill="#f7a508" d="m 186.90215,181.64033 c -2.55035,-1.12983 -5.39057,-3.93804 -3.51838,-6.58516 1.93692,-1.45244 1.80781,-1.743 4.03501,-0.64555 2.38882,1.90451 3.48646,6.23008 -0.51663,7.23071 z"/><path fill="#f7a508" d="m 194.1653,173.08602 c -1.7754,-0.96823 -2.48557,-1.93671 -1.64623,-3.61532 2.00131,-1.42031 3.51839,-0.19357 3.51839,2.38878 -0.74259,0.87151 -0.96848,1.1298 -1.87216,1.22654 z"/><path fill="#f7a508" d="m 203.04224,171.53681 c -1.03279,-0.74258 -0.8069,-0.77477 -0.8069,-1.64646 0.71017,-0.3873 1.25921,-1.12982 2.09808,0.19384 0,1.00072 -0.355,1.32362 -1.29118,1.45279 z"/><path fill="#f7a508" d="m 161.33647,133.15571 c -1.13002,-0.0331 -2.22716,-0.0331 -3.32523,-0.0331 -3.16334,-0.3227 -7.521,-0.5164 -10.00658,-2.00131 -4.61603,-1.711 -8.16684,-3.67994 -11.84721,-6.29464 -2.32397,-2.22744 -2.32397,-2.22744 -3.64712,-3.71233 -2.03413,-1.80755 -3.68009,-3.74429 -4.71316,-5.8104 -0.45187,-2.19503 -1.87216,-3.7121 -2.13048,-5.71345 -1.1944,-1.61405 -0.77474,-2.84079 -1.54954,-4.132 -0.61308,-2.80822 -0.58098,-5.745823 -0.71009,-8.328342 0,-0.968252 0,-1.936752 0,-2.905004 0.25855,-1.323531 0.35501,-2.453328 0.35501,-3.518612 0.22578,-0.548819 0.51663,-0.839307 0.80709,-1.420314 0.6132,-6.423809 4.87458,-12.137447 8.65088,-16.979367 1.16196,-1.033069 1.35594,-1.323586 4.58404,-4.035023 1.90452,-1.29137 4.06698,-2.646923 6.1331,-3.77694 4.06739,-1.613856 4.06739,-1.613856 6.52056,-2.420755 4.51925,-0.936284 9.84541,-1.840188 14.55865,-0.290764 0.0642,0.322705 0.0642,0.322705 -0.0649,0.484249 -2.71147,0.677735 -5.74605,0.09692 -8.36029,0.742497 -0.0649,0 -0.12914,0 -0.16163,0 -3.19568,-0.258549 -5.10024,0.613221 -7.84411,1.74302 -0.16108,0.193843 -0.32307,0.419654 -0.48423,0.645547 -3.74426,0.129137 -5.68123,2.130485 -8.78016,3.841508 -1.87215,1.387934 -1.87215,1.387934 -3.58318,2.840657 -2.58236,2.840629 -4.61605,5.261575 -6.19797,8.78016 -1.09736,1.646235 -1.90429,2.905224 -2.29156,4.971141 -1.42032,3.066576 -1.71102,6.165452 -2.06611,9.684062 -0.0969,0 -0.0969,4.196375 0,4.196375 0.16163,0.613415 0.16163,0.742325 1.12979,0.839335 0.77477,-2.517978 1.22686,-1.872347 3.58297,-1.678643 0.35503,-0.257998 0.35503,-0.257998 0.45187,-0.451842 0.0331,-1.162205 0.0649,-2.324245 0.0972,-3.454043 0.19356,-1.484883 0.38708,-2.969792 0.58104,-4.422267 1.16195,-4.035022 3.84106,-12.072906 7.489,-14.138794 1.35599,-2.743845 6.16551,-5.326173 8.84506,-6.746459 0.8069,-0.35503 1.61339,-0.678011 2.45311,-1.00066 5.29379,-1.420508 9.61905,-1.969105 15.39754,-0.77496 2.64713,0.839364 5.32619,1.96916 8.23158,3.486232 3.35685,2.485735 6.0359,5.100469 8.74784,8.683402 0.61294,1.162205 1.25877,2.324218 1.90453,3.518612 0.77452,1.969159 1.54951,3.970453 2.25962,6.230075 0.19357,1.194394 0.41946,2.421002 0.64539,3.647748 0.19356,4.68057 0.58141,11.071999 -1.54951,15.623509 0,1.03302 -1.87212,4.1641 -2.48551,5.29393 -1.25877,1.87213 -2.61433,4.00287 -4.09942,5.71366 -1.16197,1.09748 -2.29204,2.19506 -3.42205,3.32486 -4.5836,2.87281 -8.81214,4.06723 -13.88001,4.32556 -1.00088,0.48425 -1.64667,0.22579 -2.42118,0.61311 -5.778,-0.93603 -10.32968,-2.25937 -15.20401,-5.00321 -1.42033,-1.06526 -2.84068,-2.13052 -4.26097,-3.19569 -3.51881,-3.84153 -5.71364,-7.32774 -7.55382,-12.04052 -0.90321,-0.83934 -1.22636,-1.259 -1.58142,-2.03371 -2.13052,-0.83932 -0.74258,2.16265 -0.355,3.19569 0.033,1.38816 0.19383,2.84063 0.58097,4.48686 0.71018,0.87175 1.7434,1.38813 1.93697,2.84063 -0.58146,0.19385 -0.58146,0.22607 -0.80739,0.61342 0.32307,0.80712 0.58145,0.87169 1.71102,0.96848 0.41949,1.25898 -0.48422,2.32421 1.6787,3.03432 2.5179,3.51868 7.58577,6.03634 11.71801,7.94085 4.42208,1.35578 8.84454,2.45342 13.91238,2.45342 1.12964,-0.48425 1.80778,-1.48489 3.22813,-0.64574 1.35555,0 2.58229,-0.77458 3.93823,-1.06529 4.42255,1.09764 10.58756,-3.4862 14.26749,-5.93953 3.58366,-3.16336 6.45622,-6.84329 9.29688,-10.61996 0.22578,-0.065 0.45225,-0.12914 0.67821,-0.19385 -0.25855,2.7115 -2.96986,5.77801 -4.64891,7.90872 -3.32485,3.51837 -7.0692,6.35902 -11.3949,8.61865 -4.93868,2.19505 -9.87738,2.96975 -14.94529,3.48642 z"/><path fill="#f7a508" d="m 123.98804,130.8961 c -2.06589,-2.03376 -4.29311,-4.06741 -6.32686,-5.55236 -1.03304,-0.45179 -2.0337,-0.87145 -3.03433,-1.29107 -1.58167,-0.32309 -3.1633,-0.61345 -4.71279,-0.90396 -0.64557,-1.45251 -0.0969,-3.93825 0.80693,-4.84195 0.77474,-5.00347 0.77474,-5.00347 0.77474,-5.87497 -0.355,-0.71014 -0.6456,-1.03306 -0.6456,-1.61407 0.32271,-0.93604 0.67779,-1.87213 1.03285,-2.77601 -0.22578,-1.54948 -0.22578,-1.54948 -0.22578,-2.29209 1.80777,-2.71143 1.35571,-5.93955 4.03501,-1.25892 0.16163,6.10113 2.55006,12.13744 4.68057,18.30298 0.80715,1.90451 0.80715,1.90451 1.32353,2.8406 0.71018,0.93606 2.51798,3.64775 2.29184,5.26182 z"/><path fill="#f7a500" d="m 199.97567,129.18504 c -0.64577,-0.80692 0,-0.83936 0.5162,-0.93609 0.16163,0.16108 0.16163,0.16108 0.22579,0.54885 -0.19301,0.29041 -0.38701,0.35504 -0.74213,0.38724 z"/><path fill="#f7a508" d="m 201.3636,127.40967 c -0.0967,-0.033 -0.16108,-0.0647 -0.22579,-0.0969 -0.387,-2.03369 0.38749,-3.26025 0.51666,-4.93892 1.58187,-2.00129 3.09852,-3.64752 4.39014,-5.81042 0.0647,0.0331 0.12914,0.0647 0.19357,0.0969 0,3.35703 -2.13046,7.71471 -4.09934,10.52315 -0.25855,0.0647 -0.51672,0.12913 -0.77503,0.22578 z"/><path fill="#f7a508" d="m 87.511491,121.82515 c -1.969133,-0.8715 -3.001952,-1.54951 -4.002613,-3.03411 -1.226829,-0.96845 -1.904537,-2.61474 -2.679276,-3.51859 -0.161078,-1.42034 -1.58186,-3.13118 -2.098297,-4.16421 -0.161077,-0.93607 -1.614076,-5.29399 -2.033702,-5.71365 -1.807614,-8.554066 -1.678422,-16.624109 -1.742991,-25.04921 1.161985,-6.940495 2.582299,-14.074419 7.682522,-19.174477 2.292058,-1.388154 3.228123,-2.098326 6.133347,-1.969132 2.065888,1.065227 3.163527,2.162645 4.131751,4.680623 1.549506,2.61468 1.807807,6.294645 3.324851,9.232028 1.35602,6.294645 1.839969,12.492532 1.775427,19.336024 -0.419407,1.452474 0.193842,3.357065 -0.548598,5.100221 -0.09692,1.291151 -0.193843,2.582303 -0.25855,3.905883 -1.00066,5.42296 -2.808495,11.03981 -4.745193,16.36604 -1.646235,2.16259 -1.807779,3.74448 -4.938926,4.00256 z"/><path d="m 87.57606,118.30676 c -2.872789,-1.03307 -3.098958,-3.03431 -4.260916,-5.39094 -0.387465,-1.80758 -2.35635,-4.1318 0.451843,-4.1318 1.258934,1.12982 2.162893,4.55167 3.809073,5.64907 0.419709,-1.0974 1.355774,-2.48549 1.969133,-3.38945 0.936092,-0.258 0.742358,-1.64618 1.19442,-2.19505 1.097417,-4.35789 2.420976,-8.61887 3.034363,-12.879809 0.774766,-1.484883 0.677762,-2.937357 0.710143,-4.228755 0.290407,0.129137 0.839336,0.290407 1.355774,-0.09692 0,2.162866 0,4.616029 -0.258551,6.972627 -0.193842,0.77452 -0.484249,1.549227 -0.129137,2.614707 -0.645575,4.22853 -2.03348,8.48945 -3.421606,12.8474 -0.871524,1.71083 -1.129798,3.32483 -3.034363,4.16419 -0.484276,0 -0.9685,0.0331 -1.420341,0.0647 z"/><path fill="#f7a508" d="m 207.88466,92.805503 c 0,0.968252 0,1.936698 0,2.905004 -1.09813,5.842803 -2.29205,11.879143 -5.77848,17.043983 -0.71017,1.16221 -1.42033,2.32417 -2.09855,3.48613 -0.96802,0.48428 -1.16198,1.45278 -2.09808,1.74327 -1.19389,-1.19437 -0.25772,-1.84 0.25856,-3.09896 0.90368,-1.77535 1.80778,-3.55077 2.71189,-5.29379 1.2588,-3.71232 2.4527,-7.35988 3.13091,-11.007597 1.06525,-3.098957 1.51707,-6.26251 1.96891,-9.393408 0.32307,-0.871744 0.41991,-1.033041 1.00094,-1.517318 0.71011,0.71017 0.67773,3.712372 0.90411,5.132686 z"/><path d="m 151.74939,72.694963 c 1.32307,0 2.6467,0.03305 4.00263,0.06416 3.29245,0.581144 6.10067,1.743156 9.29638,3.550992 0.12914,0.225783 0.12914,0.225783 0.22579,1.000606 -0.45184,0.161628 -0.45184,0.161628 -1.58189,0.161628 0,-0.09692 0,-0.09692 -2.35597,-0.09692 0,0.03305 0,0.09692 0,0.161628 -6.5853,0 -12.75084,4.131806 -16.59231,9.070705 -0.96848,1.484909 -1.77496,3.034361 -2.61477,4.648408 -0.38702,1.291149 -0.74205,2.582327 -1.09714,3.873477 -0.4199,2.840628 -0.48425,5.810413 0.12914,8.973923 0.90371,3.22814 2.13004,5.87501 4.32535,8.90931 0,0.12914 0,0.29041 0.0331,0.4519 -1.42035,0 -2.71197,-1.32334 -3.5189,-1.90453 -8.84454,-7.7472 -10.10368,-18.883958 -5.00302,-28.922943 3.38922,-5.584528 8.19918,-8.909324 14.75221,-9.942171 z"/><path fill="#f7a508" d="m 96.550063,107.97712 c 0,-1.42032 0.09665,-2.42101 0.25855,-3.58321 0.355029,-1.22652 1.162012,-4.938898 2.098103,-6.133071 0.387495,0.03305 0.387495,0.03305 0.548819,0.193568 0,2.743843 -0.839335,6.908053 -2.356406,9.329003 -0.193844,0.0647 -0.387465,0.12914 -0.548791,0.19384 z"/><path fill="#ce0800" d="m 125.18241,95.516967 c 0,1.387905 0,2.776031 0,4.196374 -0.0969,0 -0.0969,-4.196374 0,-4.196374 z"/><path d="m 77.795212,91.83703 c 0,-3.066549 0,-6.133318 0,-9.199896 0.323063,-3.87367 1.000716,-7.456822 1.646236,-11.072217 0.903905,-2.195053 4.390107,-9.813009 7.424523,-9.813009 1.452695,1.452503 2.550057,4.616001 3.454016,6.843463 -3.099012,0.387219 -3.841289,1.646237 -5.55234,4.163994 -0.09692,0.419626 -0.419462,0.839281 -0.742359,1.323503 -0.710144,1.614075 -1.388154,3.228095 -2.06589,4.874386 -1.065227,5.745797 -2.292028,11.265701 -2.55011,17.205287 -0.323063,0 -0.645603,0 -0.968472,0 -0.419683,-1.678643 -0.548875,-2.873008 -0.645604,-4.325511 z"/><path fill="#ef7300" d="m 77.795212,82.637134 c 0,3.066578 0,6.133347 0,9.199896 -0.06471,0 -0.129136,0 -0.161077,0 0,-3.066549 0,-6.133318 0,-9.199896 0.03305,0 0.09692,0 0.161077,0 z"/><path fill="#f7a508" d="m 199.91134,88.286011 c -0.19383,-5.552093 -2.55035,-9.683898 -5.03587,-14.106167 -2.90501,-4.131997 -2.90501,-4.131997 -3.64805,-5.003439 -3.00172,-2.453409 -5.1646,-5.552341 -8.3279,-6.875678 -1.84016,-2.033729 -4.55166,-3.002172 -6.64971,-4.164186 0,-0.09692 0,-0.193843 0,-0.258548 3.48644,0 9.13528,3.841508 12.13701,5.939557 2.71191,2.259678 5.48771,4.777602 7.97375,7.811715 0.22579,0.742551 0.74206,1.67867 1.32309,2.711492 0.3875,1.420562 0.80691,2.356571 1.64624,5.455584 0.77496,1.581639 0.90413,6.068476 0.83975,8.328097 -0.0972,0.03305 -0.19384,0.09692 -0.25855,0.161077 z"/><path fill="#ce0800" d="m 161.33647,77.536911 c 0,-0.06471 0,-0.129137 0,-0.161628 2.35597,0 2.35597,0 2.35597,0.09692 -0.80646,0 -1.5814,0.03305 -2.35597,0.06471 z"/><path fill="#f7a508" d="m 156.42976,63.010871 c 0.0331,0 0.0969,0 0.16162,0 0.90366,0.451814 2.25961,0.03305 3.35685,0.581007 0,1.323557 -2.71154,0.806898 -3.45365,0.806898 -1.13002,-0.645574 -0.74251,-0.903902 -0.0649,-1.387905 z"/><path fill="#f7a508" d="m 118.17762,63.333576 c -1.1298,-5.003467 -5.2292,-9.361193 -7.74715,-13.299459 -0.033,-0.193568 -0.0647,-0.387273 -0.0966,-0.581007 3.93804,-0.774739 4.84194,2.033702 6.61737,5.422956 0.83928,2.292003 1.83992,5.681395 1.71078,8.360726 -0.16108,0.03305 -0.3227,0.06416 -0.48425,0.09692 z"/><path fill="#f7a508" d="m 144.00158,41.383067 c 1.2268,0 2.45363,0 3.6804,0 2.35638,-0.161077 5.06785,0.419626 7.61821,0.645547 0.19357,0.09692 0.38704,0.193843 0.58056,0.290407 -0.90368,0.225782 -1.83975,-0.193568 -2.38835,-0.193568 -1.06523,0 -2.09804,0 -3.13133,0 -2.55037,0.09665 -4.51927,0.258 -6.68172,0.903683 -3.64801,0 -5.6173,1.614048 -8.9098,2.647116 -0.12883,0.129138 -0.64536,0.25855 -2.16243,1.129606 -2.45312,1.065449 -4.74541,2.711683 -6.61757,4.422487 -0.71013,-0.51641 -0.58097,-0.871523 -0.74251,-1.323557 -1.5817,-1.581668 -2.00133,-2.743845 -2.87285,-4.293132 -0.96845,-2.356571 -0.96845,-2.356571 -0.96845,-2.58252 0.77471,-0.645574 3.58316,2.647116 4.68057,3.615589 1.90459,0.225783 2.77603,-0.968473 4.42233,-2.162865 1.09758,-0.451816 2.03369,-0.645577 3.13133,-0.903932 3.09896,-1.743185 6.71449,-1.743185 10.36161,-2.195027 z"/><path fill="#ef8400" d="m 144.55062,18.302705 c 0,-0.09692 3.64756,-0.09692 3.64756,0 -1.22681,0 -2.45314,0 -3.64756,0 z"/><path fill="#f7a508" d="m 237.53914,270.34297 c 0.47329,-0.0969 1.16199,-0.16164 1.79685,-0.16164 1.00045,0 1.65715,0.19357 2.10898,0.60249 0.355,0.31213 0.57008,0.80732 0.57008,1.3774 0,0.94702 -0.61337,1.58185 -1.36646,1.83972 v 0.0323 c 0.54859,0.19385 0.88221,0.71018 1.06523,1.46321 0.23679,1.01181 0.40897,1.71103 0.54863,1.99081 h -0.96804 c -0.11862,-0.20458 -0.27974,-0.82838 -0.47369,-1.7325 -0.21505,-1.00042 -0.61301,-1.37692 -1.46328,-1.40936 h -0.8822 v 3.14186 h -0.9361 v -7.14445 m 0.9361,3.29245 h 0.95754 c 1.00085,0 1.63568,-0.5486 1.63568,-1.37744 0,-0.93607 -0.67816,-1.34501 -1.66809,-1.34501 -0.45187,0 -0.76403,0.0432 -0.92513,0.0862 z"/><path fill="none" stroke="#f4a411" stroke-width=".897" d="m 244.79133,273.90074 c 0,-2.97112 -2.40892,-5.38004 -5.38003,-5.38004 -2.97109,0 -5.38003,2.40892 -5.38003,5.38004 0,2.97111 2.40894,5.38002 5.38003,5.38002 2.97111,0 5.38003,-2.40891 5.38003,-5.38002 z"/></svg>