<?xml version="1.0" encoding="UTF-8"?>
<svg version="1.1" xmlns="http://www.w3.org/2000/svg" width="488" height="488">
<path d="M0 0 C161.04 0 322.08 0 488 0 C488 161.04 488 322.08 488 488 C326.96 488 165.92 488 0 488 C0 326.96 0 165.92 0 0 Z " fill="#3FBFE9" transform="translate(0,0)"/>
<path d="M0 0 C161.04 0 322.08 0 488 0 C488 161.04 488 322.08 488 488 C326.96 488 165.92 488 0 488 C0 326.96 0 165.92 0 0 Z M208.0625 9.4375 C204.05351618 10.52240541 200.18180367 11.29227866 196.0625 11.8125 C155.18730762 17.87347159 115.3471264 40.15553717 85.25 67.9375 C83.27210442 69.75057094 81.24803183 71.47039014 79.1875 73.1875 C55.02739425 94.32149149 37.97829693 123.00679576 25 152 C24.25943359 153.65322266 24.25943359 153.65322266 23.50390625 155.33984375 C18.0022588 168.10846479 13.87511513 181.40549264 11 195 C10.81518066 195.84175781 10.63036133 196.68351563 10.43994141 197.55078125 C4.54384385 225.46862843 3.90229501 258.06022435 10 286 C10.33862061 287.59110596 10.33862061 287.59110596 10.68408203 289.21435547 C15.48494969 311.20672471 22.38572239 332.39915528 33.06787109 352.26220703 C33.97616118 353.95555664 34.85762307 355.66321058 35.73828125 357.37109375 C44.95821348 375.0267341 56.50542272 390.40569486 70 405 C70.85207031 405.95519531 71.70414062 406.91039062 72.58203125 407.89453125 C87.71991957 424.83976513 105.32158487 438.64247 125 450 C126.22808141 450.73270962 127.45593559 451.4658002 128.68359375 452.19921875 C138.7392595 458.12010373 149.13948451 462.75951138 160 467 C161.0530835 467.41958984 161.0530835 467.41958984 162.12744141 467.84765625 C174.42659444 472.70281654 187.01808253 475.5963137 200 478 C201.05026367 478.19899902 202.10052734 478.39799805 203.18261719 478.60302734 C252.19332281 487.6018351 304.34501826 481.48362717 349 459 C349.85996582 458.57589844 350.71993164 458.15179688 351.60595703 457.71484375 C364.90301486 451.13844456 377.2081928 444.00377499 389 435 C389.62197266 434.53207031 390.24394531 434.06414062 390.88476562 433.58203125 C399.36903656 427.18523141 407.31956492 420.33860765 415 413 C415.87527344 412.16597656 416.75054687 411.33195312 417.65234375 410.47265625 C423.59191587 404.67951426 428.89971471 398.53951923 434 392 C434.74121094 391.05253906 435.48242188 390.10507812 436.24609375 389.12890625 C451.12853634 369.70693178 463.16485162 348.44545075 471.19335938 325.31591797 C471.91161516 323.25375867 472.65964324 321.20634679 473.421875 319.16015625 C477.40282521 308.04052681 479.75689878 296.57535215 482 285 C482.20044922 283.98019043 482.40089844 282.96038086 482.60742188 281.90966797 C489.15113997 247.84478797 486.39138925 211.17442152 476 178 C475.73429199 177.13681152 475.46858398 176.27362305 475.19482422 175.38427734 C464.64472667 141.48056581 447.24971009 111.8014626 424 85 C423.3920459 84.29270752 422.7840918 83.58541504 422.15771484 82.85668945 C421.54750488 82.15116943 420.93729492 81.44564941 420.30859375 80.71875 C419.75872803 80.08259766 419.2088623 79.44644531 418.64233398 78.79101562 C416.4069002 76.35320646 413.98321063 74.21994912 411.45703125 72.08984375 C409.54627874 70.4646409 407.68084611 68.81421977 405.82421875 67.12890625 C396.16732445 58.43956462 385.8957759 51.05692362 375 44 C374.35595215 43.57734863 373.7119043 43.15469727 373.04833984 42.71923828 C361.9931706 35.51838268 350.11918767 30.15729779 338 25 C337.29794434 24.69964844 336.59588867 24.39929688 335.87255859 24.08984375 C308.16085571 12.43953149 277.20676275 6.56455268 247.21679688 6.79418945 C244.73817709 6.81258776 242.2599315 6.81469709 239.78125 6.81445312 C223.75398287 6.65407722 223.75398287 6.65407722 208.0625 9.4375 Z " fill="#FCFEFE" transform="translate(0,0)"/>
<path d="M0 0 C16.89653595 -1.16527834 33.44868488 7.25246669 46 18 C46.63550781 18.48082031 47.27101562 18.96164063 47.92578125 19.45703125 C56.37519836 26.02477946 58.96135588 34.63694488 60.40551758 44.87475586 C60.79267232 48.0185329 61.15251107 51.16409756 61.5 54.3125 C62.93593645 69.93968376 62.93593645 69.93968376 67 85 C67.33 85.86625 67.66 86.7325 68 87.625 C69.62996893 92.21297835 69.62996893 92.21297835 73.25 95 C74.1575 95.33 75.065 95.66 76 96 C77.36125 96.9590625 77.36125 96.9590625 78.75 97.9375 C82.66691856 100.42323678 86.57447047 101.70184467 91 103 C91.71285156 102.154375 92.42570312 101.30875 93.16015625 100.4375 C112.04040552 78.06262097 132.00166938 59.83616807 158 46 C156.34768691 34.31578603 149.9624986 26.34924885 141 19 C137.48342391 16.80076198 133.89906945 15.39318166 130 14 C128.39534846 13.40886664 126.79122615 12.81629559 125.1875 12.22265625 C122.61621214 11.27201772 120.04375692 10.32806737 117.4609375 9.40917969 C116.66945313 9.1259082 115.87796875 8.84263672 115.0625 8.55078125 C114.35222656 8.29981689 113.64195312 8.04885254 112.91015625 7.7902832 C111 7 111 7 108 5 C108.33 4.01 108.66 3.02 109 2 C182.71466257 0.80343301 182.71466257 0.80343301 215.07714844 12.35229492 C217.25678128 13.12368734 217.25678128 13.12368734 220.625 13.8125 C239.14800739 18.37981689 257.69672541 28.82271528 273 40 C274.01707031 40.721875 275.03414063 41.44375 276.08203125 42.1875 C293.13470776 54.57482161 306.58326449 70.41144509 318 88 C319.37435915 90.02126923 320.74935626 92.04210483 322.125 94.0625 C326.40218869 100.48663691 330.52598436 107.07237211 333.24609375 114.3203125 C334.57456479 117.65528728 335.67812561 120.25389316 338 123 C342.4065281 124.31616729 346.43745364 124.35200654 351 124 C350.37634107 128.67292274 348.43895351 132.54324031 346.3125 136.6875 C345.76903931 137.75532715 345.76903931 137.75532715 345.21459961 138.84472656 C340.01277572 148.97030027 334.00506468 158.01524313 327 167 C325.96746094 168.34384766 325.96746094 168.34384766 324.9140625 169.71484375 C282.83144578 222.98298871 215.55730296 234.14911038 152.22558594 243.51464844 C148.76446965 244.03544008 145.30812289 244.58263012 141.8515625 245.1328125 C139.46356983 245.50538886 137.0755497 245.87778931 134.6875 246.25 C133.06920288 246.51321045 133.06920288 246.51321045 131.41821289 246.78173828 C123.89879165 247.93445643 116.60180408 248.19505698 109 248 C114.98946096 232.38884343 129.58299732 223.39098895 144.16064453 216.81201172 C153.80172603 212.55580823 163.74616651 210.25993048 174 208 C173.40864258 207.84797119 172.81728516 207.69594238 172.20800781 207.53930664 C165.25503499 205.61944582 159.10989229 202.81208216 152.75 199.4375 C151.74146973 198.90519775 150.73293945 198.37289551 149.69384766 197.82446289 C141.59768388 193.47262883 134.19378096 188.70572729 127 183 C126.04609375 182.26652344 125.0921875 181.53304687 124.109375 180.77734375 C118.37913823 176.16465316 113.15618601 171.19109007 108.0234375 165.9296875 C107.49042023 165.38585419 106.95740295 164.84202087 106.40823364 164.28170776 C103.68797962 161.50374815 100.98710059 158.71059915 98.31298828 155.88818359 C97.30295882 154.84679704 96.29240147 153.80592215 95.28125 152.765625 C94.38470703 151.82493164 93.48816406 150.88423828 92.56445312 149.91503906 C90.17510364 147.70795731 90.17510364 147.70795731 87.32397461 148.125 C79.56634534 151.04582606 70.81827774 156.27848324 66.75 163.6875 C62.49621683 173.38002344 62.22437889 184.43506278 61.23242188 194.8359375 C59.63177231 210.40026474 56.61504641 224.71552996 44 235 C40.44086717 237.5370495 36.7834105 239.81402949 33 242 C32.36707031 242.37898437 31.73414062 242.75796875 31.08203125 243.1484375 C21.91616155 248.20686449 10.47089769 251.93490158 0 251 C0.32830453 248.05813389 0.80571295 247.15819 3.14453125 245.25390625 C4.02496094 244.69574219 4.90539062 244.13757813 5.8125 243.5625 C11.77124992 239.54755882 15.38337334 235.83310708 17.45703125 228.87890625 C20.24599318 214.09138867 16.51116946 199.45445027 13.06640625 185.11328125 C9.53551815 170.02675938 10.19243265 158.31494564 17.8125 144.75 C23.10659946 136.4061824 29.48314732 131.80934164 38 127 C38.99 126.34 39.98 125.68 41 125 C40.39414063 124.74347656 39.78828125 124.48695313 39.1640625 124.22265625 C25.92654094 118.17412717 17.85663806 108.79923793 12.625 95.375 C7.6704262 78.68480435 12.67821882 60.40561477 17 44 C17.33 43.67 17.66 43.34 18 43 C18.15514859 40.13273472 18.23182934 37.306193 18.25 34.4375 C18.270625 33.65052734 18.29125 32.86355469 18.3125 32.05273438 C18.36613015 23.92106271 16.03056899 17.51014811 11 11 C7.63554193 7.90115704 4.13780763 5.92456169 0 4 C0 2.68 0 1.36 0 0 Z " fill="#FBFEFE" transform="translate(83,121)"/>
<path d="M0 0 C4.37510401 2.14777833 7.18960005 4.42075307 9 9 C8.90553627 14.28996907 7.73685988 17.26314012 4 21 C-0.45153834 23.69560104 -4.9344065 23.80570857 -10 23 C-13.12177233 21.31712073 -15.39137035 19.2172593 -17 16 C-17.66626771 11.79039949 -18.06578525 7.75338864 -15.7890625 4.0078125 C-11.16057005 -0.5337599 -6.24398146 -1.20552117 0 0 Z " fill="#54B1D1" transform="translate(365,233)"/>
<path d="M0 0 C0.99 0.495 0.99 0.495 2 1 C-0.80804268 3.96404505 -3.18315774 6.44499019 -7 8 C-7 8.66 -7 9.32 -7 10 C-7.845625 10.20625 -8.69125 10.4125 -9.5625 10.625 C-13.22124767 12.08849907 -15.29058287 13.77847525 -18.09375 16.46484375 C-20 18 -20 18 -22.765625 19.3359375 C-26.68750362 21.35371563 -29.853795 23.89930204 -33.25 26.6875 C-39.73486759 32 -39.73486759 32 -42 32 C-42.2475 32.556875 -42.495 33.11375 -42.75 33.6875 C-45.57076682 38.90591861 -49.44921424 42.28507285 -54 46 C-57.47324752 49.21910746 -60.23523511 52.55404246 -62.88671875 56.44921875 C-65.11418704 59.55204301 -68.12891971 62.16679276 -70.88671875 64.8046875 C-76.06059438 70.17939749 -79.90456918 76.78469749 -83.8125 83.109375 C-89.2369338 91.7456446 -89.2369338 91.7456446 -93 93 C-91.50067947 87.32787175 -88.63811269 83.03442874 -85.375 78.25 C-84.83230469 77.44723633 -84.28960937 76.64447266 -83.73046875 75.81738281 C-79.74705477 69.97709236 -75.58780905 64.3820154 -71 59 C-70.05312011 57.86871159 -69.10652748 56.73718271 -68.16015625 55.60546875 C-52.2064197 36.64451896 -33.82185279 21.34002792 -13 8 C-12.37544922 7.59523438 -11.75089844 7.19046875 -11.10742188 6.7734375 C-9.30709291 5.60951262 -7.4992987 4.45846968 -5.6875 3.3125 C-4.11548828 2.31669922 -4.11548828 2.31669922 -2.51171875 1.30078125 C-1.68285156 0.87152344 -0.85398437 0.44226562 0 0 Z " fill="#5DBBDC" transform="translate(131,35)"/>
<path d="M0 0 C1.26623199 -0.00151062 1.26623199 -0.00151062 2.55804443 -0.00305176 C14.33157253 0.0064392 25.74567595 0.37048842 37.30761719 2.796875 C39.62808449 3.2764727 41.95445677 3.68887257 44.2890625 4.09375 C65.31019598 7.8513114 85.13339769 14.29722567 104.5 23.25 C100.74666338 24.50111221 99.81083438 23.81537476 96.23046875 22.30078125 C95.18342773 21.86636719 94.13638672 21.43195312 93.05761719 20.984375 C91.94547852 20.51515625 90.83333984 20.0459375 89.6875 19.5625 C77.36737575 14.50701281 65.72611592 10.40326449 52.4375 8.7421875 C49.29691425 8.21597233 46.51758112 7.26325641 43.5 6.25 C36.25736223 4.23324924 28.97911206 3.63612261 21.5 3.125 C20.30318604 3.0415332 19.10637207 2.95806641 17.87329102 2.87207031 C-6.59281191 1.0206389 -6.59281191 1.0206389 -30.53125 5.28515625 C-34.77266974 6.66361767 -38.94270056 6.706926 -43.37304688 6.90429688 C-46.72451158 6.78713046 -46.72451158 6.78713046 -49.5 8.25 C-50.95052387 8.57830787 -52.41126048 8.86180393 -53.875 9.125 C-63.33555118 10.33386734 -63.33555118 10.33386734 -71.5 14.25 C-74.17058851 14.39115161 -76.82432238 14.29247107 -79.5 14.25 C-74.41213425 10.8580895 -68.3551967 9.85877609 -62.5 8.25 C-61.60925781 7.97929687 -60.71851563 7.70859375 -59.80078125 7.4296875 C-52.92124703 5.37770712 -45.96358275 4.28364476 -38.87231445 3.25170898 C-37.68061646 3.0768396 -37.68061646 3.0768396 -36.46484375 2.8984375 C-35.7493335 2.79708496 -35.03382324 2.69573242 -34.29663086 2.59130859 C-32.406486 2.31675371 -32.406486 2.31675371 -30.5 1.25 C-20.43698251 -0.17657539 -10.14274461 0.00842935 0 0 Z " fill="#70BEDD" transform="translate(244.5,6.75)"/>
<path d="M0 0 C2.21202977 1.87202685 4.1758319 3.70915544 6.17578125 5.78515625 C6.74580368 6.36083847 7.31582611 6.93652069 7.90312195 7.52964783 C9.71587563 9.36473491 11.51420252 11.21325516 13.3125 13.0625 C14.54139078 14.31145959 15.77119864 15.55951754 17.00195312 16.80664062 C20.01203114 19.86074569 23.00924832 22.9269718 26 26 C22.30165104 26 21.72918572 25.18635778 19.0625 22.75 C18.36253906 22.11191406 17.66257813 21.47382813 16.94140625 20.81640625 C16.30074219 20.21699219 15.66007812 19.61757813 15 19 C14.175 18.236875 13.35 17.47375 12.5 16.6875 C11 15 11 15 11 13 C9.68 12.34 8.36 11.68 7 11 C7 10.34 7 9.68 7 9 C6.401875 8.731875 5.80375 8.46375 5.1875 8.1875 C3 7 3 7 1.5 5.4375 C-0.37058559 3.64485547 -1.39812451 3.07884471 -4 3 C-6.18739868 4.77068176 -6.18739868 4.77068176 -8 7 C-8.66 7.66 -9.32 8.32 -10 9 C-10.99 9 -11.98 9 -13 9 C-13.33 9.66 -13.66 10.32 -14 11 C-14.763125 11.391875 -15.52625 11.78375 -16.3125 12.1875 C-21.26843974 15.52987796 -22.94242638 20.12131627 -24.125 25.75 C-24.25132812 26.48734375 -24.37765625 27.2246875 -24.5078125 27.984375 C-25 30 -25 30 -27 33 C-27.37982516 35.80636991 -27.37982516 35.80636991 -27.45703125 38.99609375 C-27.51826172 40.19556641 -27.57949219 41.39503906 -27.64257812 42.63085938 C-27.75427079 45.13303189 -27.85612717 47.63566641 -27.94726562 50.13867188 C-28.40826838 58.7151488 -30.31027544 65.27814069 -34 73 C-34.33 73.99 -34.66 74.98 -35 76 C-35.66 76 -36.32 76 -37 76 C-36.566875 74.88625 -36.13375 73.7725 -35.6875 72.625 C-32.52642091 63.05271825 -31.43242037 52.78917185 -30.25 42.8125 C-30.06147461 41.22707397 -30.06147461 41.22707397 -29.86914062 39.60961914 C-29.62885916 37.54481946 -29.39789856 35.47890675 -29.17773438 33.41186523 C-28.15786628 24.50814839 -26.56441209 15.28512114 -19.765625 8.90234375 C-5.75748805 -2.03879427 -5.75748805 -2.03879427 0 0 Z " fill="#6ABED9" transform="translate(174,269)"/>
<path d="M0 0 C4.78375061 0.62114591 8.53311773 2.61561879 12.75 4.8125 C14.18031869 5.54168207 15.61130411 6.26955786 17.04296875 6.99609375 C17.72665527 7.34397949 18.4103418 7.69186523 19.11474609 8.05029297 C23.74979145 10.38522258 28.31430635 12.52291689 33.3125 13.9375 C36.57925532 14.87876848 39.25283268 16.05842598 42.3125 17.5 C50.23758444 20.922425 58.48499563 21.36610523 67 22 C67 22.66 67 23.32 67 24 C68.16273438 24.10957031 69.32546875 24.21914063 70.5234375 24.33203125 C72.14065615 24.49187263 73.75784186 24.65204759 75.375 24.8125 C76.13039063 24.88275391 76.88578125 24.95300781 77.6640625 25.02539062 C81.79670216 25.44198736 85.87554436 25.95679435 89.95556641 26.73706055 C101.61030864 28.93968814 112.78394848 29.36398361 124.625 29.1875 C126.42186353 29.17239621 128.21873963 29.15871807 130.015625 29.14648438 C134.3440706 29.11399772 138.67188874 29.06254496 143 29 C143 29.33 143 29.66 143 30 C96.04945207 36.41620725 40.07254737 26.80943729 0 1 C0 0.67 0 0.34 0 0 Z " fill="#6BC0DC" transform="translate(129,451)"/>
<path d="M0 0 C21.68957908 -0.29854365 42.96588649 -0.56611215 64.46533203 2.65820312 C70.60743984 3.48645885 76.81224449 3.73257092 83 4 C83 4.66 83 5.32 83 6 C83.61746094 6.03738281 84.23492187 6.07476562 84.87109375 6.11328125 C90.19167646 6.52629452 94.81903314 7.41262558 99.828125 9.2421875 C101.99492933 9.99823074 104.13967799 10.5485391 106.375 11.0625 C110 12 110 12 113 14 C107.57992833 13.61964409 102.72150114 12.69883121 97.5 11.1875 C65.65569405 2.26072776 31.80711429 2.643944 -1 2 C-0.67 1.34 -0.34 0.68 0 0 Z " fill="#5AB8D7" transform="translate(193,121)"/>
<path d="M0 0 C0.8850119 0.00141495 1.7700238 0.0028299 2.68185425 0.00428772 C5.51449941 0.00989485 8.34706614 0.02244854 11.1796875 0.03515625 C13.09765511 0.04017033 15.01562396 0.0447334 16.93359375 0.04882812 C21.64065532 0.05986659 26.3476581 0.077136 31.0546875 0.09765625 C31.0546875 0.75765625 31.0546875 1.41765625 31.0546875 2.09765625 C37.9846875 2.59265625 37.9846875 2.59265625 45.0546875 3.09765625 C45.0546875 3.42765625 45.0546875 3.75765625 45.0546875 4.09765625 C43.67980463 4.12515391 42.30475359 4.14427265 40.9296875 4.16015625 C39.78113281 4.17755859 39.78113281 4.17755859 38.609375 4.1953125 C36.0546875 4.09765625 36.0546875 4.09765625 33.42480469 3.59985352 C29.4607691 3.00915363 25.57486899 2.95423475 21.578125 2.96484375 C20.36837509 2.96340866 20.36837509 2.96340866 19.13418579 2.96194458 C17.43141603 2.96126644 15.72864364 2.96309512 14.02587891 2.96728516 C11.45859751 2.97259644 8.89149445 2.96734952 6.32421875 2.9609375 C-9.94668451 2.73773134 -9.94668451 2.73773134 -25.8828125 5.53515625 C-29.89179632 6.62006166 -33.76350883 7.38993491 -37.8828125 7.91015625 C-47.47331947 9.27691932 -56.69046451 12.31228447 -65.9453125 15.09765625 C-66.89229004 15.38141113 -67.83926758 15.66516602 -68.81494141 15.95751953 C-71.19204647 16.66985631 -73.56882033 17.38327794 -75.9453125 18.09765625 C-76.2753125 17.43765625 -76.6053125 16.77765625 -76.9453125 16.09765625 C-76.41164062 15.93160889 -75.87796875 15.76556152 -75.328125 15.59448242 C-72.86644373 14.82707032 -70.40587931 14.05613385 -67.9453125 13.28515625 C-66.68654297 12.89360352 -66.68654297 12.89360352 -65.40234375 12.49414062 C-61.49736277 11.26815822 -57.63579957 10.0065121 -53.8203125 8.5234375 C-47.00073151 5.92989524 -40.24500595 4.7607685 -33.0078125 4.03515625 C-28.08033469 3.95388081 -28.08033469 3.95388081 -23.9453125 2.09765625 C-21.80326939 1.88782346 -19.65607137 1.7294224 -17.5078125 1.59765625 C-11.45443986 1.22554992 -6.13715065 -0.0366349 0 0 Z " fill="#CDEFFA" transform="translate(233.9453125,4.90234375)"/>
<path d="M0 0 C-8.10324191 3.5677037 -16.32011194 5.16835504 -25.00073242 6.69238281 C-25.88994385 6.84932617 -26.77915527 7.00626953 -27.6953125 7.16796875 C-28.49984863 7.30485107 -29.30438477 7.4417334 -30.13330078 7.58276367 C-32.00460535 7.82599349 -32.00460535 7.82599349 -33 9 C-35.20388519 9.3049211 -37.41364527 9.56755698 -39.625 9.8125 C-48.30267817 10.85550534 -56.46055343 13.09695438 -64.84399414 15.53662109 C-67.46250147 16.09940299 -69.96400331 16.2167448 -72.640625 16.31640625 C-73.71054688 16.35830078 -74.78046875 16.40019531 -75.8828125 16.44335938 C-76.99398437 16.48267578 -78.10515625 16.52199219 -79.25 16.5625 C-80.37664062 16.60568359 -81.50328125 16.64886719 -82.6640625 16.69335938 C-85.44258954 16.79932015 -88.22120391 16.90139142 -91 17 C-91 17.66 -91 18.32 -91 19 C-96.28 19 -101.56 19 -107 19 C-107 18.67 -107 18.34 -107 18 C-106.27675537 17.89042969 -105.55351074 17.78085937 -104.80834961 17.66796875 C-86.85096129 14.93414495 -68.91492693 12.06195152 -51 9.0625 C-49.98552795 8.89267609 -48.97105591 8.72285217 -47.92584229 8.54788208 C-35.30287923 6.41904993 -22.82456084 4.1327487 -10.49414062 0.63891602 C-9.66720703 0.40615967 -8.84027344 0.17340332 -7.98828125 -0.06640625 C-6.96021362 -0.3749353 -6.96021362 -0.3749353 -5.91137695 -0.68969727 C-3.67309094 -1.05307209 -2.14308496 -0.68348003 0 0 Z " fill="#63B5D5" transform="translate(320,349)"/>
<path d="M0 0 C2.5 2 2.5 2 4 4 C1.18369996 4.66265883 -1.21794429 4.99564111 -4.125 4.9375 C-7.2019983 4.74720386 -7.2019983 4.74720386 -10 7 C-10.25030977 9.58380177 -10.25030977 9.58380177 -10 12 C-7.98177083 12.45572917 -5.96354167 12.91145833 -3.9453125 13.3671875 C-2 14 -2 14 0 16 C0 16.99 0 17.98 0 19 C-5.38439527 19.18892615 -9.93732999 19.1263214 -15 17 C-17.46320335 13.25164707 -17.40627182 9.38773565 -17 5 C-13.55521393 -0.54993311 -5.80568343 -0.56184033 0 0 Z " fill="#33AFDE" transform="translate(366,235)"/>
<path d="M0 0 C4.01515438 3.55547549 6.52132929 7.76073319 9.25 12.3125 C9.73452637 13.11792236 10.21905273 13.92334473 10.71826172 14.75317383 C12.15691017 17.16225605 13.58139777 19.57906887 15 22 C15.37737305 22.63905273 15.75474609 23.27810547 16.14355469 23.93652344 C24.55078074 38.3341952 30.56443981 54.18167189 35.125 70.1875 C35.33729248 70.92331299 35.54958496 71.65912598 35.76831055 72.41723633 C36.69788909 75.89174684 37.39337844 78.5871047 36 82 C36 81.34 36 80.68 36 80 C35.34 80 34.68 80 34 80 C33.82984375 79.10539062 33.6596875 78.21078125 33.484375 77.2890625 C32.14685409 70.61568692 30.64955127 64.40616698 27.8671875 58.18359375 C26.92422491 55.80919697 26.43285508 53.51320961 26 51 C25.34 51 24.68 51 24 51 C23.938125 50.0925 23.87625 49.185 23.8125 48.25 C22.46911405 39.12233658 17.6610392 31.11346198 12.6484375 23.55078125 C7 14.81042654 7 14.81042654 7 11 C5.68 11.33 4.36 11.66 3 12 C3 11.34 3 10.68 3 10 C2.34 10 1.68 10 1 10 C1.020625 9.278125 1.04125 8.55625 1.0625 7.8125 C1.00179441 5.08074862 0.60741465 2.65743909 0 0 Z " fill="#55B3D1" transform="translate(441,108)"/>
<path d="M0 0 C0.66 0 1.32 0 2 0 C0.48524786 4.83450834 -2.26632002 7.97209367 -5.5625 11.6875 C-6.10189209 12.30471924 -6.64128418 12.92193848 -7.19702148 13.55786133 C-8.79145557 15.37780915 -10.39507008 17.18930984 -12 19 C-12.7940625 19.9075 -13.588125 20.815 -14.40625 21.75 C-24.11526169 32.72540452 -34.29972683 42.24157956 -46 51 C-46.64614258 51.4856543 -47.29228516 51.97130859 -47.95800781 52.47167969 C-67.34497951 67 -67.34497951 67 -71 67 C-70.67 66.01 -70.34 65.02 -70 64 C-66.9375 62.8125 -66.9375 62.8125 -64 62 C-64 61.34 -64 60.68 -64 60 C-63.01 60 -62.02 60 -61 60 C-61 59.01 -61 58.02 -61 57 C-60.030625 56.71125 -59.06125 56.4225 -58.0625 56.125 C-54.89335797 55.35785318 -54.89335797 55.35785318 -54 53 C-49.5 50 -49.5 50 -47 50 C-47 49.34 -47 48.68 -47 48 C-45.02 47.505 -45.02 47.505 -43 47 C-43 46.01 -43 45.02 -43 44 C-41.02 43.505 -41.02 43.505 -39 43 C-39 42.01 -39 41.02 -39 40 C-38.27941406 39.75894531 -37.55882812 39.51789063 -36.81640625 39.26953125 C-33.60703763 37.82286717 -31.52468594 36.06675137 -28.9375 33.6875 C-28.10089844 32.92824219 -27.26429688 32.16898437 -26.40234375 31.38671875 C-23.92845404 29.02819227 -23.92845404 29.02819227 -21.81640625 26.20703125 C-21.21699219 25.47871094 -20.61757813 24.75039063 -20 24 C-19.34 24 -18.68 24 -18 24 C-17.7525 23.46375 -17.505 22.9275 -17.25 22.375 C-15.6859619 19.4033276 -14.01623538 16.68831383 -12 14 C-11.01 14 -10.02 14 -9 14 C-8.7525 13.443125 -8.505 12.88625 -8.25 12.3125 C-7 10 -7 10 -4.9375 7.4375 C-2.83615651 5.07973981 -2.83615651 5.07973981 -2 2 C-1.34 2 -0.68 2 0 2 C0 1.34 0 0.68 0 0 Z " fill="#5EB3D3" transform="translate(439,381)"/>
<path d="M0 0 C2 1 2 1 2.78125 2.765625 C5.63473426 12.62875538 6.20931725 22.80629655 7 33 C7.66 33 8.32 33 9 33 C9.09890033 38.90815343 9.17148371 44.81582472 9.21972656 50.72460938 C9.23983805 52.73446038 9.26713115 54.74425291 9.30175781 56.75390625 C9.35029634 59.64337596 9.37297322 62.53207191 9.390625 65.421875 C9.41127014 66.31992859 9.43191528 67.21798218 9.45318604 68.14324951 C9.45544041 74.41537533 9.45544041 74.41537533 6.97558594 77.59863281 C6.32364258 78.06108398 5.67169922 78.52353516 5 79 C5.06783691 78.39704102 5.13567383 77.79408203 5.20556641 77.17285156 C7.74907908 53.40590248 4.44523622 30.48196612 1 7 C0.66457722 4.66695893 0.33205421 2.33352379 0 0 Z " fill="#E4FDFE" transform="translate(479,191)"/>
<path d="M0 0 C0 3.98812449 -1.30585664 4.63483589 -4.0625 7.4375 C-8.31419054 12.00191269 -11.30096675 16.66384441 -14.3046875 22.10546875 C-16.40781804 25.69629762 -18.89847086 28.82333319 -21.51171875 32.05078125 C-23.40412251 34.52928381 -24.631704 37.20391687 -26 40 C-31.12450436 47.70816812 -31.12450436 47.70816812 -35 49 C-33.50067947 43.32787175 -30.63811269 39.03442874 -27.375 34.25 C-26.83230469 33.44723633 -26.28960937 32.64447266 -25.73046875 31.81738281 C-21.74752259 25.97777826 -17.59316146 20.37674981 -13 15 C-12.50902832 14.42169434 -12.01805664 13.84338867 -11.51220703 13.24755859 C-1.73989899 1.73989899 -1.73989899 1.73989899 0 0 Z " fill="#76C3DD" transform="translate(73,79)"/>
<path d="M0 0 C10.883671 -0.22211573 21.25354337 0.02454841 32 2 C32.71285156 2.12358887 33.42570312 2.24717773 34.16015625 2.37451172 C56.10873225 6.20437111 76.7799799 12.65270851 97 22 C93.24666338 23.25111221 92.31083438 22.56537476 88.73046875 21.05078125 C87.15990723 20.39916016 87.15990723 20.39916016 85.55761719 19.734375 C84.44547852 19.26515625 83.33333984 18.7959375 82.1875 18.3125 C69.86737575 13.25701281 58.22611592 9.15326449 44.9375 7.4921875 C41.79691425 6.96597233 39.01758112 6.01325641 36 5 C28.42566601 2.84908147 20.76566318 2.38272776 12.9375 1.875 C11.06674805 1.74544922 11.06674805 1.74544922 9.15820312 1.61328125 C6.10582901 1.40277269 3.05317439 1.19850261 0 1 C0 0.67 0 0.34 0 0 Z " fill="#59ADCD" transform="translate(252,8)"/>
<path d="M0 0 C0 0.99 0 1.98 0 3 C-1.96851085 4.78955532 -3.88977044 6.40181144 -6 8 C-6.7425 8.598125 -7.485 9.19625 -8.25 9.8125 C-10 11 -10 11 -12 11 C-12 11.66 -12 12.32 -12 13 C-21.18842379 18.39819898 -30.51241851 23.37852989 -40.08691406 28.05737305 C-42.1106979 29.05454372 -44.12109804 30.07638631 -46.1328125 31.09765625 C-53.50319656 34.78374339 -60.75668003 37.37786264 -69 38 C-66.21994707 36.14663138 -63.62108045 35.04498482 -60.50512695 33.89526367 C-38.30052976 25.69564464 -18.14408297 15.28372166 0 0 Z " fill="#74BBD5" transform="translate(389,310)"/>
<path d="M0 0 C1.98 0.99 1.98 0.99 4 2 C4 2.66 4 3.32 4 4 C4.66 4 5.32 4 6 4 C10.49690767 11.34400645 11.24241328 18.92423293 12.1875 27.3125 C12.50926693 30.01756128 12.83877636 32.72160568 13.16796875 35.42578125 C13.37329224 37.21109253 13.37329224 37.21109253 13.58276367 39.0324707 C13.91544036 42.04809015 13.91544036 42.04809015 15 45 C15.10185018 46.62394458 15.18246213 48.24926691 15.25 49.875 C15.92083712 58.13399474 19.21556377 65.69515798 23 73 C22.34 73 21.68 73 21 73 C10.92958069 61.69985952 11.05901608 41.67811471 9.47265625 27.3359375 C9.39152588 26.62083008 9.31039551 25.90572266 9.22680664 25.16894531 C9.01523035 23.2622535 8.81949779 21.35382208 8.625 19.4453125 C7.60392476 13.81663523 5.12268554 8.99931243 2.3125 4.0625 C1.65701172 2.90427734 1.65701172 2.90427734 0.98828125 1.72265625 C0.66214844 1.15417969 0.33601562 0.58570313 0 0 Z " fill="#60B8D7" transform="translate(133,142)"/>
<path d="M0 0 C1.10989914 3.32969741 0.68667043 5.28265039 0.03022766 8.66105652 C-2.54479805 21.97907056 -2.33889707 35.17507349 -2.1875 48.6875 C-2.17240996 51.0579341 -2.15872928 53.42837762 -2.14648438 55.79882812 C-2.11385824 61.53276184 -2.06400897 67.26633506 -2 73 C-2.33 73 -2.66 73 -3 73 C-4.94753559 67.29005914 -5.27990514 62.24171046 -5.23046875 56.234375 C-5.23001053 55.31916077 -5.22955231 54.40394653 -5.2290802 53.46099854 C-5.2260737 51.53811333 -5.21823579 49.61523022 -5.20581055 47.69238281 C-5.1874711 44.74535538 -5.18530169 41.79864126 -5.18554688 38.8515625 C-5.18063405 36.97916394 -5.17480675 35.10676752 -5.16796875 33.234375 C-5.16685593 32.35311951 -5.1657431 31.47186401 -5.16459656 30.56390381 C-5.15821671 29.74585266 -5.15183685 28.92780151 -5.14526367 28.08496094 C-5.14145187 27.36661072 -5.13764008 26.6482605 -5.13371277 25.90814209 C-5 24 -5 24 -4 21 C-3.56996183 17.41875778 -3.18627691 13.83794035 -2.83789062 10.24804688 C-2.09226888 3.28284867 -2.09226888 3.28284867 0 0 Z " fill="#D5F7FA" transform="translate(10,199)"/>
<path d="M0 0 C0.66 0.33 1.32 0.66 2 1 C-0.80804268 3.96404505 -3.18315774 6.44499019 -7 8 C-7 8.66 -7 9.32 -7 10 C-7.845625 10.20625 -8.69125 10.4125 -9.5625 10.625 C-12.69606149 11.8784246 -13.99349026 12.73118178 -16.375 14.9375 C-19.30097315 17.60267989 -21.80809287 18.67189319 -25.6015625 19.87890625 C-31.30317792 22.54399359 -36.14074068 27.0518518 -41 31 C-41.66 30.67 -42.32 30.34 -43 30 C-33.35888441 22.04095139 -23.54119973 14.72025994 -13 8 C-12.37689941 7.59668457 -11.75379883 7.19336914 -11.11181641 6.77783203 C-9.30987503 5.61269871 -7.50061752 4.46014586 -5.6875 3.3125 C-4.63949219 2.64863281 -3.59148437 1.98476563 -2.51171875 1.30078125 C-1.68285156 0.87152344 -0.85398438 0.44226562 0 0 Z " fill="#6DB9D4" transform="translate(131,35)"/>
<path d="M0 0 C0.8046875 1.6484375 0.8046875 1.6484375 1 4 C-0.55874592 6.08444062 -2.05312481 7.79664022 -3.875 9.625 C-4.9004064 10.69337081 -5.92513648 11.76239113 -6.94921875 12.83203125 C-7.46532715 13.36393066 -7.98143555 13.89583008 -8.51318359 14.44384766 C-10.6419035 16.67183791 -12.6593478 18.99308952 -14.6875 21.3125 C-19.49213309 26.65959167 -24.38895458 31.9644648 -31 35 C-31 35.66 -31 36.32 -31 37 C-32.98600337 38.3540932 -34.98817543 39.68457624 -37 41 C-38.36886951 42.29682374 -39.7169291 43.61823134 -41 45 C-41.99 44.67 -42.98 44.34 -44 44 C-42.7315625 42.93072266 -42.7315625 42.93072266 -41.4375 41.83984375 C-38.48950749 39.35255672 -35.54664004 36.85929146 -32.60644531 34.36279297 C-31.32049827 33.27188774 -30.03179657 32.18422998 -28.7421875 31.09765625 C-17.89137085 21.81317088 -8.50415232 11.45403015 0 0 Z " fill="#E2F8FD" transform="translate(436,388)"/>
<path d="M0 0 C2.29141286 -0.05384521 4.58318188 -0.09272087 6.875 -0.125 C8.78925781 -0.15980469 8.78925781 -0.15980469 10.7421875 -0.1953125 C14 0 14 0 16 2 C15.39639648 2.12528076 14.79279297 2.25056152 14.17089844 2.37963867 C-2.35177608 5.81908667 -2.35177608 5.81908667 -18 12 C-19.6396875 12.79857422 -19.6396875 12.79857422 -21.3125 13.61328125 C-24.22185223 15.05080317 -27.11466325 16.51503842 -30 18 C-30.66 18.33 -31.32 18.66 -32 19 C-31.67 17.68 -31.34 16.36 -31 15 C-30.01 15 -29.02 15 -28 15 C-28 14.34 -28 13.68 -28 13 C-25.09399739 11.74335022 -23.20395416 11 -20 11 C-20 10.34 -20 9.68 -20 9 C-18.35 9 -16.7 9 -15 9 C-15 8.34 -15 7.68 -15 7 C-11.17679443 5.57741188 -8.08718695 4.75957724 -4 5 C-4 4.34 -4 3.68 -4 3 C-2.35 3 -0.7 3 1 3 C0.505 1.515 0.505 1.515 0 0 Z " fill="#59AFCB" transform="translate(243,328)"/>
<path d="M0 0 C0.33 0 0.66 0 1 0 C1.09796875 1.0415625 1.1959375 2.083125 1.296875 3.15625 C2.06239731 10.68831611 3.06470242 17.98461355 5 25.3125 C7.53893362 34.99159889 9.16201193 44.11216724 9.25 54.125 C9.26401855 55.24636353 9.26401855 55.24636353 9.27832031 56.39038086 C9.24616308 61.75383692 9.24616308 61.75383692 7 64 C6.95512451 63.22922119 6.91024902 62.45844238 6.86401367 61.66430664 C6.65105997 58.12948742 6.41942256 54.59612333 6.1875 51.0625 C6.11724609 49.85013672 6.04699219 48.63777344 5.97460938 47.38867188 C5.55605022 41.21073871 4.89211953 35.76084425 2.7019043 29.96069336 C-0.62812157 20.65862807 -0.29587519 9.74744365 0 0 Z " fill="#70C1DF" transform="translate(93,285)"/>
<path d="M0 0 C1.58283496 4.98050267 0.17127301 9.26941978 -0.9375 14.25 C-1.26995728 15.76037842 -1.26995728 15.76037842 -1.60913086 17.30126953 C-4.97587703 31.93762459 -9.64203481 46.38211101 -16 60 C-16.33 60 -16.66 60 -17 60 C-17 58.35 -17 56.7 -17 55 C-16.34 55 -15.68 55 -15 55 C-14.731875 53.741875 -14.46375 52.48375 -14.1875 51.1875 C-12.9814977 45.73879894 -11.50622713 40.37221011 -10 35 C-9.34 35 -8.68 35 -8 35 C-7.87625 34.071875 -7.7525 33.14375 -7.625 32.1875 C-7.14307563 28.86833076 -6.62030196 25.5572825 -6.0625 22.25 C-5.90910156 21.32703125 -5.75570313 20.4040625 -5.59765625 19.453125 C-5 17 -5 17 -3 14 C-2.61593116 11.36082284 -2.61593116 11.36082284 -2.5 8.5 C-2.29346423 4.65843462 -2.1889555 3.28343324 0 0 Z " fill="#58BCDF" transform="translate(481,281)"/>
<path d="M0 0 C1.71487511 2.57231267 3.00791321 5.09426603 4.30786133 7.88671875 C10.13976662 20.24006351 17.861286 26.0562159 30 32 C27.07379384 34.27291362 24.05975788 36.23315875 20.875 38.125 C19.57175781 38.90230469 19.57175781 38.90230469 18.2421875 39.6953125 C16.85125626 40.5046697 15.43937453 41.28031273 14 42 C15.50383297 37.78926767 18.20664956 36.16762883 22 34 C22.99 34 23.98 34 25 34 C25 33.01 25 32.02 25 31 C24.01 30.690625 24.01 30.690625 23 30.375 C14.32701391 26.39988137 5.54921755 18.97743264 2 10 C2 9.34 2 8.68 2 8 C1.34 8 0.68 8 0 8 C0 5.36 0 2.72 0 0 Z " fill="#60ABCA" transform="translate(95,214)"/>
<path d="M0 0 C0.33 0 0.66 0 1 0 C1.11138159 5.45769811 0.91657981 10.61509359 0 16 C-0.66 16 -1.32 16 -2 16 C-2.06058594 16.6290625 -2.12117187 17.258125 -2.18359375 17.90625 C-2.26738281 18.7621875 -2.35117188 19.618125 -2.4375 20.5 C-2.51871094 21.3353125 -2.59992187 22.170625 -2.68359375 23.03125 C-2.91611384 25.21291999 -3.19505535 27.38976939 -3.5 29.5625 C-4.10090575 34.36154764 -4.22437185 39.13693016 -4.31640625 43.96875 C-4.33718735 44.88966431 -4.35796844 45.81057861 -4.37937927 46.75939941 C-4.44425118 49.67286425 -4.50346682 52.58641161 -4.5625 55.5 C-4.60574467 57.48698737 -4.64936076 59.47396669 -4.69335938 61.4609375 C-4.79986772 66.3072092 -4.90130684 71.1535631 -5 76 C-5.33 76 -5.66 76 -6 76 C-6.95736014 22.68976909 -6.95736014 22.68976909 0 0 Z " fill="#7FCAE0" transform="translate(13,188)"/>
<path d="M0 0 C2.12508244 3.18762365 2.5020163 5.26512223 3 9 C2.45698242 9.31638428 1.91396484 9.63276855 1.35449219 9.95874023 C-9.22332254 16.14629183 -19.35913658 22.41729843 -29 30 C-31.3163141 31.69253827 -33.65475823 33.34767057 -36 35 C-35.34 33.35 -34.68 31.7 -34 30 C-33.01 30 -32.02 30 -31 30 C-31 29.01 -31 28.02 -31 27 C-30.01 27 -29.02 27 -28 27 C-28 26.34 -28 25.68 -28 25 C-27.01 24.67 -26.02 24.34 -25 24 C-24.505 23.484375 -24.01 22.96875 -23.5 22.4375 C-22 21 -22 21 -19 21 C-19 20.34 -19 19.68 -19 19 C-13.25 16 -13.25 16 -11 16 C-11 15.34 -11 14.68 -11 14 C-9.68 13.67 -8.36 13.34 -7 13 C-7 12.34 -7 11.68 -7 11 C-4.09399739 9.74335022 -2.20395416 9 1 9 C0.505 4.545 0.505 4.545 0 0 Z " fill="#6DB9D4" transform="translate(239,158)"/>
<path d="M0 0 C3.70312756 1.32062325 7.40151241 2.65371882 11.09619141 3.99780273 C12.96155481 4.67357237 14.83035929 5.33981918 16.69921875 6.00585938 C25.98937721 9.39551179 33.342993 12.88598967 40.3125 20 C41.13363281 20.825 41.95476562 21.65 42.80078125 22.5 C48 28.41030195 48 28.41030195 48 32 C47.34 32 46.68 32 46 32 C45.525625 31.030625 45.05125 30.06125 44.5625 29.0625 C41.65029605 23.95831458 37.5271073 19.71414085 33 16 C31.67394484 15.63879841 30.34072958 15.30221363 29 15 C28.54625 14.52304688 28.0925 14.04609375 27.625 13.5546875 C25.33216882 11.36106536 23.04570017 10.95231759 20 10.125 C12.97067712 8.08626022 6.53281282 5.26640641 0 2 C0 1.34 0 0.68 0 0 Z " fill="#5CB3CE" transform="translate(191,126)"/>
<path d="M0 0 C3.81303025 1.34075504 6.13737367 3.88851674 8.88085938 6.73632812 C9.73589302 7.59985146 9.73589302 7.59985146 10.60820007 8.4808197 C12.42095376 10.31590679 14.21928064 12.16442704 16.01757812 14.01367188 C17.2464689 15.26263146 18.47627676 16.51068942 19.70703125 17.7578125 C22.71710926 20.81191757 25.71432645 23.87814367 28.70507812 26.95117188 C25.00672917 26.95117188 24.43426385 26.13752965 21.76757812 23.70117188 C21.06761719 23.06308594 20.36765625 22.425 19.64648438 21.76757812 C19.00582031 21.16816406 18.36515625 20.56875 17.70507812 19.95117188 C16.88007813 19.18804687 16.05507812 18.42492187 15.20507812 17.63867188 C13.70507812 15.95117188 13.70507812 15.95117188 13.70507812 13.95117188 C12.38507813 13.29117187 11.06507813 12.63117188 9.70507812 11.95117188 C9.70507812 11.29117187 9.70507812 10.63117188 9.70507812 9.95117188 C9.12757813 9.72429687 8.55007812 9.49742187 7.95507812 9.26367188 C5.13871202 7.62079165 3.62430698 5.55583961 1.70507812 2.95117188 C-2.5841838 3.48732962 -5.80024041 5.14341351 -9.52539062 7.20898438 C-10.10933594 7.45390625 -10.69328125 7.69882812 -11.29492188 7.95117188 C-11.95492187 7.62117188 -12.61492187 7.29117187 -13.29492188 6.95117188 C-11.5782907 5.74562179 -9.84603719 4.56229463 -8.10742188 3.38867188 C-7.14449219 2.72738281 -6.1815625 2.06609375 -5.18945312 1.38476562 C-2.29492188 -0.04882812 -2.29492188 -0.04882812 0 0 Z " fill="#65B0CA" transform="translate(171.294921875,268.048828125)"/>
<path d="M0 0 C-0.969375 0.598125 -1.93875 1.19625 -2.9375 1.8125 C-6.23052042 3.71127509 -6.23052042 3.71127509 -7 7 C1.32795222 5.96094451 8.86882008 3.88771629 16.75 1.12109375 C19.16968618 0.28641835 21.50685335 -0.44527487 24 -1 C24 -0.34 24 0.32 24 1 C17.5 4 17.5 4 13 4 C13 4.66 13 5.32 13 6 C-1.56074766 9.72897196 -1.56074766 9.72897196 -8 9 C-8.66 8.01 -9.32 7.02 -10 6 C-9.67 5.01 -9.34 4.02 -9 3 C-8.34 3 -7.68 3 -7 3 C-6.67 2.01 -6.34 1.02 -6 0 C-3.42525708 -0.99667468 -2.51072708 -1.25536354 0 0 Z " fill="#6EBBD6" transform="translate(90,365)"/>
<path d="M0 0 C-8.10324191 3.5677037 -16.32011194 5.16835504 -25.00073242 6.69238281 C-25.88994385 6.84932617 -26.77915527 7.00626953 -27.6953125 7.16796875 C-28.49984863 7.30485107 -29.30438477 7.4417334 -30.13330078 7.58276367 C-32.00460535 7.82599349 -32.00460535 7.82599349 -33 9 C-40.62267625 10.31690624 -48.25723488 11.31603123 -56 11 C-56 10.67 -56 10.34 -56 10 C-55.13536133 9.84442627 -54.27072266 9.68885254 -53.37988281 9.52856445 C-49.33530575 8.79672697 -45.29221239 8.05727356 -41.25 7.3125 C-40.52325073 7.17883026 -39.79650146 7.04516052 -39.04772949 6.90744019 C-29.21103432 5.088689 -19.47986295 3.09269358 -9.84082031 0.38598633 C-6.13142651 -0.62697618 -3.675006 -1.13844194 0 0 Z " fill="#6BB1CA" transform="translate(320,349)"/>
<path d="M0 0 C0.33 0 0.66 0 1 0 C1.05425013 2.87525669 1.09379277 5.74947646 1.125 8.625 C1.14175781 9.43324219 1.15851563 10.24148437 1.17578125 11.07421875 C1.18222656 11.86699219 1.18867187 12.65976563 1.1953125 13.4765625 C1.20578613 14.19924316 1.21625977 14.92192383 1.22705078 15.66650391 C0.93779375 18.63931977 -0.02298337 21.18147671 -1 24 C-1.46099148 25.93813285 -1.89029041 27.88405305 -2.2890625 29.8359375 C-2.50820312 30.89941406 -2.72734375 31.96289062 -2.953125 33.05859375 C-3.17484375 34.15300781 -3.3965625 35.24742187 -3.625 36.375 C-3.85445313 37.49261719 -4.08390625 38.61023438 -4.3203125 39.76171875 C-4.88348012 42.50716089 -5.44326868 45.25324675 -6 48 C-6.33 48 -6.66 48 -7 48 C-7.05506505 46.47959282 -7.09326375 44.95857296 -7.125 43.4375 C-7.14820312 42.59058594 -7.17140625 41.74367187 -7.1953125 40.87109375 C-6.95765996 37.37760148 -5.97326816 34.36472708 -5 31 C-4.37074866 27.70039345 -3.87015149 24.38456227 -3.375 21.0625 C-3.17390625 19.75055664 -3.17390625 19.75055664 -2.96875 18.41210938 C-2.64181424 16.27535066 -2.32034321 14.13775701 -2 12 C-1.34 12 -0.68 12 0 12 C0 8.04 0 4.08 0 0 Z " fill="#5ABCE2" transform="translate(101,146)"/>
<path d="M0 0 C-6.55401162 2.2845239 -13.16540356 4.16955244 -19.875 5.9375 C-26.76107853 7.77022891 -33.48525096 9.68369721 -40.07421875 12.43359375 C-42 13 -42 13 -45 12 C-41.41333394 10.03457946 -37.62641386 8.81334332 -33.75 7.5625 C-29.65575682 6.2242713 -25.57515687 4.88232185 -21.5625 3.3125 C-5.33333333 -2.66666667 -5.33333333 -2.66666667 0 0 Z " fill="#DDF5FD" transform="translate(202,10)"/>
<path d="M0 0 C0.99 0.33 1.98 0.66 3 1 C1.23429377 4.13903329 -0.7292538 6.97811817 -2.9375 9.8125 C-8.11860402 16.67361547 -10.76544589 23.73892116 -13 32 C-13.33 32 -13.66 32 -14 32 C-14.56131481 25.54487966 -12.63463787 20.84560277 -10 15 C-9.34 15 -8.68 15 -8 15 C-7.896875 14.484375 -7.79375 13.96875 -7.6875 13.4375 C-5.25899281 4.82733813 -5.25899281 4.82733813 -1.8125 2.5625 C-1.214375 2.376875 -0.61625 2.19125 0 2 C0 1.34 0 0.68 0 0 Z " fill="#51B7DC" transform="translate(107,253)"/>
<path d="M0 0 C0.33 0.66 0.66 1.32 1 2 C0.60167969 2.56847656 0.20335937 3.13695312 -0.20703125 3.72265625 C-3.3978357 8.37300142 -5.9088232 12.77205801 -8 18 C-8.66 18.99 -9.32 19.98 -10 21 C-10.66 21 -11.32 21 -12 21 C-12 21.66 -12 22.32 -12 23 C-13.98 23 -15.96 23 -18 23 C-13.64850614 16.98574019 -8.96042927 11.30317464 -4.171875 5.63671875 C-1.93375229 3.0098868 -1.93375229 3.0098868 0 0 Z " fill="#60C1E5" transform="translate(416,279)"/>
<path d="M0 0 C4.20561268 3.66872596 6.74107462 8.19704844 9.5625 12.9375 C10.04396484 13.73607422 10.52542969 14.53464844 11.02148438 15.35742188 C11.9466389 16.89340744 12.86821047 18.43155858 13.78564453 19.97216797 C14.78454216 21.64021053 15.80879566 23.29304274 16.83984375 24.94140625 C18 27 18 27 18 29 C13.46306514 27.48768838 12.1266336 24.12938563 10 20 C8.84416856 17.03960959 7.87005877 14.05581617 7 11 C5.68 11.33 4.36 11.66 3 12 C3 11.34 3 10.68 3 10 C2.34 10 1.68 10 1 10 C1.020625 9.278125 1.04125 8.55625 1.0625 7.8125 C1.00179441 5.08074862 0.60741465 2.65743909 0 0 Z " fill="#58B0CB" transform="translate(441,108)"/>
<path d="M0 0 C3 0.25 3 0.25 5 2.25 C5.125 5.375 5.125 5.375 5 8.25 C3.52093108 8.27689216 2.04172517 8.29634621 0.5625 8.3125 C-0.67306641 8.32990234 -0.67306641 8.32990234 -1.93359375 8.34765625 C-4 8.25 -4 8.25 -5 7.25 C-5.1875 4.8125 -5.1875 4.8125 -5 2.25 C-3 0.25 -3 0.25 0 0 Z " fill="#82D1F2" transform="translate(360,239.75)"/>
<path d="M0 0 C0.66 0.33 1.32 0.66 2 1 C0.57063361 2.81892117 -0.86876965 4.62995881 -2.3125 6.4375 C-3.11300781 7.44683594 -3.91351563 8.45617187 -4.73828125 9.49609375 C-7 12 -7 12 -10 13 C-12.77734375 11.92578125 -12.77734375 11.92578125 -15.9375 10.3125 C-16.97777344 9.79300781 -18.01804688 9.27351562 -19.08984375 8.73828125 C-21.86981016 7.0777644 -23.83840577 5.3907753 -26 3 C-25.34 3.268125 -24.68 3.53625 -24 3.8125 C-23.01 4.204375 -22.02 4.59625 -21 5 C-20.05833984 5.37898437 -20.05833984 5.37898437 -19.09765625 5.765625 C-15.07098072 7.34228874 -11.3216783 8.45979021 -7 9 C-7 8.34 -7 7.68 -7 7 C-6.34 7 -5.68 7 -5 7 C-5 6.34 -5 5.68 -5 5 C-4.34 4.67 -3.68 4.34 -3 4 C-2.67 3.01 -2.34 2.02 -2 1 C-1.34 0.67 -0.68 0.34 0 0 Z " fill="#63B3D6" transform="translate(182,212)"/>
<path d="M0 0 C2.5 2 2.5 2 4 4 C0.25173643 4.88194437 -3.16141823 5 -7 5 C-8.0828125 5.309375 -8.0828125 5.309375 -9.1875 5.625 C-9.785625 5.74875 -10.38375 5.8725 -11 6 C-11.99 5.34 -12.98 4.68 -14 4 C-14 3.34 -14 2.68 -14 2 C-9.04604869 0.01841948 -5.26149114 -0.50917656 0 0 Z " fill="#22ABD4" transform="translate(366,235)"/>
<path d="M0 0 C0.66 0 1.32 0 2 0 C-0.16747478 5.83550902 -3.39572003 10.69854702 -7 15.75 C-7.680625 16.71421875 -8.36125 17.6784375 -9.0625 18.671875 C-11 21 -11 21 -14 22 C-12.6486755 17.33688024 -10.74207024 13.66680986 -8.0625 9.625 C-7.37285156 8.56539062 -6.68320312 7.50578125 -5.97265625 6.4140625 C-5.32167969 5.61742188 -4.67070313 4.82078125 -4 4 C-3.01 4 -2.02 4 -1 4 C-0.67 2.68 -0.34 1.36 0 0 Z " fill="#56C2E1" transform="translate(52,106)"/>
<path d="M0 0 C2 1 2 1 2.81640625 3.1875 C5.84617606 14.60862179 6.1296613 25.25844937 6 37 C5.67 37 5.34 37 5 37 C4.82609741 35.69180298 4.82609741 35.69180298 4.64868164 34.35717773 C4.21470623 31.09379543 3.78042683 27.83045388 3.34594727 24.56713867 C3.15865259 23.1599281 2.97147594 21.75270182 2.78442383 20.34545898 C2.5141521 18.31229485 2.2434433 16.2791893 1.97265625 14.24609375 C1.81031494 13.02591553 1.64797363 11.8057373 1.48071289 10.54858398 C1.00404119 7.02983172 0.50658535 3.51455909 0 0 Z " fill="#BCF2FD" transform="translate(479,191)"/>
<path d="M0 0 C2.59532624 1.0638268 3.88707688 2.0538866 6 4 C6 4.99 6 5.98 6 7 C5.34 6.34 4.68 5.68 4 5 C0.2594267 2.50628447 -2.67894306 2.29752193 -7 3 C-11.3469889 4.37973425 -11.3469889 4.37973425 -15 7 C-15.16017882 11.16464926 -14.98248196 14.94726192 -14 19 C-16.04972599 17.31747091 -16.9180014 16.345226 -17.5390625 13.73046875 C-17.66254031 10.07664798 -17.73084795 7.19231285 -15.78125 4.01171875 C-11.17738025 -0.53786009 -6.22775843 -1.21691831 0 0 Z " fill="#50ACC9" transform="translate(365,233)"/>
<path d="M0 0 C-0.5775 0.0825 -1.155 0.165 -1.75 0.25 C-4.64064422 1.21354807 -5.96923646 2.76616011 -8 5 C-8.66 5.66 -9.32 6.32 -10 7 C-10.99 7 -11.98 7 -13 7 C-13.33 7.66 -13.66 8.32 -14 9 C-15.1446875 9.61875 -15.1446875 9.61875 -16.3125 10.25 C-19.55354791 12.3604498 -21.027871 14.71311833 -23 18 C-24 15 -24 15 -23 12.6875 C-17.9262575 5.86965851 -8.89379493 -2.51210699 0 0 Z " fill="#4EBCD8" transform="translate(174,271)"/>
<path d="M0 0 C2 1 2 1 2 1 Z M-4 2 C-3.01 2.33 -2.02 2.66 -1 3 C-3.16797742 5.91843114 -5.23315707 8.1903323 -8.0625 10.5 C-10.86993081 12.88930282 -12.27131897 14.8019401 -14 18 C-15.66666667 19.66666667 -17.33333333 21.33333333 -19 23 C-19.33 22.01 -19.66 21.02 -20 20 C-19.39671875 19.34773438 -18.7934375 18.69546875 -18.171875 18.0234375 C-13.04983193 12.53767523 -13.04983193 12.53767523 -8.625 6.5 C-7 4 -7 4 -4 2 Z " fill="#4CBEDF" transform="translate(81,75)"/>
<path d="M0 0 C1.79323253 0.28187936 3.58457126 0.5758281 5.375 0.875 C6.37273437 1.03742188 7.37046875 1.19984375 8.3984375 1.3671875 C11 2 11 2 13 4 C13 4.99 13 5.98 13 7 C6.73920552 7.43177893 3.90924297 6.92739438 -1 3 C-0.67 2.01 -0.34 1.02 0 0 Z " fill="#23A5CE" transform="translate(353,247)"/>
<path d="M0 0 C1 3 1 3 0.36328125 4.90234375 C-1.71605747 8.92961316 -3.72334557 11.8290441 -7 15 C-7.495 15.99 -7.99 16.98 -8.5 18 C-9.99537217 20.99074435 -11.5298344 22.78536877 -14 25 C-14.66 24.67 -15.32 24.34 -16 24 C-15.26394531 22.9378125 -14.52789062 21.875625 -13.76953125 20.78125 C-12.78376138 19.35423076 -11.79808955 17.92714379 -10.8125 16.5 C-10.32974609 15.80390625 -9.84699219 15.1078125 -9.34960938 14.390625 C-6.09610968 9.67414221 -2.99408337 4.88521316 0 0 Z " fill="#D9F9FE" transform="translate(453,363)"/>
<path d="M0 0 C4.59049876 0.61558413 8.32131278 2.5093463 12.375 4.625 C13.78817911 5.34808324 15.20226666 6.06939341 16.6171875 6.7890625 C17.69758301 7.33868652 17.69758301 7.33868652 18.79980469 7.89941406 C22.33486019 9.66772634 25.91357423 11.33892771 29.5 13 C30.15274902 13.30244629 30.80549805 13.60489258 31.47802734 13.91650391 C32.98450509 14.61283684 34.49211506 15.30671957 36 16 C34 17 34 17 31.0859375 16.06640625 C29.84482393 15.57542933 28.60809956 15.07327071 27.375 14.5625 C26.39031738 14.16067505 26.39031738 14.16067505 25.38574219 13.75073242 C20.25447537 11.61391765 15.23327621 9.27320032 10.25 6.8125 C9.57114746 6.48000244 8.89229492 6.14750488 8.19287109 5.80493164 C5.03050946 4.2085279 2.28399821 2.75272919 0 0 Z " fill="#72B1CE" transform="translate(129,451)"/>
<path d="M0 0 C0.66 0 1.32 0 2 0 C0.51795657 5.31204329 -1.94439504 9.51976364 -4.875 14.125 C-5.52662109 15.17880859 -5.52662109 15.17880859 -6.19140625 16.25390625 C-8.49504003 19.91343258 -10.75462763 23.08671225 -14 26 C-14 24.35 -14 22.7 -14 21 C-13.34 21 -12.68 21 -12 21 C-12 20.34 -12 19.68 -12 19 C-11.34 19 -10.68 19 -10 19 C-10 17.68 -10 16.36 -10 15 C-9.01 15 -8.02 15 -7 15 C-6.8453125 14.13375 -6.8453125 14.13375 -6.6875 13.25 C-5.89914262 10.6699213 -4.60910793 9.14547724 -3 7 C-2.29485154 4.85266073 -2.29485154 4.85266073 -2 3 C-1.34 3 -0.68 3 0 3 C0 2.01 0 1.02 0 0 Z " fill="#54B3D8" transform="translate(455,355)"/>
<path d="M0 0 C12.54 0 25.08 0 38 0 C38 0.33 38 0.66 38 1 C26.78 1.33 15.56 1.66 4 2 C4.66 3.32 5.32 4.64 6 6 C4.02 5.34 2.04 4.68 0 4 C0 2.68 0 1.36 0 0 Z " fill="#C8F3FB" transform="translate(192,123)"/>
<path d="M0 0 C-21.3833682 10.19874477 -21.3833682 10.19874477 -32 11 C-29.56085552 9.37390368 -27.70071337 8.39937702 -25.015625 7.37890625 C-24.24476563 7.08306641 -23.47390625 6.78722656 -22.6796875 6.48242188 C-21.47699219 6.02706055 -21.47699219 6.02706055 -20.25 5.5625 C-18.6714199 4.96082808 -17.09328821 4.35797829 -15.515625 3.75390625 C-14.75185547 3.46402832 -13.98808594 3.17415039 -13.20117188 2.87548828 C-11.1498671 2.05960775 -9.16957487 1.1523982 -7.171875 0.21484375 C-4.07651207 -0.9706955 -2.974271 -1.30867924 0 0 Z " fill="#68B0CC" transform="translate(352,337)"/>
<path d="M0 0 C2.7915438 4.18731571 3.81283964 8.62780599 5.1875 13.4375 C5.47302734 14.39205078 5.75855469 15.34660156 6.05273438 16.33007812 C6.31763672 17.25111328 6.58253906 18.17214844 6.85546875 19.12109375 C7.09934326 19.9608374 7.34321777 20.80058105 7.59448242 21.66577148 C8.02479333 24.14271464 7.79591328 25.63945925 7 28 C7 27.34 7 26.68 7 26 C6.34 26 5.68 26 5 26 C4.80664062 25.04738281 4.61328125 24.09476563 4.4140625 23.11328125 C4.15367187 21.85902344 3.89328125 20.60476562 3.625 19.3125 C3.36976563 18.07113281 3.11453125 16.82976562 2.8515625 15.55078125 C2.11323396 12.08965076 2.11323396 12.08965076 0.90625 9.28125 C-0.33770496 6.14991509 -0.13067442 3.33219769 0 0 Z " fill="#5AB8D9" transform="translate(470,162)"/>
<path d="M0 0 C1.25 6.625 1.25 6.625 -1 10 C-1.33 9.01 -1.66 8.02 -2 7 C-4.50447516 5.78130071 -4.50447516 5.78130071 -7 5 C-7 3.68 -7 2.36 -7 1 C-4.53721199 -0.231394 -2.7204945 -0.07159196 0 0 Z " fill="#49C6EC" transform="translate(373,239)"/>
<path d="M0 0 C2.62002725 2.37050084 4.35819909 4.87276017 6 8 C6 8.99 6 9.98 6 11 C6.66 11 7.32 11 8 11 C8 11.99 8 12.98 8 14 C12.06368679 14.77403558 15.86425173 15.0984702 20 15 C20 15.66 20 16.32 20 17 C16.04 17 12.08 17 8 17 C6.66161267 14.54429825 5.32913768 12.08570084 4 9.625 C3.6184375 8.92632812 3.236875 8.22765625 2.84375 7.5078125 C0 2.2265625 0 2.2265625 0 0 Z " fill="#4FABCD" transform="translate(413,228)"/>
<path d="M0 0 C2.97 0.495 2.97 0.495 6 1 C6 1.66 6 2.32 6 3 C4.49609375 4.48046875 4.49609375 4.48046875 2.4375 6.1875 C-1.58675247 9.60201725 -5.32190005 13.21845349 -9 17 C-9 13.38462395 -8.10770759 11.88834003 -6 9 C-5.01 9 -4.02 9 -3 9 C-3 8.01 -3 7.02 -3 6 C-2.01 6 -1.02 6 0 6 C0 4.02 0 2.04 0 0 Z " fill="#55B4DB" transform="translate(195,193)"/>
<path d="M0 0 C9.90600407 -0.58912359 19.30752309 1.20865113 29 3 C29 3.33 29 3.66 29 4 C19.91461833 4.30453793 10.91750882 3.84736116 2 2 C1.34 1.34 0.68 0.68 0 0 Z " fill="#5CB6D5" transform="translate(204,477)"/>
<path d="M0 0 C1.98 0 3.96 0 6 0 C6.2475 0.78375 6.495 1.5675 6.75 2.375 C8.15389099 5.32317108 9.00675737 5.9024777 12 7 C11.67 8.32 11.34 9.64 11 11 C7.6875 11.6875 7.6875 11.6875 4 12 C2.0625 10.5625 2.0625 10.5625 1 9 C2.65 9 4.3 9 6 9 C5.12527407 4.04485498 5.12527407 4.04485498 1.875 0.5625 C1.25625 0.376875 0.6375 0.19125 0 0 Z " fill="#36B1DC" transform="translate(359,239)"/>
<path d="M0 0 C-1.05058594 0.45890625 -2.10117187 0.9178125 -3.18359375 1.390625 C-3.85994873 1.68630371 -4.53630371 1.98198242 -5.2331543 2.28662109 C-6.70702245 2.93075486 -8.18114524 3.57430627 -9.65551758 4.21728516 C-13.51580644 5.90303443 -17.35935705 7.61717926 -21.1875 9.375 C-24.09767078 10.67955931 -26.81118686 11.58854024 -30 12 C-30 11.34 -30 10.68 -30 10 C-28.54166667 9.41666667 -27.08333333 8.83333333 -25.625 8.25 C-24.25794922 7.70279297 -24.25794922 7.70279297 -22.86328125 7.14453125 C-21.02806775 6.41094659 -19.19218875 5.6790233 -17.35546875 4.94921875 C-16.51628906 4.61535156 -15.67710937 4.28148437 -14.8125 3.9375 C-13.99265625 3.61265625 -13.1728125 3.2878125 -12.328125 2.953125 C-10.20942384 2.08573727 -8.1401383 1.147753 -6.0625 0.1875 C-3 -1 -3 -1 0 0 Z " fill="#62BAD9" transform="translate(351,458)"/>
<path d="M0 0 C0.66 0 1.32 0 2 0 C2.46450943 6.50313209 1.32575612 10.4174808 -2 16 C-2.66 16 -3.32 16 -4 16 C-4.33 17.32 -4.66 18.64 -5 20 C-5.66 20 -6.32 20 -7 20 C-5.3312285 15.6331213 -3.24379602 11.60702154 -1.0234375 7.5 C0.08189621 4.79994818 0.19595979 2.88782841 0 0 Z " fill="#63BEDE" transform="translate(433,244)"/>
<path d="M0 0 C-4.02247287 2.68164858 -7.92891734 3.20486769 -12.625 4.125 C-13.92244141 4.39763672 -13.92244141 4.39763672 -15.24609375 4.67578125 C-20.93590362 5.81033104 -26.19994856 6.17647215 -32 6 C-32 5.67 -32 5.34 -32 5 C-30.71222656 4.79503906 -29.42445313 4.59007812 -28.09765625 4.37890625 C-26.41923637 4.10698348 -24.7408528 3.83483649 -23.0625 3.5625 C-22.21236328 3.42779297 -21.36222656 3.29308594 -20.48632812 3.15429688 C-19.67744141 3.02216797 -18.86855469 2.89003906 -18.03515625 2.75390625 C-16.91185913 2.57323608 -16.91185913 2.57323608 -15.76586914 2.38891602 C-13.9829115 2.16240096 -13.9829115 2.16240096 -13 1 C-8.62311835 0.22760912 -4.44088235 -0.1083142 0 0 Z " fill="#65BDD9" transform="translate(304,474)"/>
<path d="M0 0 C6.44599731 -0.32531201 11.80961124 -0.10792694 17.86328125 2.20703125 C20.01856889 3.0068912 22.13515799 3.55251776 24.375 4.0625 C28 5 28 5 31 7 C23.93505819 6.50421461 17.43338771 4.87199314 10.6484375 2.9375 C7.06946235 2.017849 3.65994769 1.45161308 0 1 C0 0.67 0 0.34 0 0 Z " fill="#68B5D0" transform="translate(275,128)"/>
<path d="M0 0 C5.18943127 1.66766155 9.29845096 4.80671947 13.6875 7.9375 C14.45900391 8.47568359 15.23050781 9.01386719 16.02539062 9.56835938 C16.76337891 10.09107422 17.50136719 10.61378906 18.26171875 11.15234375 C18.93162842 11.62663818 19.60153809 12.10093262 20.29174805 12.58959961 C22 14 22 14 24 17 C19.51121248 15.52045551 16.18696387 13.00022335 12.5625 10.0625 C8.54167222 6.80889731 4.74682105 4.16936166 0 2 C0 1.34 0 0.68 0 0 Z " fill="#57A8C9" transform="translate(373,44)"/>
<path d="M0 0 C0.33 0.99 0.66 1.98 1 3 C-3.625 7.875 -3.625 7.875 -7 9 C-7.309375 9.639375 -7.61875 10.27875 -7.9375 10.9375 C-9.2342338 13.45468915 -10.4221737 13.96886948 -13 15 C-11.50403926 11.60502173 -9.5352395 9.12862797 -7.0625 6.375 C-6.37285156 5.59898437 -5.68320313 4.82296875 -4.97265625 4.0234375 C-3 2 -3 2 0 0 Z " fill="#D4F7FD" transform="translate(208,349)"/>
<path d="M0 0 C1.17629657 3.47525916 0.81182496 5.87491481 0.00390625 9.421875 C-0.33930664 10.95908203 -0.33930664 10.95908203 -0.68945312 12.52734375 C-0.93630859 13.59082031 -1.18316406 14.65429688 -1.4375 15.75 C-1.68048828 16.82894531 -1.92347656 17.90789062 -2.17382812 19.01953125 C-2.77456295 21.68161107 -3.38355513 24.34152209 -4 27 C-4.33 27 -4.66 27 -5 27 C-5.05416188 25.39620659 -5.09286638 23.79188594 -5.125 22.1875 C-5.14820313 21.29417969 -5.17140625 20.40085937 -5.1953125 19.48046875 C-5 17 -5 17 -3 14 C-2.61593116 11.36082284 -2.61593116 11.36082284 -2.5 8.5 C-2.29346423 4.65843462 -2.1889555 3.28343324 0 0 Z " fill="#63C2E3" transform="translate(481,281)"/>
<path d="M0 0 C2.475 0.99 2.475 0.99 5 2 C5 2.99 5 3.98 5 5 C-0.17578125 8.22265625 -0.17578125 8.22265625 -2 9 C-2.99 8.67 -3.98 8.34 -5 8 C-5 7.34 -5 6.68 -5 6 C-4.34 5.67 -3.68 5.34 -3 5 C-2.30062468 3.68352881 -1.63270867 2.34977849 -1 1 C-0.67 0.67 -0.34 0.34 0 0 Z " fill="#3ABADA" transform="translate(115,243)"/>
<path d="M0 0 C0 0.66 0 1.32 0 2 C-0.99 2 -1.98 2 -3 2 C-3 2.99 -3 3.98 -3 5 C-4.91197039 5.70045456 -6.82980435 6.384919 -8.75 7.0625 C-9.81734375 7.44535156 -10.8846875 7.82820313 -11.984375 8.22265625 C-15.03776383 9.00973446 -16.10042288 8.87807949 -19 8 C-16.21128823 6.66042079 -13.41856938 5.32941565 -10.625 4 C-9.8309375 3.6184375 -9.036875 3.236875 -8.21875 2.84375 C-7.45820313 2.4828125 -6.69765625 2.121875 -5.9140625 1.75 C-5.2123291 1.41484375 -4.5105957 1.0796875 -3.78759766 0.734375 C-2 0 -2 0 0 0 Z " fill="#74BFDA" transform="translate(152,26)"/>
<path d="M0 0 C-1 1 -1 1 -4.125 1.375 C-8.01097094 1.81811332 -8.01097094 1.81811332 -11.3125 3.5625 C-16.00982215 5.39365948 -20.02549687 5.27024464 -25 5 C-21.09275214 2.70345272 -16.86654949 1.83926928 -12.5 0.8125 C-11.74074219 0.62236328 -10.98148437 0.43222656 -10.19921875 0.23632812 C-9.46316406 0.06166016 -8.72710937 -0.11300781 -7.96875 -0.29296875 C-7.30294922 -0.4530542 -6.63714844 -0.61313965 -5.95117188 -0.77807617 C-3.72787443 -1.03095122 -2.12326214 -0.65952499 0 0 Z " fill="#CEF2FA" transform="translate(313,474)"/>
<path d="M0 0 C0.33 0 0.66 0 1 0 C1.3125 2.1875 1.3125 2.1875 1 5 C-2.3793571 9.19859518 -6.22666393 11.65836344 -11 14 C-11.66 13.67 -12.32 13.34 -13 13 C-12.14535156 12.22914063 -11.29070312 11.45828125 -10.41015625 10.6640625 C-9.29412924 9.65119765 -8.17825156 8.63816827 -7.0625 7.625 C-6.49853516 7.11710937 -5.93457031 6.60921875 -5.35351562 6.0859375 C-2.26615288 3.37315113 -2.26615288 3.37315113 0 0 Z " fill="#70C1D9" transform="translate(136,345)"/>
<path d="M0 0 C0.66 0 1.32 0 2 0 C3.2265625 1.28515625 3.2265625 1.28515625 4.625 3.0625 C7.51072145 6.565071 10.67503417 9.4375529 14.16796875 12.32421875 C16.07169971 14.0655846 17.51812062 15.8941714 19 18 C14.27910569 15.86479132 10.98654556 12.51757976 7.25 9 C6.55261719 8.35804688 5.85523437 7.71609375 5.13671875 7.0546875 C4.47800781 6.43851562 3.81929688 5.82234375 3.140625 5.1875 C2.53766602 4.62417969 1.93470703 4.06085938 1.31347656 3.48046875 C0 2 0 2 0 0 Z " fill="#65B4D2" transform="translate(76,410)"/>
<path d="M0 0 C0.99 0.33 1.98 0.66 3 1 C3 1.66 3 2.32 3 3 C3.66 3 4.32 3 5 3 C5.7425 4.4540625 5.7425 4.4540625 6.5 5.9375 C9.29249657 10.8749577 13.14648552 14.875243 17 19 C16.67 19.66 16.34 20.32 16 21 C0 3.62131519 0 3.62131519 0 0 Z " fill="#59B0D4" transform="translate(52,382)"/>
<path d="M0 0 C0.99 0.33 1.98 0.66 3 1 C-8.52164009 10.59453303 -8.52164009 10.59453303 -14 14 C-13.34 12.35 -12.68 10.7 -12 9 C-11.01 9 -10.02 9 -9 9 C-9 8.01 -9 7.02 -9 6 C-8.01 6 -7.02 6 -6 6 C-6 5.34 -6 4.68 -6 4 C-5.01 3.67 -4.02 3.34 -3 3 C-1.33289654 1.50014391 -1.33289654 1.50014391 0 0 Z " fill="#60B6D6" transform="translate(217,179)"/>
<path d="M0 0 C0.33 0 0.66 0 1 0 C0.81895467 7.73557339 -1.14832768 13.3199779 -5 20 C-5.66 20 -6.32 20 -7 20 C-4.80962826 13.27954125 -2.44234339 6.63275997 0 0 Z " fill="#C9F3FC" transform="translate(471,323)"/>
<path d="M0 0 C0.66 0 1.32 0 2 0 C2.33801152 2.54112232 2.67053379 5.08276746 3 7.625 C3.09539063 8.33785156 3.19078125 9.05070312 3.2890625 9.78515625 C3.81606101 13.88821609 4.10466984 17.85245742 4 22 C0.24077878 14.97120402 -0.24919576 7.84966639 0 0 Z " fill="#66BEDB" transform="translate(9,272)"/>
<path d="M0 0 C3.34373475 0.55728913 6.03312999 1.35173889 9 3 C6.07379384 5.27291362 3.05975788 7.23315875 -0.125 9.125 C-0.99382812 9.64320313 -1.86265625 10.16140625 -2.7578125 10.6953125 C-4.14874374 11.5046697 -5.56062547 12.28031273 -7 13 C-5.49616703 8.78926767 -2.79335044 7.16762883 1 5 C1.99 5 2.98 5 4 5 C4 4.01 4 3.02 4 2 C2.68 1.34 1.36 0.68 0 0 Z " fill="#68B1C4" transform="translate(116,243)"/>
<path d="M0 0 C0 3 0 3 -1.5390625 4.8671875 C-2.22742188 5.52976563 -2.91578125 6.19234375 -3.625 6.875 C-4.34945312 7.57367188 -5.07390625 8.27234375 -5.8203125 8.9921875 C-8.47296398 11.43566933 -11.18401748 13.74721398 -14 16 C-14.66 15.67 -15.32 15.34 -16 15 C-14.27399233 13.2467873 -12.54435703 11.49741929 -10.8125 9.75 C-10.08836914 9.01330078 -10.08836914 9.01330078 -9.34960938 8.26171875 C-6.38591145 5.27813023 -3.342921 2.56677663 0 0 Z " fill="#D9F8FE" transform="translate(204,192)"/>
<path d="M0 0 C0.33 0 0.66 0 1 0 C1 1.65 1 3.3 1 5 C0.34 5 -0.32 5 -1 5 C-0.938125 5.70125 -0.87625 6.4025 -0.8125 7.125 C-1.04256101 10.65260212 -2.29200568 12.93984351 -4 16 C-4.99 16 -5.98 16 -7 16 C-5.35433477 10.31497465 -2.70967216 5.23318364 0 0 Z " fill="#64C0DE" transform="translate(34,133)"/>
<path d="M0 0 C0.33 0.99 0.66 1.98 1 3 C-1.64868147 7.76762664 -5.06965792 11.24830983 -9 15 C-9.66 14.67 -10.32 14.34 -11 14 C-7.37 9.38 -3.74 4.76 0 0 Z " fill="#D9F6FC" transform="translate(187,208)"/>
<path d="M0 0 C0.33 0 0.66 0 1 0 C1.05425013 2.87525669 1.09379277 5.74947646 1.125 8.625 C1.14175781 9.43324219 1.15851563 10.24148437 1.17578125 11.07421875 C1.21420986 15.80093815 0.82737094 19.55387702 -1 24 C-1.33 24 -1.66 24 -2 24 C-2 20.04 -2 16.08 -2 12 C-1.34 12 -0.68 12 0 12 C0 8.04 0 4.08 0 0 Z " fill="#79C7E4" transform="translate(101,146)"/>
<path d="M0 0 C2.29141286 -0.05384521 4.58318188 -0.09272087 6.875 -0.125 C8.78925781 -0.15980469 8.78925781 -0.15980469 10.7421875 -0.1953125 C14 0 14 0 16 2 C11.05 2.33 6.1 2.66 1 3 C0.67 2.01 0.34 1.02 0 0 Z " fill="#3C9BB3" transform="translate(243,328)"/>
<path d="M0 0 C1.0076835 2.65212405 1.06404749 3.80961224 0.14453125 6.54296875 C-0.29503906 7.41566406 -0.73460937 8.28835938 -1.1875 9.1875 C-1.61417969 10.06792969 -2.04085938 10.94835937 -2.48046875 11.85546875 C-4 14 -4 14 -6.17578125 14.80078125 C-7.07876953 14.89939453 -7.07876953 14.89939453 -8 15 C-6.38102741 11.69918209 -4.64075691 8.47442567 -2.875 5.25 C-2.33617187 4.26515625 -1.79734375 3.2803125 -1.2421875 2.265625 C-0.83226562 1.51796875 -0.42234375 0.7703125 0 0 Z " fill="#6ABDDA" transform="translate(425,264)"/>
<path d="M0 0 C0.66 0 1.32 0 2 0 C2.33773437 0.89203125 2.67546875 1.7840625 3.0234375 2.703125 C3.46945313 3.87359375 3.91546875 5.0440625 4.375 6.25 C5.03628906 7.99023438 5.03628906 7.99023438 5.7109375 9.765625 C6.70590855 12.26209781 7.74410046 14.62904947 9 17 C8.34 17 7.68 17 7 17 C2.72179996 11.96763008 0.99561999 6.41951995 0 0 Z " fill="#6BBCDB" transform="translate(147,198)"/>
<path d="M0 0 C4.41309542 3.15221101 7.00793014 6.55463907 10 11 C9.67 11.66 9.34 12.32 9 13 C7.33333333 11.33333333 5.66666667 9.66666667 4 8 C3.4225 7.505 2.845 7.01 2.25 6.5 C0.55604291 4.4672515 0.34892641 2.58205543 0 0 Z " fill="#54ACC9" transform="translate(431,95)"/>
<path d="M0 0 C-8 4 -8 4 -16 8 C-15.67 6.68 -15.34 5.36 -15 4 C-14.01 4 -13.02 4 -12 4 C-12 3.34 -12 2.68 -12 2 C-10.56656 1.46809459 -9.12804633 0.94984742 -7.6875 0.4375 C-6.48673828 0.00244141 -6.48673828 0.00244141 -5.26171875 -0.44140625 C-3 -1 -3 -1 0 0 Z " fill="#5AB8D8" transform="translate(227,339)"/>
<path d="M0 0 C0.33 0 0.66 0 1 0 C1.11138159 5.45769811 0.91657981 10.61509359 0 16 C-0.66 16 -1.32 16 -2 16 C-2.2358396 10.22192976 -1.86783046 5.48675196 0 0 Z " fill="#6FC6E3" transform="translate(13,188)"/>
<path d="M0 0 C1.07765625 0.00902344 2.1553125 0.01804687 3.265625 0.02734375 C4.08546875 0.03894531 4.9053125 0.05054688 5.75 0.0625 C5.75 0.3925 5.75 0.7225 5.75 1.0625 C-0.36980533 2.46704548 -5.96739294 3.29518915 -12.25 3.0625 C-8.68685008 -0.50064992 -4.85839412 -0.05280863 0 0 Z " fill="#5CAFCE" transform="translate(264.25,359.9375)"/>
<path d="M0 0 C3.66172475 0.62678171 6.8818995 1.64451846 10.3125 3.0625 C11.19550781 3.42472656 12.07851562 3.78695313 12.98828125 4.16015625 C13.65214844 4.43730469 14.31601563 4.71445312 15 5 C15 5.33 15 5.66 15 6 C7.375 5.125 7.375 5.125 4 4 C3.67 3.34 3.34 2.68 3 2 C2.01 1.34 1.02 0.68 0 0 Z " fill="#64B5D6" transform="translate(161,465)"/>
<path d="M0 0 C0.33 0 0.66 0 1 0 C1.33278764 6.81598387 1.24201565 11.92122066 -2 18 C-3.51553092 14.02549507 -2.49888623 10.79518851 -1.5625 6.75 C-1.27503906 5.48671875 -0.98757813 4.2234375 -0.69140625 2.921875 C-0.46324219 1.95765625 -0.23507812 0.9934375 0 0 Z " fill="#CAF2FC" transform="translate(480,290)"/>
<path d="M0 0 C0.33 0.66 0.66 1.32 1 2 C-0.25868903 3.84169226 -1.53233526 5.67317031 -2.8125 7.5 C-3.52019531 8.5209375 -4.22789062 9.541875 -4.95703125 10.59375 C-5.63121094 11.3878125 -6.30539062 12.181875 -7 13 C-7.99 13 -8.98 13 -10 13 C-5.05 6.565 -5.05 6.565 0 0 Z " fill="#7BC2DD" transform="translate(416,279)"/>
<path d="M0 0 C0.66 0.33 1.32 0.66 2 1 C-2.81776765 8.66742597 -2.81776765 8.66742597 -8 10 C-5.83735988 6.01618925 -3.28788824 3.11016455 0 0 Z " fill="#DDFAFE" transform="translate(111,254)"/>
<path d="M0 0 C1.68178661 2.52267991 2.90106742 4.81091823 4.125 7.5625 C4.47820312 8.34753906 4.83140625 9.13257813 5.1953125 9.94140625 C6 12 6 12 6 14 C5.34 14 4.68 14 4 14 C3.34 12.02 2.68 10.04 2 8 C1.34 8 0.68 8 0 8 C0 5.36 0 2.72 0 0 Z " fill="#67B9D8" transform="translate(95,214)"/>
<path d="M0 0 C0.66 0 1.32 0 2 0 C0.58707905 4.8274799 -1.42974154 8.7162359 -4 13 C-4.33 11.68 -4.66 10.36 -5 9 C-4.34 9 -3.68 9 -3 9 C-3 7.35 -3 5.7 -3 4 C-2.34 3.67 -1.68 3.34 -1 3 C-0.67 2.01 -0.34 1.02 0 0 Z " fill="#60B9DC" transform="translate(462,342)"/>
<path d="M0 0 C2.375 0.3125 2.375 0.3125 5 1 C5.66 1.99 6.32 2.98 7 4 C9.05003955 5.19232613 9.05003955 5.19232613 11 6 C5.70558305 6.50423019 3.18586481 5.18923033 -1 2 C-0.67 1.34 -0.34 0.68 0 0 Z " fill="#20ABD9" transform="translate(353,248)"/>
<path d="M0 0 C3.45524469 2.30349646 4.04969447 3.76206547 5.6875 7.5 C6.12449219 8.4796875 6.56148438 9.459375 7.01171875 10.46875 C8 13 8 13 8 15 C7.01 14.67 6.02 14.34 5 14 C3.8671875 11.6015625 3.8671875 11.6015625 2.875 8.625 C2.54242188 7.64789063 2.20984375 6.67078125 1.8671875 5.6640625 C1.58101563 4.78492188 1.29484375 3.90578125 1 3 C0.67 2.01 0.34 1.02 0 0 Z " fill="#65B3D0" transform="translate(458,137)"/>
<path d="M0 0 C3.12270126 2.51830747 3.94523098 3.7261549 4.75 7.75 C4.8325 8.8225 4.915 9.895 5 11 C4.01 11.495 4.01 11.495 3 12 C3 11.34 3 10.68 3 10 C2.34 10 1.68 10 1 10 C1.020625 9.278125 1.04125 8.55625 1.0625 7.8125 C1.00179441 5.08074862 0.60741465 2.65743909 0 0 Z " fill="#43B1CF" transform="translate(441,108)"/>
<path d="M0 0 C-1.423125 0.86625 -1.423125 0.86625 -2.875 1.75 C-5.76134098 3.82816551 -6.84095741 4.75468075 -8 8 C-8.66 7.34 -9.32 6.68 -10 6 C-9.67 5.01 -9.34 4.02 -9 3 C-8.34 3 -7.68 3 -7 3 C-6.67 2.01 -6.34 1.02 -6 0 C-3.42525708 -0.99667468 -2.51072708 -1.25536354 0 0 Z " fill="#63C2E3" transform="translate(90,365)"/>
<path d="M0 0 C0.66 0 1.32 0 2 0 C0.64978174 4.41889613 -1.26115668 6.34345343 -5 9 C-5 7.35 -5 5.7 -5 4 C-4.01 3.67 -3.02 3.34 -2 3 C-1.34 2.01 -0.68 1.02 0 0 Z " fill="#56BBDC" transform="translate(97,354)"/>
<path d="M0 0 C4.4114727 3.23507998 4.84694558 6.84557192 5.703125 11.953125 C5.80109375 12.62859375 5.8990625 13.3040625 6 14 C2.70271893 9.79758295 0 5.47038401 0 0 Z " fill="#60B5D6" transform="translate(23,328)"/>
<path d="M0 0 C0.33 0 0.66 0 1 0 C1.43177893 6.26079448 0.92739438 9.09075703 -3 14 C-4 12 -4 12 -3.22265625 9.1796875 C-2.83980469 8.08914063 -2.45695312 6.99859375 -2.0625 5.875 C-1.68222656 4.77929688 -1.30195313 3.68359375 -0.91015625 2.5546875 C-0.60980469 1.71164062 -0.30945313 0.86859375 0 0 Z " fill="#C2EEFA" transform="translate(476,308)"/>
<path d="M0 0 C0.66 1.32 1.32 2.64 2 4 C1.67 4.33 1.34 4.66 1 5 C0.71681146 7.84087552 0.55149787 10.68165215 0.37890625 13.53125 C0.25386719 14.3459375 0.12882813 15.160625 0 16 C-0.66 16.33 -1.32 16.66 -2 17 C-1.85941524 14.54126232 -1.71277001 12.08314825 -1.5625 9.625 C-1.52318359 8.92632812 -1.48386719 8.22765625 -1.44335938 7.5078125 C-1.11328125 2.2265625 -1.11328125 2.2265625 0 0 Z " fill="#4CBBE2" transform="translate(147,300)"/>
<path d="M0 0 C0.66 0 1.32 0 2 0 C0.50829734 4.9723422 -1.60457417 9.41845739 -4 14 C-5.58137059 9.25588824 -2.91444411 5.87701686 -0.8125 1.5625 C-0.544375 1.046875 -0.27625 0.53125 0 0 Z " fill="#DBF9FD" transform="translate(33,131)"/>
<path d="M0 0 C3.65882521 3.3621637 6.14420341 6.36050852 8 11 C7.67 11.66 7.34 12.32 7 13 C1.62870159 4.738041 1.62870159 4.738041 0 0 Z " fill="#6CC3DD" transform="translate(93,131)"/>
<path d="M0 0 C3.63 0 7.26 0 11 0 C7.96474514 2.02350324 6.80573798 2.32124018 3.3125 2.625 C2.50425781 2.69976562 1.69601563 2.77453125 0.86328125 2.8515625 C0.24839844 2.90054687 -0.36648437 2.94953125 -1 3 C-0.67 2.01 -0.34 1.02 0 0 Z " fill="#57B9E3" transform="translate(206,10)"/>
<path d="M0 0 C2.97 0.495 2.97 0.495 6 1 C6 1.99 6 2.98 6 4 C4.63875 3.9690625 4.63875 3.9690625 3.25 3.9375 C0.57327412 3.9889755 -1.46988052 4.2215017 -4 5 C-2.68 3.35 -1.36 1.7 0 0 Z " fill="#1EA1CE" transform="translate(359,236)"/>
<path d="M0 0 C2.97 0 5.94 0 9 0 C9 0.33 9 0.66 9 1 C7.35 1.33 5.7 1.66 4 2 C4.66 3.32 5.32 4.64 6 6 C4.02 5.34 2.04 4.68 0 4 C0 2.68 0 1.36 0 0 Z " fill="#C8F7FD" transform="translate(83,121)"/>
<path d="M0 0 C0.66 0.33 1.32 0.66 2 1 C0.02 1.99 0.02 1.99 -2 3 C-2 3.66 -2 4.32 -2 5 C-7.625 7 -7.625 7 -11 7 C-8.84658594 4.65082102 -6.78332063 3.17556996 -3.9375 1.75 C-3.24527344 1.39421875 -2.55304688 1.0384375 -1.83984375 0.671875 C-1.23269531 0.45015625 -0.62554687 0.2284375 0 0 Z " fill="#4BBADF" transform="translate(126,40)"/>
<path d="M0 0 C0.66 0.33 1.32 0.66 2 1 C-0.95600447 3.49618156 -3.77886965 5.85257977 -7 8 C-7.99 7.67 -8.98 7.34 -10 7 C-6.7 4.69 -3.4 2.38 0 0 Z " fill="#DFF8FD" transform="translate(382,439)"/>
<path d="M0 0 C0.66 0.33 1.32 0.66 2 1 C-0.64 3.97 -3.28 6.94 -6 10 C-7 8 -7 8 -6.875 6.0625 C-5.63977691 3.15090271 -3.73809484 2.43749979 -1 1 C-0.67 0.67 -0.34 0.34 0 0 Z " fill="#4EB4DA" transform="translate(202,352)"/>
<path d="M0 0 C0.33 0.99 0.66 1.98 1 3 C-0.125 5.125 -0.125 5.125 -2 7 C-4.6875 7.75 -4.6875 7.75 -7 8 C-6.02133662 6.85373678 -5.04205413 5.70800212 -4.0625 4.5625 C-3.51722656 3.92441406 -2.97195313 3.28632813 -2.41015625 2.62890625 C-1.63204305 1.73008851 -0.84063472 0.84063472 0 0 Z " fill="#7CC8E2" transform="translate(397,302)"/>
<path d="M0 0 C4.98012761 1.50912958 8.24259942 4.55661849 12 8 C8.21516391 8 7.22592069 6.89417485 4.3125 4.5625 C3.50425781 3.92441406 2.69601563 3.28632813 1.86328125 2.62890625 C1.24839844 2.09136719 0.63351563 1.55382812 0 1 C0 0.67 0 0.34 0 0 Z " fill="#6BAFCA" transform="translate(95,428)"/>
<path d="M0 0 C0.33 0.66 0.66 1.32 1 2 C-0.3125 4 -0.3125 4 -2 6 C-2.99 6 -3.98 6 -5 6 C-5.33 4.35 -5.66 2.7 -6 1 C-4.7934375 1.0309375 -4.7934375 1.0309375 -3.5625 1.0625 C-1.06645115 1.29633621 -1.06645115 1.29633621 0 0 Z " fill="#42ADCD" transform="translate(371,248)"/>
<path d="M0 0 C0.33 0 0.66 0 1 0 C1.02708567 1.60407328 1.04643483 3.2082785 1.0625 4.8125 C1.07410156 5.70582031 1.08570312 6.59914062 1.09765625 7.51953125 C1 10 1 10 0 13 C-0.66 13 -1.32 13 -2 13 C-1.48041715 8.62065881 -0.94324258 4.31196609 0 0 Z " fill="#C5EDFB" transform="translate(100,165)"/>
<path d="M0 0 C0.33 0 0.66 0 1 0 C2.59162079 5.57067277 3.20674944 10.21101581 3 16 C2.67 16 2.34 16 2 16 C0.13216954 10.51324804 -0.2358396 5.77807024 0 0 Z " fill="#DCF5F3" transform="translate(5,256)"/>
<path d="M0 0 C0.66 0.33 1.32 0.66 2 1 C1.67 4.3 1.34 7.6 1 11 C-1 10 -1 10 -1.75 7.75 C-2.03830777 4.57861448 -1.37610249 2.83315218 0 0 Z " fill="#D6F5FA" transform="translate(347,238)"/>
<path d="M0 0 C0.66 0 1.32 0 2 0 C1.71640113 1.4391134 1.42278601 2.87625518 1.125 4.3125 C0.88136719 5.51326172 0.88136719 5.51326172 0.6328125 6.73828125 C0 9 0 9 -2 12 C-2.21278058 7.53160785 -1.59138085 4.17737474 0 0 Z " fill="#D7F7FD" transform="translate(17,167)"/>
<path d="M0 0 C4.92127034 -0.16682272 8.50343896 -0.24828052 13 2 C13 2.33 13 2.66 13 3 C11.58249437 2.88490339 10.16598831 2.75746342 8.75 2.625 C7.96109375 2.55539063 7.1721875 2.48578125 6.359375 2.4140625 C3.914123 1.98492887 2.15163097 1.21399362 0 0 Z " fill="#77B8D4" transform="translate(293,132)"/>
<path d="M0 0 C-1 1.5 -1 1.5 -3 3 C-5.71846235 3.27345479 -8.25677199 3.13491285 -11 3 C-3.71428571 -1.85714286 -3.71428571 -1.85714286 0 0 Z " fill="#79C3E0" transform="translate(176,18)"/>
<path d="M0 0 C0.75 1.75 0.75 1.75 1 4 C-0.8125 6.25 -0.8125 6.25 -3 8 C-3.66 8 -4.32 8 -5 8 C-3.62845496 5.04590299 -2.01136276 2.55991624 0 0 Z " fill="#D3F2FC" transform="translate(436,388)"/>
<path d="M0 0 C0.99928333 2.698065 1.03624754 3.88010429 0.1875 6.6875 C-1 9 -1 9 -3 10 C-2.49287967 6.28111761 -1.88391785 3.26545761 0 0 Z " fill="#CCF6FD" transform="translate(99,269)"/>
<path d="M0 0 C1.4540625 0.0309375 1.4540625 0.0309375 2.9375 0.0625 C2.9375 2.0425 2.9375 4.0225 2.9375 6.0625 C2.2775 6.0625 1.6175 6.0625 0.9375 6.0625 C0.6075 4.7425 0.2775 3.4225 -0.0625 2.0625 C-1.3825 1.7325 -2.7025 1.4025 -4.0625 1.0625 C-3.0625 0.0625 -3.0625 0.0625 0 0 Z " fill="#82CFEC" transform="translate(360.0625,239.9375)"/>
<path d="M0 0 C2.45823172 3.68734758 3.01242616 6.69699971 4 11 C2 9.4375 2 9.4375 0 7 C-0.25 3.25 -0.25 3.25 0 0 Z " fill="#73BCD6" transform="translate(470,162)"/>
<path d="M0 0 C0.33 0.66 0.66 1.32 1 2 C-0.1875 5.5625 -0.1875 5.5625 -2 9 C-4.11328125 9.71484375 -4.11328125 9.71484375 -6 10 C-5.18957164 8.51969728 -4.37659652 7.04078858 -3.5625 5.5625 C-2.88380859 4.32693359 -2.88380859 4.32693359 -2.19140625 3.06640625 C-1 1 -1 1 0 0 Z " fill="#7AC9E3" transform="translate(48,110)"/>
<path d="M0 0 C1.2077558 3.62326739 0.54311128 4.64146369 -1 8 C-1.99 8 -2.98 8 -4 8 C-2.87548273 5.0280615 -1.77706209 2.66559313 0 0 Z " fill="#CDF5FC" transform="translate(453,363)"/>
<path d="M0 0 C1.13757948 4.55031791 0.4283779 6.63084406 -1 11 C-1.66 11 -2.32 11 -3 11 C-2.01 7.37 -1.02 3.74 0 0 Z " fill="#C2EFFA" transform="translate(101,347)"/>
<path d="M0 0 C1.5 1.375 1.5 1.375 3 3 C3 3.66 3 4.32 3 5 C3.66 5 4.32 5 5 5 C5 6.65 5 8.3 5 10 C2.08772731 6.71195019 0.50298788 4.40114397 0 0 Z " fill="#58B2D7" transform="translate(31,346)"/>
<path d="M0 0 C1.9375 0.125 1.9375 0.125 4 1 C5.25 3.5625 5.25 3.5625 6 6 C3.11562221 4.70700306 1.12780579 3.34058637 -1 1 C-0.67 0.67 -0.34 0.34 0 0 Z " fill="#DDF4FB" transform="translate(207,299)"/>
<path d="M0 0 C0.99 0.33 1.98 0.66 3 1 C1.02 5.455 1.02 5.455 -1 10 C-1.33 10 -1.66 10 -2 10 C-2.22036864 6.14354879 -1.60355101 3.50776784 0 0 Z " fill="#DEF9FD" transform="translate(25,146)"/>
<path d="M0 0 C1.98 0.66 3.96 1.32 6 2 C6 2.66 6 3.32 6 4 C6.99 4.33 7.98 4.66 9 5 C8.01 5.495 8.01 5.495 7 6 C5.83054208 5.19152271 4.66449539 4.37810888 3.5 3.5625 C2.8503125 3.11003906 2.200625 2.65757812 1.53125 2.19140625 C1.0259375 1.79824219 0.520625 1.40507812 0 1 C0 0.67 0 0.34 0 0 Z " fill="#66ACCD" transform="translate(107,437)"/>
<path d="M0 0 C0.66 0 1.32 0 2 0 C1.1875 2.9375 1.1875 2.9375 0 6 C-0.99 6.33 -1.98 6.66 -3 7 C-1.125 1.125 -1.125 1.125 0 0 Z " fill="#D5F8FD" transform="translate(467,336)"/>
<path d="M0 0 C-4.1205746 1.99785435 -7.45194365 2.17835515 -12 2 C-7.89783794 -0.73477471 -4.73617773 -1.57872591 0 0 Z " fill="#D3ECF1" transform="translate(249,333)"/>
<path d="M0 0 C6.52307692 1.47692308 6.52307692 1.47692308 8.9375 4.125 C9.288125 4.74375 9.63875 5.3625 10 6 C6.40992874 4.66654496 3.20429093 3.1056769 0 1 C0 0.67 0 0.34 0 0 Z " fill="#72B2CE" transform="translate(339,150)"/>
</svg>
