<?xml version="1.0" encoding="UTF-8"?>
<svg version="1.1" xmlns="http://www.w3.org/2000/svg" width="328" height="482">
<path d="M0 0 C0.78180634 0.19222137 1.56361267 0.38444275 2.36911011 0.58248901 C5.2853391 1.31985652 8.18720031 2.11319013 11.08984375 2.90234375 C60.38488367 16.29928567 109.69320842 29.64607728 159 43 C159 128.47 159 213.94 159 302 C138.21 307.61 117.42 313.22 96 319 C66.99064591 326.84616641 66.99064591 326.84616641 37.99076843 334.72723389 C33.52842431 335.94339969 29.06549514 337.15741014 24.60250854 338.37121582 C22.47275704 338.95110334 20.34329475 339.53205422 18.21414185 340.11413574 C15.27628378 340.91726551 12.33747319 341.71681731 9.3984375 342.515625 C8.53205154 342.75349731 7.66566559 342.99136963 6.77302551 343.2364502 C5.96540268 343.45522827 5.15777985 343.67400635 4.32568359 343.89941406 C3.63107025 344.08892639 2.93645691 344.27843872 2.22079468 344.47369385 C-3.42017848 345.81054813 -7.17838704 346.00731762 -12.83935547 344.45214844 C-13.8280941 344.18594554 -13.8280941 344.18594554 -14.83680725 343.91436481 C-17.01693883 343.32426899 -19.19186363 342.71693264 -21.3671875 342.109375 C-22.90914512 341.68826674 -24.45139827 341.26823932 -25.993927 340.84922791 C-30.10867748 339.72829434 -34.21918849 338.59250446 -38.32904053 337.45376205 C-42.57372084 336.28043429 -46.82219147 335.12100068 -51.0703125 333.96020508 C-58.52163414 331.92205794 -65.96985447 329.87287346 -73.41628647 327.81693935 C-79.90322813 326.02596158 -86.39253621 324.24369969 -92.8828125 322.46484375 C-98.55499802 320.90917958 -104.22619211 319.35004192 -109.89550781 317.78395081 C-117.96401104 315.55511118 -126.04063939 313.35826161 -134.125 311.1875 C-135.13941162 310.91494385 -136.15382324 310.6423877 -137.19897461 310.36157227 C-141.1984975 309.28758051 -145.19826989 308.21453715 -149.19873047 307.14404297 C-152.32085435 306.3075494 -155.44178071 305.4667162 -158.5625 304.625 C-159.50432129 304.37387451 -160.44614258 304.12274902 -161.41650391 303.86401367 C-162.27034668 303.63302979 -163.12418945 303.4020459 -164.00390625 303.1640625 C-164.75486572 302.96248535 -165.5058252 302.7609082 -166.27954102 302.55322266 C-168 302 -168 302 -169 301 C-169.09646433 299.61864671 -169.12371904 298.2323878 -169.12304783 296.84767056 C-169.12503888 295.94696345 -169.12702993 295.04625634 -169.12908131 294.11825508 C-169.12616847 293.11730326 -169.12325563 292.11635144 -169.12025452 291.08506775 C-169.12110894 290.03065682 -169.12196337 288.97624588 -169.12284368 287.8898831 C-169.12450163 284.32753218 -169.11897199 280.7652275 -169.11352539 277.20288086 C-169.11324356 274.66089377 -169.11340117 272.1189066 -169.1139679 269.57691956 C-169.11419622 264.08918091 -169.11134471 258.60145738 -169.10573006 253.11372185 C-169.09761738 245.17929198 -169.09500008 237.24486786 -169.09374207 229.31043429 C-169.09155118 216.43864239 -169.0848901 203.56685682 -169.07543945 190.69506836 C-169.06626628 178.18823274 -169.05918499 165.68139884 -169.05493164 153.17456055 C-169.05466892 152.40417841 -169.05440619 151.63379628 -169.05413551 150.84006923 C-169.05283051 146.97544949 -169.05156679 143.11082974 -169.05032361 139.24620998 C-169.03994985 107.16413539 -169.02233054 75.08206857 -169 43 C-164.17458471 41.65165781 -159.34858258 40.30544159 -154.52207947 38.96099854 C-152.88819774 38.5055763 -151.2544639 38.04962305 -149.62089539 37.59307861 C-136.31295431 33.87442351 -122.96458533 30.36460061 -109.56640625 26.984375 C-103.88036294 25.52197663 -98.23800658 23.9375911 -92.59765625 22.30859375 C-78.77892653 18.32144728 -64.8839551 14.61461182 -50.99481201 10.88232422 C-46.74038049 9.73869539 -42.48655627 8.59281004 -38.23263741 7.44727612 C-34.92622422 6.55693934 -31.6197012 5.66701823 -28.31295776 4.77790833 C-27.12026276 4.45714828 -25.92756775 4.13638824 -24.69873047 3.8059082 C-23.56304626 3.5039151 -22.42736206 3.201922 -21.25726318 2.89077759 C-19.13802999 2.31122189 -17.02634879 1.70304247 -14.92486572 1.06210327 C-9.48621411 -0.57185196 -5.64275973 -1.39860588 0 0 Z " fill="#000000" transform="translate(169,1)"/>
<path d="M0 0 C0.71430176 0.22993652 1.42860352 0.45987305 2.16455078 0.69677734 C15.87202313 5.29195135 28.06003559 12.62006661 39 22 C39.61101562 22.47824219 40.22203125 22.95648438 40.8515625 23.44921875 C46.41928019 27.88559654 50.66549017 33.39063433 55 39 C55.60972656 39.77085938 56.21945312 40.54171875 56.84765625 41.3359375 C72.43662611 62.1449041 79.23723055 90.26611217 77 116 C76.35107878 120.42296462 75.29052782 124.72128574 74 129 C71.94921743 126.32191923 70.06833513 123.58987171 68.25 120.75 C59.47325115 107.65998338 47.65854587 99.12835874 32.19702148 95.41235352 C18.21643918 92.78837268 3.356932 94.89447886 -8.8125 102.25 C-22.62880416 111.80576984 -31.31661107 122.88034242 -35.609375 139.3359375 C-38.20057865 157.00794637 -34.98475735 172.46665892 -24.57421875 186.9375 C-24.05472656 187.618125 -23.53523437 188.29875 -23 189 C-24.87756478 192.32008407 -26.79107772 195.0648402 -29.5 197.75 C-30.38171875 198.63945312 -30.38171875 198.63945312 -31.28125 199.546875 C-33 201 -33 201 -36 202 C-36.969375 201.690625 -37.93875 201.38125 -38.9375 201.0625 C-48.46886063 198.12668006 -58.63841974 199.73550487 -67.375 204.21875 C-78.77491869 211.15113299 -82.50361228 220.76264297 -86 233 C-117.68 233 -149.36 233 -182 233 C-182.33 225.74 -182.66 218.48 -183 211 C-185.2587074 202.31266383 -189.27563744 193.14957504 -197 188 C-196.03144194 182.50783554 -194.38431271 177.20174304 -192.81640625 171.85742188 C-190.35217796 163.21804164 -189.72967486 154.82542786 -189.625 145.875 C-189.61082031 144.82820068 -189.59664062 143.78140137 -189.58203125 142.70288086 C-189.62722546 135.19216889 -190.92045352 128.74506058 -193 121.5625 C-195.31231399 113.07276872 -195.01696577 108.1776436 -190.72802734 100.51269531 C-189.90650871 99.09596443 -189.07967487 97.68230475 -188.24804688 96.27148438 C-185.96823992 92.12216436 -184.32123333 87.72506306 -182.625 83.3125 C-182.25576416 82.36810059 -181.88652832 81.42370117 -181.50610352 80.45068359 C-179.31677849 74.75310669 -177.31006551 69.01233126 -175.41796875 63.2109375 C-175.2003186 62.5455748 -174.98266846 61.8802121 -174.75842285 61.19468689 C-173.69349878 57.92835119 -172.64759969 54.65830633 -171.62548828 51.37817383 C-166.36371558 34.95190012 -158.13432484 24.38548536 -143 16 C-134.04303047 11.7371165 -125.04542304 8.55288 -115.4375 6.0625 C-114.49449539 5.81777954 -114.49449539 5.81777954 -113.53244019 5.56811523 C-108.70119683 4.32346709 -103.85468217 3.1494178 -99 2 C-98.2831604 1.82861511 -97.5663208 1.65723022 -96.82775879 1.48065186 C-65.433663 -5.97634269 -31.30271635 -10.16583393 0 0 Z " fill="#FEFEFE" transform="translate(224,42)"/>
<path d="M0 0 C5.93865446 0.6598505 11.06800423 1.36009087 16.6953125 2.9765625 C17.41967499 3.17820007 18.14403748 3.37983765 18.89035034 3.58758545 C20.46925369 4.02790979 22.0472821 4.4713811 23.62451172 4.91766357 C27.11971314 5.90638378 30.61932582 6.8790813 34.11859131 7.853302 C36.02852429 8.38527316 37.93822737 8.9180703 39.84771729 9.45162964 C51.88377034 12.81315322 63.9423496 16.09197429 76 19.375 C78.33399112 20.0108802 80.66797548 20.6467852 83.00195312 21.28271484 C87.67790502 22.5565591 92.35402735 23.82977524 97.03027344 25.10253906 C101.66404285 26.36378927 106.2974922 27.62620495 110.93066406 28.88964844 C116.45573787 30.39618641 121.98150892 31.90014021 127.5078125 33.40216064 C129.55589465 33.95921557 131.60375344 34.51709247 133.65136719 35.0758667 C136.48829301 35.84982585 139.32606807 36.62059489 142.1640625 37.390625 C142.97219391 37.61185028 143.78032532 37.83307556 144.61294556 38.06100464 C146.20771738 38.49232886 147.80588691 38.91126819 149.40705872 39.31819153 C151.28728175 39.81259223 153.15401774 40.35922702 155.01029968 40.9370575 C163.8945293 43.4631326 170.23664432 42.4842157 179.00390625 39.92578125 C180.32048797 39.56523767 181.63781254 39.20739739 182.95581055 38.85206604 C186.44704222 37.90296906 189.9269555 36.91745383 193.40581131 35.92409515 C197.04233453 34.89284758 200.68846212 33.89673733 204.33374023 32.89697266 C210.71948446 31.14061059 217.09729649 29.35750808 223.47104549 27.55814362 C228.73572301 26.07227726 234.00641501 24.60948086 239.28125 23.16015625 C244.72896379 21.66014565 250.17265994 20.1466193 255.61328125 18.62109375 C267.22405685 15.36914021 278.84787169 12.16444574 290.47579956 8.97442627 C292.97012732 8.28913305 295.4638933 7.60179139 297.95706177 6.91229248 C301.45432609 5.94537626 304.95346929 4.98556298 308.453125 4.02734375 C309.5004631 3.73618179 310.54780121 3.44501984 311.62687683 3.14503479 C313.10563042 2.74247719 313.10563042 2.74247719 314.61425781 2.33178711 C315.46497864 2.09769638 316.31569946 1.86360565 317.19219971 1.62242126 C320.74882687 0.83400323 324.38516564 0.4518543 328 0 C328 14.52 328 29.04 328 44 C309.64650848 49.7354661 309.64650848 49.7354661 301.5234375 51.8828125 C300.58191833 52.13489471 299.64039917 52.38697693 298.67034912 52.646698 C296.63626239 53.19100931 294.60178775 53.73387275 292.56695557 54.27539062 C286.90209992 55.7832169 281.24036205 57.30268834 275.578125 58.8203125 C274.35799713 59.14702942 273.13786926 59.47374634 271.88076782 59.81036377 C256.38540278 63.96260068 240.90498418 68.16996887 225.42401886 72.37551117 C222.41222688 73.19361253 219.40033767 74.01135559 216.38843727 74.82905769 C214.21220508 75.41995922 212.03604877 76.01113961 209.8598938 76.60232544 C207.07614024 77.35846085 204.29199719 78.11313671 201.50753784 78.8666687 C195.42727894 80.51361832 189.35228096 82.17529394 183.29199219 83.89453125 C182.27990692 84.1790918 181.26782166 84.46365234 180.22506714 84.75683594 C178.39779646 85.27196131 176.57247227 85.79407535 174.74978638 86.32519531 C173.95176605 86.54916992 173.15374573 86.77314453 172.33154297 87.00390625 C171.65735321 87.19799072 170.98316345 87.3920752 170.2885437 87.59204102 C164.71521853 88.58554971 159.78274272 87.90770089 154.37011719 86.44628906 C153.74479253 86.28000315 153.11946787 86.11371723 152.47519398 85.94239235 C150.41340837 85.39182371 148.35523367 84.82885798 146.296875 84.265625 C144.83230041 83.87160704 143.36752834 83.47832247 141.90257263 83.08572388 C137.99112313 82.0350127 134.08274524 80.97328274 130.17492294 79.90917206 C126.9322432 79.0277074 123.68779132 78.15287152 120.44329739 77.27811241 C100.64837805 71.94059457 80.87789107 66.51695621 61.14501953 60.95410156 C48.81035278 57.47960804 36.44042534 54.15515868 24.03588867 50.93896484 C22.76849854 50.60848145 21.5011084 50.27799805 20.1953125 49.9375 C19.11266113 49.65777344 18.03000977 49.37804687 16.91455078 49.08984375 C11.2423567 47.51065737 5.62755142 45.73155428 0 44 C0 29.48 0 14.96 0 0 Z " fill="#000000" transform="translate(0,311)"/>
<path d="M0 0 C21.98118453 0.02131509 21.98118453 0.02131509 28.70874023 4.00292969 C33.04328362 8.89676899 33.01117926 14.02015786 33.02124023 20.25292969 C33.04573242 21.05537109 33.07022461 21.8578125 33.09545898 22.68457031 C33.1144534 26.49928239 33.08897734 28.55167902 30.87280273 31.74902344 C28.64624023 33.19042969 28.64624023 33.19042969 24.64624023 33.19042969 C24.64624023 33.85042969 24.64624023 34.51042969 24.64624023 35.19042969 C25.40936523 35.27292969 26.17249023 35.35542969 26.95874023 35.44042969 C29.64624023 36.19042969 29.64624023 36.19042969 31.39624023 37.81542969 C34.70799841 44.10777021 33.79709035 52.15483124 33.77124023 59.06542969 C33.77704102 60.65097656 33.77704102 60.65097656 33.78295898 62.26855469 C33.78166992 63.27144531 33.78038086 64.27433594 33.77905273 65.30761719 C33.7779248 66.22140137 33.77679688 67.13518555 33.77563477 68.07666016 C33.64624023 70.19042969 33.64624023 70.19042969 32.64624023 71.19042969 C29.78154698 71.26373299 26.9473035 71.282608 24.08374023 71.25292969 C21.29936523 71.23230469 18.51499023 71.21167969 15.64624023 71.19042969 C15.31624023 61.29042969 14.98624023 51.39042969 14.64624023 41.19042969 C13.32624023 40.53042969 12.00624023 39.87042969 10.64624023 39.19042969 C10.64624023 49.75042969 10.64624023 60.31042969 10.64624023 71.19042969 C7.69686523 71.21105469 4.74749023 71.23167969 1.70874023 71.25292969 C0.3128064 71.26658569 0.3128064 71.26658569 -1.11132812 71.28051758 C-2.20392944 71.28426392 -2.20392944 71.28426392 -3.31860352 71.28808594 C-4.06746826 71.29332275 -4.81633301 71.29855957 -5.58789062 71.30395508 C-7.35375977 71.19042969 -7.35375977 71.19042969 -8.35375977 70.19042969 C-8.4532827 68.04842645 -8.48175655 65.90310264 -8.4831543 63.75878906 C-8.48490662 63.08725296 -8.48665894 62.41571686 -8.48846436 61.72383118 C-8.49288206 59.49392141 -8.48994519 57.26409032 -8.48657227 55.03417969 C-8.48724533 53.49100733 -8.48821537 51.94783508 -8.48947144 50.40466309 C-8.4909483 47.16641228 -8.48879423 43.92818902 -8.48413086 40.68994141 C-8.47843357 36.53000446 -8.48171264 32.37013203 -8.48770332 28.21019745 C-8.49130925 25.02243561 -8.4901702 21.83468917 -8.48757553 18.64692688 C-8.48690635 17.11265556 -8.48773438 15.57838287 -8.49005508 14.04411316 C-8.49258214 11.90339428 -8.48874031 9.76278126 -8.4831543 7.62207031 C-8.4823587 6.40152954 -8.48156311 5.18098877 -8.48074341 3.92346191 C-8.23231768 -1.42333316 -4.45928559 0.0353881 0 0 Z M10.64624023 12.19042969 C10.64624023 17.14042969 10.64624023 22.09042969 10.64624023 27.19042969 C11.96624023 27.52042969 13.28624023 27.85042969 14.64624023 28.19042969 C16.01156573 27.05341372 16.01156573 27.05341372 15.74389648 24.03027344 C15.73229492 22.7425 15.72069336 21.45472656 15.70874023 20.12792969 C15.6997168 18.83757812 15.69069336 17.54722656 15.68139648 16.21777344 C15.66979492 15.21875 15.65819336 14.21972656 15.64624023 13.19042969 C13.99624023 12.86042969 12.34624023 12.53042969 10.64624023 12.19042969 Z " fill="#000000" transform="translate(214.353759765625,409.8095703125)"/>
<path d="M0 0 C3.14581423 -0.02888514 6.29159469 -0.04675923 9.4375 -0.0625 C10.33533203 -0.07087891 11.23316406 -0.07925781 12.15820312 -0.08789062 C13.01220703 -0.09111328 13.86621094 -0.09433594 14.74609375 -0.09765625 C15.93223267 -0.10551147 15.93223267 -0.10551147 17.14233398 -0.11352539 C19 0 19 0 20 1 C20.69425281 5.30933568 21.0990633 9.66052197 21.5625 14 C21.69889893 15.26682617 21.83529785 16.53365234 21.97583008 17.83886719 C22.93864741 27.26883109 23.36518243 36.53230728 23 46 C23.66 46 24.32 46 25 46 C24.97679688 44.73929687 24.95359375 43.47859375 24.9296875 42.1796875 C24.80749 32.35652408 25.03119359 22.66147629 25.9375 12.875 C26.02435059 11.93382324 26.11120117 10.99264648 26.20068359 10.02294922 C26.55231838 6.48775217 26.87233537 3.3829939 28 0 C34.27 0 40.54 0 47 0 C46.37075753 12.96938646 44.71832487 25.74650848 42.98876953 38.61083984 C42.49560093 42.28275349 42.01095276 45.95572254 41.52734375 49.62890625 C41.21664139 51.96621176 40.90546118 54.30345381 40.59375 56.640625 C40.44893188 57.73739563 40.30411377 58.83416626 40.15490723 59.96417236 C39.94964417 61.48285919 39.94964417 61.48285919 39.74023438 63.03222656 C39.62111694 63.92186096 39.50199951 64.81149536 39.37927246 65.72808838 C39 68 39 68 38 71 C28.76 71 19.52 71 10 71 C8.69133534 62.62941886 7.38654166 54.25826208 6.08848572 45.8860302 C5.48554568 41.99818529 4.88093649 38.11061554 4.27246094 34.22363281 C3.68493394 30.47006366 3.10185924 26.71582717 2.52182007 22.9610939 C2.30013314 21.5311854 2.07686322 20.10152136 1.85195923 18.67211533 C1.53639537 16.66472092 1.22706116 14.65635025 0.91796875 12.64794922 C0.65149536 10.9358577 0.65149536 10.9358577 0.37963867 9.18917847 C0.01084309 6.09108805 -0.06918141 3.11643849 0 0 Z " fill="#000000" transform="translate(1,410)"/>
<path d="M0 0 C8.58 0 17.16 0 26 0 C27.3148576 4.60200161 28.35729898 8.59057264 29.05322266 13.23901367 C29.23325836 14.42681931 29.41329407 15.61462494 29.5987854 16.83842468 C29.78532684 18.10217422 29.97186829 19.36592377 30.1640625 20.66796875 C30.3626646 21.99364462 30.56159387 23.31927152 30.76083374 24.64485168 C31.175505 27.41051355 31.58701113 30.17662133 31.99609375 32.94311523 C32.51991755 36.48456418 33.05048612 40.0249619 33.58326149 43.56507397 C33.99387258 46.29709023 34.40153156 49.0295404 34.80823898 51.76214027 C35.09718578 53.70109906 35.38813141 55.63975965 35.67910767 57.57841492 C35.85283905 58.75676407 36.02657043 59.93511322 36.20556641 61.14916992 C36.35941803 62.1850676 36.51326965 63.22096527 36.67178345 64.28825378 C37 67 37 67 37 71 C30.73 71 24.46 71 18 71 C17.06508817 66.32544083 16.92027988 62.7034873 17 58 C15.02 58 13.04 58 11 58 C11.020625 59.216875 11.04125 60.43375 11.0625 61.6875 C11.12011816 65.08697137 10.69466026 67.52669872 10 71 C3.73 71 -2.54 71 -9 71 C-8.33279695 58.41580905 -6.66415117 46.00289961 -4.98876953 33.51953125 C-4.49659482 29.84960915 -4.01149984 26.17880022 -3.52734375 22.5078125 C-3.21655752 20.16921609 -2.90537408 17.83067242 -2.59375 15.4921875 C-2.44893188 14.3974411 -2.30411377 13.3026947 -2.15490723 12.17477417 C-2.01806519 11.15916412 -1.88122314 10.14355408 -1.74023438 9.09716797 C-1.62111694 8.20673798 -1.50199951 7.31630798 -1.37927246 6.39889526 C-1 4 -1 4 0 0 Z M13 20 C12.93941406 20.90363281 12.87882812 21.80726563 12.81640625 22.73828125 C12.73261719 23.91777344 12.64882813 25.09726562 12.5625 26.3125 C12.48128906 27.48425781 12.40007812 28.65601563 12.31640625 29.86328125 C12 33 12 33 11 36 C10.74996036 39.54178598 10.74996036 39.54178598 11 43 C11.66 43.66 12.32 44.32 13 45 C14.32 45 15.64 45 17 45 C16.85492922 43.66658348 16.7088897 42.33327236 16.5625 41 C16.42714844 39.76443359 16.42714844 39.76443359 16.2890625 38.50390625 C16.03571575 36.30937563 15.74196896 34.12532695 15.4375 31.9375 C14.98800522 27.89204699 14.92742852 24.06400307 15 20 C14.34 20 13.68 20 13 20 Z " fill="#000000" transform="translate(259,410)"/>
<path d="M0 0 C3.45450623 3.08248248 5.60654364 6.60190336 7 11 C7.1953125 14.55078125 7.1953125 14.55078125 7.125 18.3125 C7.10695312 19.56675781 7.08890625 20.82101562 7.0703125 22.11328125 C7.04710937 23.06589844 7.02390625 24.01851563 7 25 C4.58490559 25.67286212 2.16819644 26.33846012 -0.25 27 C-0.93191406 27.19078125 -1.61382812 27.3815625 -2.31640625 27.578125 C-5.70600912 28.49957044 -8.45778976 29 -12 29 C-11.98839844 28.21496094 -11.97679687 27.42992187 -11.96484375 26.62109375 C-11.91624493 20.96280225 -11.98705251 15.57121122 -13 10 C-14.32 10 -15.64 10 -17 10 C-17 25.51 -17 41.02 -17 57 C-15.35 57 -13.7 57 -12 57 C-12 51.72 -12 46.44 -12 41 C-8.05004292 39.68334764 -5.23646509 40.77898265 -1.375 41.875 C-0.33472656 42.15537109 -0.33472656 42.15537109 0.7265625 42.44140625 C5.85324714 43.85324714 5.85324714 43.85324714 7 45 C7.76770296 52.70655669 6.70060385 58.5051009 1.875 64.75 C-4.24963696 69.54319414 -11.35143245 70.92244031 -19 70 C-24.00961067 69.10141513 -28.51335319 68.0945954 -32 64.1875 C-35.92810494 57.92708275 -36.30816303 52.44323056 -36.30078125 45.25390625 C-36.30506638 44.32456772 -36.3093515 43.39522919 -36.31376648 42.43772888 C-36.31949154 40.47859509 -36.32002353 38.51944006 -36.31567383 36.56030273 C-36.31251391 33.57563765 -36.33599579 30.59196462 -36.36132812 27.60742188 C-36.36360143 25.69791791 -36.36430447 23.7884113 -36.36328125 21.87890625 C-36.372491 20.99328506 -36.38170074 20.10766388 -36.39118958 19.19520569 C-36.34066828 12.37393255 -35.17154918 7.65411566 -30.75 2.25 C-22.02555469 -4.88818253 -9.87819327 -5.29188925 0 0 Z " fill="#000000" transform="translate(157,412)"/>
<path d="M0 0 C4.12189734 2.13455398 7.41697513 4.31321183 9.3125 8.6875 C9.57990011 11.71803453 9.5 14.77019128 9.5 17.8125 C3.89 19.1325 -1.72 20.4525 -7.5 21.8125 C-8.16 18.5125 -8.82 15.2125 -9.5 11.8125 C-10.16 11.8125 -10.82 11.8125 -11.5 11.8125 C-12.53515073 16.26364813 -12.78303546 18.80517197 -10.5 22.8125 C-8.19631115 24.73174352 -5.68582136 26.26048705 -3.125 27.8125 C3.18535406 31.68091628 8.4000346 35.30805513 10.5 42.8125 C10.79716005 45.81785198 10.82474926 48.79428276 10.8125 51.8125 C10.82861328 52.6065625 10.84472656 53.400625 10.86132812 54.21875 C10.865255 58.9309949 10.50562885 61.96674357 7.5 65.8125 C2.74623068 70.43422017 -2.35779408 71.8638576 -8.875 72.125 C-14.95968247 71.96924874 -20.10970121 70.16353845 -25.375 67.1875 C-30.15193773 61.84856959 -30.66071386 55.75703044 -30.5 48.8125 C-28.25194998 48.13928716 -26.00147776 47.47415877 -23.75 46.8125 C-22.49703125 46.44125 -21.2440625 46.07 -19.953125 45.6875 C-16.5 44.8125 -16.5 44.8125 -12.5 44.8125 C-12.5 49.4325 -12.5 54.0525 -12.5 58.8125 C-10.85 58.8125 -9.2 58.8125 -7.5 58.8125 C-7.45875 57.595625 -7.4175 56.37875 -7.375 55.125 C-7.35179688 54.44050781 -7.32859375 53.75601563 -7.3046875 53.05078125 C-7.61513895 49.49300767 -8.2407857 46.93659219 -10.99023438 44.48217773 C-12.89724344 43.05680675 -14.83823263 41.70560727 -16.8125 40.375 C-22.35837817 36.60423318 -27.41773529 32.97702943 -30.5 26.8125 C-30.65144814 23.86217368 -30.73142405 20.95125382 -30.75 18 C-30.770625 17.19240234 -30.79125 16.38480469 -30.8125 15.55273438 C-30.84348453 10.82372079 -30.65984787 7.59027367 -27.5 3.8125 C-19.64013433 -2.33276177 -9.32308615 -3.04319604 0 0 Z " fill="#000000" transform="translate(105.5,410.1875)"/>
<path d="M0 0 C0.78366943 0.00273926 1.56733887 0.00547852 2.37475586 0.00830078 C8.87304614 0.12413958 15.2421501 0.83897425 21.3125 3.3125 C24.13612714 8.95975428 23.05147686 19.07168583 21.6640625 25.15625 C17.76511338 34.62036581 10.37386794 40.94643804 1.3125 45.3125 C-5.25187459 48.00525857 -12.06540691 47.8187687 -18.78515625 45.62890625 C-24.96414788 42.86494379 -31.38097594 38.06149422 -34.94921875 32.26171875 C-36.42283861 28.37105045 -35.34832151 24.80595661 -33.7109375 21.10546875 C-28.76812378 11.7460118 -22.65905399 4.73812584 -12.4765625 1.1953125 C-8.21484104 0.20237534 -4.35628977 -0.03079969 0 0 Z " fill="#010101" transform="translate(127.6875,159.6875)"/>
<path d="M0 0 C9.9 0 19.8 0 30 0 C31 1 31 1 31.09765625 4.16015625 C31.08605469 5.44792969 31.07445312 6.73570312 31.0625 8.0625 C31.05347656 9.35285156 31.04445312 10.64320313 31.03515625 11.97265625 C31.02355469 12.97167969 31.01195312 13.97070312 31 15 C27.04 15 23.08 15 19 15 C19 18.96 19 22.92 19 27 C22.63 27 26.26 27 30 27 C30 31.62 30 36.24 30 41 C26.37 41 22.74 41 19 41 C19 45.95 19 50.9 19 56 C23.29 56 27.58 56 32 56 C32.495 63.425 32.495 63.425 33 71 C22.11 71 11.22 71 0 71 C0 47.57 0 24.14 0 0 Z " fill="#000000" transform="translate(170,410)"/>
<path d="M0 0 C5.94 0 11.88 0 18 0 C18 18.48 18 36.96 18 56 C21.63 56 25.26 56 29 56 C29 60.95 29 65.9 29 71 C24.88822073 71.02291394 20.77660342 71.04283951 16.66479492 71.05493164 C15.26504772 71.0599708 13.8653058 71.06680216 12.46557617 71.07543945 C10.45754223 71.0875232 8.44947043 71.09269807 6.44140625 71.09765625 C5.23170166 71.10289307 4.02199707 71.10812988 2.77563477 71.11352539 C0 71 0 71 -1 70 C-1.09952293 67.85799676 -1.12799679 65.71267295 -1.12939453 63.56835938 C-1.13114685 62.89682327 -1.13289917 62.22528717 -1.13470459 61.53340149 C-1.1391223 59.30349172 -1.13618542 57.07366064 -1.1328125 54.84375 C-1.13348556 53.30057764 -1.13445561 51.75740539 -1.13571167 50.2142334 C-1.13718853 46.9759826 -1.13503447 43.73775933 -1.13037109 40.49951172 C-1.1246738 36.33957477 -1.12795287 32.17970234 -1.13394356 28.01976776 C-1.13754949 24.83200592 -1.13641044 21.64425949 -1.13381577 18.45649719 C-1.13314658 16.92222588 -1.13397461 15.38795318 -1.13629532 13.85368347 C-1.13882238 11.71296459 -1.13498054 9.57235158 -1.12939453 7.43164062 C-1.12859894 6.21109985 -1.12780334 4.99055908 -1.12698364 3.73303223 C-1 1 -1 1 0 0 Z " fill="#000000" transform="translate(299,410)"/>
<path d="M0 0 C5.94 0 11.88 0 18 0 C18.82316681 4.11583404 19.12650481 7.37571831 19.12939453 11.51855469 C19.13254669 12.81629822 19.13569885 14.11404175 19.13894653 15.45111084 C19.13715729 16.85803257 19.13510647 18.264954 19.1328125 19.671875 C19.13348639 21.11964942 19.13445713 22.56742372 19.13571167 24.01519775 C19.13718276 27.04123009 19.13505177 30.06723283 19.13037109 33.09326172 C19.1246537 36.97956044 19.12796917 40.8657904 19.13394356 44.75208664 C19.13754769 47.73739139 19.13641163 50.72267969 19.13381577 53.70798492 C19.13314714 55.14177712 19.13397268 56.5755708 19.13629532 58.00936127 C19.13882157 60.00591505 19.13429164 62.00247406 19.12939453 63.99902344 C19.12859894 65.13643982 19.12780334 66.2738562 19.12698364 67.44573975 C19 70 19 70 18 71 C12.06 71 6.12 71 0 71 C0 47.57 0 24.14 0 0 Z " fill="#000000" transform="translate(51,410)"/>
<path d="M0 0 C7.24996968 0.03356467 11.83807622 1.86225385 17 7 C20.15595944 11.20794592 20.52403168 14.80380932 19.84375 19.875 C17.44102164 28.77399391 13.07717737 38.04880161 7 45 C3.57899203 43.5844105 1.87437525 42.20414882 0 39 C-0.41582749 36.30451745 -0.67304373 33.80247815 -0.80078125 31.09375 C-0.84567184 30.33203491 -0.89056244 29.57031982 -0.93681335 28.78552246 C-1.02813242 27.17883353 -1.11260625 25.57174277 -1.19067383 23.96435547 C-1.31213626 21.50735789 -1.46011385 19.05298267 -1.61132812 16.59765625 C-1.69690079 15.03394027 -1.78093701 13.4701393 -1.86328125 11.90625 C-1.90794022 11.17386108 -1.95259918 10.44147217 -1.99861145 9.68688965 C-2.16591087 5.9168957 -2.13753141 3.19155016 0 0 Z " fill="#040404" transform="translate(39,156)"/>
<path d="M0 0 C3.81271791 3.17726492 7.45516471 6.399999 10.9375 9.9375 C13.49818204 12.53750153 16.10172391 15.00348624 18.875 17.375 C23.83628069 21.64446864 28.53012742 26.21870188 33 31 C33 31.33 33 31.66 33 32 C19.71009194 32.84231812 10.36631433 32.37681327 -1 25 C-1.33 27.97 -1.66 30.94 -2 34 C-2.99 34 -3.98 34 -5 34 C-5.66 33.34 -6.32 32.68 -7 32 C-6.52246481 27.89319733 -5.17043966 23.91354008 -4.0625 19.9375 C-2.25930217 13.34995856 -0.95777056 6.76740516 0 0 Z " fill="#050505" transform="translate(53,200)"/>
<path d="M0 0 C2 1 2 1 2 1 Z " fill="#000000" transform="translate(81,447)"/>
<path d="" fill="#000000" transform="translate(0,0)"/>
<path d="" fill="#000000" transform="translate(0,0)"/>
<path d="" fill="#000000" transform="translate(0,0)"/>
<path d="" fill="#000000" transform="translate(0,0)"/>
<path d="" fill="#000000" transform="translate(0,0)"/>
<path d="" fill="#000000" transform="translate(0,0)"/>
</svg>
