<svg version="1.1" id="Volition" x="0" y="0" viewBox="0 0 83.8 100" xml:space="preserve" xmlns="http://www.w3.org/2000/svg"><style type="text/css" id="style1738">.st0{fill:#100e09}</style><path class="st0" id="polyline1740" transform="translate(-38.1)" d="M80.5 40.6 62.4 0H39.3l34.3 75.7h13.9L121.9 0H98.8L80.4 40.8"/><path class="st0" id="polygon1742" transform="translate(-38.1)" d="M100.4 23.1 82 51.8 62.7 23.1z"/><path d="M61.5 1.3 54.4 17l-12 8.9L31 18.2 23.5 1.3H3.1l33.2 73.3H48.7L81.9 1.3Zm.8 1.2H80L47.9 73.4H37.1L5 2.5h17.7l7.5 16.6 12.3 4.6 12.2-4.2z" id="path1744" style="fill:#fff"/><path class="st0" d="M60.2 33.7c-.2-1.1-1.3-1.7-1.7-1.9-.4-.2-.8-.3-1.2-.3-.2 0-.4 0-.5.1-.4.1-.7.3-1.3.6-.3.2-.8.5-1 .6-.1 0-.2.1-.3.1-.2.1-.4.2-1 .2h-.1c-.8 0-1.6-.2-2.1-.3-.1 0-.2 0-.3-.1-.2 0-.5-.1-.8-.2-.7-.2-1.5-.5-2.2-.6-.3-.1-.6-.1-.9-.1-.4-.1-1-.1-1.2-.2-.1-.1-.2-.2-.3-.2 0-.1-.1-.4-.1-.5 0-.3-.1-.7-.2-1l-.3-.6c.2 0 .5 0 .8-.1.9-.1 1.4-.3 1.7-.4.1 0 .2-.1.3-.1.4-.1.7-.1 1.4-.2h.2c.3 0 1.2-.1 1.5-.1.3 0 1 0 1.4.1.1 0 .3.1.5.2 1 .4 1.5.5 1.9.6.1 0 .2 0 .4.1 1.1.2 1.7.3 2.1.3.5 0 1.4-.1 1.9-.7l.1-.1c.4-.4.6-.7.7-1.4.1-.7-.2-1.4-.5-2.2l-.3-.9v-.1c-.2-.6-.7-2.5-.7-3.1v-2.6c0-.2.1-2-.3-3-.4-1.1-1-2.3-3-3.9-1.8-1.5-4.5-2.8-6.7-3.2-1.9-.4-5.5-.4-5.7-.4-.1 0-3.6.1-4.8.2-1.4.2-3.6.8-4.9 1.6-1.3.8-2.7 1.7-3.5 2.4-.7.7-1.5 1.6-1.9 2.4-.4.8-.6 1.9-.6 2.5v3.2c0 .6-.1 1.8-.4 2.9-.1.5-.3.9-.5 1.4-.3 1-.5 1.5-.6 1.9v.1c-.1.6-.1 1.2.5 2 .8 1 1.6 1 1.9 1 1.1 0 2.2-.2 2.9-.3.9-.2 1.4-.4 1.7-.5.3-.1.4-.2.7-.2.3 0 .6-.1.9-.1.5 0 1.1 0 1.9.1.9.1 1.4.3 2 .5.3.1.7.2 1 .3.3.1.5.1.8.1h.2c-.1.2-.2.4-.2.6-.1.3-.1.5-.1.7 0 .2-.1.5-.1.6v.1l-.2.2s-.1 0-.2.1c-.2.1-.6.1-1.1.2-.6.1-1.3.2-1.8.3-.4.1-.8.2-1.2.4-.6.2-1.1.4-1.7.5-.2 0-.3.1-.4.1-.8.1-1.3.2-1.8.1-.3-.1-.9-.4-1.4-.7-.7-.4-1.2-.7-1.6-.7h-.4c-.8 0-2 .4-2.4 1.1-.2.3-.5.8-.5 2.1 0 .5 0 1 .1 1.5.1.7 1.4 2.9 1.7 3.4.7 1.1 1.5 2.6 2 3.1.1.1.2.2.2.3.3-.6.3-.6.3-.5.2.4 1.9 4.3 2.2 5.5.4 1.4 1.2 3.1 1.7 3.9.1.2.4.6.6 1 .5.8.9 1.7 1.3 2.2.6.7 1.6 1.6 2.3 2.1.7.4 1.3.7 1.9 1 .6.3 1.4.4 1.8.4h1.9c.3 0 1.5-.1 1.8-.1.4 0 1.8-.5 2.2-.7 0 0 1-.5 1.4-.8.4-.3 2-1.4 2.8-2.9.7-1.3 1.4-2.4 1.4-2.4v-.1c.2-.3 1-1.9 1.2-2.6.2-.5.6-1.5.8-2.1.1-.3.2-.5.3-.7v-.1c.6-1.6 1-2.8 1.3-3.3.2-.4.4-.6.5-.8.1-.2.3-.4.5-.7.4-.6 1.4-2.4 1.8-3.1 1-1.7 1.2-2.3 1.3-2.5.5-.7.4-2.1.3-2.6z" id="path1748"/><path d="M59.1 33.9c-.1-.5-.6-.9-1-1.1-.4-.2-.7-.2-1-.1-.3.1-1.4 1-2.1 1.2-.2.1-.5.3-1.6.3s-2.2-.3-2.7-.4c-.5-.1-1.9-.6-2.9-.8-1-.2-1.9-.3-2.4-.4 0 0-.6-.3-.8-.7-.2-.4-.2-1.2-.4-1.7-.1-.3-.3-.6-.5-1-.1-.3-.2-.7 0-.9.4-.3.9-.1 2-.2s1.4-.4 1.8-.5c.5-.1.9-.2 1.6-.2.2 0 1.3-.1 1.7-.1.4 0 1.2 0 1.7.2s1.7.6 2.1.7c.2 0 1.9.3 2.4.3.2 0 .8 0 1.1-.3.4-.4.5-.4.6-1 .1-.5-.5-1.8-.8-2.6-.2-.8-.8-2.7-.8-3.5v-2.7c0-.3.1-1.8-.3-2.6-.3-.8-.7-1.9-2.6-3.4-1.9-1.5-4.4-2.6-6.2-3-1.8-.4-5.5-.4-5.5-.4s-3.5 0-4.6.1c-1.2.2-3.2.7-4.5 1.5-1.2.7-2.5 1.6-3.3 2.3-.7.7-1.4 1.5-1.7 2.1-.3.6-.5 1.6-.5 2v3.2c0 .7-.1 2-.5 3.3-.4 1.2-.9 2.7-1 3.1-.1.5-.1.7.3 1.2s.8.5 1.1.5c.3 0 1.2 0 2.7-.3 1.5-.3 1.7-.6 2.5-.7.7-.1 1.6-.1 3.2.1 1.5.2 2.2.6 3.1.7.9.2 1.7-.1 2.1.1.3.3.3.6.2.9-.1.2-.5.5-.6 1.1-.1.6-.1 1.3-.5 1.7-.4.5-.5.6-1.1.7-.6.1-2 .3-2.9.5-.9.2-1.9.7-3 .9-1.1.2-1.9.4-2.8.1-.9-.3-2.3-1.3-2.8-1.4-.5-.1-1.5.3-1.7.6-.2.3-.3 1-.3 1.4 0 .4 0 .9.1 1.2.1.3.9 1.8 1.6 3.1.7 1.2 1.5 2.6 1.9 3 .3.4.4.4.5.6.1.2 1.9 4.4 2.3 5.7.4 1.2 1.1 2.9 1.6 3.6.5.7 1.3 2.5 1.8 3.1.5.6 1.5 1.5 2 1.8.6.4 1.2.7 1.7.9.5.2 1.3.3 1.6.4.4.1 1.6 0 1.6 0s1.5-.1 1.8-.1c.3 0 1.5-.4 1.8-.5.3-.1 1-.5 1.3-.7.3-.2 1.7-1.2 2.5-2.5s1.4-2.4 1.4-2.4.9-1.7 1.1-2.4c.3-.8.9-2.4 1.1-2.8 0-.1.9-2.7 1.4-3.5.5-.9.7-.9 1-1.5.4-.6 1.2-2 1.8-3.1.2-.3 1.1-1.8 1.3-2.4.1-.7.1-1.9 0-2.3zm-20.7 6.4c.2-.1.5-.1.5-.1s-.1.1-.2.3c-.1.1-.1.7 0 1 .1.2.5.5.7.6.2.1.7 0 1 .1.2.1 1.6.7 1.8.8.2.1.5.1.5.1s.3.1.5-.1l1.6-.8c.2-.1.5 0 .8-.1.3 0 .7-.2.9-.6.2-.4.1-.8.1-1-.1-.2-.2-.3-.2-.3s.2-.1.5 0c.2.1.6 1 .6 1.3 0 .3-.8 1-1.1 1.3-.3.3-1.8 1.4-2.1 1.5-.3.1-.8.3-1.3.3-.6 0-.9-.1-1.4-.3-.6-.2-2.2-1.4-2.5-1.7-.3-.3-.9-.8-.9-1.2-.4-.1 0-.9.2-1.1zm8.1 10.8s-.4.5-.8.7c-.4.2-1.3.6-1.5.7-1 .3-1.4.3-1.7.3-.3 0-.7 0-1.7-.3-.2-.1-1.2-.5-1.5-.7-.4-.2-.8-.7-.8-.7v-.2h.8c.2 0 .4-.1.5-.1h.4c.2 0 1 .3 1.2.3.1.1 1.1.1 1.2.1.2 0 1.1 0 1.2-.1.2-.1 1-.3 1.2-.3h.4c.1 0 .3.1.5.1h.8zm1.6-1.7c-.2.1-.6-.2-1.1-.3-.5 0-1.7-.1-2 0-.3.1-1.5.4-1.7.4-.3.1-.8.1-.8.1s-.5 0-.7-.1c-.3-.1-1.4-.4-1.7-.4-.3-.1-1.5 0-2 0s-.9.3-1.1.3c-.1 0-.2-.2-.2-.3 0-.1.2-.3.4-.4.1-.1 2.1-.9 2.4-1.1.3-.1.7-.2.8-.2.3 0 .9.2 1.2.3.3.1.8.1.8.1.1 0 .6 0 .9-.1.3-.1.9-.3 1.2-.3.1 0 .5.1.8.2.3.1 2.3 1 2.4 1.1.2.1.4.3.4.4.2.1.1.3 0 .3z" id="path1750" style="fill-rule:evenodd;clip-rule:evenodd;fill:#fff"/><path class="st0" d="M0 86.7h2.9l3.8 9.9 3.8-9.9h2.8L8.1 99.9H5.2Z" id="path1756"/><path class="st0" d="M13.9 93.2c0-4.4 1.8-6.8 6.6-6.8 4.7 0 6.6 2.4 6.6 6.8s-1.8 6.8-6.6 6.8c-4.7 0-6.6-2.4-6.6-6.8zm10.4.1c0-2.7-1-4.3-3.8-4.3-2.9 0-3.8 1.6-3.8 4.3 0 2.7.9 4.3 3.8 4.3 2.9-.1 3.8-1.6 3.8-4.3z" id="path1758"/><path class="st0" d="M29.3 96.1V81.6H32v14.2c0 1.1.2 1.5 1.4 1.5h.5v2.4h-1.4c-2.3.1-3.2-.8-3.2-3.6z" id="path1760"/><path class="st0" d="M36.2 82.3h2.7v3h-2.7zm0 4.4h2.7v13.1h-2.7z" id="path1762"/><path class="st0" d="M40.9 86.7h2.3l.5-3.5 2.1-.4v3.9h3.3v2.5h-3.3v6.4c0 1.1.1 1.8 1.8 1.8h1.5v2.4h-2c-3.2 0-4-1.2-4-3.8v-6.8h-2.2z" id="path1764"/><path class="st0" d="M51.5 82.3h2.7v3h-2.7zm0 4.4h2.7v13.1h-2.7z" id="path1766"/><path class="st0" d="M56.5 93.2c0-4.4 1.8-6.8 6.6-6.8 4.7 0 6.6 2.4 6.6 6.8s-1.8 6.8-6.6 6.8-6.6-2.4-6.6-6.8zm10.3.1c0-2.7-1-4.3-3.8-4.3-2.9 0-3.8 1.6-3.8 4.3 0 2.7.9 4.3 3.8 4.3 2.9-.1 3.8-1.6 3.8-4.3z" id="path1768"/><path class="st0" d="m71.7 86.8 2.1-.2.2 1.1c.6-.8 1.9-1.4 4.8-1.4 4.1 0 4.7 2.2 4.7 5.4v7.9h-2.7v-7.4c0-1.9-.2-3.3-2.9-3.3-3 0-3.5 1.4-3.5 3.5v7.2h-2.7z" id="path1770"/></svg>