<?xml version="1.0" encoding="UTF-8"?>
<svg version="1.1" xmlns="http://www.w3.org/2000/svg" viewBox="0 0 512 512">
<path d="M0 0 C1.09860603 -0.00855011 1.09860603 -0.00855011 2.21940613 -0.01727295 C3.76678025 -0.02669981 5.31417424 -0.03324772 6.86157227 -0.03710938 C9.21211345 -0.04679933 11.56177373 -0.07783679 13.91210938 -0.109375 C15.42056776 -0.1159076 16.92903236 -0.12115706 18.4375 -0.125 C19.13253128 -0.1373468 19.82756256 -0.1496936 20.5436554 -0.16241455 C25.61542402 -0.13960374 28.98392765 0.92778485 33.41796875 3.203125 C36.23555904 6.55959868 35.64560763 10.77651194 35.54296875 14.953125 C35.53394531 15.65050781 35.52492188 16.34789062 35.515625 17.06640625 C35.49216763 18.77879458 35.45629979 20.49100504 35.41796875 22.203125 C39.37796875 22.203125 43.33796875 22.203125 47.41796875 22.203125 C47.35996094 21.10613281 47.30195312 20.00914062 47.2421875 18.87890625 C47.19527187 17.42452186 47.14977364 15.97009126 47.10546875 14.515625 C47.06357422 13.79439453 47.02167969 13.07316406 46.97851562 12.33007812 C46.88400053 8.19031716 47.07352802 6.65190578 49.6875 3.24609375 C54.23784946 -0.1585311 58.49376859 0.03344057 64.03515625 0 C64.76993195 -0.00570007 65.50470764 -0.01140015 66.26174927 -0.01727295 C67.81331961 -0.02669873 69.36490974 -0.03324729 70.91650391 -0.03710938 C73.27802778 -0.0468136 75.63868017 -0.07785791 78 -0.109375 C79.51171361 -0.11590612 81.02343341 -0.12115616 82.53515625 -0.125 C83.23534882 -0.1373468 83.93554138 -0.1496936 84.6569519 -0.16241455 C89.31169349 -0.14148174 92.48516537 0.71256838 96.41796875 3.203125 C98.94572226 6.99475527 98.6423991 10.01186531 98.54296875 14.390625 C98.53394531 15.14021484 98.52492187 15.88980469 98.515625 16.66210938 C98.49209453 18.50925154 98.45622436 20.35622912 98.41796875 22.203125 C100.06345703 22.11611328 100.06345703 22.11611328 101.7421875 22.02734375 C103.19657189 21.98042812 104.65100249 21.93492989 106.10546875 21.890625 C106.82669922 21.84873047 107.54792969 21.80683594 108.29101562 21.76367188 C109.3496582 21.73950195 109.3496582 21.73950195 110.4296875 21.71484375 C111.07381592 21.68865967 111.71794434 21.66247559 112.3815918 21.63549805 C114.88016294 22.33195865 116.63782444 23.33601216 118.40065002 25.2525177 C120.86568756 29.97898158 120.12198652 35.88815399 120.08203125 41.078125 C120.08540239 42.44906036 120.0902575 43.8199928 120.0965271 45.19091797 C120.10388469 48.05920974 120.09323085 50.92672109 120.06982422 53.79492188 C120.04133474 57.46395993 120.05774503 61.13116936 120.08768654 64.80014038 C120.10579108 67.62961502 120.09998756 70.45865906 120.08704758 73.28814697 C120.08210997 75.29611403 120.09724339 77.3040981 120.11270142 79.31201172 C119.98244743 89.43403665 119.98244743 89.43403665 117.12573242 92.53979492 C114.55239552 94.12054908 113.38563245 94.81156661 110.4296875 94.69140625 C109.72392578 94.67529297 109.01816406 94.65917969 108.29101562 94.64257812 C107.56978516 94.60068359 106.84855469 94.55878906 106.10546875 94.515625 C105.36490234 94.49306641 104.62433594 94.47050781 103.86132812 94.44726562 C102.04599518 94.3887065 100.23171194 94.29903386 98.41796875 94.203125 C98.47597656 95.30011719 98.53398437 96.39710938 98.59375 97.52734375 C98.64066563 98.98172814 98.68616386 100.43615874 98.73046875 101.890625 C98.79331055 102.9724707 98.79331055 102.9724707 98.85742188 104.07617188 C98.94807695 108.04686437 98.68270058 109.80602725 96.41796875 113.203125 C92.46107684 115.84105294 89.7359521 115.78459856 85.10546875 115.515625 C84.36490234 115.49306641 83.62433594 115.47050781 82.86132812 115.44726562 C81.04599518 115.3887065 79.23171194 115.29903386 77.41796875 115.203125 C77.47597656 116.30011719 77.53398438 117.39710938 77.59375 118.52734375 C77.64066563 119.98172814 77.68616386 121.43615874 77.73046875 122.890625 C77.77236328 123.61185547 77.81425781 124.33308594 77.85742188 125.07617188 C77.94807695 129.04686437 77.68270058 130.80602725 75.41796875 134.203125 C71.46107684 136.84105294 68.7359521 136.78459856 64.10546875 136.515625 C62.99461914 136.48178711 62.99461914 136.48178711 61.86132812 136.44726562 C60.04599518 136.3887065 58.23171194 136.29903386 56.41796875 136.203125 C56.47597656 137.30011719 56.53398438 138.39710938 56.59375 139.52734375 C56.64066563 140.98172814 56.68616386 142.43615874 56.73046875 143.890625 C56.77236328 144.61185547 56.81425781 145.33308594 56.85742188 146.07617188 C56.95289281 150.25779865 56.77718538 151.74763591 54.0859375 155.16015625 C48.55044143 159.39890361 42.10716757 158.66195091 35.41796875 158.203125 C31.20085102 157.18228682 28.88571879 155.90475006 26.41796875 152.203125 C26.27550978 149.43657176 26.2302743 146.77659194 26.29296875 144.015625 C26.30199219 143.26603516 26.31101563 142.51644531 26.3203125 141.74414062 C26.34384297 139.89699846 26.37971314 138.05002088 26.41796875 136.203125 C24.77248047 136.29013672 24.77248047 136.29013672 23.09375 136.37890625 C21.63936561 136.42582188 20.18493501 136.47132011 18.73046875 136.515625 C17.64862305 136.5784668 17.64862305 136.5784668 16.54492188 136.64257812 C12.57422938 136.7332332 10.8150665 136.46785683 7.41796875 134.203125 C4.78004081 130.24623309 4.83649519 127.52110835 5.10546875 122.890625 C5.12802734 122.15005859 5.15058594 121.40949219 5.17382812 120.64648438 C5.23238725 118.83115143 5.32205989 117.01686819 5.41796875 115.203125 C4.32097656 115.26113281 3.22398438 115.31914062 2.09375 115.37890625 C0.63936561 115.42582188 -0.81506499 115.47132011 -2.26953125 115.515625 C-2.99076172 115.55751953 -3.71199219 115.59941406 -4.45507812 115.64257812 C-8.42577062 115.7332332 -10.1849335 115.46785683 -13.58203125 113.203125 C-16.21995919 109.24623309 -16.16350481 106.52110835 -15.89453125 101.890625 C-15.87197266 101.15005859 -15.84941406 100.40949219 -15.82617188 99.64648438 C-15.76761275 97.83115143 -15.67794011 96.01686819 -15.58203125 94.203125 C-16.67902344 94.26113281 -17.77601562 94.31914062 -18.90625 94.37890625 C-20.36063439 94.42582188 -21.81506499 94.47132011 -23.26953125 94.515625 C-23.99076172 94.55751953 -24.71199219 94.59941406 -25.45507812 94.64257812 C-26.5137207 94.66674805 -26.5137207 94.66674805 -27.59375 94.69140625 C-28.23787842 94.71759033 -28.88200684 94.74377441 -29.5456543 94.77075195 C-32.04422544 94.07429135 -33.80188694 93.07023784 -35.56471252 91.1537323 C-38.02975006 86.42726842 -37.28604902 80.51809601 -37.24609375 75.328125 C-37.24946489 73.95718964 -37.25432 72.5862572 -37.2605896 71.21533203 C-37.26794719 68.34704026 -37.25729335 65.47952891 -37.23388672 62.61132812 C-37.20539724 58.94229007 -37.22180753 55.27508064 -37.25174904 51.60610962 C-37.26985358 48.77663498 -37.26405006 45.94759094 -37.25111008 43.11810303 C-37.24617247 41.11013597 -37.26130589 39.1021519 -37.27676392 37.09423828 C-37.14651373 26.97250879 -37.14651373 26.97250879 -34.27612305 23.86645508 C-30.7452222 21.68647977 -27.78087263 21.64111573 -23.76953125 21.890625 C-23.07666016 21.91318359 -22.38378906 21.93574219 -21.66992188 21.95898438 C-19.97301552 22.01749839 -18.27723264 22.1071702 -16.58203125 22.203125 C-16.60523437 21.32269531 -16.6284375 20.44226563 -16.65234375 19.53515625 C-16.67941406 17.79298828 -16.67941406 17.79298828 -16.70703125 16.015625 C-16.73023437 14.86707031 -16.7534375 13.71851563 -16.77734375 12.53515625 C-16.54146729 8.51110376 -15.7020637 5.62862085 -13.20703125 2.453125 C-9.39719278 -0.47751997 -4.60436276 0.02791024 0 0 Z " transform="translate(36.58203125,176.796875)"/>
<path d="M0 0 C1.09860603 -0.00855011 1.09860603 -0.00855011 2.21940613 -0.01727295 C3.76678025 -0.02669981 5.31417424 -0.03324772 6.86157227 -0.03710938 C9.21211345 -0.04679933 11.56177373 -0.07783679 13.91210938 -0.109375 C15.42056776 -0.1159076 16.92903236 -0.12115706 18.4375 -0.125 C19.13253128 -0.1373468 19.82756256 -0.1496936 20.5436554 -0.16241455 C25.61542402 -0.13960374 28.98392765 0.92778485 33.41796875 3.203125 C36.23555904 6.55959868 35.64560763 10.77651194 35.54296875 14.953125 C35.53394531 15.65050781 35.52492188 16.34789062 35.515625 17.06640625 C35.49216763 18.77879458 35.45629979 20.49100504 35.41796875 22.203125 C39.37796875 22.203125 43.33796875 22.203125 47.41796875 22.203125 C47.36576172 20.66591797 47.36576172 20.66591797 47.3125 19.09765625 C47.2843484 17.73699564 47.25704971 16.3763172 47.23046875 15.015625 C47.20533203 14.34208984 47.18019531 13.66855469 47.15429688 12.97460938 C47.08906762 8.51727729 47.45313615 5.60304834 50.41796875 2.203125 C55.01916887 0.25151518 59.29742434 -0.10413542 64.23046875 -0.09765625 C64.96241455 -0.10194138 65.69436035 -0.1062265 66.44848633 -0.11064148 C67.98810802 -0.11635617 69.52775669 -0.11690626 71.06738281 -0.11254883 C73.41127841 -0.10938403 75.75391587 -0.13289859 78.09765625 -0.15820312 C79.60025884 -0.16047609 81.10286479 -0.16117963 82.60546875 -0.16015625 C83.29938721 -0.169366 83.99330566 -0.17857574 84.70825195 -0.18806458 C89.33532502 -0.14445485 92.5061294 0.7332331 96.41796875 3.203125 C98.94572226 6.99475527 98.6423991 10.01186531 98.54296875 14.390625 C98.53394531 15.14021484 98.52492188 15.88980469 98.515625 16.66210938 C98.49209453 18.50925154 98.45622436 20.35622912 98.41796875 22.203125 C100.06345703 22.11611328 100.06345703 22.11611328 101.7421875 22.02734375 C103.19657189 21.98042812 104.65100249 21.93492989 106.10546875 21.890625 C106.82669922 21.84873047 107.54792969 21.80683594 108.29101562 21.76367188 C109.3496582 21.73950195 109.3496582 21.73950195 110.4296875 21.71484375 C111.07381592 21.68865967 111.71794434 21.66247559 112.3815918 21.63549805 C114.88016294 22.33195865 116.63782444 23.33601216 118.40065002 25.2525177 C120.86568756 29.97898158 120.12198652 35.88815399 120.08203125 41.078125 C120.08540239 42.44906036 120.0902575 43.8199928 120.0965271 45.19091797 C120.10388469 48.05920974 120.09323085 50.92672109 120.06982422 53.79492188 C120.04133474 57.46395993 120.05774503 61.13116936 120.08768654 64.80014038 C120.10579108 67.62961502 120.09998756 70.45865906 120.08704758 73.28814697 C120.08210997 75.29611403 120.09724339 77.3040981 120.11270142 79.31201172 C119.98244743 89.43403665 119.98244743 89.43403665 117.12573242 92.53979492 C114.55239552 94.12054908 113.38563245 94.81156661 110.4296875 94.69140625 C109.72392578 94.67529297 109.01816406 94.65917969 108.29101562 94.64257812 C107.56978516 94.60068359 106.84855469 94.55878906 106.10546875 94.515625 C105.36490234 94.49306641 104.62433594 94.47050781 103.86132812 94.44726562 C102.04599518 94.3887065 100.23171194 94.29903386 98.41796875 94.203125 C98.47597656 95.30011719 98.53398437 96.39710938 98.59375 97.52734375 C98.64066563 98.98172814 98.68616386 100.43615874 98.73046875 101.890625 C98.79331055 102.9724707 98.79331055 102.9724707 98.85742188 104.07617188 C98.94807695 108.04686437 98.68270058 109.80602725 96.41796875 113.203125 C92.46107684 115.84105294 89.7359521 115.78459856 85.10546875 115.515625 C84.36490234 115.49306641 83.62433594 115.47050781 82.86132812 115.44726562 C81.04599518 115.3887065 79.23171194 115.29903386 77.41796875 115.203125 C77.47597656 116.30011719 77.53398437 117.39710938 77.59375 118.52734375 C77.64066563 119.98172814 77.68616386 121.43615874 77.73046875 122.890625 C77.77236328 123.61185547 77.81425781 124.33308594 77.85742188 125.07617188 C77.94807695 129.04686437 77.68270058 130.80602725 75.41796875 134.203125 C71.46107684 136.84105294 68.7359521 136.78459856 64.10546875 136.515625 C62.99461914 136.48178711 62.99461914 136.48178711 61.86132812 136.44726562 C60.04599518 136.3887065 58.23171194 136.29903386 56.41796875 136.203125 C56.47597656 137.30011719 56.53398437 138.39710938 56.59375 139.52734375 C56.64066563 140.98172814 56.68616386 142.43615874 56.73046875 143.890625 C56.77236328 144.61185547 56.81425781 145.33308594 56.85742188 146.07617188 C56.95289281 150.25779865 56.77718538 151.74763591 54.0859375 155.16015625 C48.54635974 159.40202912 42.11088151 158.65415161 35.41796875 158.203125 C32.0675796 157.44243564 29.33287274 156.47603491 27.25 153.578125 C26.07250279 150.2170062 26.20666584 146.96498941 26.29296875 143.453125 C26.30199219 142.75574219 26.31101563 142.05835938 26.3203125 141.33984375 C26.34376987 139.62745542 26.37963771 137.91524496 26.41796875 136.203125 C24.77248047 136.29013672 24.77248047 136.29013672 23.09375 136.37890625 C21.63936561 136.42582188 20.18493501 136.47132011 18.73046875 136.515625 C17.64862305 136.5784668 17.64862305 136.5784668 16.54492188 136.64257812 C12.57422938 136.7332332 10.8150665 136.46785683 7.41796875 134.203125 C4.78004081 130.24623309 4.83649519 127.52110835 5.10546875 122.890625 C5.12802734 122.15005859 5.15058594 121.40949219 5.17382812 120.64648438 C5.23238725 118.83115143 5.32205989 117.01686819 5.41796875 115.203125 C4.32097656 115.26113281 3.22398437 115.31914062 2.09375 115.37890625 C0.63936561 115.42582188 -0.81506499 115.47132011 -2.26953125 115.515625 C-2.99076172 115.55751953 -3.71199219 115.59941406 -4.45507812 115.64257812 C-8.42577062 115.7332332 -10.1849335 115.46785683 -13.58203125 113.203125 C-16.21995919 109.24623309 -16.16350481 106.52110835 -15.89453125 101.890625 C-15.87197266 101.15005859 -15.84941406 100.40949219 -15.82617188 99.64648438 C-15.76761275 97.83115143 -15.67794011 96.01686819 -15.58203125 94.203125 C-16.67902344 94.26113281 -17.77601563 94.31914062 -18.90625 94.37890625 C-20.36063439 94.42582188 -21.81506499 94.47132011 -23.26953125 94.515625 C-23.99076172 94.55751953 -24.71199219 94.59941406 -25.45507812 94.64257812 C-26.5137207 94.66674805 -26.5137207 94.66674805 -27.59375 94.69140625 C-28.23787842 94.71759033 -28.88200684 94.74377441 -29.5456543 94.77075195 C-32.04422544 94.07429135 -33.80188694 93.07023784 -35.56471252 91.1537323 C-38.02975006 86.42726842 -37.28604902 80.51809601 -37.24609375 75.328125 C-37.24946489 73.95718964 -37.25432 72.5862572 -37.2605896 71.21533203 C-37.26794719 68.34704026 -37.25729335 65.47952891 -37.23388672 62.61132812 C-37.20539724 58.94229007 -37.22180753 55.27508064 -37.25174904 51.60610962 C-37.26985358 48.77663498 -37.26405006 45.94759094 -37.25111008 43.11810303 C-37.24617247 41.11013597 -37.26130589 39.1021519 -37.27676392 37.09423828 C-37.14650993 26.97221335 -37.14650993 26.97221335 -34.28979492 23.86645508 C-31.71645802 22.28570092 -30.54969495 21.59468339 -27.59375 21.71484375 C-26.88798828 21.73095703 -26.18222656 21.74707031 -25.45507812 21.76367188 C-24.73384766 21.80556641 -24.01261719 21.84746094 -23.26953125 21.890625 C-22.52896484 21.91318359 -21.78839844 21.93574219 -21.02539062 21.95898438 C-19.21005768 22.0175435 -17.39577444 22.10721614 -15.58203125 22.203125 C-15.6284375 21.02234375 -15.67484375 19.8415625 -15.72265625 18.625 C-15.76018074 17.06773366 -15.79658018 15.51043992 -15.83203125 13.953125 C-15.86554688 13.17582031 -15.8990625 12.39851562 -15.93359375 11.59765625 C-16.03207718 5.83637547 -16.03207718 5.83637547 -13.81640625 2.71875 C-9.51365286 -0.1999009 -5.06168012 0.03068236 0 0 Z M57.41796875 9.203125 C57.41796875 9.533125 57.41796875 9.863125 57.41796875 10.203125 C59.06796875 10.203125 60.71796875 10.203125 62.41796875 10.203125 C62.41796875 11.853125 62.41796875 13.503125 62.41796875 15.203125 C57.54296875 16.203125 57.54296875 16.203125 56.41796875 16.203125 C56.08796875 20.823125 55.75796875 25.443125 55.41796875 30.203125 C48.98296875 30.698125 48.98296875 30.698125 42.41796875 31.203125 C42.41796875 70.143125 42.41796875 109.083125 42.41796875 149.203125 C44.06796875 148.873125 45.71796875 148.543125 47.41796875 148.203125 C47.74796875 141.603125 48.07796875 135.003125 48.41796875 128.203125 C58.31796875 127.708125 58.31796875 127.708125 68.41796875 127.203125 C68.08796875 125.223125 67.75796875 123.243125 67.41796875 121.203125 C67.74796875 120.873125 68.07796875 120.543125 68.41796875 120.203125 C68.70266191 116.84103435 68.86691938 113.47898499 69.0390625 110.109375 C69.22662109 108.67078125 69.22662109 108.67078125 69.41796875 107.203125 C70.40796875 106.708125 70.40796875 106.708125 71.41796875 106.203125 C70.09796875 105.873125 68.77796875 105.543125 67.41796875 105.203125 C67.74796875 103.553125 68.07796875 101.903125 68.41796875 100.203125 C69.73796875 100.533125 71.05796875 100.863125 72.41796875 101.203125 C72.41796875 102.853125 72.41796875 104.503125 72.41796875 106.203125 C77.36796875 106.203125 82.31796875 106.203125 87.41796875 106.203125 C87.41796875 104.553125 87.41796875 102.903125 87.41796875 101.203125 C88.07796875 100.543125 88.73796875 99.883125 89.41796875 99.203125 C89.88283593 96.08116164 89.88283593 96.08116164 90.04296875 92.578125 C90.11773437 91.38960938 90.1925 90.20109375 90.26953125 88.9765625 C90.31851563 88.06132812 90.3675 87.14609375 90.41796875 86.203125 C89.42796875 85.873125 88.43796875 85.543125 87.41796875 85.203125 C87.74796875 83.553125 88.07796875 81.903125 88.41796875 80.203125 C89.73796875 80.533125 91.05796875 80.863125 92.41796875 81.203125 C92.74796875 82.523125 93.07796875 83.843125 93.41796875 85.203125 C97.70796875 85.203125 101.99796875 85.203125 106.41796875 85.203125 C107.07796875 83.553125 107.73796875 81.903125 108.41796875 80.203125 C109.07796875 79.873125 109.73796875 79.543125 110.41796875 79.203125 C110.41796875 74.913125 110.41796875 70.623125 110.41796875 66.203125 C108.93296875 65.708125 108.93296875 65.708125 107.41796875 65.203125 C107.79296875 62.765625 107.79296875 62.765625 108.41796875 60.203125 C109.07796875 59.873125 109.73796875 59.543125 110.41796875 59.203125 C110.41796875 54.913125 110.41796875 50.623125 110.41796875 46.203125 C108.93296875 45.708125 108.93296875 45.708125 107.41796875 45.203125 C107.79296875 42.765625 107.79296875 42.765625 108.41796875 40.203125 C109.40796875 39.708125 109.40796875 39.708125 110.41796875 39.203125 C110.41796875 36.563125 110.41796875 33.923125 110.41796875 31.203125 C107.77796875 31.203125 105.13796875 31.203125 102.41796875 31.203125 C101.92296875 33.678125 101.92296875 33.678125 101.41796875 36.203125 C100.09796875 36.203125 98.77796875 36.203125 97.41796875 36.203125 C97.37671875 35.44 97.33546875 34.676875 97.29296875 33.890625 C96.657656 30.91154373 96.657656 30.91154373 93.54296875 29.578125 C92.51171875 29.124375 91.48046875 28.670625 90.41796875 28.203125 C88.48046875 26.828125 88.48046875 26.828125 87.41796875 25.203125 C87.83902138 20.78207237 87.83902138 20.78207237 89.41796875 19.203125 C89.51587445 17.70574376 89.54771739 16.20369608 89.54296875 14.703125 C89.54554688 13.8884375 89.548125 13.07375 89.55078125 12.234375 C89.64248655 10.20782123 89.64248655 10.20782123 88.41796875 9.203125 C86.12645458 9.11521525 83.83224351 9.09618462 81.5390625 9.10546875 C80.85240005 9.1068837 80.16573761 9.10829865 79.45826721 9.10975647 C77.25729074 9.11537021 75.05641466 9.12792493 72.85546875 9.140625 C71.36653792 9.14563824 69.87760551 9.15020145 68.38867188 9.15429688 C64.731738 9.16534407 61.07486317 9.18261787 57.41796875 9.203125 Z " transform="translate(214.58203125,176.796875)"/>
<path d="M0 0 C1.09860603 -0.00855011 1.09860603 -0.00855011 2.21940613 -0.01727295 C3.76678025 -0.02669981 5.31417424 -0.03324772 6.86157227 -0.03710938 C9.21211345 -0.04679933 11.56177373 -0.07783679 13.91210938 -0.109375 C15.42056776 -0.1159076 16.92903236 -0.12115706 18.4375 -0.125 C19.13253128 -0.1373468 19.82756256 -0.1496936 20.5436554 -0.16241455 C25.61542402 -0.13960374 28.98392765 0.92778485 33.41796875 3.203125 C36.23555904 6.55959868 35.64560763 10.77651194 35.54296875 14.953125 C35.53394531 15.65050781 35.52492188 16.34789062 35.515625 17.06640625 C35.49216763 18.77879458 35.45629979 20.49100504 35.41796875 22.203125 C39.37796875 22.203125 43.33796875 22.203125 47.41796875 22.203125 C47.36576172 20.66591797 47.36576172 20.66591797 47.3125 19.09765625 C47.2843484 17.73699564 47.25704971 16.3763172 47.23046875 15.015625 C47.20533203 14.34208984 47.18019531 13.66855469 47.15429688 12.97460938 C47.08906762 8.51727729 47.45313615 5.60304834 50.41796875 2.203125 C55.01916887 0.25151518 59.29742434 -0.10413542 64.23046875 -0.09765625 C64.96241455 -0.10194138 65.69436035 -0.1062265 66.44848633 -0.11064148 C67.98810802 -0.11635617 69.52775669 -0.11690626 71.06738281 -0.11254883 C73.41127841 -0.10938403 75.75391587 -0.13289859 78.09765625 -0.15820312 C79.60025884 -0.16047609 81.10286479 -0.16117963 82.60546875 -0.16015625 C83.29938721 -0.169366 83.99330566 -0.17857574 84.70825195 -0.18806458 C89.33532502 -0.14445485 92.5061294 0.7332331 96.41796875 3.203125 C98.94572226 6.99475527 98.6423991 10.01186531 98.54296875 14.390625 C98.53394531 15.14021484 98.52492188 15.88980469 98.515625 16.66210938 C98.49209453 18.50925154 98.45622436 20.35622912 98.41796875 22.203125 C100.06345703 22.11611328 100.06345703 22.11611328 101.7421875 22.02734375 C103.19657189 21.98042812 104.65100249 21.93492989 106.10546875 21.890625 C106.82669922 21.84873047 107.54792969 21.80683594 108.29101562 21.76367188 C109.3496582 21.73950195 109.3496582 21.73950195 110.4296875 21.71484375 C111.07381592 21.68865967 111.71794434 21.66247559 112.3815918 21.63549805 C114.88016294 22.33195865 116.63782444 23.33601216 118.40065002 25.2525177 C120.86568756 29.97898158 120.12198652 35.88815399 120.08203125 41.078125 C120.08540239 42.44906036 120.0902575 43.8199928 120.0965271 45.19091797 C120.10388469 48.05920974 120.09323085 50.92672109 120.06982422 53.79492188 C120.04133474 57.46395993 120.05774503 61.13116936 120.08768654 64.80014038 C120.10579108 67.62961502 120.09998756 70.45865906 120.08704758 73.28814697 C120.08210997 75.29611403 120.09724339 77.3040981 120.11270142 79.31201172 C119.98244743 89.43403665 119.98244743 89.43403665 117.12573242 92.53979492 C114.55239552 94.12054908 113.38563245 94.81156661 110.4296875 94.69140625 C109.72392578 94.67529297 109.01816406 94.65917969 108.29101562 94.64257812 C107.56978516 94.60068359 106.84855469 94.55878906 106.10546875 94.515625 C105.36490234 94.49306641 104.62433594 94.47050781 103.86132812 94.44726562 C102.04599518 94.3887065 100.23171194 94.29903386 98.41796875 94.203125 C98.47597656 95.30011719 98.53398437 96.39710938 98.59375 97.52734375 C98.64066563 98.98172814 98.68616386 100.43615874 98.73046875 101.890625 C98.79331055 102.9724707 98.79331055 102.9724707 98.85742188 104.07617188 C98.94807695 108.04686437 98.68270058 109.80602725 96.41796875 113.203125 C92.46107684 115.84105294 89.7359521 115.78459856 85.10546875 115.515625 C84.36490234 115.49306641 83.62433594 115.47050781 82.86132812 115.44726562 C81.04599518 115.3887065 79.23171194 115.29903386 77.41796875 115.203125 C77.47597656 116.30011719 77.53398437 117.39710938 77.59375 118.52734375 C77.64066563 119.98172814 77.68616386 121.43615874 77.73046875 122.890625 C77.77236328 123.61185547 77.81425781 124.33308594 77.85742188 125.07617188 C77.94807695 129.04686437 77.68270058 130.80602725 75.41796875 134.203125 C71.46107684 136.84105294 68.7359521 136.78459856 64.10546875 136.515625 C62.99461914 136.48178711 62.99461914 136.48178711 61.86132812 136.44726562 C60.04599518 136.3887065 58.23171194 136.29903386 56.41796875 136.203125 C56.47597656 137.30011719 56.53398437 138.39710938 56.59375 139.52734375 C56.64066563 140.98172814 56.68616386 142.43615874 56.73046875 143.890625 C56.77236328 144.61185547 56.81425781 145.33308594 56.85742188 146.07617188 C56.95289281 150.25779865 56.77718538 151.74763591 54.0859375 155.16015625 C48.54635974 159.40202912 42.11088151 158.65415161 35.41796875 158.203125 C32.0675796 157.44243564 29.33287274 156.47603491 27.25 153.578125 C26.07250279 150.2170062 26.20666584 146.96498941 26.29296875 143.453125 C26.30199219 142.75574219 26.31101562 142.05835938 26.3203125 141.33984375 C26.34376987 139.62745542 26.37963771 137.91524496 26.41796875 136.203125 C24.77248047 136.29013672 24.77248047 136.29013672 23.09375 136.37890625 C21.63936561 136.42582188 20.18493501 136.47132011 18.73046875 136.515625 C17.64862305 136.5784668 17.64862305 136.5784668 16.54492188 136.64257812 C12.57422938 136.7332332 10.8150665 136.46785683 7.41796875 134.203125 C4.78004081 130.24623309 4.83649519 127.52110835 5.10546875 122.890625 C5.12802734 122.15005859 5.15058594 121.40949219 5.17382812 120.64648438 C5.23238725 118.83115143 5.32205989 117.01686819 5.41796875 115.203125 C4.32097656 115.26113281 3.22398437 115.31914062 2.09375 115.37890625 C0.63936561 115.42582188 -0.81506499 115.47132011 -2.26953125 115.515625 C-2.99076172 115.55751953 -3.71199219 115.59941406 -4.45507812 115.64257812 C-8.42577062 115.7332332 -10.1849335 115.46785683 -13.58203125 113.203125 C-16.21995919 109.24623309 -16.16350481 106.52110835 -15.89453125 101.890625 C-15.87197266 101.15005859 -15.84941406 100.40949219 -15.82617188 99.64648438 C-15.76761275 97.83115143 -15.67794011 96.01686819 -15.58203125 94.203125 C-16.67902344 94.26113281 -17.77601563 94.31914062 -18.90625 94.37890625 C-20.36063439 94.42582188 -21.81506499 94.47132011 -23.26953125 94.515625 C-23.99076172 94.55751953 -24.71199219 94.59941406 -25.45507812 94.64257812 C-26.5137207 94.66674805 -26.5137207 94.66674805 -27.59375 94.69140625 C-28.23787842 94.71759033 -28.88200684 94.74377441 -29.5456543 94.77075195 C-32.04422544 94.07429135 -33.80188694 93.07023784 -35.56471252 91.1537323 C-38.02975006 86.42726842 -37.28604902 80.51809601 -37.24609375 75.328125 C-37.24946489 73.95718964 -37.25432 72.5862572 -37.2605896 71.21533203 C-37.26794719 68.34704026 -37.25729335 65.47952891 -37.23388672 62.61132812 C-37.20539724 58.94229007 -37.22180753 55.27508064 -37.25174904 51.60610962 C-37.26985358 48.77663498 -37.26405006 45.94759094 -37.25111008 43.11810303 C-37.24617247 41.11013597 -37.26130589 39.1021519 -37.27676392 37.09423828 C-37.14650993 26.97221335 -37.14650993 26.97221335 -34.28979492 23.86645508 C-31.71645802 22.28570092 -30.54969495 21.59468339 -27.59375 21.71484375 C-26.88798828 21.73095703 -26.18222656 21.74707031 -25.45507812 21.76367188 C-24.73384766 21.80556641 -24.01261719 21.84746094 -23.26953125 21.890625 C-22.52896484 21.91318359 -21.78839844 21.93574219 -21.02539062 21.95898438 C-19.21005768 22.0175435 -17.39577444 22.10721614 -15.58203125 22.203125 C-15.6284375 21.02234375 -15.67484375 19.8415625 -15.72265625 18.625 C-15.76018074 17.06773366 -15.79658018 15.51043992 -15.83203125 13.953125 C-15.86554688 13.17582031 -15.8990625 12.39851562 -15.93359375 11.59765625 C-16.03207718 5.83637547 -16.03207718 5.83637547 -13.81640625 2.71875 C-9.51365286 -0.1999009 -5.06168012 0.03068236 0 0 Z M-6.58203125 9.203125 C-6.61941406 10.46769531 -6.65679687 11.73226562 -6.6953125 13.03515625 C-6.76096958 14.6953423 -6.82741701 16.35549722 -6.89453125 18.015625 C-6.91708984 18.84900391 -6.93964844 19.68238281 -6.96289062 20.54101562 C-6.99833984 21.34345703 -7.03378906 22.14589844 -7.0703125 22.97265625 C-7.09649658 23.71104736 -7.12268066 24.44943848 -7.1496582 25.21020508 C-7.58203125 27.203125 -7.58203125 27.203125 -10.58203125 30.203125 C-18.99703125 30.698125 -18.99703125 30.698125 -27.58203125 31.203125 C-27.58203125 49.023125 -27.58203125 66.843125 -27.58203125 85.203125 C-20.98203125 85.533125 -14.38203125 85.863125 -7.58203125 86.203125 C-7.25203125 92.803125 -6.92203125 99.403125 -6.58203125 106.203125 C0.01796875 106.533125 6.61796875 106.863125 13.41796875 107.203125 C13.74796875 113.803125 14.07796875 120.403125 14.41796875 127.203125 C20.25147396 127.49207544 20.25147396 127.49207544 26.08544922 127.77124023 C26.81135254 127.80934814 27.53725586 127.84745605 28.28515625 127.88671875 C29.02878418 127.92337646 29.77241211 127.96003418 30.53857422 127.99780273 C32.41796875 128.203125 32.41796875 128.203125 34.41796875 129.203125 C34.4430249 129.77345459 34.46808105 130.34378418 34.49389648 130.93139648 C34.60953424 133.50138657 34.73240499 136.07098027 34.85546875 138.640625 C34.89478516 139.53845703 34.93410156 140.43628906 34.97460938 141.36132812 C35.01650391 142.21533203 35.05839844 143.06933594 35.1015625 143.94921875 C35.15654907 145.13535767 35.15654907 145.13535767 35.21264648 146.34545898 C35.22360132 148.21713941 35.22360132 148.21713941 36.41796875 149.203125 C38.08225926 149.30136437 39.75078806 149.33286131 41.41796875 149.328125 C42.32546875 149.33070313 43.23296875 149.33328125 44.16796875 149.3359375 C46.38763486 149.45486279 46.38763486 149.45486279 47.41796875 148.203125 C47.57451902 146.71673508 47.66863818 145.22363373 47.734375 143.73046875 C47.77248291 142.92085693 47.81059082 142.11124512 47.84985352 141.27709961 C47.89295654 140.24206299 47.93605957 139.20702637 47.98046875 138.140625 C48.12484375 134.86125 48.26921875 131.581875 48.41796875 128.203125 C58.31796875 127.708125 58.31796875 127.708125 68.41796875 127.203125 C68.74796875 120.603125 69.07796875 114.003125 69.41796875 107.203125 C79.31796875 106.708125 79.31796875 106.708125 89.41796875 106.203125 C89.74796875 99.603125 90.07796875 93.003125 90.41796875 86.203125 C100.31796875 85.708125 100.31796875 85.708125 110.41796875 85.203125 C110.41796875 67.383125 110.41796875 49.563125 110.41796875 31.203125 C104.80796875 30.873125 99.19796875 30.543125 93.41796875 30.203125 C90.41796875 28.203125 90.41796875 28.203125 90.00146484 26.33959961 C89.97173584 25.23370483 89.97173584 25.23370483 89.94140625 24.10546875 C89.91046875 23.30431641 89.87953125 22.50316406 89.84765625 21.67773438 C89.82960938 20.84048828 89.8115625 20.00324219 89.79296875 19.140625 C90.12691176 13.74587973 90.12691176 13.74587973 88.41796875 9.203125 C86.13849083 9.1029157 83.8558974 9.07231197 81.57421875 9.0703125 C80.88992798 9.06935577 80.20563721 9.06839905 79.50061035 9.06741333 C78.05134998 9.0667317 76.60208657 9.06858477 75.15283203 9.07275391 C72.92733947 9.07810248 70.70204874 9.0728084 68.4765625 9.06640625 C67.07161414 9.06706703 65.6666659 9.0683482 64.26171875 9.0703125 C62.97458984 9.07144043 61.68746094 9.07256836 60.36132812 9.07373047 C57.52970718 8.86626357 57.52970718 8.86626357 56.41796875 10.203125 C56.26141848 11.68951492 56.16729932 13.18261627 56.1015625 14.67578125 C56.05966797 15.57490234 56.01777344 16.47402344 55.97460938 17.40039062 C55.93529297 18.34591797 55.89597656 19.29144531 55.85546875 20.265625 C55.79069336 21.6897168 55.79069336 21.6897168 55.72460938 23.14257812 C55.61817599 25.49593853 55.51615867 27.84940854 55.41796875 30.203125 C51.12631613 30.23204449 46.83468839 30.24989618 42.54296875 30.265625 C41.31964844 30.27400391 40.09632813 30.28238281 38.8359375 30.29101562 C37.08603516 30.29584961 37.08603516 30.29584961 35.30078125 30.30078125 C33.68260498 30.30863647 33.68260498 30.30863647 32.03173828 30.31665039 C29.41796875 30.203125 29.41796875 30.203125 27.41796875 29.203125 C27.3929126 28.63279541 27.36785645 28.06246582 27.34204102 27.47485352 C27.22640326 24.90486343 27.10353251 22.33526973 26.98046875 19.765625 C26.94115234 18.86779297 26.90183594 17.96996094 26.86132812 17.04492188 C26.81943359 16.19091797 26.77753906 15.33691406 26.734375 14.45703125 C26.67938843 13.27089233 26.67938843 13.27089233 26.62329102 12.06079102 C26.61233618 10.18911059 26.61233618 10.18911059 25.41796875 9.203125 C23.04228355 9.1147283 20.69588201 9.08782195 18.3203125 9.10546875 C17.61145401 9.1068837 16.90259552 9.10829865 16.17225647 9.10975647 C13.89995163 9.11537057 11.627744 9.12792537 9.35546875 9.140625 C7.81836079 9.14563819 6.2812513 9.15020141 4.74414062 9.15429688 C0.96871233 9.16534458 -2.80664296 9.18261859 -6.58203125 9.203125 Z " transform="translate(392.58203125,176.796875)"/>
<path d="M0 0 C1.2065625 0.0309375 1.2065625 0.0309375 2.4375 0.0625 C3.0625 2.4375 3.0625 2.4375 3.4375 5.0625 C2.7775 5.7225 2.1175 6.3825 1.4375 7.0625 C-1.1875 6.6875 -1.1875 6.6875 -3.5625 6.0625 C-3.605221 4.39638095 -3.60313832 2.72867115 -3.5625 1.0625 C-2.5625 0.0625 -2.5625 0.0625 0 0 Z " transform="translate(294.5625,266.9375)"/>
<path d="M0 0 C1.2065625 0.0309375 1.2065625 0.0309375 2.4375 0.0625 C3.0625 2.4375 3.0625 2.4375 3.4375 5.0625 C2.7775 5.7225 2.1175 6.3825 1.4375 7.0625 C-1.1875 6.6875 -1.1875 6.6875 -3.5625 6.0625 C-3.605221 4.39638095 -3.60313832 2.72867115 -3.5625 1.0625 C-2.5625 0.0625 -2.5625 0.0625 0 0 Z " transform="translate(274.5625,266.9375)"/>
<path d="M0 0 C1.2065625 0.0309375 1.2065625 0.0309375 2.4375 0.0625 C3.0625 2.4375 3.0625 2.4375 3.4375 5.0625 C2.7775 5.7225 2.1175 6.3825 1.4375 7.0625 C-1.1875 6.6875 -1.1875 6.6875 -3.5625 6.0625 C-3.605221 4.39638095 -3.60313832 2.72867115 -3.5625 1.0625 C-2.5625 0.0625 -2.5625 0.0625 0 0 Z " transform="translate(314.5625,246.9375)"/>
<path d="M0 0 C1.2065625 0.0309375 1.2065625 0.0309375 2.4375 0.0625 C3.0625 2.4375 3.0625 2.4375 3.4375 5.0625 C2.7775 5.7225 2.1175 6.3825 1.4375 7.0625 C-1.1875 6.6875 -1.1875 6.6875 -3.5625 6.0625 C-3.605221 4.39638095 -3.60313832 2.72867115 -3.5625 1.0625 C-2.5625 0.0625 -2.5625 0.0625 0 0 Z " transform="translate(294.5625,246.9375)"/>
<path d="M0 0 C1.2065625 0.0309375 1.2065625 0.0309375 2.4375 0.0625 C3.0625 2.4375 3.0625 2.4375 3.4375 5.0625 C2.7775 5.7225 2.1175 6.3825 1.4375 7.0625 C-1.1875 6.6875 -1.1875 6.6875 -3.5625 6.0625 C-3.605221 4.39638095 -3.60313832 2.72867115 -3.5625 1.0625 C-2.5625 0.0625 -2.5625 0.0625 0 0 Z " transform="translate(274.5625,246.9375)"/>
<path d="M0 0 C1.2065625 0.0309375 1.2065625 0.0309375 2.4375 0.0625 C3.0625 2.4375 3.0625 2.4375 3.4375 5.0625 C2.7775 5.7225 2.1175 6.3825 1.4375 7.0625 C-1.1875 6.6875 -1.1875 6.6875 -3.5625 6.0625 C-3.605221 4.39638095 -3.60313832 2.72867115 -3.5625 1.0625 C-2.5625 0.0625 -2.5625 0.0625 0 0 Z " transform="translate(314.5625,226.9375)"/>
<path d="M0 0 C1.2065625 0.0309375 1.2065625 0.0309375 2.4375 0.0625 C3.0625 2.4375 3.0625 2.4375 3.4375 5.0625 C2.7775 5.7225 2.1175 6.3825 1.4375 7.0625 C-1.1875 6.6875 -1.1875 6.6875 -3.5625 6.0625 C-3.605221 4.39638095 -3.60313832 2.72867115 -3.5625 1.0625 C-2.5625 0.0625 -2.5625 0.0625 0 0 Z " transform="translate(294.5625,226.9375)"/>
<path d="M0 0 C1.2065625 0.0309375 1.2065625 0.0309375 2.4375 0.0625 C3.0625 2.4375 3.0625 2.4375 3.4375 5.0625 C2.7775 5.7225 2.1175 6.3825 1.4375 7.0625 C-1.1875 6.6875 -1.1875 6.6875 -3.5625 6.0625 C-3.605221 4.39638095 -3.60313832 2.72867115 -3.5625 1.0625 C-2.5625 0.0625 -2.5625 0.0625 0 0 Z " transform="translate(274.5625,226.9375)"/>
<path d="M0 0 C1.2065625 0.0309375 1.2065625 0.0309375 2.4375 0.0625 C3.0625 2.4375 3.0625 2.4375 3.4375 5.0625 C2.7775 5.7225 2.1175 6.3825 1.4375 7.0625 C-1.1875 6.6875 -1.1875 6.6875 -3.5625 6.0625 C-3.605221 4.39638095 -3.60313832 2.72867115 -3.5625 1.0625 C-2.5625 0.0625 -2.5625 0.0625 0 0 Z " transform="translate(294.5625,206.9375)"/>
<path d="M0 0 C1.2065625 0.0309375 1.2065625 0.0309375 2.4375 0.0625 C3.0625 2.4375 3.0625 2.4375 3.4375 5.0625 C2.7775 5.7225 2.1175 6.3825 1.4375 7.0625 C-1.1875 6.6875 -1.1875 6.6875 -3.5625 6.0625 C-3.605221 4.39638095 -3.60313832 2.72867115 -3.5625 1.0625 C-2.5625 0.0625 -2.5625 0.0625 0 0 Z " transform="translate(274.5625,206.9375)"/>
<path d="M0 0 C1.2065625 0.0309375 1.2065625 0.0309375 2.4375 0.0625 C3.0625 2.4375 3.0625 2.4375 3.4375 5.0625 C2.7775 5.7225 2.1175 6.3825 1.4375 7.0625 C-1.1875 6.6875 -1.1875 6.6875 -3.5625 6.0625 C-3.605221 4.39638095 -3.60313832 2.72867115 -3.5625 1.0625 C-2.5625 0.0625 -2.5625 0.0625 0 0 Z " transform="translate(294.5625,186.9375)"/>
<path d="M0 0 C2.125 0.375 2.125 0.375 4 1 C4.38218767 2.65614657 4.71395102 4.32457024 5 6 C4 7 4 7 1.4375 7.0625 C0.2309375 7.0315625 0.2309375 7.0315625 -1 7 C-1.625 4.625 -1.625 4.625 -2 2 C-1.34 1.34 -0.68 0.68 0 0 Z " transform="translate(263,296)"/>
<path d="M0 0 C1.2065625 0.0309375 1.2065625 0.0309375 2.4375 0.0625 C3.0625 2.4375 3.0625 2.4375 3.4375 5.0625 C2.7775 5.7225 2.1175 6.3825 1.4375 7.0625 C-1.1875 6.6875 -1.1875 6.6875 -3.5625 6.0625 C-3.605221 4.39638095 -3.60313832 2.72867115 -3.5625 1.0625 C-2.5625 0.0625 -2.5625 0.0625 0 0 Z " transform="translate(274.5625,286.9375)"/>
<path d="M0 0 C2.125 0.375 2.125 0.375 4 1 C4.38218767 2.65614657 4.71395102 4.32457024 5 6 C4 7 4 7 1.4375 7.0625 C0.2309375 7.0315625 0.2309375 7.0315625 -1 7 C-1.625 4.625 -1.625 4.625 -2 2 C-1.34 1.34 -0.68 0.68 0 0 Z " transform="translate(263,276)"/>
<path d="M0 0 C2.125 0.375 2.125 0.375 4 1 C4.38218767 2.65614657 4.71395102 4.32457024 5 6 C4 7 4 7 1.4375 7.0625 C0.2309375 7.0315625 0.2309375 7.0315625 -1 7 C-1.625 4.625 -1.625 4.625 -2 2 C-1.34 1.34 -0.68 0.68 0 0 Z " transform="translate(283,256)"/>
<path d="M0 0 C2.125 0.375 2.125 0.375 4 1 C4.38218767 2.65614657 4.71395102 4.32457024 5 6 C4 7 4 7 1.4375 7.0625 C0.2309375 7.0315625 0.2309375 7.0315625 -1 7 C-1.625 4.625 -1.625 4.625 -2 2 C-1.34 1.34 -0.68 0.68 0 0 Z " transform="translate(263,256)"/>
<path d="M0 0 C2.125 0.375 2.125 0.375 4 1 C4.38218767 2.65614657 4.71395102 4.32457024 5 6 C4 7 4 7 1.4375 7.0625 C0.2309375 7.0315625 0.2309375 7.0315625 -1 7 C-1.625 4.625 -1.625 4.625 -2 2 C-1.34 1.34 -0.68 0.68 0 0 Z " transform="translate(303,236)"/>
<path d="M0 0 C2.125 0.375 2.125 0.375 4 1 C4.38218767 2.65614657 4.71395102 4.32457024 5 6 C4 7 4 7 1.4375 7.0625 C0.2309375 7.0315625 0.2309375 7.0315625 -1 7 C-1.625 4.625 -1.625 4.625 -2 2 C-1.34 1.34 -0.68 0.68 0 0 Z " transform="translate(283,236)"/>
<path d="M0 0 C2.125 0.375 2.125 0.375 4 1 C4.38218767 2.65614657 4.71395102 4.32457024 5 6 C4 7 4 7 1.4375 7.0625 C0.2309375 7.0315625 0.2309375 7.0315625 -1 7 C-1.625 4.625 -1.625 4.625 -2 2 C-1.34 1.34 -0.68 0.68 0 0 Z " transform="translate(263,236)"/>
<path d="M0 0 C2.125 0.375 2.125 0.375 4 1 C4.38218767 2.65614657 4.71395102 4.32457024 5 6 C4 7 4 7 1.4375 7.0625 C0.2309375 7.0315625 0.2309375 7.0315625 -1 7 C-1.625 4.625 -1.625 4.625 -2 2 C-1.34 1.34 -0.68 0.68 0 0 Z " transform="translate(303,216)"/>
<path d="M0 0 C2.125 0.375 2.125 0.375 4 1 C4.38218767 2.65614657 4.71395102 4.32457024 5 6 C4 7 4 7 1.4375 7.0625 C0.2309375 7.0315625 0.2309375 7.0315625 -1 7 C-1.625 4.625 -1.625 4.625 -2 2 C-1.34 1.34 -0.68 0.68 0 0 Z " transform="translate(283,216)"/>
<path d="M0 0 C2.125 0.375 2.125 0.375 4 1 C4.38218767 2.65614657 4.71395102 4.32457024 5 6 C4 7 4 7 1.4375 7.0625 C0.2309375 7.0315625 0.2309375 7.0315625 -1 7 C-1.625 4.625 -1.625 4.625 -2 2 C-1.34 1.34 -0.68 0.68 0 0 Z " transform="translate(263,216)"/>
<path d="M0 0 C2.125 0.375 2.125 0.375 4 1 C4.38218767 2.65614657 4.71395102 4.32457024 5 6 C4 7 4 7 1.4375 7.0625 C0.2309375 7.0315625 0.2309375 7.0315625 -1 7 C-1.625 4.625 -1.625 4.625 -2 2 C-1.34 1.34 -0.68 0.68 0 0 Z " transform="translate(283,196)"/>
</svg>
