<?xml version="1.0" encoding="utf-8"?>
<!-- Generator: Adobe Illustrator 16.0.0, SVG Export Plug-In . SVG Version: 6.00 Build 0)  -->
<!DOCTYPE svg PUBLIC "-//W3C//DTD SVG 1.1//EN" "http://www.w3.org/Graphics/SVG/1.1/DTD/svg11.dtd">
<svg version="1.1" id="Layer_1" xmlns="http://www.w3.org/2000/svg" xmlns:xlink="http://www.w3.org/1999/xlink" x="0px" y="0px" viewBox="0 0 800 800" enable-background="new 0 0 800 800" xml:space="preserve">
<g>
	<g>
		<path d="M473.387,227.341h-39.425c-8.717,0-15.779,7.063-15.779,15.78c0,8.717,7.063,15.779,15.779,15.779h39.425h31.56h39.424
			c8.717,0,15.779-7.063,15.779-15.779c0-8.716-7.063-15.78-15.778-15.78H505.25H473.387z"/>
	</g>
</g>
<g>
	<g>
		<path d="M473.387,346.007h-39.425c-8.717,0-15.779,7.063-15.779,15.78c0,8.717,7.063,15.779,15.779,15.779h39.425h31.56h39.424
			c8.717,0,15.779-7.063,15.779-15.779c0-8.716-7.063-15.78-15.778-15.78H505.25H473.387z"/>
	</g>
</g>
<g>
	<g>
		<path d="M552.942,19.547h-65.296c-59.098,0-116.284,21.2-161.023,59.695c-38.901,33.47-66.337,78.134-78.651,127.406
			c-6.575-3.795-14.192-5.984-22.313-5.984c-11.056,0-21.192,4.026-29.014,10.69c-7.82-6.664-17.957-10.69-29.013-10.69
			c-24.698,0-44.794,20.094-44.794,44.792v106.589H96.45c-22.332,0-40.5,18.168-40.5,40.499s18.168,40.5,40.5,40.5h26.386v201.485
			c-11.397,4.935-21.522,12.591-29.352,22.36c-8.78-4.271-18.479-6.532-28.438-6.532C29.181,650.357,0,679.539,0,715.406
			s29.181,65.047,65.047,65.047h379.236c0.026,0,0.055-0.002,0.082-0.002h274.557h65.299c8.714,0,15.779-7.063,15.779-15.779
			V266.603C800,130.375,689.172,19.547,552.942,19.547z M96.45,401.486c-4.93,0-8.941-4.013-8.941-8.941
			c0-4.93,4.011-8.938,8.941-8.938h42.167c8.716,0,15.78-7.063,15.78-15.78V245.459c0-7.297,5.936-13.233,13.234-13.233
			c7.297,0,13.233,5.936,13.233,13.233v107.473c0,8.717,7.065,15.78,15.779,15.78s15.78-7.063,15.78-15.78V245.459
			c0-7.297,5.936-13.233,13.234-13.233c7.297,0,13.233,5.936,13.233,13.233v107.473c0,8.717,7.065,15.78,15.78,15.78
			s15.78-7.063,15.78-15.78V245.459c0-4.214,2.106-8.277,5.526-10.734c8.614-6.186,20.938,0.176,20.938,10.734v107.473
			c0,8.717,7.065,15.78,15.779,15.78c8.715,0,15.779-7.063,15.779-15.78V245.459c0-7.297,5.937-13.233,13.234-13.233
			c7.297,0,13.232,5.936,13.232,13.233c0,0,0,382.77,0,382.813c0-0.091-7.612,0.571-8.25,0.655
			c-2.842,0.372-5.662,0.906-8.443,1.593c-5.563,1.377-10.977,3.368-16.099,5.938c-2.386,1.209-4.72,2.517-6.967,3.962
			c-15.553-16.459-37.48-26.189-60.516-26.189c-23.034,0-44.962,9.73-60.516,26.189c-9.767-6.282-21.016-10.276-32.547-11.621
			c-2.386-0.277-4.806-0.479-7.208-0.526V417.266c0-8.717-7.066-15.778-15.78-15.778L96.45,401.486L96.45,401.486z M444.244,748.894
			H65.047c-18.466,0-33.487-15.022-33.487-33.486s15.023-33.487,33.487-33.487c8.361,0,16.367,3.099,22.542,8.725
			c3.714,3.384,8.817,4.795,13.739,3.808c4.923-0.991,9.083-4.266,11.2-8.822c11.416-24.594,43.719-33.415,65.925-17.787
			c2.478,1.743,4.776,3.743,6.856,5.945c3.398,3.594,8.276,5.386,13.203,4.85c9.948-1.083,14.564-13.102,21.276-19.302
			c9.452-8.729,22.026-13.543,34.876-13.543c14.906,0,28.642,6.228,38.314,17.037c2.233,2.495,4.249,5.231,6.011,8.197
			c0.315,0.528,0.663,1.042,1.033,1.523c4.231,5.523,11.932,7.675,18.385,4.979c4.817-2.016,7.729-6.347,11.894-9.229
			c4.279-2.962,8.898-5.272,13.919-6.689c9.758-2.759,20.368-2.153,29.698,1.854c7.284,3.128,13.677,8.264,18.383,14.636
			c4.789,6.479,6.695,14.542,15.698,16.354c4.922,0.99,10.025-0.424,13.739-3.808c6.175-5.628,14.181-8.725,22.542-8.725
			c18.464,0,33.486,15.023,33.486,33.487C477.771,733.869,462.748,748.893,444.244,748.894z M500.033,748.893
			c0.07-0.12,0.133-0.246,0.204-0.365c14.636-24.642,10.929-56.52-8.475-77.442c-5.269-5.683-11.542-10.423-18.475-13.891
			c-17.807-8.907-39.492-9.005-57.403-0.316c-7.777-9.78-17.841-17.471-29.386-22.413V245.456c0-24.698-20.094-44.792-44.792-44.792
			c-11.057,0-21.192,4.026-29.015,10.69c-7.82-6.664-17.957-10.69-29.012-10.69c-0.408,0-0.814,0.006-1.222,0.017
			c12.077-37.556,34.423-71.425,64.746-97.517c39.017-33.569,88.894-52.058,140.44-52.058c118.822,0,215.494,96.67,215.494,215.497
			v482.288H500.033V748.893z M768.44,748.893h-33.737v-482.29c0-54.445-19.037-108.337-52.216-151.4
			c-12.686-16.466-27.458-31.32-43.899-44.044c-0.672-0.52-1.344-1.037-2.021-1.55c-1.161-0.88-2.331-1.747-3.509-2.604
			c-0.444-0.327-0.884-0.666-1.331-0.989c79.972,31.52,136.714,109.553,136.714,200.587V748.893z"/>
	</g>
</g>
<g>
	<g>
		<path d="M458.936,286.674h-68.871c-15.227,0-27.564,7.063-27.564,15.78c0,8.717,12.339,15.779,27.564,15.779h68.871h55.13h68.87
			c15.227,0,27.564-7.063,27.564-15.779c0-8.716-12.339-15.78-27.563-15.78h-68.34H458.936z"/>
	</g>
</g>
</svg>
