<?xml version="1.0" encoding="UTF-8"?>
<svg version="1.1" xmlns="http://www.w3.org/2000/svg" viewBox="0 0 512 512">
<path d="M0 0 C0.77923828 0.17160645 1.55847656 0.34321289 2.36132812 0.52001953 C7.9761493 1.79601159 13.49376676 3.31917367 19 5 C19.79728516 5.24202148 20.59457031 5.48404297 21.41601562 5.73339844 C59.90823066 17.68721582 95.28566811 42.13586976 120 74 C120.41862305 74.53157715 120.83724609 75.0631543 121.26855469 75.61083984 C157.39518741 121.73991683 164.55197206 174.17327466 164.30418181 230.99312449 C164.28515494 236.10859338 164.28364445 241.22407027 164.28010559 246.33956909 C164.27086023 255.9825212 164.24635057 265.62536867 164.21605712 275.26827514 C164.1822762 286.26502645 164.16596816 297.26178332 164.15097082 308.25857377 C164.11979236 330.83910671 164.06718156 353.41954744 164 376 C165.44415283 375.97172119 165.44415283 375.97172119 166.91748047 375.94287109 C168.17963379 375.92820801 169.44178711 375.91354492 170.7421875 375.8984375 C172.61946533 375.87015869 172.61946533 375.87015869 174.53466797 375.84130859 C179.34931083 376.06179034 181.30217616 376.94527596 185 380 C188.46988457 384.47432484 190.12896778 387.92676198 190.11352539 393.56323242 C190.11344986 394.48396042 190.11337433 395.40468842 190.11329651 396.35331726 C190.10813522 397.34402725 190.10297394 398.33473724 190.09765625 399.35546875 C190.09553383 400.88062859 190.09553383 400.88062859 190.09336853 402.43659973 C190.08776707 405.68692964 190.07521432 408.93719088 190.0625 412.1875 C190.05748519 414.38997296 190.05292225 416.59244701 190.04882812 418.79492188 C190.03779717 424.19663804 190.02105762 429.59831412 190 435 C191.452854 434.97063354 191.452854 434.97063354 192.93505859 434.94067383 C194.20172363 434.92544678 195.46838867 434.91021973 196.7734375 434.89453125 C198.03075684 434.87495361 199.28807617 434.85537598 200.58349609 434.83520508 C204.86179168 435.04156849 206.93670874 436.01732167 210 439 C213.63879063 443.13051909 215.11735069 445.44420812 215.17700195 450.90527344 C215.18983719 451.92683533 215.20267242 452.94839722 215.21589661 454.00091553 C215.22697701 455.66335297 215.22697701 455.66335297 215.23828125 457.359375 C215.246353 458.4965094 215.25442474 459.6336438 215.26274109 460.80523682 C215.27659098 463.21617097 215.28730907 465.62712481 215.29516602 468.03808594 C215.31236496 471.7210828 215.3562429 475.40317903 215.40039062 479.0859375 C215.41051853 481.42707672 215.41903433 483.76822359 215.42578125 486.109375 C215.44328934 487.2095697 215.46079742 488.3097644 215.47883606 489.44329834 C215.46133817 495.62869764 215.17146477 499.31347488 211 504 C205.86358531 508.52493675 202.81200869 509.14696706 196.11815262 509.13422108 C194.8764328 509.13774942 194.8764328 509.13774942 193.60962772 509.14134905 C190.80559585 509.14806347 188.00161006 509.14758009 185.1975708 509.14717102 C183.17896794 509.15046812 181.16036575 509.15419336 179.1417644 509.1583125 C173.57109463 509.16835804 168.00043563 509.17205338 162.42975807 509.17470181 C156.43098108 509.17859729 150.43221268 509.18817611 144.43344116 509.19691467 C130.6205242 509.21576469 116.8076066 509.22593816 102.99468044 509.23437535 C96.17158306 509.23857954 89.34848656 509.24380183 82.52538993 509.24905988 C59.17773212 509.26695121 35.83007407 509.28194817 12.48241043 509.28938007 C11.01619841 509.28985483 9.54998639 509.29033072 8.08377437 509.29080774 C6.99309003 509.2911623 6.99309003 509.2911623 5.88037166 509.29152403 C2.19628944 509.29272525 -1.48779278 509.29394069 -5.171875 509.29516602 C-5.90299759 509.29540617 -6.63412019 509.29564632 -7.38739801 509.29589374 C-31.0980038 509.3037886 -54.80855959 509.3272237 -78.51914355 509.35972196 C-103.57631806 509.39400331 -128.63346331 509.41372963 -153.69066167 509.41702431 C-156.4402512 509.41744187 -159.18984072 509.41792143 -161.93943024 509.41844749 C-162.95499953 509.41863228 -162.95499953 509.41863228 -163.99108538 509.4188208 C-174.89675934 509.42115493 -185.80237533 509.43682671 -196.70802862 509.45728934 C-207.66577224 509.47752384 -218.62345554 509.48270192 -229.58121583 509.47351871 C-235.52012588 509.46895915 -241.45884733 509.47095618 -247.39773178 509.49028015 C-252.8309158 509.50780651 -258.26377217 509.50700013 -263.69695917 509.49138286 C-265.66604147 509.48899071 -267.63514585 509.49341278 -269.60419425 509.50521151 C-272.27479441 509.52022708 -274.94421802 509.51073002 -277.61478806 509.49498463 C-278.38458354 509.50520683 -279.15437903 509.51542904 -279.94750166 509.52596101 C-285.113076 509.45919918 -288.01409355 508.24464221 -292 505 C-295.63879063 500.86948091 -297.11735069 498.55579188 -297.17700195 493.09472656 C-297.18983719 492.07316467 -297.20267242 491.05160278 -297.21589661 489.99908447 C-297.22328354 488.89079285 -297.23067047 487.78250122 -297.23828125 486.640625 C-297.246353 485.5034906 -297.25442474 484.3663562 -297.26274109 483.19476318 C-297.27659098 480.78382903 -297.28730907 478.37287519 -297.29516602 475.96191406 C-297.31236496 472.2789172 -297.3562429 468.59682097 -297.40039062 464.9140625 C-297.41051853 462.57292328 -297.41903433 460.23177641 -297.42578125 457.890625 C-297.44328934 456.7904303 -297.46079742 455.6902356 -297.47883606 454.55670166 C-297.46133817 448.37130236 -297.17146477 444.68652512 -293 440 C-287.98944696 435.58594137 -285.53867569 434.87692113 -278.875 434.9375 C-277.59367187 434.94652344 -276.31234375 434.95554687 -274.9921875 434.96484375 C-273.51105469 434.98224609 -273.51105469 434.98224609 -272 435 C-272.00888245 434.44147339 -272.01776489 433.88294678 -272.0269165 433.30749512 C-272.11576624 427.46714567 -272.17588945 421.62698983 -272.21972656 415.78613281 C-272.23977764 413.60962112 -272.26702571 411.43316286 -272.30175781 409.25683594 C-272.35056212 406.11900607 -272.37303438 402.98189165 -272.390625 399.84375 C-272.41127014 398.87884644 -272.43191528 397.91394287 -272.45318604 396.9197998 C-272.45520511 390.76914999 -271.54138602 386.11946233 -268 381 C-263.08071356 376.32067876 -259.46240586 375.87649169 -252.8125 375.9375 C-251.54019531 375.94652344 -250.26789063 375.95554687 -248.95703125 375.96484375 C-247.49330078 375.98224609 -247.49330078 375.98224609 -246 376 C-246.00276538 375.07052614 -246.00553076 374.14105228 -246.00837994 373.18341255 C-246.07530991 350.45033084 -246.12443321 327.71726206 -246.15543652 304.98410225 C-246.17083226 293.99001667 -246.19178028 282.99599661 -246.22631836 272.00195312 C-246.25644619 262.40710077 -246.27562781 252.81229592 -246.28226548 243.21739757 C-246.28613862 238.14828086 -246.29508404 233.07929991 -246.31719017 228.0102272 C-246.53421686 176.22657845 -246.53421686 176.22657845 -240.25 152.0625 C-239.99323486 151.04075684 -239.73646973 150.01901367 -239.47192383 148.96630859 C-232.30857653 121.37718812 -219.55782073 96.38070506 -202 74 C-201.25105469 73.02289063 -200.50210938 72.04578125 -199.73046875 71.0390625 C-195.64454275 65.78257392 -195.64454275 65.78257392 -194 64 C-193.34 64 -192.68 64 -192 64 C-191.91878906 63.42894531 -191.83757812 62.85789062 -191.75390625 62.26953125 C-190.76094191 59.28034845 -189.19722906 57.86970833 -186.9375 55.6875 C-186.12667969 54.90375 -185.31585938 54.12 -184.48046875 53.3125 C-181.05808996 50.12187285 -177.59107955 46.99986523 -174 44 C-173.29746094 43.41089844 -172.59492188 42.82179687 -171.87109375 42.21484375 C-145.12707095 21.58374045 -115.06280482 7.04735949 -82 0 C-81.20932129 -0.17644043 -80.41864258 -0.35288086 -79.60400391 -0.53466797 C-54.84169536 -5.83150268 -24.68011375 -5.54275123 0 0 Z " fill="#FEFEFE" transform="translate(297,3)"/>
<path d="M0 0 C0.77923828 0.17160645 1.55847656 0.34321289 2.36132812 0.52001953 C7.9761493 1.79601159 13.49376676 3.31917367 19 5 C19.79728516 5.24202148 20.59457031 5.48404297 21.41601562 5.73339844 C59.90823066 17.68721582 95.28566811 42.13586976 120 74 C120.41862305 74.53157715 120.83724609 75.0631543 121.26855469 75.61083984 C157.39518741 121.73991683 164.55197206 174.17327466 164.30418181 230.99312449 C164.28515494 236.10859338 164.28364445 241.22407027 164.28010559 246.33956909 C164.27086023 255.9825212 164.24635057 265.62536867 164.21605712 275.26827514 C164.1822762 286.26502645 164.16596816 297.26178332 164.15097082 308.25857377 C164.11979236 330.83910671 164.06718156 353.41954744 164 376 C165.44415283 375.97172119 165.44415283 375.97172119 166.91748047 375.94287109 C168.17963379 375.92820801 169.44178711 375.91354492 170.7421875 375.8984375 C172.61946533 375.87015869 172.61946533 375.87015869 174.53466797 375.84130859 C179.34931083 376.06179034 181.30217616 376.94527596 185 380 C188.46988457 384.47432484 190.12896778 387.92676198 190.11352539 393.56323242 C190.11344986 394.48396042 190.11337433 395.40468842 190.11329651 396.35331726 C190.10813522 397.34402725 190.10297394 398.33473724 190.09765625 399.35546875 C190.09553383 400.88062859 190.09553383 400.88062859 190.09336853 402.43659973 C190.08776707 405.68692964 190.07521432 408.93719088 190.0625 412.1875 C190.05748519 414.38997296 190.05292225 416.59244701 190.04882812 418.79492188 C190.03779717 424.19663804 190.02105762 429.59831412 190 435 C191.452854 434.97063354 191.452854 434.97063354 192.93505859 434.94067383 C194.20172363 434.92544678 195.46838867 434.91021973 196.7734375 434.89453125 C198.03075684 434.87495361 199.28807617 434.85537598 200.58349609 434.83520508 C204.86179168 435.04156849 206.93670874 436.01732167 210 439 C213.63879063 443.13051909 215.11735069 445.44420812 215.17700195 450.90527344 C215.18983719 451.92683533 215.20267242 452.94839722 215.21589661 454.00091553 C215.22697701 455.66335297 215.22697701 455.66335297 215.23828125 457.359375 C215.246353 458.4965094 215.25442474 459.6336438 215.26274109 460.80523682 C215.27659098 463.21617097 215.28730907 465.62712481 215.29516602 468.03808594 C215.31236496 471.7210828 215.3562429 475.40317903 215.40039062 479.0859375 C215.41051853 481.42707672 215.41903433 483.76822359 215.42578125 486.109375 C215.44328934 487.2095697 215.46079742 488.3097644 215.47883606 489.44329834 C215.46133817 495.62869764 215.17146477 499.31347488 211 504 C205.86358531 508.52493675 202.81200869 509.14696706 196.11815262 509.13422108 C194.8764328 509.13774942 194.8764328 509.13774942 193.60962772 509.14134905 C190.80559585 509.14806347 188.00161006 509.14758009 185.1975708 509.14717102 C183.17896794 509.15046812 181.16036575 509.15419336 179.1417644 509.1583125 C173.57109463 509.16835804 168.00043563 509.17205338 162.42975807 509.17470181 C156.43098108 509.17859729 150.43221268 509.18817611 144.43344116 509.19691467 C130.6205242 509.21576469 116.8076066 509.22593816 102.99468044 509.23437535 C96.17158306 509.23857954 89.34848656 509.24380183 82.52538993 509.24905988 C59.17773212 509.26695121 35.83007407 509.28194817 12.48241043 509.28938007 C11.01619841 509.28985483 9.54998639 509.29033072 8.08377437 509.29080774 C6.99309003 509.2911623 6.99309003 509.2911623 5.88037166 509.29152403 C2.19628944 509.29272525 -1.48779278 509.29394069 -5.171875 509.29516602 C-5.90299759 509.29540617 -6.63412019 509.29564632 -7.38739801 509.29589374 C-31.0980038 509.3037886 -54.80855959 509.3272237 -78.51914355 509.35972196 C-103.57631806 509.39400331 -128.63346331 509.41372963 -153.69066167 509.41702431 C-156.4402512 509.41744187 -159.18984072 509.41792143 -161.93943024 509.41844749 C-162.95499953 509.41863228 -162.95499953 509.41863228 -163.99108538 509.4188208 C-174.89675934 509.42115493 -185.80237533 509.43682671 -196.70802862 509.45728934 C-207.66577224 509.47752384 -218.62345554 509.48270192 -229.58121583 509.47351871 C-235.52012588 509.46895915 -241.45884733 509.47095618 -247.39773178 509.49028015 C-252.8309158 509.50780651 -258.26377217 509.50700013 -263.69695917 509.49138286 C-265.66604147 509.48899071 -267.63514585 509.49341278 -269.60419425 509.50521151 C-272.27479441 509.52022708 -274.94421802 509.51073002 -277.61478806 509.49498463 C-278.38458354 509.50520683 -279.15437903 509.51542904 -279.94750166 509.52596101 C-285.113076 509.45919918 -288.01409355 508.24464221 -292 505 C-295.63879063 500.86948091 -297.11735069 498.55579188 -297.17700195 493.09472656 C-297.18983719 492.07316467 -297.20267242 491.05160278 -297.21589661 489.99908447 C-297.22328354 488.89079285 -297.23067047 487.78250122 -297.23828125 486.640625 C-297.246353 485.5034906 -297.25442474 484.3663562 -297.26274109 483.19476318 C-297.27659098 480.78382903 -297.28730907 478.37287519 -297.29516602 475.96191406 C-297.31236496 472.2789172 -297.3562429 468.59682097 -297.40039062 464.9140625 C-297.41051853 462.57292328 -297.41903433 460.23177641 -297.42578125 457.890625 C-297.44328934 456.7904303 -297.46079742 455.6902356 -297.47883606 454.55670166 C-297.46133817 448.37130236 -297.17146477 444.68652512 -293 440 C-287.98944696 435.58594137 -285.53867569 434.87692113 -278.875 434.9375 C-277.59367187 434.94652344 -276.31234375 434.95554687 -274.9921875 434.96484375 C-273.51105469 434.98224609 -273.51105469 434.98224609 -272 435 C-272.00888245 434.44147339 -272.01776489 433.88294678 -272.0269165 433.30749512 C-272.11576624 427.46714567 -272.17588945 421.62698983 -272.21972656 415.78613281 C-272.23977764 413.60962112 -272.26702571 411.43316286 -272.30175781 409.25683594 C-272.35056212 406.11900607 -272.37303438 402.98189165 -272.390625 399.84375 C-272.41127014 398.87884644 -272.43191528 397.91394287 -272.45318604 396.9197998 C-272.45520511 390.76914999 -271.54138602 386.11946233 -268 381 C-263.08071356 376.32067876 -259.46240586 375.87649169 -252.8125 375.9375 C-251.54019531 375.94652344 -250.26789063 375.95554687 -248.95703125 375.96484375 C-247.49330078 375.98224609 -247.49330078 375.98224609 -246 376 C-246.00276538 375.07052614 -246.00553076 374.14105228 -246.00837994 373.18341255 C-246.07530991 350.45033084 -246.12443321 327.71726206 -246.15543652 304.98410225 C-246.17083226 293.99001667 -246.19178028 282.99599661 -246.22631836 272.00195312 C-246.25644619 262.40710077 -246.27562781 252.81229592 -246.28226548 243.21739757 C-246.28613862 238.14828086 -246.29508404 233.07929991 -246.31719017 228.0102272 C-246.53421686 176.22657845 -246.53421686 176.22657845 -240.25 152.0625 C-239.99323486 151.04075684 -239.73646973 150.01901367 -239.47192383 148.96630859 C-232.30857653 121.37718812 -219.55782073 96.38070506 -202 74 C-201.25105469 73.02289063 -200.50210938 72.04578125 -199.73046875 71.0390625 C-195.64454275 65.78257392 -195.64454275 65.78257392 -194 64 C-193.34 64 -192.68 64 -192 64 C-191.91878906 63.42894531 -191.83757812 62.85789062 -191.75390625 62.26953125 C-190.76094191 59.28034845 -189.19722906 57.86970833 -186.9375 55.6875 C-186.12667969 54.90375 -185.31585938 54.12 -184.48046875 53.3125 C-181.05808996 50.12187285 -177.59107955 46.99986523 -174 44 C-173.29746094 43.41089844 -172.59492188 42.82179687 -171.87109375 42.21484375 C-145.12707095 21.58374045 -115.06280482 7.04735949 -82 0 C-81.20932129 -0.17644043 -80.41864258 -0.35288086 -79.60400391 -0.53466797 C-54.84169536 -5.83150268 -24.68011375 -5.54275123 0 0 Z M-79 15 C-79.79212891 15.17692383 -80.58425781 15.35384766 -81.40039062 15.53613281 C-113.41659569 22.89807989 -143.59615157 37.9001758 -168 60 C-168.80308594 60.68835937 -169.60617188 61.37671875 -170.43359375 62.0859375 C-176.39712681 67.25977896 -181.21629373 72.74234734 -186 79 C-186.84812267 80.04057355 -187.69987738 81.07819428 -188.5546875 82.11328125 C-213.18227687 112.16609151 -230.27806985 152.15268862 -230.12025452 191.40931702 C-230.12111053 192.20323349 -230.12196655 192.99714996 -230.12284851 193.81512451 C-230.12449009 196.45628173 -230.11900241 199.09737407 -230.11352539 201.73852539 C-230.11321876 203.67199673 -230.11335305 205.60546819 -230.11389065 207.53893948 C-230.11411567 212.69943881 -230.10833525 217.85991479 -230.10128021 223.02040863 C-230.09556978 227.86936005 -230.09531625 232.7183059 -230.09460449 237.56726074 C-230.08936483 251.73234357 -230.07540361 265.89742208 -230.0625 280.0625 C-230.041875 311.721875 -230.02125 343.38125 -230 376 C-105.26 376 19.48 376 148 376 C148.0825 344.299375 148.165 312.59875 148.25 279.9375 C148.28641602 269.966521 148.32283203 259.99554199 148.36035156 249.72241211 C148.37373789 240.70289124 148.37373789 240.70289124 148.3817749 231.68336487 C148.38546779 227.6984497 148.40032093 223.71375255 148.42230225 219.72889709 C148.84482625 188.62132631 148.84482625 188.62132631 144 158 C143.70830429 156.78128708 143.41660858 155.56257416 143.11607361 154.30693054 C142.43887426 151.60284476 141.66560465 148.96571235 140.8125 146.3125 C140.51843262 145.37591553 140.22436523 144.43933105 139.92138672 143.47436523 C136.72215212 133.62679907 132.63327358 124.25060472 128 115 C127.65243652 114.30358398 127.30487305 113.60716797 126.94677734 112.88964844 C117.81646598 94.94102495 105.22791353 79.160222 91 65 C90.50322754 64.50064941 90.00645508 64.00129883 89.49462891 63.48681641 C65.46053269 39.58276602 32.83568132 23.32090475 0 15.8125 C-0.67506592 15.65740967 -1.35013184 15.50231934 -2.0456543 15.3425293 C-15.07314464 12.53573761 -27.91258798 11.62150154 -41.1875 11.6875 C-41.95280029 11.68932281 -42.71810059 11.69114563 -43.5065918 11.69302368 C-55.55054116 11.74118316 -67.21406753 12.32983037 -79 15 Z " fill="#000000" transform="translate(297,3)"/>
<path d="M0 0 C0.76717295 0.00234117 1.5343459 0.00468233 2.32476652 0.00709444 C3.13604013 0.005641 3.94731375 0.00418756 4.78317142 0.00269008 C7.53691776 -0.00099691 10.29060969 0.0025289 13.04435575 0.00595194 C15.02441058 0.00480119 17.0044652 0.00321397 18.98451936 0.0012247 C24.45309057 -0.0029749 29.92164446 -0.00087511 35.39021575 0.00221092 C41.27711741 0.00446225 47.16401598 0.00098674 53.05091703 -0.00176901 C63.92604126 -0.00597043 74.80115949 -0.00558977 85.67628404 -0.00285754 C95.72134866 -0.00034611 105.76641124 0.00031665 115.81147611 -0.00088018 C116.4767087 -0.00095657 117.14194129 -0.00103295 117.82733244 -0.00111165 C120.5274446 -0.00142297 123.22755675 -0.00174137 125.9276689 -0.00207142 C151.278404 -0.00513329 176.62913555 -0.0023524 201.9798701 0.00302548 C224.52309573 0.0077714 247.06631571 0.00734679 269.6095413 0.00256449 C294.91267424 -0.0027853 320.21580404 -0.00491618 345.51893747 -0.00182325 C348.21424901 -0.00150251 350.90956056 -0.00118967 353.60487211 -0.00088018 C354.26857041 -0.0008011 354.93226872 -0.00072203 355.6160791 -0.00064055 C365.65704237 0.00049892 375.69800339 -0.00083708 385.73896635 -0.00335974 C397.15120869 -0.00615691 408.56344416 -0.00542124 419.97568572 -0.00007899 C425.80453738 0.00255915 431.63337754 0.00356119 437.46222913 0.00027186 C442.78900034 -0.00268881 448.1157493 -0.00110217 453.44251847 0.00424941 C455.37856334 0.00537459 457.31461005 0.00478022 459.25065374 0.00237362 C461.86432386 -0.00062826 464.47791581 0.00241192 467.0915817 0.00709444 C467.85875465 0.00475328 468.6259276 0.00241211 469.41634822 0 C474.59402377 0.01878524 474.59402377 0.01878524 475.70817411 1.13293558 C475.80934331 4.22375024 475.84785969 7.29176113 475.84098661 10.38293558 C475.8424217 11.77560648 475.8424217 11.77560648 475.84388578 13.19641215 C475.84456766 15.16353523 475.84271283 17.13066055 475.8385452 19.09777933 C475.83319706 22.11996585 475.83848993 25.14200373 475.84489286 28.16418558 C475.84423208 30.07043591 475.84295092 31.97668615 475.84098661 33.88293558 C475.84301084 34.79333597 475.84503507 35.70373636 475.84712064 36.64172465 C475.8231238 43.0179859 475.8231238 43.0179859 474.70817411 44.13293558 C472.16047114 44.2327076 469.63982985 44.26655316 467.0915817 44.25877672 C465.87467128 44.26095689 465.87467128 44.26095689 464.6331768 44.26318109 C461.87943045 44.26686808 459.12573853 44.26334227 456.37199247 44.25991923 C454.39193764 44.26106998 452.41188302 44.26265719 450.43182886 44.26464647 C444.96325765 44.26884607 439.49470375 44.26674628 434.02613246 44.26366025 C428.13923081 44.26140892 422.25233224 44.26488443 416.36543119 44.26764017 C405.49030696 44.2718416 394.61518872 44.27146093 383.74006417 44.26872871 C373.69499956 44.26621728 363.64993698 44.26555451 353.60487211 44.26675135 C352.93963952 44.26682773 352.27440693 44.26690412 351.58901577 44.26698282 C348.88890362 44.26729414 346.18879147 44.26761253 343.48867932 44.26794258 C318.13794422 44.27100446 292.78721267 44.26822357 267.43647812 44.26284569 C244.89325249 44.25809976 222.35003251 44.25852438 199.80680692 44.26330668 C174.50367398 44.26865646 149.20054418 44.27078735 123.89741075 44.26769441 C121.2020992 44.26737368 118.50678766 44.26706084 115.81147611 44.26675135 C115.1477778 44.26667227 114.4840795 44.26659319 113.80026912 44.26651172 C103.75930585 44.26537224 93.71834483 44.26670825 83.67738187 44.2692309 C72.26513952 44.27202807 60.85290406 44.2712924 49.4406625 44.26595016 C43.61181084 44.26331202 37.78297068 44.26230997 31.95411909 44.26559931 C26.62734787 44.26855997 21.30059891 44.26697334 15.97382975 44.26162176 C14.03778488 44.26049658 12.10173817 44.26109095 10.16569448 44.26349755 C7.55202436 44.26649943 4.93843241 44.26345925 2.32476652 44.25877672 C1.55759357 44.26111789 0.79042062 44.26345906 0 44.26587117 C-5.17767555 44.24708592 -5.17767555 44.24708592 -6.29182589 43.13293558 C-6.3929951 40.04212093 -6.43151147 36.97411003 -6.42463839 33.88293558 C-6.42559512 32.95448832 -6.42655184 32.02604105 -6.42753756 31.06945902 C-6.42821944 29.10233594 -6.42636461 27.13521062 -6.42219698 25.16809183 C-6.41684884 22.14590532 -6.42214171 19.12386744 -6.42854464 16.10168558 C-6.42788386 14.19543525 -6.4266027 12.28918502 -6.42463839 10.38293558 C-6.42666262 9.47253519 -6.42868685 8.5621348 -6.43077242 7.62414652 C-6.40216662 0.02322785 -6.40216662 0.02322785 0 0 Z " fill="#FEFEFE" transform="translate(21.291825890541077,452.86706441640854)"/>
<path d="M0 0 C0.72685493 -0.00145344 1.45370986 -0.00290688 2.2025907 -0.00440437 C4.66916897 -0.00809062 7.13568646 -0.00456589 9.6022644 -0.0011425 C11.37607925 -0.00229329 13.14989386 -0.00388052 14.92370796 -0.00586975 C19.82220114 -0.01006895 24.720675 -0.00796973 29.61916828 -0.00488353 C34.89256742 -0.00263204 40.16596311 -0.00610778 45.43936157 -0.00886345 C55.77950089 -0.01332284 66.11963298 -0.01234393 76.45977259 -0.00945081 C84.85934159 -0.00719744 93.25890856 -0.00688396 101.65847778 -0.00797462 C102.8514589 -0.00812786 104.04444002 -0.00828109 105.27357209 -0.00843897 C107.69667482 -0.00875867 110.11977756 -0.00908289 112.5428803 -0.00941156 C135.29357422 -0.01226685 158.04426413 -0.00897857 180.7949574 -0.00361119 C200.33928961 0.00085689 219.88361589 0.00008097 239.427948 -0.00452995 C262.09419541 -0.00987486 284.76043929 -0.01199215 307.42668724 -0.00891769 C309.84114965 -0.00859912 312.25561205 -0.00828475 314.67007446 -0.00797462 C315.85820618 -0.00782035 317.04633789 -0.00766607 318.2704736 -0.00750712 C326.66527142 -0.00664171 335.06006702 -0.00810535 343.4548645 -0.01045418 C353.67767858 -0.01325145 363.90048498 -0.01251547 374.12329817 -0.00717343 C379.34457033 -0.00453543 384.56582966 -0.00353302 389.78710175 -0.00682259 C394.55874703 -0.00978353 399.33036748 -0.00819615 404.10201049 -0.00284503 C405.83617241 -0.00171998 407.57033639 -0.00231396 409.304497 -0.00472082 C411.64587939 -0.00772333 413.98717457 -0.00468189 416.32855225 0 C418.28652646 0.00024353 418.28652646 0.00024353 420.28405571 0.00049198 C423.16427612 0.12584114 423.16427612 0.12584114 424.16427612 1.12584114 C424.16427612 15.31584114 424.16427612 29.50584114 424.16427612 44.12584114 C281.60427612 44.12584114 139.04427612 44.12584114 -7.83572388 44.12584114 C-7.83572388 0.00097459 -7.83572388 0.00097459 0 0 Z " fill="#FEFEFE" transform="translate(47.835723876953125,393.87415885925293)"/>
<path d="M0 0 C7.46684514 5.61144725 12.70897122 15.04484989 14.67578125 24.1171875 C16.04860693 36.32375796 14.14653245 47.81825906 6.76171875 57.9375 C-0.78616041 66.77404146 -9.38834657 72.51882846 -21 74 C-34.29599724 75.025537 -44.8751436 71.61656432 -55.23046875 63.18359375 C-62.94304892 56.02087858 -67.40605284 46.71298418 -68.3359375 36.203125 C-68.47045093 22.59036571 -65.56339642 12.91793063 -56 2.90625 C-39.98640728 -12.42104589 -17.69730933 -12.74934806 0 0 Z " fill="#020202" transform="translate(185,250)"/>
<path d="M0 0 C4.06098976 3.37024844 5.81446793 6.2527821 7.31640625 11.26953125 C7.68644775 12.48165283 8.05648926 13.69377441 8.43774414 14.94262695 C8.81327743 16.23240583 9.18818601 17.52236674 9.5625 18.8125 C9.95531418 20.12423732 10.34911614 21.43567924 10.74389648 22.74682617 C13.4377412 31.76284359 15.93245967 40.81896428 18 50 C18.66 50 19.32 50 20 50 C20.1959375 49.16984375 20.391875 48.3396875 20.59375 47.484375 C22.88429729 38.04574046 25.40191662 28.67090238 28 19.3125 C28.49790039 17.46833496 28.49790039 17.46833496 29.00585938 15.58691406 C29.33392578 14.41999023 29.66199219 13.25306641 30 12.05078125 C30.28875 11.00575439 30.5775 9.96072754 30.875 8.8840332 C32.36212282 5.07166734 34.26147887 1.86926057 38 0 C41.44444688 -0.38271632 43.53044052 -0.21839976 46.6875 1.25 C53.33236501 9.15200164 53.64966446 24.16059809 55.53442383 34.19042969 C56.06153403 36.99486064 56.59379901 39.79827493 57.12695312 42.6015625 C62.59859076 71.45775638 62.59859076 71.45775638 62 79 C60.47864429 81.05968157 59.57422788 81.87149336 57.0625 82.43359375 C56.381875 82.43488281 55.70125 82.43617188 55 82.4375 C54.319375 82.45683594 53.63875 82.47617188 52.9375 82.49609375 C50.11471748 81.77332484 49.52496065 80.45606886 48 78 C47.12451172 74.96313477 47.12451172 74.96313477 46.4296875 71.44140625 C46.17316406 70.16845703 45.91664063 68.89550781 45.65234375 67.58398438 C45.39298663 66.24353649 45.1338743 64.90304121 44.875 63.5625 C44.60903685 62.22571931 44.34211902 60.8891282 44.07421875 59.55273438 C43.37354047 56.03689437 42.68537346 52.51884737 42 49 C41.80937988 48.11562256 41.61875977 47.23124512 41.42236328 46.32006836 C40.85411937 43.19866843 40.93795557 40.16426591 41 37 C40.01 37.495 40.01 37.495 39 38 C38.08645124 40.81401912 37.28699352 43.59444486 36.5390625 46.453125 C36.06270431 48.20448267 35.58613506 49.95578294 35.109375 51.70703125 C34.36593641 54.47531015 33.62644209 57.24456288 32.89160156 60.01513672 C32.18036298 62.6849068 31.45423187 65.35029416 30.7265625 68.015625 C30.51287018 68.83975891 30.29917786 69.66389282 30.07901001 70.51300049 C28.8025336 75.16039354 27.45253872 78.46552494 24 82 C21.14675563 83.42662219 19.16545451 83.31033868 16 83 C10.50976251 79.81577999 9.49819217 75.70367394 7.88671875 69.9296875 C7.62744095 69.05224884 7.36816315 68.17481018 7.10102844 67.27078247 C6.28003963 64.4766947 5.48388752 61.67618668 4.6875 58.875 C4.13370763 56.98261975 3.57838561 55.09068643 3.02148438 53.19921875 C-1 39.43690088 -1 39.43690088 -1 37 C-1.66 37 -2.32 37 -3 37 C-3.10570312 38.31097656 -3.21140625 39.62195313 -3.3203125 40.97265625 C-4.00611302 47.79817613 -5.22292767 54.52198771 -6.47412109 61.26147461 C-6.87833587 63.45560754 -7.26535822 65.65238071 -7.65234375 67.84960938 C-7.91041027 69.25279733 -8.16948792 70.65579978 -8.4296875 72.05859375 C-8.65897949 73.31986084 -8.88827148 74.58112793 -9.12451172 75.88061523 C-9.9796752 78.92758229 -10.46805873 80.18242497 -13 82 C-14.9375 82.43359375 -14.9375 82.43359375 -17 82.4375 C-17.680625 82.45683594 -18.36125 82.47617188 -19.0625 82.49609375 C-21.87923627 81.77487297 -22.53183784 80.46522288 -24 78 C-25.21242471 65.82438906 -21.0131116 52.14082991 -18.76196289 40.25708008 C-18.05986902 36.54860311 -17.36983784 32.83803154 -16.68164062 29.12695312 C-16.23767809 26.75247338 -15.79304049 24.37811973 -15.34765625 22.00390625 C-15.14237808 20.90276993 -14.93709991 19.80163361 -14.7256012 18.66712952 C-11.95595064 4.09757295 -11.95595064 4.09757295 -9.3125 1.0625 C-5.94503746 -0.48471252 -3.66297593 -0.51410188 0 0 Z " fill="#020202" transform="translate(292,136)"/>
<path d="M0 0 C1.16466797 -0.02771484 2.32933594 -0.05542969 3.52929688 -0.08398438 C12.13406635 -0.06001566 18.77236637 1.83671507 25.9375 6.6875 C31.06170159 11.92550547 34.21767338 17.55410129 34.25 25 C34.07260729 32.77397452 31.95554272 38.38919458 26.6875 44.14453125 C22.98462629 47.40934178 18.90791831 49.6875 13.9375 49.6875 C14.30359375 50.10257812 14.6696875 50.51765625 15.046875 50.9453125 C19.16165157 55.62832012 23.24317225 60.33999546 27.3125 65.0625 C27.84842773 65.68141113 28.38435547 66.30032227 28.93652344 66.93798828 C33.82138732 72.61926335 33.82138732 72.61926335 34.25 76.5625 C33.9375 79.6875 33.9375 79.6875 32.3125 82.0625 C29.20715639 84.18720879 27.6361604 84.29136292 23.9375 83.6875 C18.49602805 80.33890188 14.58181818 74.8172529 10.49853516 69.984375 C9.43733861 68.72978436 8.37472324 67.47639264 7.31079102 66.22412109 C6.24119359 64.96454104 5.17517856 63.70190881 4.11303711 62.43603516 C1.84411566 59.76225177 -0.12685827 57.64459448 -3.0625 55.6875 C-3.04155273 56.39358398 -3.02060547 57.09966797 -2.99902344 57.82714844 C-2.91580702 61.03045376 -2.86382215 64.23353163 -2.8125 67.4375 C-2.77898437 68.54867187 -2.74546875 69.65984375 -2.7109375 70.8046875 C-2.69804687 71.87460937 -2.68515625 72.94453125 -2.671875 74.046875 C-2.65092773 75.03139648 -2.62998047 76.01591797 -2.60839844 77.03027344 C-3.19097443 80.43928266 -4.36318383 81.59263567 -7.0625 83.6875 C-10.0625 84.1875 -10.0625 84.1875 -13.0625 83.6875 C-15.36525556 81.8204009 -16.74073871 80.33102259 -18.0625 77.6875 C-18.18028055 75.43730297 -18.2323656 73.18357986 -18.25537109 70.93041992 C-18.26354858 70.23590225 -18.27172607 69.54138458 -18.28015137 68.82582092 C-18.30500069 66.52321231 -18.32152027 64.22066534 -18.3359375 61.91796875 C-18.34126118 61.13169916 -18.34658485 60.34542957 -18.35206985 59.53533363 C-18.37879975 55.37341919 -18.3981749 51.21153471 -18.41259766 47.04956055 C-18.42924332 42.7518331 -18.47401986 38.45487284 -18.5249691 34.15743542 C-18.55863432 30.85198593 -18.57017421 27.5467187 -18.57582474 24.24111366 C-18.58253956 22.65705821 -18.59776785 21.07301486 -18.62171555 19.48912621 C-18.65335686 17.26970393 -18.65340691 15.05235251 -18.64599609 12.83276367 C-18.65408295 11.57082687 -18.6621698 10.30889008 -18.67050171 9.00871277 C-16.82702452 -1.06129176 -8.19589364 -0.10195 0 0 Z " fill="#040404" transform="translate(361.0625,240.3125)"/>
<path d="M0 0 C2.375 1.9375 2.375 1.9375 4.375 4.9375 C4.1846754 7.98269365 3.82728903 10.18368495 2.25 12.8125 C-0.85687223 14.67662334 -3.04311155 14.33548761 -6.625 13.9375 C-8.18127655 13.30569001 -9.72227884 12.63553195 -11.25 11.9375 C-17.87760245 9.1086453 -25.11719365 8.51703369 -32.0546875 10.703125 C-34.04340058 11.64870179 -35.80817312 12.69737473 -37.625 13.9375 C-38.511875 14.47375 -39.39875 15.01 -40.3125 15.5625 C-45.60083959 20.99376769 -49.00831746 28.96432221 -48.91015625 36.55078125 C-48.12635007 43.11113162 -45.53849033 50.42240078 -40.625 54.9375 C-32.32425527 60.13474625 -26.52229382 61.73716425 -16.625 60.9375 C-11.56143711 59.67562798 -8.61769686 57.38890971 -5.75 53.0625 C-3.87957601 49.83176765 -2.74879437 46.49112004 -1.625 42.9375 C-2.57761719 42.98390625 -3.53023437 43.0303125 -4.51171875 43.078125 C-5.76597656 43.11421875 -7.02023438 43.1503125 -8.3125 43.1875 C-9.55386719 43.23390625 -10.79523438 43.2803125 -12.07421875 43.328125 C-16.21281707 42.87283366 -17.78974981 41.93765218 -20.625 38.9375 C-21.25 35.4375 -21.25 35.4375 -20.625 31.9375 C-18.37449681 29.14187493 -16.5035185 28.06795398 -12.95166016 27.54052734 C-9.66665441 27.36143905 -6.4145783 27.3430441 -3.125 27.375 C-1.99707031 27.35115234 -0.86914062 27.32730469 0.29296875 27.30273438 C8.47754433 27.31726321 8.47754433 27.31726321 12.625 30.18359375 C15.85202823 35.2618413 14.94105616 40.02635403 13.828125 45.75 C11.02635825 56.95706699 6.41875607 65.99467563 -3.5625 72.25 C-13.72028328 77.90158565 -24.05695362 78.44896248 -35.25 75.4375 C-46.23474978 71.64325068 -53.92564553 64.9888072 -59.625 54.9375 C-60.058125 54.21433594 -60.49125 53.49117187 -60.9375 52.74609375 C-65.42021061 43.7962375 -65.09762258 31.90618266 -62.7421875 22.359375 C-58.60085386 11.66321528 -51.74401256 3.40035154 -41.625 -2.0625 C-27.81738793 -7.9925799 -12.99956133 -8.15226727 0 0 Z " fill="#020202" transform="translate(162.625,142.0625)"/>
<path d="M0 0 C6.38083762 4.04266131 8.08606456 9.13330618 10.53125 16.08203125 C10.93025513 17.16900803 11.32926025 18.2559848 11.74035645 19.37590027 C13.01083651 22.84876429 14.2558326 26.33013382 15.5 29.8125 C16.33554338 32.11194518 17.17276721 34.41078047 18.01171875 36.70898438 C19.62680546 41.13714112 21.22796625 45.56996866 22.8203125 50.00634766 C24.14358083 53.67695565 25.50076117 57.32773269 26.9296875 60.95849609 C27.2146106 61.68751633 27.49953369 62.41653656 27.79309082 63.16764832 C28.52625018 65.02794658 29.27317868 66.88280305 30.02148438 68.73706055 C31.10535917 72.35132866 31.29305303 75.24625197 31 79 C29.375 81.4375 29.375 81.4375 27 83 C24 83.5 24 83.5 21 83 C17.57302979 80.18779162 16.16301913 77.53555632 14.75 73.375 C14.41484375 72.41335937 14.0796875 71.45171875 13.734375 70.4609375 C13 68 13 68 13 66 C-2.345 66.495 -2.345 66.495 -18 67 C-19.98 71.62 -21.96 76.24 -24 81 C-27.49124017 83.32749345 -28.89222251 83.50299316 -33 83 C-35.375 81.4375 -35.375 81.4375 -37 79 C-37.91640551 71.99693219 -35.11527028 66.17227724 -32.58203125 59.7421875 C-32.12777267 58.56214142 -31.6735141 57.38209534 -31.20549011 56.16629028 C-29.99753318 53.03454819 -28.77964586 49.90705823 -27.55664062 46.78118896 C-26.33084915 43.64120425 -25.11806289 40.49621059 -23.90429688 37.3515625 C-21.69717476 31.64020429 -19.48674868 25.93026019 -17.24258423 20.2333374 C-16.37687973 17.98068146 -15.54780258 15.713752 -14.74740601 13.43707275 C-14.33407013 12.28108582 -13.92073425 11.12509888 -13.49487305 9.93408203 C-13.13467575 8.89172394 -12.77447845 7.84936584 -12.40336609 6.77542114 C-9.6974753 1.42401172 -5.9799032 -1.09834957 0 0 Z " fill="#020202" transform="translate(221,136)"/>
<path d="M0 0 C0.71353638 -0.00241196 1.42707275 -0.00482391 2.16223145 -0.00730896 C3.66501444 -0.0063331 5.16783454 0.0069986 6.67041016 0.03198242 C8.96251287 0.06631283 11.25075972 0.05262863 13.54296875 0.03320312 C15.00782881 0.04010207 16.47267897 0.04977492 17.9375 0.0625 C18.61784302 0.05754013 19.29818604 0.05258026 19.99914551 0.04747009 C23.46882964 0.1327693 25.4306396 0.60532179 28.40429688 2.44555664 C30.46875 4.62890625 30.46875 4.62890625 31.03125 8.12890625 C30.37714634 12.19888456 29.66325566 13.13980344 26.46875 15.62890625 C23.81152344 16.08300781 23.81152344 16.08300781 20.828125 16.01953125 C19.75820313 16.00664062 18.68828125 15.99375 17.5859375 15.98046875 C16.47476562 15.94695312 15.36359375 15.9134375 14.21875 15.87890625 C13.09210938 15.86085938 11.96546875 15.8428125 10.8046875 15.82421875 C8.02567821 15.7771169 5.24710631 15.70537477 2.46875 15.62890625 C2.46875 21.89890625 2.46875 28.16890625 2.46875 34.62890625 C3.92667969 34.5825 5.38460938 34.53609375 6.88671875 34.48828125 C8.80987532 34.45075624 10.73305408 34.41435687 12.65625 34.37890625 C13.61595703 34.34539062 14.57566406 34.311875 15.56445312 34.27734375 C19.988159 34.21611599 22.70521997 34.1915167 26.60546875 36.42578125 C28.46875 38.62890625 28.46875 38.62890625 29.09375 42.12890625 C28.46875 45.62890625 28.46875 45.62890625 26.60546875 47.83203125 C21.99491813 50.4731935 17.86687002 50.06087552 12.65625 49.87890625 C11.18768555 49.85183594 11.18768555 49.85183594 9.68945312 49.82421875 C7.28212997 49.77724659 4.87531257 49.70550771 2.46875 49.62890625 C2.46875 55.89890625 2.46875 62.16890625 2.46875 68.62890625 C4.99789063 68.55929687 4.99789063 68.55929687 7.578125 68.48828125 C9.79164897 68.45076389 12.00519207 68.4143637 14.21875 68.37890625 C15.32992188 68.34539062 16.44109375 68.311875 17.5859375 68.27734375 C18.65585937 68.26445312 19.72578125 68.2515625 20.828125 68.23828125 C22.30490723 68.20686035 22.30490723 68.20686035 23.81152344 68.17480469 C27.23212465 68.75936168 28.380473 69.90554095 30.46875 72.62890625 C31.03125 76.12890625 31.03125 76.12890625 30.46875 79.62890625 C27.68135843 82.57682995 25.98919099 83.54998041 21.95117188 84.16235352 C20.61364027 84.19523558 19.27540018 84.20506612 17.9375 84.1953125 C17.22396362 84.20151108 16.51042725 84.20770966 15.77526855 84.21409607 C14.27255614 84.22117329 12.76976497 84.2180568 11.26708984 84.20532227 C8.97476356 84.19144266 6.6865139 84.22556232 4.39453125 84.26367188 C2.92968651 84.2646231 1.46483668 84.26276407 0 84.2578125 C-0.68034302 84.27107071 -1.36068604 84.28432892 -2.06164551 84.29798889 C-5.63737612 84.22841856 -7.37002882 83.75466846 -10.21066284 81.5388031 C-13.10760972 77.90618083 -13.16380223 76.04566616 -13.17822266 71.43945312 C-13.18698425 70.7347438 -13.19574585 70.03003448 -13.20477295 69.30397034 C-13.22670221 66.98456456 -13.21223981 64.6670799 -13.1953125 62.34765625 C-13.19868256 60.73009883 -13.20353677 59.11254389 -13.20980835 57.49499512 C-13.21717081 54.10888502 -13.2064952 50.7234355 -13.18310547 47.33740234 C-13.15461706 43.00258557 -13.17102453 38.66931659 -13.20096779 34.33455658 C-13.2190583 30.99554842 -13.21327492 27.65690568 -13.20032883 24.31788635 C-13.19699961 22.71993322 -13.20106491 21.12194664 -13.21272659 19.52403259 C-13.22546553 17.28791786 -13.2060218 15.05428941 -13.17822266 12.81835938 C-13.17424469 11.5477063 -13.17026672 10.27705322 -13.16616821 8.96789551 C-11.76387095 1.59331498 -6.82587776 -0.13301954 0 0 Z " fill="#020202" transform="translate(297.53125,240.37109375)"/>
<path d="M0 0 C0.71353638 -0.00241196 1.42707275 -0.00482391 2.16223145 -0.00730896 C3.66501444 -0.0063331 5.16783454 0.0069986 6.67041016 0.03198242 C8.96251287 0.06631283 11.25075972 0.05262863 13.54296875 0.03320312 C15.00782881 0.04010207 16.47267897 0.04977492 17.9375 0.0625 C18.61784302 0.05754013 19.29818604 0.05258026 19.99914551 0.04747009 C23.46882964 0.1327693 25.4306396 0.60532179 28.40429688 2.44555664 C30.46875 4.62890625 30.46875 4.62890625 31.03125 8.12890625 C30.37714634 12.19888456 29.66325566 13.13980344 26.46875 15.62890625 C23.81152344 16.08300781 23.81152344 16.08300781 20.828125 16.01953125 C19.75820313 16.00664062 18.68828125 15.99375 17.5859375 15.98046875 C16.47476562 15.94695312 15.36359375 15.9134375 14.21875 15.87890625 C13.09210938 15.86085937 11.96546875 15.8428125 10.8046875 15.82421875 C8.02567821 15.7771169 5.24710631 15.70537477 2.46875 15.62890625 C2.46875 21.89890625 2.46875 28.16890625 2.46875 34.62890625 C3.92667969 34.5825 5.38460938 34.53609375 6.88671875 34.48828125 C8.80987532 34.45075624 10.73305408 34.41435687 12.65625 34.37890625 C13.61595703 34.34539062 14.57566406 34.311875 15.56445312 34.27734375 C19.988159 34.21611599 22.70521997 34.1915167 26.60546875 36.42578125 C28.46875 38.62890625 28.46875 38.62890625 29.09375 42.12890625 C28.46875 45.62890625 28.46875 45.62890625 26.60546875 47.83203125 C21.99491813 50.4731935 17.86687002 50.06087552 12.65625 49.87890625 C11.18768555 49.85183594 11.18768555 49.85183594 9.68945312 49.82421875 C7.28212997 49.77724659 4.87531257 49.70550771 2.46875 49.62890625 C2.46875 55.89890625 2.46875 62.16890625 2.46875 68.62890625 C4.99789063 68.55929688 4.99789063 68.55929688 7.578125 68.48828125 C9.79164897 68.45076389 12.00519207 68.4143637 14.21875 68.37890625 C15.32992188 68.34539062 16.44109375 68.311875 17.5859375 68.27734375 C18.65585937 68.26445312 19.72578125 68.2515625 20.828125 68.23828125 C22.30490723 68.20686035 22.30490723 68.20686035 23.81152344 68.17480469 C27.23212465 68.75936168 28.380473 69.90554095 30.46875 72.62890625 C31.03125 76.12890625 31.03125 76.12890625 30.46875 79.62890625 C27.68135843 82.57682995 25.98919099 83.54998041 21.95117188 84.16235352 C20.61364027 84.19523558 19.27540018 84.20506612 17.9375 84.1953125 C17.22396362 84.20151108 16.51042725 84.20770966 15.77526855 84.21409607 C14.27255614 84.22117329 12.76976497 84.2180568 11.26708984 84.20532227 C8.97476356 84.19144266 6.6865139 84.22556232 4.39453125 84.26367188 C2.92968651 84.2646231 1.46483668 84.26276407 0 84.2578125 C-0.68034302 84.27107071 -1.36068604 84.28432892 -2.06164551 84.29798889 C-5.63737612 84.22841856 -7.37002882 83.75466846 -10.21066284 81.5388031 C-13.10760972 77.90618083 -13.16380223 76.04566616 -13.17822266 71.43945312 C-13.18698425 70.7347438 -13.19574585 70.03003448 -13.20477295 69.30397034 C-13.22670221 66.98456456 -13.21223981 64.6670799 -13.1953125 62.34765625 C-13.19868256 60.73009883 -13.20353677 59.11254389 -13.20980835 57.49499512 C-13.21717081 54.10888502 -13.2064952 50.7234355 -13.18310547 47.33740234 C-13.15461706 43.00258557 -13.17102453 38.66931659 -13.20096779 34.33455658 C-13.2190583 30.99554842 -13.21327492 27.65690568 -13.20032883 24.31788635 C-13.19699961 22.71993322 -13.20106491 21.12194664 -13.21272659 19.52403259 C-13.22546553 17.28791786 -13.2060218 15.05428941 -13.17822266 12.81835938 C-13.17424469 11.5477063 -13.17026672 10.27705322 -13.16616821 8.96789551 C-11.76387095 1.59331498 -6.82587776 -0.13301954 0 0 Z " fill="#020202" transform="translate(382.53125,135.37109375)"/>
<path d="M0 0 C3.19814887 2.67094714 4.68253453 5.03654088 6.01464844 8.95214844 C6.3546991 9.93286316 6.69474976 10.91357788 7.04510498 11.92401123 C7.39631409 12.97518127 7.74752319 14.02635132 8.109375 15.109375 C8.66688446 16.73229462 8.66688446 16.73229462 9.23565674 18.38800049 C10.41811679 21.83835252 11.5842236 25.29397974 12.75 28.75 C13.54970905 31.09281418 14.35047792 33.43526688 15.15234375 35.77734375 C17.11387141 41.51409424 19.06200812 47.25525884 21 53 C22.75754827 50.3636776 23.58642292 48.56252008 24.5246582 45.60791016 C24.80867996 44.72334137 25.09270172 43.83877258 25.3853302 42.92739868 C25.68742905 41.97424774 25.98952789 41.0210968 26.30078125 40.0390625 C26.95444861 38.02062936 27.60876589 36.00240659 28.26367188 33.984375 C29.29064181 30.80452451 30.31299239 27.62344878 31.32397461 24.43847656 C32.30256806 21.36323771 33.30015807 18.29469255 34.30078125 15.2265625 C34.74482048 13.80290878 34.74482048 13.80290878 35.1978302 12.35049438 C36.94936323 7.03359705 38.45190354 3.39872427 43 0 C46.81063242 -0.06570056 48.97432915 0.19869465 52 2.5625 C55.15913979 10.26290325 49.74716762 20.59794289 47.265625 28.078125 C46.78561514 29.53678836 46.30578002 30.99550924 45.82611084 32.45428467 C44.82274588 35.49868529 43.8131303 38.54093251 42.79980469 41.58203125 C41.50461899 45.47268588 40.2317276 49.37024701 38.96417618 53.26997757 C37.98195736 56.27978828 36.98481003 59.28449564 35.98345184 62.28798676 C35.50765995 63.72308944 35.03723752 65.15998428 34.57239532 66.59867096 C33.92094268 68.60944406 33.24884262 70.61215411 32.57128906 72.61425781 C32.19458069 73.75372864 31.81787231 74.89319946 31.42974854 76.06719971 C29.77609064 79.45929855 28.15734227 80.97346189 25 83 C20.9970228 83.49016047 18.40532552 83.12842231 15 81 C13.90960693 79.32730103 13.90960693 79.32730103 13.06152344 77.24853516 C12.73051636 76.43942688 12.39950928 75.6303186 12.05847168 74.79669189 C9.95407207 69.23645119 7.96054095 63.64116032 6.015625 58.0234375 C5.55054888 56.68542381 5.08544004 55.3474215 4.62030029 54.00942993 C3.65255354 51.22183535 2.68834294 48.43304461 1.72607422 45.64355469 C0.4965542 42.08171141 -0.74662894 38.52479868 -1.9930687 34.96884727 C-2.95606063 32.21402679 -3.90930282 29.45590458 -4.85993195 26.69679642 C-5.31407214 25.3839389 -5.77175286 24.07230022 -6.23314667 22.76197433 C-6.87759312 20.92870817 -7.50695763 19.09016168 -8.13574219 17.25146484 C-8.49674011 16.21049652 -8.85773804 15.1695282 -9.22967529 14.09701538 C-10.10066514 10.59528563 -10.24041525 7.59569835 -10 4 C-7.26646839 -0.10029741 -4.80388991 -0.80064832 0 0 Z " fill="#030303" transform="translate(217,241)"/>
<path d="M0 0 C6.75800292 3.95876081 11.26152925 9.72805932 13.25390625 17.3203125 C14.41533833 26.18072221 13.06663716 34.05125997 7.78125 41.35546875 C2.74395271 46.96437424 -3.29161902 49.69656835 -10.703125 50.734375 C-18.078582 51.09415339 -23.74451768 49.67044817 -29.74609375 45.3203125 C-35.67358034 39.90998917 -39.26799568 35.11241175 -40.08203125 26.953125 C-40.18936742 17.31433702 -39.02089006 11.70889563 -32.55859375 4.5703125 C-23.3267779 -3.97694074 -11.38121982 -5.22476544 0 0 Z " fill="#FDFDFD" transform="translate(171.74609375,258.6796875)"/>
<path d="M0 0 C3.5578125 -0.0928125 3.5578125 -0.0928125 7.1875 -0.1875 C8.29387817 -0.22846802 8.29387817 -0.22846802 9.42260742 -0.27026367 C13.83935173 -0.32573392 16.52119467 0.27164994 20 3 C22.45058519 6.67587779 22.82568312 9.72980044 22 14 C19.41829375 17.29884688 16.89150683 19.48663623 13 21 C9.765625 21.1953125 9.765625 21.1953125 6.25 21.125 C3.15625 21.063125 3.15625 21.063125 0 21 C0 14.07 0 7.14 0 0 Z " fill="#F6F6F6" transform="translate(358,256)"/>
<path d="M0 0 C0.66 0 1.32 0 2 0 C3.3196608 3.22628592 4.62944528 6.45649304 5.9375 9.6875 C6.31068359 10.59951172 6.68386719 11.51152344 7.06835938 12.45117188 C7.60493164 13.78051758 7.60493164 13.78051758 8.15234375 15.13671875 C8.48226318 15.94842529 8.81218262 16.76013184 9.15209961 17.59643555 C10 20 10 20 11 25 C4.4 25 -2.2 25 -9 25 C-7.03097413 19.09292238 -5.01973895 13.25262088 -2.8125 7.4375 C-2.40354492 6.3537207 -2.40354492 6.3537207 -1.98632812 5.24804688 C-1.3257582 3.49811603 -0.66310684 1.74897111 0 0 Z " fill="#EFEFEF" transform="translate(217,163)"/>
</svg>
